<svg xmlns="http://www.w3.org/2000/svg" width="637.687" height="395.858" viewBox="0 0 637.687 395.858">
  <g id="Group_167" data-name="Group 167" transform="translate(-994.5 -186.756)">
    <g id="freepik--background-complete--inject-9" transform="translate(994.5 280.833)">
      <path id="Path_1143" data-name="Path 1143" d="M155.308,442.707c26.776-17.873,33.313-51.686,32.688-82.173-.1-5.1.558-10.451-1.827-14.95s-8.057-7.634-12.7-5.557c-3.846,1.721-5.6,6.086-7.8,9.691a30.054,30.054,0,0,1-12.258,11.22c-3.307,1.625-7.384,2.6-10.576.779-4.4-2.48-4.807-8.557-4.721-13.614l.615-28.285c.106-5.057.212-10.229-1.317-15.056s-4.971-9.335-9.826-10.758-10.931,1.269-12.037,6.2c-.461,2.057-.067,4.2-.24,6.3s-1.2,4.413-3.24,4.971-4.076-.961-5.586-2.413c-5.211-5.182-8.653-11.816-11.96-18.411s-6.4-13.345-11.114-18.988S72.136,261.479,64.809,261s-15.229,3.846-17.2,10.922,2.134,14.421,6.634,20.248A113.352,113.352,0,0,0,77.769,314.9c1.6,1.163,3.326,2.413,3.923,4.288,1.058,3.394-2.23,6.73-5.624,7.759-3.846,1.192-7.98.74-11.989,1.144s-8.364,2.086-9.931,5.769c-2.182,5.144,2.115,10.624,6.374,14.239a98.122,98.122,0,0,0,28.756,16.959c3.75,1.423,7.691,2.673,10.7,5.336s4.807,7.24,2.884,10.768S96.229,385.772,92.287,385s-7.441-2.952-11.191-4.413c-7-2.73-16.1-2.384-20.709,3.557-3.028,3.9-3.375,9.4-1.923,14.133s4.4,8.826,7.576,12.614c11.095,13.248,25.382,23.987,41.639,29.8s31.371,7.576,47.706,1.923" transform="translate(-47.103 -144.29)" fill="#ebebeb"/>
      <path id="Path_1144" data-name="Path 1144" d="M147.88,423.643c-4.307-15.45-10.451-31.987-17.479-49.033q-2.654-6.4-5.249-12.633c-1.731-4.144-3.451-8.249-5.384-12.162a226.9,226.9,0,0,0-12.393-21.872c-4.288-6.73-8.6-13.037-12.681-18.873s-8.018-11.21-11.8-15.95A181.7,181.7,0,0,0,63.391,272.1c-2.49-2.3-4.48-4.019-5.836-5.163l-1.577-1.3c-.356-.288-.548-.423-.548-.423s.154.173.49.481l1.509,1.356c1.327,1.183,3.288,2.942,5.769,5.269a189,189,0,0,1,19.286,21.151c3.75,4.749,7.634,10.114,11.7,15.95s8.336,12.124,12.6,18.882A227.2,227.2,0,0,1,119.1,350.133c1.923,3.894,3.625,7.97,5.355,12.123l5.24,12.633c7.028,17.075,13.171,33.573,17.507,48.975" transform="translate(-47.424 -144.454)" fill="#e0e0e0"/>
      <path id="Path_1145" data-name="Path 1145" d="M122.15,350.861a11.287,11.287,0,0,0,.5-2.154c.288-1.394.625-3.423,1.019-5.942.788-5.028,1.644-12.008,2.577-19.709s1.923-14.652,2.8-19.642c.442-2.509.827-4.528,1.106-5.922a12.289,12.289,0,0,0,.356-2.182,12.5,12.5,0,0,0-.644,2.125c-.375,1.365-.836,3.384-1.346,5.874-1.029,4.99-2.1,11.95-3.028,19.661s-1.731,14.537-2.346,19.719c-.317,2.413-.577,4.423-.779,5.97A13.154,13.154,0,0,0,122.15,350.861Z" transform="translate(-49.998 -145.615)" fill="#e0e0e0"/>
      <path id="Path_1146" data-name="Path 1146" d="M53.8,339.428a2.46,2.46,0,0,0,.673.115l1.923.2c1.692.154,4.134.385,7.143.769,6.038.721,14.325,2.009,23.411,3.846s17.229,3.846,23.074,5.519c2.884.8,5.288,1.519,6.913,2l1.923.558a2.076,2.076,0,0,0,.673.135,2.884,2.884,0,0,0-.615-.288l-1.836-.683c-1.606-.577-3.942-1.375-6.855-2.24-5.769-1.779-13.969-3.894-23.074-5.769a229.834,229.834,0,0,0-23.545-3.615c-3.028-.308-5.49-.461-7.191-.529l-1.923-.058a2.194,2.194,0,0,0-.692.038Z" transform="translate(-47.361 -147.315)" fill="#e0e0e0"/>
      <path id="Path_1147" data-name="Path 1147" d="M150.85,425.416a5.016,5.016,0,0,0,.442-.8l1.154-2.346c.961-2.038,2.355-5.019,3.99-8.72,3.278-7.413,7.5-17.786,12.008-29.294s8.653-21.9,11.787-29.352c1.567-3.653,2.884-6.643,3.769-8.816.413-.961.75-1.779,1.019-2.4a4.805,4.805,0,0,0,.308-.856,3.577,3.577,0,0,0-.452.788l-1.144,2.346c-.961,2.038-2.355,5.019-3.99,8.73-3.288,7.4-7.5,17.777-12.008,29.285s-8.653,21.9-11.8,29.352l-3.759,8.826c-.423.961-.76,1.769-1.019,2.394A3.363,3.363,0,0,0,150.85,425.416Z" transform="translate(-51.105 -147.448)" fill="#e0e0e0"/>
      <path id="Path_1148" data-name="Path 1148" d="M60.2,398.39a4.566,4.566,0,0,0,.865.346l2.538.865,9.345,3.115c7.884,2.634,18.729,6.413,30.7,10.576s22.853,7.9,30.765,10.412c3.961,1.259,7.182,2.24,9.412,2.884l2.586.731a5.05,5.05,0,0,0,.913.2,4.412,4.412,0,0,0-.875-.356l-2.529-.865-9.345-3.105c-7.884-2.644-18.728-6.422-30.708-10.624s-22.853-7.9-30.765-10.412c-3.961-1.25-7.182-2.24-9.422-2.884l-2.577-.731A4.285,4.285,0,0,0,60.2,398.39Z" transform="translate(-47.608 -149.592)" fill="#e0e0e0"/>
      <rect id="Rectangle_1636" data-name="Rectangle 1636" width="85.144" height="126.312" transform="translate(488.976 181.722) rotate(-68.53)" fill="#ebebeb"/>
      <path id="Path_1149" data-name="Path 1149" d="M705.633,293.546a9.034,9.034,0,0,1-1.509.625l-4.4,1.577-16.267,5.615-53.936,18.18-.442.144-.231-.4-.567-.961c-11.162-19.507-21.257-37.159-28.631-50.071-3.576-6.345-6.48-11.537-8.566-15.239-.961-1.731-1.7-3.115-2.279-4.173a10.211,10.211,0,0,1-.731-1.49,8.43,8.43,0,0,1,.961,1.375c.615,1.029,1.442,2.375,2.461,4.067l8.883,15.056,28.92,49.907.567.961-.673-.26L683.183,300.6l16.344-5.278L704,293.95a8.874,8.874,0,0,1,1.634-.4Z" transform="translate(-67.972 -143.765)" fill="#e0e0e0"/>
      <path id="Path_1150" data-name="Path 1150" d="M555.67,328.447c-.154-.279,12.96-7.691,29.275-16.488s29.679-15.767,29.8-15.489-12.96,7.691-29.285,16.5S555.814,328.706,555.67,328.447Z" transform="translate(-66.722 -145.659)" fill="#e0e0e0"/>
      <path id="Path_1151" data-name="Path 1151" d="M658.2,311.42c.3-.087,4.807,14.133,10.037,31.727s9.239,31.987,8.941,32.073-4.807-14.123-10.037-31.727S657.892,311.516,658.2,311.42Z" transform="translate(-70.677 -146.236)" fill="#e0e0e0"/>
      <rect id="Rectangle_1637" data-name="Rectangle 1637" width="75.558" height="50.927" transform="translate(538.261 30.165) rotate(-23.53)" fill="#ebebeb"/>
      <path id="Path_1152" data-name="Path 1152" d="M676.709,140a5.33,5.33,0,0,1-.375.9l-1.192,2.529-4.5,9.249L655.51,183.264l-.125.25-.269-.077-.654-.173L621.168,174.2,611.1,171.371l-2.731-.8a5.7,5.7,0,0,1-.961-.327,4.4,4.4,0,0,1,.961.192l2.759.673,10.162,2.538,33.342,8.874.663.173-.394.183c5.97-11.874,11.364-22.584,15.306-30.41,1.923-3.846,3.557-6.932,4.692-9.162l1.307-2.471a5.553,5.553,0,0,1,.5-.836Z" transform="translate(-68.718 -139.623)" fill="#e0e0e0"/>
      <path id="Path_1153" data-name="Path 1153" d="M628.59,218.454c-.183,0,2.24-8.72,5.4-19.353s5.894-19.228,6.067-19.171-2.231,8.72-5.4,19.363S628.772,218.454,628.59,218.454Z" transform="translate(-69.535 -141.164)" fill="#e0e0e0"/>
      <path id="Path_1154" data-name="Path 1154" d="M664.21,168.87c.087-.163,8.009,3.951,17.681,9.182s17.44,9.614,17.306,9.787-8-3.942-17.671-9.182S664.124,168.995,664.21,168.87Z" transform="translate(-70.91 -140.737)" fill="#e0e0e0"/>
    </g>
    <g id="freepik--Floor--inject-9" transform="translate(999.324 579.414)">
      <path id="Path_1155" data-name="Path 1155" d="M672.968,450.42c0,.135-138.993.25-310.4.25s-310.443-.115-310.443-.25,138.964-.25,310.443-.25S672.968,450.276,672.968,450.42Z" transform="translate(-52.12 -450.17)" fill="#263238"/>
    </g>
    <g id="freepik--Device--inject-9" transform="translate(1079.199 294.468)">
      <rect id="Rectangle_1638" data-name="Rectangle 1638" width="425.516" height="281.389" rx="14.57" transform="translate(17.834)" fill="#263238"/>
      <path id="Path_1156" data-name="Path 1156" d="M135.248,424.82h461v7.509a17.113,17.113,0,0,1-17.113,17.113H152.313A17.113,17.113,0,0,1,135.2,432.329V424.82Z" transform="translate(-135.2 -164.246)" fill="#263238"/>
      <rect id="Rectangle_1639" data-name="Rectangle 1639" width="401.48" height="237.625" transform="translate(29.256 11.172)" fill="#455a64"/>
      <path id="Path_1157" data-name="Path 1157" d="M331.42,424.82l5.72,9.1h80.5l5.307-9.1Z" transform="translate(-142.77 -164.246)" fill="#455a64"/>
      <rect id="Rectangle_1640" data-name="Rectangle 1640" width="385.77" height="228.818" rx="3.27" transform="translate(37.524 19.219)" fill="#ebebeb"/>
      <rect id="Rectangle_1641" data-name="Rectangle 1641" width="385.77" height="212.061" transform="translate(37.524 35.986)" fill="#ebebeb"/>
      <path id="Path_1158" data-name="Path 1158" d="M206.892,182.877a3.086,3.086,0,1,1-3.077-3.077A3.086,3.086,0,0,1,206.892,182.877Z" transform="translate(-137.728 -154.793)" fill="#455a64"/>
      <path id="Path_1159" data-name="Path 1159" d="M187.472,182.877A3.086,3.086,0,1,1,184.4,179.8,3.086,3.086,0,0,1,187.472,182.877Z" transform="translate(-136.978 -154.793)" fill="#455a64"/>
      <path id="Path_1160" data-name="Path 1160" d="M196.752,182.877a3.086,3.086,0,1,1-3.077-3.077A3.086,3.086,0,0,1,196.752,182.877Z" transform="translate(-137.336 -154.793)" fill="#455a64"/>
      <path id="Path_1161" data-name="Path 1161" d="M575.612,424.809c0,.154-94.45.269-210.917.269s-210.946-.115-210.946-.269,94.431-.279,210.946-.279S575.612,424.655,575.612,424.809Z" transform="translate(-135.916 -164.235)" fill="#455a64"/>
    </g>
    <g id="freepik--paper-plane--inject-9" transform="translate(1062.859 215.795)">
      <path id="Path_1162" data-name="Path 1162" d="M152.292,415.638a2.1,2.1,0,0,1-.327-.192L151,414.82l-1.538-1.048c-.606-.423-1.327-.884-2.077-1.509l-2.567-2.019c-.961-.759-1.923-1.682-2.942-2.625a70.257,70.257,0,0,1-6.73-7.211A74.837,74.837,0,0,1,122.488,376.7a93.364,93.364,0,0,1-3.99-35.351,101.912,101.912,0,0,1,3.586-20.469,82.971,82.971,0,0,1,8.884-20.709c1.009-1.673,2.144-3.288,3.327-4.894l3.769-4.673c1.336-1.5,2.73-2.98,4.115-4.49s2.942-2.884,4.423-4.326a148.065,148.065,0,0,1,20.315-15.546c14.729-9.528,31.371-17.411,48.5-25.622,17.084-8.364,35.092-16.392,53.551-24.507,73.924-32.381,141.579-59.954,190.861-79.106,24.632-9.614,44.735-16.95,58.647-21.978,6.961-2.48,12.4-4.326,16.075-5.6L538.745,108l1.077-.346a2.222,2.222,0,0,1,.365-.106l-.346.154-1.057.4-4.163,1.519L518.613,115.4c-13.864,5.144-33.919,12.566-58.512,22.267-49.167,19.353-116.774,47.042-190.688,79.4-18.459,8.124-36.428,16.123-53.513,24.478-17.152,8.2-33.765,16.056-48.436,25.516a147.091,147.091,0,0,0-20.19,15.383c-1.471,1.442-2.99,2.817-4.394,4.278s-2.759,2.961-4.1,4.451l-3.74,4.624c-1.173,1.577-2.3,3.163-3.288,4.807a82.029,82.029,0,0,0-8.845,20.488,100.949,100.949,0,0,0-3.634,20.315,93.421,93.421,0,0,0,3.846,35.13A75.348,75.348,0,0,0,135.5,400.255a72.761,72.761,0,0,0,6.6,7.23c1.048.961,1.98,1.923,2.884,2.654L147.5,412.2c.74.635,1.452,1.106,2.057,1.538l1.5,1.086.913.663a1.8,1.8,0,0,1,.317.154Z" transform="translate(-118.205 -73.333)" fill="#263238"/>
      <path id="Path_1163" data-name="Path 1163" d="M540.35,74.556l17.806,14.758-1.644,16.9,14.585-8.1,15.537,11.037,57.9-37.188Z" transform="translate(-134.49 -71.96)" fill="#3baeda"/>
      <g id="Group_160" data-name="Group 160" transform="translate(422.021 0.038)" opacity="0.5">
        <path id="Path_1164" data-name="Path 1164" d="M558.8,89.315,643.611,72,567.438,95.055,557.16,106.217h0Z" transform="translate(-557.16 -72)"/>
      </g>
      <g id="Group_161" data-name="Group 161" transform="translate(422.021 23.093)" opacity="0.8">
        <path id="Path_1165" data-name="Path 1165" d="M567.438,95.98l4.307,3.057-14.585,8.1Z" transform="translate(-557.16 -95.98)"/>
      </g>
    </g>
    <g id="freepik--Letters--inject-9" transform="translate(1135.634 350.259)">
      <rect id="Rectangle_1642" data-name="Rectangle 1642" width="92.902" height="62.617" transform="translate(0.32 99.138) rotate(-5.42)" fill="#fff"/>
      <path id="Path_1166" data-name="Path 1166" d="M292.619,368.146s-.067-.4-.144-1.154-.2-1.923-.356-3.307c-.3-2.884-.731-7.153-1.279-12.556-1.077-10.845-2.605-26.381-4.48-45.293l.375.308-92.47,8.864c-.1.1.721-.894.385-.461h0v.49l.048.519.1,1.038.192,2.077c.135,1.384.269,2.759.394,4.125q.385,4.125.769,8.172.76,8.1,1.509,15.94c.961,10.431,1.923,20.459,2.817,29.958l-.433-.356L266.67,370.4l19.075-1.7,5.086-.442,1.327-.1a3.29,3.29,0,0,1,.462,0,3.75,3.75,0,0,1-.413.058l-1.279.144-5,.529-18.959,1.923-66.8,6.528h-.394v-.394c-.913-9.5-1.865-19.527-2.884-29.958q-.75-7.836-1.519-15.94-.394-4.048-.779-8.162c-.135-1.375-.26-2.75-.394-4.125l-.192-2.077-.106-1.038v-1.01l.394-.481,92.489-8.653h.346v.346c1.721,19.017,3.144,34.611,4.134,45.543.471,5.374.846,9.614,1.1,12.5.115,1.394.212,2.471.269,3.25A3.5,3.5,0,0,1,292.619,368.146Z" transform="translate(-193.9 -215.434)" fill="#455a64"/>
      <path id="Path_1167" data-name="Path 1167" d="M286.72,305.81a6.729,6.729,0,0,1-.721.961l-2.173,2.538-8.162,9.268L248.3,349.17l-.24.279-.308-.2-2.461-1.567-36.207-23.218-10.912-7.124c-1.231-.817-2.2-1.481-2.952-1.971a6.252,6.252,0,0,1-.961-.74,7.42,7.42,0,0,1,1.086.586l3.028,1.836,11.018,6.855,36.342,23.007,2.461,1.577-.548.077L275.2,318.135l8.355-9.076,2.3-2.432A6.46,6.46,0,0,1,286.72,305.81Z" transform="translate(-193.914 -215.446)" fill="#455a64"/>
      <rect id="Rectangle_1643" data-name="Rectangle 1643" width="45.946" height="68.174" transform="matrix(0.272, -0.962, 0.962, 0.272, 275.818, 44.523)" fill="#fff"/>
      <path id="Path_1168" data-name="Path 1168" d="M546.354,274.9s.067-.3.211-.827.356-1.346.635-2.355c.567-2.086,1.394-5.1,2.452-8.932l8.96-32.169.173.308-65.617-18.479.385-.212h0v.163l-.048.183-.106.365-.211.74-.413,1.471-.827,2.884-1.635,5.769c-1.086,3.846-2.154,7.6-3.2,11.306-2.106,7.393-4.115,14.508-6.028,21.247l-.2-.365,47.177,13.46,13.46,3.894,3.605,1.048.961.288.317.106-.3-.067-.961-.24-3.557-.961-13.46-3.73L480.7,256.536l-.279-.077.077-.279c1.923-6.73,3.9-13.854,5.99-21.257q1.557-5.547,3.192-11.306l1.634-5.769c.269-.961.548-1.923.827-2.884l.413-1.471.211-.731.1-.375.058-.183v-.163h0l.394-.221,65.579,18.594.25.077-.077.24c-3.846,13.46-7.038,24.526-9.249,32.256l-2.5,8.855c-.288.961-.519,1.75-.673,2.3A3.171,3.171,0,0,1,546.354,274.9Z" transform="translate(-204.954 -211.82)" fill="#455a64"/>
      <path id="Path_1169" data-name="Path 1169" d="M559.369,230.7a5,5,0,0,1-.731.442l-2.154,1.154-8.038,4.173L521.6,250.138l-.24.125-.154-.221-1.26-1.721-18.6-25.5-5.586-7.768-1.481-2.086a4.048,4.048,0,0,1-.481-.769,5.222,5.222,0,0,1,.586.692l1.586,2.067,5.769,7.643L520.5,247.994l1.269,1.721-.4-.1,26.92-13.46,8.124-3.99,2.221-1.058a4.694,4.694,0,0,1,.74-.413Z" transform="translate(-205.47 -211.835)" fill="#455a64"/>
    </g>
    <g id="freepik--Plant--inject-9" transform="translate(1141.67 339.444)">
      <path id="Path_1170" data-name="Path 1170" d="M202.084,201.157s4.528-3.663,11.537,7.326a150.54,150.54,0,0,1,9.883,17.44s1.8,2.269,3.307.529,3.355-6.461,6.259-5.922,4.3,3.73,4.2,8.6.1,15.527.115,16.488.692,2.279,1.923,1.259,7.922-10.124,12.047-6.682,1.634,16.95,1.394,18.43.1,2.067.817,2.365,2.692-2.98,4.7-5.49,4.807-5.067,7-2.884,3.846,11.989-4.028,28.91l-4.144,7.6-8.653.365c-18.652-.375-26.766-6.1-27.756-9.037s2.519-4.326,5.653-5.038,6.932-1.038,6.99-1.817-.327-1.346-1.769-1.769-14.671-4.115-15.95-9.326,9.826-7.259,11.277-7.913.548-1.836-.288-2.269-10.364-5.278-14.777-7.316-6.73-4.6-5.894-7.547,5.836-2.442,8.066-3.038.961-3.2.961-3.2A149.987,149.987,0,0,1,203.612,214.7c-6.807-11.124-1.394-13.614-1.394-13.614" transform="translate(-200.178 -200.57)" fill="#3baeda"/>
      <path id="Path_1171" data-name="Path 1171" d="M208.71,211.4a2.193,2.193,0,0,0,.135.24l.4.692,1.586,2.644c1.384,2.288,3.4,5.6,5.922,9.614,5.028,8.153,12.075,19.344,19.9,31.669s14.892,23.516,19.969,31.631c2.529,4.057,4.576,7.336,6.009,9.614l1.634,2.615c.183.288.327.519.433.673l.154.231a2.188,2.188,0,0,0-.135-.24l-.4-.692-1.586-2.548c-1.384-2.288-3.413-5.6-5.922-9.662-5.038-8.143-12.075-19.344-19.9-31.679s-14.9-23.507-19.978-31.621l-6-9.614c-.7-1.125-1.25-2.009-1.634-2.615l-.433-.673A1.835,1.835,0,0,0,208.71,211.4Z" transform="translate(-200.507 -200.988)" fill="#263238"/>
      <path id="Path_1172" data-name="Path 1172" d="M231.9,228.29a2.7,2.7,0,0,0-.163.606c-.087.394-.2.961-.327,1.673-.26,1.413-.567,3.375-.865,5.557s-.538,4.067-.74,5.567c-.087.663-.173,1.221-.231,1.682a2.54,2.54,0,0,0-.058.625,2.74,2.74,0,0,0,.173-.606c.087-.394.192-.961.317-1.673.25-1.413.529-3.384.827-5.557s.567-4.067.779-5.567c.1-.654.173-1.221.24-1.682A2.762,2.762,0,0,0,231.9,228.29Z" transform="translate(-201.31 -201.64)" fill="#263238"/>
      <path id="Path_1173" data-name="Path 1173" d="M227.967,244.736c0-.077-4.009-.894-8.98-1.817s-9.028-1.606-9.037-1.529,4.009.894,8.98,1.817S227.957,244.861,227.967,244.736Z" transform="translate(-200.555 -202.145)" fill="#263238"/>
      <path id="Path_1174" data-name="Path 1174" d="M241.43,264a2.727,2.727,0,0,0-.644,0l-1.731.173c-1.461.135-3.48.327-5.711.452s-4.259.192-5.72.221h-1.74a3.623,3.623,0,0,0-.644.048,2.528,2.528,0,0,0,.644.067c.4,0,.961.048,1.74.058,1.461,0,3.5,0,5.769-.125s4.259-.356,5.72-.548c.721-.1,1.317-.192,1.721-.26a3.078,3.078,0,0,0,.6-.086Z" transform="translate(-201.145 -203.017)" fill="#263238"/>
      <path id="Path_1175" data-name="Path 1175" d="M248.1,249.67a3.091,3.091,0,0,0-.288.51l-.711,1.452c-.577,1.221-1.365,2.884-2.221,4.807s-1.615,3.6-2.154,4.807c-.269.625-.481,1.125-.615,1.481a2.277,2.277,0,0,0-.192.558,1.984,1.984,0,0,0,.288-.51c.173-.337.413-.827.711-1.442.586-1.231,1.375-2.884,2.231-4.807s1.606-3.6,2.144-4.807c.269-.615.481-1.125.625-1.481A2.173,2.173,0,0,0,248.1,249.67Z" transform="translate(-201.788 -202.465)" fill="#263238"/>
      <path id="Path_1176" data-name="Path 1176" d="M262,265.07a3.245,3.245,0,0,0-.375.654c-.24.49-.548,1.115-.9,1.856-.76,1.557-1.788,3.73-2.884,6.134s-2.115,4.6-2.827,6.182c-.327.76-.606,1.394-.827,1.923a4.619,4.619,0,0,0-.269.711,3.19,3.19,0,0,0,.375-.663l.913-1.846c.75-1.567,1.779-3.73,2.884-6.144s2.115-4.586,2.827-6.172c.337-.759.606-1.394.827-1.923A3.423,3.423,0,0,0,262,265.07Z" transform="translate(-202.251 -203.059)" fill="#263238"/>
      <path id="Path_1177" data-name="Path 1177" d="M253.175,282.7a4.689,4.689,0,0,0-.808,0l-2.2.135c-1.856.115-4.423.269-7.259.356s-5.413.106-7.278.106h-2.2a4.894,4.894,0,0,0-.808,0,4.277,4.277,0,0,0,.808.077c.519,0,1.269.067,2.2.1,1.865.048,4.442.067,7.288,0s5.413-.269,7.268-.433c.961-.087,1.673-.163,2.192-.231A4.089,4.089,0,0,0,253.175,282.7Z" transform="translate(-201.429 -203.738)" fill="#263238"/>
      <path id="Path_1178" data-name="Path 1178" d="M550.778,291.339a13.22,13.22,0,0,0-10.374.077,23.381,23.381,0,0,0-8.451,6.345c-4.576,5.144-7.124,12.643-8.4,19.411,7.586.961,15-3.932,18.6-6.634,5.7-4.278,13.4-15.46,8.653-19.228" transform="translate(-212.653 -204.033)" fill="#3baeda"/>
      <path id="Path_1179" data-name="Path 1179" d="M508.995,320.083a11.3,11.3,0,0,0,6.259-9.47,15.008,15.008,0,0,0-4.038-10.874c-1.231-1.365-2.884-2.6-4.7-2.509a4.807,4.807,0,0,0-3.913,2.942,9.816,9.816,0,0,0-.615,5.057c.577,5.865,2.211,11.431,7.009,14.854" transform="translate(-211.817 -204.299)" fill="#3baeda"/>
      <path id="Path_1180" data-name="Path 1180" d="M498.91,339.563a10.342,10.342,0,0,0,.961-1.086c.577-.731,1.384-1.8,2.346-3.154a48.673,48.673,0,0,0,6.23-11.4A24.362,24.362,0,0,0,509.572,311a16.1,16.1,0,0,0-1.259-3.759,4.46,4.46,0,0,0-.663-1.24,33.523,33.523,0,0,1,1.471,5.105,25.5,25.5,0,0,1-1.346,12.556,56.865,56.865,0,0,1-5.961,11.354,45.317,45.317,0,0,0-2.9,4.548Z" transform="translate(-211.703 -204.638)" fill="#263238"/>
      <path id="Path_1181" data-name="Path 1181" d="M542.957,299.55a13.456,13.456,0,0,0-1.923,1.413c-1.2.961-2.884,2.355-5.038,4.105-4.211,3.509-9.96,8.451-16.161,14.056s-11.71,10.835-15.623,14.671c-1.923,1.923-3.519,3.49-4.586,4.6a13.73,13.73,0,0,0-1.6,1.769,14.551,14.551,0,0,0,1.807-1.558l4.759-4.413c4-3.74,9.547-8.884,15.758-14.489s11.883-10.576,16-14.219l4.874-4.288A15.117,15.117,0,0,0,542.957,299.55Z" transform="translate(-211.669 -204.389)" fill="#263238"/>
      <path id="Path_1182" data-name="Path 1182" d="M513.808,331.613a26.458,26.458,0,0,1,24.036-2.682c1.981.779,4.144,2.2,4.173,4.336s-2.086,3.634-4.067,4.422A22.584,22.584,0,0,1,513.51,332.1" transform="translate(-212.266 -205.456)" fill="#3baeda"/>
      <path id="Path_1183" data-name="Path 1183" d="M532.133,332.9a4.21,4.21,0,0,0-1.24-.615,10.945,10.945,0,0,0-1.519-.567,21.216,21.216,0,0,0-2.086-.567,27.139,27.139,0,0,0-5.566-.7,29.871,29.871,0,0,0-13.374,2.817,28.148,28.148,0,0,0-4.807,2.884,17.858,17.858,0,0,0-1.663,1.365,11.285,11.285,0,0,0-1.173,1.125c-.606.654-.961,1.029-.885,1.067s1.452-1.327,4.038-3.115a30.812,30.812,0,0,1,4.807-2.682,34.613,34.613,0,0,1,6.394-2.086,34.071,34.071,0,0,1,6.73-.673,30.653,30.653,0,0,1,5.471.519C530.268,332.305,532.085,333.074,532.133,332.9Z" transform="translate(-211.737 -205.581)" fill="#263238"/>
    </g>
    <g id="freepik--Newletter--inject-9" transform="translate(1193.685 255.982)">
      <rect id="Rectangle_1644" data-name="Rectangle 1644" width="242.99" height="266.439" transform="translate(0.144 0.279)" fill="#fafafa"/>
      <path id="Path_1184" data-name="Path 1184" d="M497.414,380.478c0-1.923-.086-107.218-.221-266.439l.221.221H254.453l.25-.25V380.449l-.212-.212,242.99.212-242.99.211h-.212V113.76H497.741v.212C497.5,273.27,497.414,378.584,497.414,380.478Z" transform="translate(-254.28 -113.76)" fill="#263238"/>
      <rect id="Rectangle_1645" data-name="Rectangle 1645" width="120.755" height="30.727" rx="14.51" transform="translate(70.616 211.609)" fill="#3baeda"/>
      <g id="Group_162" data-name="Group 162" transform="translate(71.616 206.609)" opacity="0.5">
        <rect id="Rectangle_1646" data-name="Rectangle 1646" width="120.755" height="30.727" rx="14.51" transform="translate(-1 5)"/>
      </g>
      <rect id="Rectangle_1647" data-name="Rectangle 1647" width="120.755" height="30.727" rx="14.51" transform="translate(60.473 211.609)" fill="#3baeda"/>
      <path id="Path_1185" data-name="Path 1185" d="M351.84,351.675l.413-.961a3.557,3.557,0,0,0,2.1.692c.961,0,1.413-.346,1.413-.827,0-1.375-3.788-.471-3.788-2.836,0-1.029.827-1.923,2.567-1.923a4.029,4.029,0,0,1,2.125.567l-.375.961a3.557,3.557,0,0,0-1.759-.5c-.961,0-1.384.375-1.384.856,0,1.356,3.778.481,3.778,2.817,0,1.019-.827,1.923-2.577,1.923A4.067,4.067,0,0,1,351.84,351.675Z" transform="translate(-258.044 -122.712)" fill="#fff"/>
      <path id="Path_1186" data-name="Path 1186" d="M354.349,352.463a4.048,4.048,0,0,1-2.519-.769h0l.423-.961h0a3.529,3.529,0,0,0,2.086.692c.885,0,1.384-.3,1.384-.808s-.692-.74-1.49-.961c-1.077-.26-2.288-.548-2.288-1.923,0-.961.683-1.923,2.586-1.923a4.028,4.028,0,0,1,2.134.567h0l-.385.961h0a3.586,3.586,0,0,0-1.75-.5c-.865,0-1.356.308-1.356.836s.692.74,1.49.961c1.067.26,2.288.548,2.288,1.923a1.711,1.711,0,0,1-.644,1.346,3.076,3.076,0,0,1-1.961.558Zm-2.48-.8a4.115,4.115,0,0,0,2.48.75c1.548,0,2.557-.731,2.557-1.865,0-1.307-1.2-1.6-2.25-1.846-.827-.192-1.529-.365-1.529-.961s.51-.884,1.4-.884a3.566,3.566,0,0,1,1.75.49l.356-.875a4.019,4.019,0,0,0-2.1-.548c-1.875,0-2.538.961-2.538,1.875,0,1.327,1.192,1.615,2.25,1.865.827.192,1.529.365,1.529.961s-.519.856-1.432.856a3.586,3.586,0,0,1-2.086-.683Z" transform="translate(-258.043 -122.712)" fill="none"/>
      <path id="Path_1187" data-name="Path 1187" d="M358.3,349.586V346h1.183v3.548c0,1.308.586,1.875,1.615,1.875s1.615-.567,1.615-1.875V346h1.163v3.6a2.788,2.788,0,0,1-5.576,0Z" transform="translate(-258.293 -122.719)" fill="#fff"/>
      <path id="Path_1188" data-name="Path 1188" d="M361.086,352.47a2.6,2.6,0,0,1-2.817-2.884V346H359.5v3.577c0,1.24.519,1.846,1.6,1.846s1.586-.606,1.586-1.846V346h1.211v3.625a2.586,2.586,0,0,1-2.807,2.846ZM358.317,346v3.577a2.769,2.769,0,1,0,5.528,0V346H362.73v3.528c0,1.259-.548,1.923-1.634,1.923s-1.644-.635-1.644-1.923V346Z" transform="translate(-258.291 -122.719)" fill="none"/>
      <path id="Path_1189" data-name="Path 1189" d="M371.483,350.624c0,1.1-.856,1.731-2.49,1.731H365.82V346h2.99c1.529,0,2.346.644,2.346,1.654a1.538,1.538,0,0,1-.817,1.4A1.557,1.557,0,0,1,371.483,350.624ZM367,346.961v1.759h1.673c.827,0,1.288-.288,1.288-.875s-.461-.885-1.288-.885Zm3.288,3.6c0-.635-.481-.913-1.375-.913h-1.923v1.836h1.923c.923-.048,1.375-.336,1.375-.971Z" transform="translate(-258.583 -122.719)" fill="#fff"/>
      <path id="Path_1190" data-name="Path 1190" d="M368.992,352.384H365.8V346h3.009c1.481,0,2.365.635,2.365,1.682a1.538,1.538,0,0,1-.779,1.394,1.6,1.6,0,0,1,1.106,1.586C371.5,351.769,370.607,352.384,368.992,352.384Zm-3.144-.048h3.144c1.586,0,2.461-.606,2.461-1.711a1.548,1.548,0,0,0-1.125-1.557h-.01a1.5,1.5,0,0,0,.808-1.384c0-1.038-.846-1.634-2.317-1.634h-2.961Zm3.067-.884h-1.923v-1.923h1.923c.961,0,1.394.308,1.394.961s-.471.961-1.433.961Zm-1.923-.048h1.923c.9,0,1.346-.288,1.346-.894s-.442-.894-1.346-.894h-1.923Zm1.644-2.7h-1.682v-1.808h1.692c.856,0,1.308.317,1.308.9s-.423.9-1.279.9Zm-1.644-.048h1.644c.577,0,1.259-.154,1.259-.856s-.683-.856-1.259-.856h-1.644Z" transform="translate(-258.582 -122.719)" fill="none"/>
      <path id="Path_1191" data-name="Path 1191" d="M372.47,351.675l.4-.961a3.586,3.586,0,0,0,2.105.692c.961,0,1.413-.346,1.413-.827,0-1.375-3.788-.471-3.788-2.836,0-1.029.817-1.923,2.567-1.923a3.99,3.99,0,0,1,2.115.567l-.375.961a3.489,3.489,0,0,0-1.75-.5c-.961,0-1.384.375-1.384.856,0,1.356,3.778.481,3.778,2.817,0,1.019-.827,1.923-2.577,1.923a4.067,4.067,0,0,1-2.509-.769Z" transform="translate(-258.84 -122.712)" fill="#fff"/>
      <path id="Path_1192" data-name="Path 1192" d="M374.979,352.463a4.105,4.105,0,0,1-2.529-.769h0l.413-.961h0a3.528,3.528,0,0,0,2.086.692c.884,0,1.384-.3,1.384-.808s-.692-.74-1.49-.961c-1.077-.26-2.288-.548-2.288-1.923,0-.961.673-1.923,2.586-1.923a4.077,4.077,0,0,1,2.134.567h0l-.385.961h0a3.519,3.519,0,0,0-1.74-.5c-.865,0-1.356.308-1.356.836s.683.74,1.481.961c1.077.26,2.288.548,2.288,1.923C377.574,351.761,376.555,352.463,374.979,352.463Zm-2.48-.8a4.1,4.1,0,0,0,2.48.75c1.548,0,2.548-.731,2.548-1.865,0-1.307-1.192-1.6-2.25-1.846-.817-.192-1.519-.365-1.519-.961s.51-.884,1.4-.884a3.538,3.538,0,0,1,1.74.49l.356-.875a3.961,3.961,0,0,0-2.086-.548c-1.875,0-2.538.961-2.538,1.875,0,1.327,1.192,1.615,2.25,1.865.817.192,1.529.365,1.529.961s-.519.856-1.433.856a3.634,3.634,0,0,1-2.1-.683Z" transform="translate(-258.839 -122.712)" fill="none"/>
      <path id="Path_1193" data-name="Path 1193" d="M378.51,349.168a3.442,3.442,0,0,1,5.932-2.211l-.769.721a2.245,2.245,0,1,0,0,2.971l.769.731a3.442,3.442,0,0,1-5.932-2.211Z" transform="translate(-259.073 -122.715)" fill="#fff"/>
      <path id="Path_1194" data-name="Path 1194" d="M381.922,352.466a3.3,3.3,0,1,1,2.538-5.528h0l-.779.731h0a2.212,2.212,0,1,0,0,2.942h0l.8.76h0a3.24,3.24,0,0,1-2.557,1.1Zm0-6.547a3.25,3.25,0,1,0,2.48,5.461l-.731-.692a2.23,2.23,0,0,1-1.7.74,2.26,2.26,0,1,1,1.7-3.788l.731-.683a3.192,3.192,0,0,0-2.471-1.038Z" transform="translate(-259.081 -122.715)" fill="none"/>
      <path id="Path_1195" data-name="Path 1195" d="M390.033,352.355l-1.307-1.865h-1.682v1.856H385.86V346h2.625c1.673,0,2.711.856,2.711,2.269a2.038,2.038,0,0,1-1.356,2.009l1.461,2.086Zm-1.606-5.394h-1.384V349.5h1.384c1.038,0,1.577-.471,1.577-1.269S389.465,346.961,388.427,346.961Z" transform="translate(-259.356 -122.719)" fill="#fff"/>
      <path id="Path_1196" data-name="Path 1196" d="M391.349,352.384h-1.336l-1.3-1.855h-1.644v1.855H385.84V346h2.644c1.682,0,2.73.885,2.73,2.3a2.057,2.057,0,0,1-1.336,2.019Zm-1.308-.048h1.211l-1.413-2.086h0a2,2,0,0,0,1.336-1.98c0-1.384-1.029-2.25-2.682-2.25h-2.6v6.326h1.134V350.49h1.721Zm-1.615-2.788h-1.4v-2.586h1.4c1.029,0,1.6.461,1.6,1.3s-.567,1.288-1.6,1.288Zm-1.356-.048h1.356c.961,0,1.548-.442,1.548-1.24s-.548-1.24-1.548-1.24h-1.356Z" transform="translate(-259.355 -122.719)" fill="none"/>
      <path id="Path_1197" data-name="Path 1197" d="M392.78,346h1.173v6.365H392.77Z" transform="translate(-259.623 -122.719)" fill="#fff"/>
      <path id="Path_1198" data-name="Path 1198" d="M393.951,352.384H392.72V346h1.231Zm-1.183-.048h1.183V346h-1.134Z" transform="translate(-259.621 -122.719)" fill="none"/>
      <path id="Path_1199" data-name="Path 1199" d="M401.463,350.624c0,1.1-.856,1.731-2.5,1.731H395.8V346h2.98c1.529,0,2.355.644,2.355,1.654a1.529,1.529,0,0,1-.827,1.4A1.557,1.557,0,0,1,401.463,350.624Zm-4.509-3.663v1.759h1.673c.817,0,1.288-.288,1.288-.875s-.471-.885-1.288-.885Zm3.288,3.6c0-.635-.481-.913-1.375-.913h-1.923v1.836h1.923c.971-.048,1.4-.336,1.4-.971Z" transform="translate(-259.74 -122.719)" fill="#fff"/>
      <path id="Path_1200" data-name="Path 1200" d="M398.962,352.384H395.78V346h3c1.49,0,2.375.635,2.375,1.682a1.538,1.538,0,0,1-.779,1.394,1.6,1.6,0,0,1,1.106,1.586C401.481,351.769,400.587,352.384,398.962,352.384Zm-3.134-.048h3.134c1.6,0,2.471-.606,2.471-1.711a1.558,1.558,0,0,0-1.125-1.558h-.01a1.5,1.5,0,0,0,.808-1.384c0-1.038-.846-1.634-2.327-1.634h-2.952Zm3.067-.884h-1.923v-1.923H398.9c.961,0,1.394.308,1.394.961s-.452.961-1.413.961Zm-1.923-.048H398.9c.9,0,1.346-.288,1.346-.894s-.442-.894-1.346-.894h-1.923Zm1.644-2.7h-1.663v-1.808h1.692c.856,0,1.308.317,1.308.9s-.442.9-1.3.9Zm-1.644-.048h1.644c.577,0,1.259-.154,1.259-.856s-.683-.856-1.259-.856h-1.644Z" transform="translate(-259.739 -122.719)" fill="none"/>
      <path id="Path_1201" data-name="Path 1201" d="M407.807,351.365v.961H403V346h4.644v.961h-3.461v1.654h3.067v.961h-3.067v1.759Z" transform="translate(-260.017 -122.719)" fill="#fff"/>
      <path id="Path_1202" data-name="Path 1202" d="M407.807,352.384H403V346h4.7v1.048h-3.471v1.606h3.077v1.019h-3.077v1.711h3.576ZM403,352.336h4.807v-.961h-3.6v-1.807h3.077v-.961h-3.077v-1.644h3.471V346H403Z" transform="translate(-260.017 -122.719)" fill="none"/>
      <path id="Path_1203" data-name="Path 1203" d="M448.811,312.54c0,.135-30.9.25-69.011.25s-69.02-.115-69.02-.25,30.89-.25,69.02-.25S448.811,312.4,448.811,312.54Z" transform="translate(-256.46 -121.419)" fill="#263238"/>
      <path id="Path_1204" data-name="Path 1204" d="M469.538,321.22c0,.135-40.572.25-90.6.25s-90.614-.115-90.614-.25,40.562-.25,90.614-.25S469.538,321.085,469.538,321.22Z" transform="translate(-255.593 -121.754)" fill="#263238"/>
      <path id="Path_1205" data-name="Path 1205" d="M266.145,124.747a2.048,2.048,0,1,1-.6-1.458,2.057,2.057,0,0,1,.6,1.458Z" transform="translate(-254.579 -114.105)" fill="#e0e0e0"/>
      <circle id="Ellipse_29" data-name="Ellipse 29" cx="2.057" cy="2.057" r="2.057" transform="translate(14.316 8.586)" fill="#e0e0e0"/>
      <path id="Path_1206" data-name="Path 1206" d="M280.415,124.747a2.057,2.057,0,1,1-2.057-2.057,2.058,2.058,0,0,1,2.057,2.057Z" transform="translate(-255.129 -114.104)" fill="#e0e0e0"/>
    </g>
    <path id="Path_1207" data-name="Path 1207" d="M487.7,168.4l4-14.421s1.433-5.855,1.779-7.22c.452-1.807-.817-2.375-1.557-1.144-.289.461-3.452,6.422-3.452,6.422s2.519-9.758,2.615-10.114c.817-3.182-1.163-2.884-1.74-1.711s-4.163,10.778-4.163,10.778c3.355-12.547,2.307-13.652,1.356-13.854s-3.846,11.277-3.846,11.277a10.576,10.576,0,0,0-3.028-3.307c-3.029-2.086-8.086,0-8.326,1.423s1.558,1.827,1.558,1.827a4.565,4.565,0,0,1,7.3,4.134c-.394,3.615-4.99,3.125-5.557.548-1.259-5.663-3.2-3.846-3.2-3.846l1.923,12.5-2.067,6.268" transform="translate(931.033 141.321)" fill="#ffbe9d"/>
    <path id="Path_1208" data-name="Path 1208" d="M338.633,230.717l86.384-.577,2.375,58.733-89.441-.885Z" transform="translate(936.177 137.733)" fill="#455a64"/>
    <path id="Path_1209" data-name="Path 1209" d="M338.66,229.317l43.879-35.457,42.5,34.88" transform="translate(936.149 139.132)" fill="#263238"/>
    <path id="Path_1210" data-name="Path 1210" d="M338,288.972c-.115-.1,6.807-7.643,15.45-16.854s15.738-16.585,15.844-16.488-6.807,7.643-15.45,16.854S338.058,289.078,338,288.972Z" transform="translate(936.175 136.749)" fill="#263238"/>
    <path id="Path_1211" data-name="Path 1211" d="M429.809,289.889c-.106.1-6.836-7.307-15.027-16.536s-14.777-16.786-14.652-16.883,6.836,7.307,15.027,16.536S429.905,289.793,429.809,289.889Z" transform="translate(933.778 136.717)" fill="#263238"/>
    <path id="Path_1212" data-name="Path 1212" d="M425.044,230.14l-43.4,34.63L338.66,230.717" transform="translate(936.149 137.733)" fill="#263238"/>
    <path id="Path_1213" data-name="Path 1213" d="M278.434,160.842h.288L277.568,157l-3.7-14.767a2.711,2.711,0,0,1,1.74-3.221l2.663-.1,9.114-4.259a2.884,2.884,0,0,1,3.846,2.2c.336,2.721,2.182,10.008,4.144,7.451l.144-.163c2.759-3.8,6.2-5.855,7.615-5.769a1.586,1.586,0,0,1,.961,2.73,1.712,1.712,0,0,1-.519.452,2.72,2.72,0,0,0-.3.2,22.893,22.893,0,0,0-3.288,3.6,12.682,12.682,0,0,0-2.009,3.846c-.49,1.538-.846,2.884-1.125,4.019l.711,7.538" transform="translate(938.652 141.423)" fill="#ffbe9d"/>
    <path id="Path_1214" data-name="Path 1214" d="M300.579,90.36s-10.662-2.038-25.958-15.95-22.872-32.756-24.7-32.611-9.855-3.327-24.112,30.064-8.028,40.88-5.019,40.735,23.324-6.432,36.159-5.346,29.458,7.288,29.458,7.288Z" transform="translate(940.85 145)" fill="#455a64"/>
    <path id="Path_1215" data-name="Path 1215" d="M326.3,109.4l-3.423,6.97-1.529,3.125A8.98,8.98,0,0,1,309.81,123.8l-22.94-7.268L299.205,86l23.026,11.441A8.98,8.98,0,0,1,326.3,109.4Z" transform="translate(938.147 143.293)" fill="#263238"/>
    <path id="Path_1216" data-name="Path 1216" d="M312.954,121.986l-6.826,14.421-3.653-.9L279.4,155.4l-6.97-12.739s13.8-6.413,16.238-11.46-.577-6.105-.577-6.105l6.365-7.691Z" transform="translate(938.705 142.082)" fill="#263238"/>
    <path id="Path_1217" data-name="Path 1217" d="M227.128,72.461c-7.557,18.084-10.46,34.092-6.49,35.755s13.325-11.652,20.882-29.737,10.46-34.092,6.49-35.755S234.685,54.377,227.128,72.461Z" transform="translate(940.771 144.968)" fill="#263238"/>
    <path id="Path_1218" data-name="Path 1218" d="M329.951,120.244l-6.211-1.759,3.605-7.355,4.692,2.74Z" transform="translate(936.725 142.324)" fill="#455a64"/>
    <path id="Path_1219" data-name="Path 1219" d="M293.06,120.13l16.834,10.076,1.952-4.1Z" transform="translate(937.909 141.977)" fill="#455a64"/>
    <path id="Path_1220" data-name="Path 1220" d="M327.345,111.13l-3.605,7.355,1.269.356,2.894-7.384Z" transform="translate(936.725 142.324)" fill="#455a64"/>
    <path id="Path_1221" data-name="Path 1221" d="M322.576,112.771c-.077.2-3.182-.961-6.932-2.48s-6.73-3-6.634-3.2,3.192.961,6.941,2.48S322.662,112.569,322.576,112.771Z" transform="translate(937.293 142.481)" fill="#455a64"/>
    <path id="Path_1222" data-name="Path 1222" d="M324.509,108.225c-.1.2-2.884-.894-6.288-2.432s-6.047-2.961-5.951-3.163,2.884.894,6.278,2.442S324.566,108.032,324.509,108.225Z" transform="translate(937.168 142.653)" fill="#455a64"/>
    <path id="Path_1223" data-name="Path 1223" d="M320.274,117.566c0,.106-.76,0-1.923-.365-.6-.163-1.288-.375-2.057-.615s-1.567-.635-2.423-.961c-3.413-1.471-6.028-2.884-5.951-3.105s2.884.961,6.259,2.375c.846.356,1.634.75,2.375,1.038l1.971.76C319.63,117.124,320.3,117.461,320.274,117.566Z" transform="translate(937.335 142.271)" fill="#455a64"/>
    <path id="Path_1224" data-name="Path 1224" d="M243.835,69s-9.374-5.451-14.056,7.134,5.057,14.354,5.057,14.354a83.048,83.048,0,0,0,9-21.488Z" transform="translate(940.399 143.994)" fill="#455a64"/>
    <path id="Path_1225" data-name="Path 1225" d="M253.194,53.34a13.05,13.05,0,0,1-.288,2.384c-.25,1.529-.6,3.75-1.115,6.47-.346,1.346-.731,2.817-1.144,4.394-.212.788-.423,1.606-.644,2.442l-.346,1.288c-.125.433-.288.846-.433,1.288L247.3,77.029c-.163.471-.336.961-.51,1.423s-.4.961-.606,1.413L244.9,82.75l-1.3,2.884c-.221.461-.4.961-.654,1.384s-.481.885-.731,1.327c-.961,1.74-1.923,3.432-2.788,5.038-.231.394-.433.8-.673,1.173l-.731,1.106-1.413,2.106-2.529,3.769c-1.7,2.182-3.134,3.913-4.115,5.105a15.773,15.773,0,0,1-1.6,1.807,13.236,13.236,0,0,1,1.356-1.99l3.9-5.259,2.442-3.846c.433-.683.894-1.384,1.356-2.106l.721-1.106c.231-.375.423-.779.654-1.183l2.73-5.019.711-1.279c.24-.442.423-.961.644-1.384l1.279-2.884c.433-.961.865-1.923,1.279-2.884.2-.471.442-.961.615-1.394l.51-1.413c.673-1.865,1.336-3.663,1.923-5.374.144-.433.317-.846.452-1.269s.231-.856.356-1.269c.231-.827.452-1.634.673-2.413.442-1.558.856-3.019,1.24-4.346.558-2.673,1.019-4.807,1.346-6.393A15.559,15.559,0,0,1,253.194,53.34Z" transform="translate(940.404 144.553)" fill="#263238"/>
    <path id="Path_1226" data-name="Path 1226" d="M310.441,194.726,300.9,158.509l-23.824.635,7.413,50.542c.961,11,7.422,18.19,18.267,19.94,6.538,1.048,13.623-5.182,18.873-9.21,3.423-2.634,4.028-2.115,7.566-5.326h0l15.383-11.095.375,1.827h-.1l2.605,30.881,31.785,25,37.909-30.371-.865-13.143c.1,0,.183-.192,0-.192l-.961-14.883,19.421,22.276a22.18,22.18,0,0,0,38.976-4.538l10-50.955-21.959-4.721L451.492,201.86l-24.507-28.2c-14.152-18.44-30.669-16.883-30.669-16.883l-30.458-.538h-.067c-.9,0-17.921.567-29.458,12.893Z" transform="translate(938.525 140.584)" fill="#3baeda"/>
    <path id="Path_1227" data-name="Path 1227" d="M430.393,176.333a8.671,8.671,0,0,0-.961-.356,7.691,7.691,0,0,0-2.942-.308,13.767,13.767,0,0,0-4.509,1.288c-1.683.75-3.423,1.923-5.451,3.105a14.133,14.133,0,0,1-7.278,2.307,12.836,12.836,0,0,1-4.192-.961c-1.365-.538-2.721-1.2-4.144-1.769a16.344,16.344,0,0,0-9.355-.884c-3.269.625-6.268,2.461-9.335,4.24a35.713,35.713,0,0,1-4.74,2.365,19.02,19.02,0,0,1-5,1.211,19.719,19.719,0,0,1-9.614-1.327,36.871,36.871,0,0,1-7.547-4.5c-2.221-1.606-4.269-3.134-6.278-4.3a22.593,22.593,0,0,0-5.769-2.375,14.209,14.209,0,0,0-4.672-.385,12.21,12.21,0,0,0-3.846,1.086l.221-.135c.154-.087.385-.212.7-.365a10.68,10.68,0,0,1,2.884-.779,14.219,14.219,0,0,1,4.759.308,22.477,22.477,0,0,1,5.874,2.336c2.038,1.154,4.105,2.682,6.336,4.269a36.151,36.151,0,0,0,7.48,4.4,19.411,19.411,0,0,0,14.268.077,34.248,34.248,0,0,0,4.673-2.346c3.048-1.769,6.105-3.644,9.489-4.278a16.825,16.825,0,0,1,9.614.961c2.884,1.163,5.451,2.663,8.172,2.75a13.872,13.872,0,0,0,7.1-2.2c2.009-1.106,3.788-2.317,5.509-3.048a13.634,13.634,0,0,1,4.615-1.231,7.182,7.182,0,0,1,2.98.4A3.7,3.7,0,0,1,430.393,176.333Z" transform="translate(936.3 139.921)" fill="#424242"/>
    <path id="Path_1228" data-name="Path 1228" d="M447.427,194.967a5.337,5.337,0,0,1-.519,1.346,8.508,8.508,0,0,1-2.759,3.038,12.594,12.594,0,0,1-6.115,2.173,39.782,39.782,0,0,1-8.653-.385c-3.134-.317-6.73-.7-10.258.461a23.393,23.393,0,0,0-5.1,2.682,36.686,36.686,0,0,1-5.355,3.115,22.8,22.8,0,0,1-13.1,1.529,21.718,21.718,0,0,1-6.653-2.336c-2.115-1.134-4.086-2.538-6.124-3.846a25,25,0,0,0-6.365-3.192,15.95,15.95,0,0,0-6.826-.433c-4.519.663-8.653,2.48-12.71,3.586a24.363,24.363,0,0,1-6.124,1.019,14.422,14.422,0,0,1-5.769-.961c-3.548-1.461-6.163-3.961-8.48-6.115A41.335,41.335,0,0,0,329.9,191.2a13.777,13.777,0,0,0-6.057-2.057,9.71,9.71,0,0,0-4.019.481c-.875.327-1.288.606-1.307.577a6,6,0,0,1,1.269-.673,9.344,9.344,0,0,1,4.076-.577,13.806,13.806,0,0,1,6.182,2.009,40.892,40.892,0,0,1,6.73,5.432c2.336,2.144,4.932,4.586,8.393,5.99a14.113,14.113,0,0,0,5.615.961,23.824,23.824,0,0,0,6.009-1.038c2.019-.567,4.067-1.279,6.172-1.923a39.166,39.166,0,0,1,6.586-1.769,16.345,16.345,0,0,1,7.038.433,26.035,26.035,0,0,1,6.5,3.25c2.048,1.327,4.009,2.73,6.076,3.846a21.393,21.393,0,0,0,6.509,2.288,22.382,22.382,0,0,0,12.835-1.471c3.846-1.673,6.826-4.576,10.5-5.769a17.017,17.017,0,0,1,5.422-.779,45.939,45.939,0,0,1,5.019.365,40.134,40.134,0,0,0,8.557.452,12.624,12.624,0,0,0,6.038-2.048,8.768,8.768,0,0,0,2.779-2.932A14.008,14.008,0,0,0,447.427,194.967Z" transform="translate(936.926 139.323)" fill="#424242"/>
    <path id="Path_1229" data-name="Path 1229" d="M479.86,220.579a7.69,7.69,0,0,0-1.336-1.086,6.653,6.653,0,0,0-4.509-.683,14.719,14.719,0,0,0-6.086,3.25c-1.048.817-2.134,1.7-3.365,2.5a10.518,10.518,0,0,1-8.711,1.673,31.426,31.426,0,0,1-4.028-1.173c-1.259-.423-2.442-.856-3.577-1.154a17.956,17.956,0,0,0-3.2-.538,8.845,8.845,0,0,0-4.567.731c-.961.49-1.442.961-1.481.9a1.664,1.664,0,0,1,.317-.327,3.079,3.079,0,0,1,.433-.346,3.845,3.845,0,0,1,.635-.4,8.836,8.836,0,0,1,4.692-.961,17.835,17.835,0,0,1,3.278.49c1.163.288,2.365.711,3.615,1.125,2.49.808,5.355,1.8,8.336,1.24a11.26,11.26,0,0,0,4-1.711c1.2-.779,2.279-1.654,3.346-2.461a14.719,14.719,0,0,1,6.3-3.23,6.73,6.73,0,0,1,4.682.856,4.962,4.962,0,0,1,.961.875A1.98,1.98,0,0,1,479.86,220.579Z" transform="translate(932.278 138.189)" fill="#424242"/>
    <path id="Path_1230" data-name="Path 1230" d="M485.577,191.824a2.606,2.606,0,0,1-.827.519,7.634,7.634,0,0,1-2.586.654,12.663,12.663,0,0,1-3.932-.356,37.757,37.757,0,0,1-4.557-1.519,25.764,25.764,0,0,0-4.519-1.346,11,11,0,0,0-3.846,0,8.731,8.731,0,0,0-3.23,1.394,2.548,2.548,0,0,1,.712-.673,6.806,6.806,0,0,1,2.442-1.067,10.681,10.681,0,0,1,3.952-.1,24.39,24.39,0,0,1,4.634,1.346,47.108,47.108,0,0,0,4.49,1.538,13.374,13.374,0,0,0,3.8.442,10.248,10.248,0,0,0,3.471-.836Z" transform="translate(931.388 139.312)" fill="#424242"/>
    <path id="Path_1231" data-name="Path 1231" d="M417.513,229.634A23.287,23.287,0,0,0,415,228.48a17.075,17.075,0,0,0-7.432-.769A31.882,31.882,0,0,0,397,231.076c-3.846,1.8-7.855,4.2-12.556,5.769a23.69,23.69,0,0,1-7.076,1.221,21.854,21.854,0,0,1-6.6-1.134,57.206,57.206,0,0,1-5.605-2.23c-1.721-.76-3.317-1.5-4.807-2.077a25.075,25.075,0,0,0-7.268-1.923l-1.183-.067h-.875a3.846,3.846,0,0,1-.721,0,4.02,4.02,0,0,1,.721-.1l.865-.077h1.2a24.035,24.035,0,0,1,7.384,1.759c1.509.567,3.115,1.288,4.807,2.029a57.4,57.4,0,0,0,5.586,2.173,21.653,21.653,0,0,0,6.451,1.086,23.161,23.161,0,0,0,6.922-1.211c4.624-1.5,8.653-3.846,12.5-5.663a31.39,31.39,0,0,1,10.768-3.3,16.5,16.5,0,0,1,7.528.961A9.749,9.749,0,0,1,417.513,229.634Z" transform="translate(935.7 137.844)" fill="#424242"/>
    <path id="Path_1232" data-name="Path 1232" d="M283.64,204.158a1.338,1.338,0,0,1,.452-.212,2.49,2.49,0,0,1,1.461.058,4.153,4.153,0,0,1,1.923,1.308A13.977,13.977,0,0,1,289,207.937a9.077,9.077,0,0,0,2.125,2.827,10.278,10.278,0,0,0,3.557,1.923,20.074,20.074,0,0,0,9.364.452,66.34,66.34,0,0,1,9.537-1.144,13.575,13.575,0,0,1,7.538,2.086,8.576,8.576,0,0,1,3.432,4,5.2,5.2,0,0,1,.4,1.923,18.326,18.326,0,0,0-.586-1.817,8.576,8.576,0,0,0-3.442-3.778,13.393,13.393,0,0,0-7.345-1.923,68.651,68.651,0,0,0-9.46,1.183,20.267,20.267,0,0,1-9.614-.51,10.575,10.575,0,0,1-3.682-2.1,9.23,9.23,0,0,1-2.173-2.98,14.149,14.149,0,0,0-1.423-2.605,3.971,3.971,0,0,0-1.74-1.3,2.769,2.769,0,0,0-1.846-.019Z" transform="translate(938.272 138.746)" fill="#424242"/>
    <path id="Path_1233" data-name="Path 1233" d="M304.349,173.519a9.836,9.836,0,0,0-3.355-1.74,10.979,10.979,0,0,0-4.067-.269,17.95,17.95,0,0,0-4.807,1.394c-1.654.711-3.182,1.529-4.6,2.221a35.338,35.338,0,0,1-3.846,1.682,16.18,16.18,0,0,1-2.75.7,3.4,3.4,0,0,1-1.038.067,34.03,34.03,0,0,0,3.663-1.106,41.27,41.27,0,0,0,3.778-1.759c1.394-.711,2.932-1.538,4.615-2.269a17.373,17.373,0,0,1,4.99-1.384,10.643,10.643,0,0,1,4.221.385,7.587,7.587,0,0,1,2.529,1.327,2.885,2.885,0,0,1,.663.75Z" transform="translate(938.417 140.014)" fill="#424242"/>
    <g id="Group_163" data-name="Group 163" transform="translate(1312.382 343.674)" opacity="0.3">
      <path id="Path_1234" data-name="Path 1234" d="M377.74,259.29c12.335-7.153,26.622-15.546,33.746-27.881,4.557-7.9,6.826-17.363,7.691-26.439l1.856,28.218-37.909,30.371Z" transform="translate(-377.74 -204.97)"/>
    </g>
    <g id="Group_164" data-name="Group 164" transform="translate(1248.784 304.65)" opacity="0.2">
      <path id="Path_1235" data-name="Path 1235" d="M343.192,164.38a54.417,54.417,0,0,1-16.94,27.516,21.046,21.046,0,0,1-6.826,4.307,9.441,9.441,0,0,1-7.836-.51l.183-.654L331,176.013Z" transform="translate(-311.59 -164.38)"/>
    </g>
    <path id="Path_1236" data-name="Path 1236" d="M314.22,211.4c-.077,0,.231-.875.49-2.279a16.709,16.709,0,0,0,.048-5.547,16.393,16.393,0,0,0-1.827-5.24c-.7-1.25-1.269-1.923-1.2-2a6.508,6.508,0,0,1,1.509,1.817,14.535,14.535,0,0,1,2.009,5.336,14.364,14.364,0,0,1-.192,5.711,6.529,6.529,0,0,1-.836,2.2Z" transform="translate(937.189 139.037)" fill="#263238"/>
    <path id="Path_1237" data-name="Path 1237" d="M308.59,206.608a13.672,13.672,0,0,0,2.711-9.778,3.46,3.46,0,0,1,.385,1.509,10.23,10.23,0,0,1-1.981,7.163A4.567,4.567,0,0,1,308.59,206.608Z" transform="translate(937.31 139.018)" fill="#263238"/>
    <path id="Path_1238" data-name="Path 1238" d="M345.8,186.3c.135,0,.961,7.691,1.759,17.113s1.4,17.152,1.259,17.161-.961-7.691-1.759-17.113S345.655,186.31,345.8,186.3Z" transform="translate(935.875 139.424)" fill="#263238"/>
    <path id="Path_1239" data-name="Path 1239" d="M398.039,155.66a2.194,2.194,0,0,1,.212.519,10.577,10.577,0,0,1,.413,1.538,14.575,14.575,0,0,1-.087,5.874,15.21,15.21,0,0,1-4.192,7.6,14.95,14.95,0,0,1-19.767.433,15.248,15.248,0,0,1-4.519-7.413,14.777,14.777,0,0,1-.356-5.865,11.107,11.107,0,0,1,.356-1.557,2.316,2.316,0,0,1,.183-.529c.058,0-.183.75-.346,2.115a15.47,15.47,0,0,0,.5,5.769,15.075,15.075,0,0,0,4.48,7.163,14.614,14.614,0,0,0,19.152-.423,15.142,15.142,0,0,0,4.4-13.1C398.26,156.4,397.981,155.679,398.039,155.66Z" transform="translate(934.956 140.606)" fill="#263238"/>
    <path id="Path_1240" data-name="Path 1240" d="M457.269,215.418a24.15,24.15,0,0,1-.163-6.028,24.514,24.514,0,0,1,.846-5.98c.144,0-.163,2.7-.346,6.009S457.413,215.418,457.269,215.418Z" transform="translate(931.584 138.764)" fill="#263238"/>
    <path id="Path_1241" data-name="Path 1241" d="M461.171,217.155a8.1,8.1,0,0,1-.817-1.923,42.069,42.069,0,0,1-1.336-4.951,43.318,43.318,0,0,1-.74-5.076,7.856,7.856,0,0,1,0-2.125c.144,0,.433,3.211,1.25,7.1S461.315,217.107,461.171,217.155Z" transform="translate(931.538 138.777)" fill="#263238"/>
    <path id="Path_1242" data-name="Path 1242" d="M420.821,217.328c-.144,0-.461-5.413-.711-12.1s-.336-12.1-.2-12.114.452,5.413.7,12.095S420.955,217.319,420.821,217.328Z" transform="translate(933.017 139.161)" fill="#263238"/>
    <path id="Path_1243" data-name="Path 1243" d="M383.967,171.339h0A13.643,13.643,0,0,1,370.6,158.273c-.221-5.269-.4-10.1-.4-10.1s-11.027-1.173-11.691-12.1,0-36.159,0-36.159h0a38.072,38.072,0,0,1,38.457,2.952l1.682,1.173-.808,53.84a13.633,13.633,0,0,1-13.873,13.47Z" transform="translate(935.395 142.906)" fill="#ffbe9d"/>
    <path id="Path_1244" data-name="Path 1244" d="M370.67,149.909a25.516,25.516,0,0,0,14.066-4.749s-2.99,8.037-13.96,7.586Z" transform="translate(934.915 141.011)" fill="#eb996e"/>
    <path id="Path_1245" data-name="Path 1245" d="M399.45,116.181c.183-.087,7.413-2.586,7.538,4.913s-7.422,6.067-7.441,5.855S399.45,116.181,399.45,116.181Z" transform="translate(933.804 142.147)" fill="#ffbe9d"/>
    <path id="Path_1246" data-name="Path 1246" d="M401.88,124.174a2.748,2.748,0,0,0,.356.183,1.308,1.308,0,0,0,.961,0,3.18,3.18,0,0,0,1.442-2.884,4.24,4.24,0,0,0-.394-1.856,1.51,1.51,0,0,0-.961-.961.663.663,0,0,0-.76.375c-.1.212,0,.356-.087.375s-.163-.125-.106-.442a.817.817,0,0,1,.279-.471.961.961,0,0,1,.721-.2,1.846,1.846,0,0,1,1.384,1.144,4.383,4.383,0,0,1,.49,2.077c0,1.509-.779,2.932-1.856,3.269a1.394,1.394,0,0,1-1.192-.183C401.9,124.347,401.861,124.183,401.88,124.174Z" transform="translate(933.711 142.048)" fill="#eb996e"/>
    <path id="Path_1247" data-name="Path 1247" d="M364,117.213a1.558,1.558,0,0,0,1.509,1.577,1.49,1.49,0,0,0,1.606-1.4,1.567,1.567,0,0,0-1.5-1.586A1.5,1.5,0,0,0,364,117.213Z" transform="translate(935.172 142.144)" fill="#263238"/>
    <path id="Path_1248" data-name="Path 1248" d="M362,115.574c.192.212,1.375-.673,3.057-.663s2.884.846,3.105.635-.106-.452-.644-.846a4.288,4.288,0,0,0-2.481-.769,4.153,4.153,0,0,0-2.442.788C362.086,115.113,361.913,115.488,362,115.574Z" transform="translate(935.25 142.216)" fill="#263238"/>
    <path id="Path_1249" data-name="Path 1249" d="M380.8,117.413a1.557,1.557,0,0,0,1.509,1.577,1.49,1.49,0,0,0,1.615-1.4A1.567,1.567,0,0,0,382.415,116a1.5,1.5,0,0,0-1.615,1.413Z" transform="translate(934.524 142.136)" fill="#263238"/>
    <path id="Path_1250" data-name="Path 1250" d="M379.219,115.934c.192.2,1.384-.673,3.067-.673s2.884.846,3.1.644-.106-.461-.644-.846a4.278,4.278,0,0,0-4.923.019C379.306,115.444,379.123,115.809,379.219,115.934Z" transform="translate(934.586 142.202)" fill="#263238"/>
    <path id="Path_1251" data-name="Path 1251" d="M372.7,128.437a11.269,11.269,0,0,0-2.74-.5c-.433,0-.836-.125-.9-.423a2.173,2.173,0,0,1,.279-1.269c.413-1.038.836-2.134,1.279-3.278,1.759-4.663,3.038-8.489,2.884-8.557s-1.779,3.644-3.538,8.307c-.423,1.154-.836,2.25-1.221,3.3a2.462,2.462,0,0,0-.221,1.683,1.086,1.086,0,0,0,.7.635,3.115,3.115,0,0,0,.731.1A10.94,10.94,0,0,0,372.7,128.437Z" transform="translate(935 142.197)" fill="#263238"/>
    <path id="Path_1252" data-name="Path 1252" d="M377.785,130.17c-.269,0-.279,1.807-1.846,3.105s-3.509,1.1-3.519,1.356c0,.115.433.356,1.259.375a4.548,4.548,0,0,0,2.942-1.029,3.971,3.971,0,0,0,1.423-2.605C378.131,130.612,377.929,130.16,377.785,130.17Z" transform="translate(934.847 141.589)" fill="#263238"/>
    <path id="Path_1253" data-name="Path 1253" d="M378.77,109.059c.163.452,1.846.24,3.846.481s3.567.769,3.846.365c.125-.2-.154-.635-.8-1.077a6.73,6.73,0,0,0-5.836-.644C379.058,108.482,378.7,108.838,378.77,109.059Z" transform="translate(934.602 142.452)" fill="#263238"/>
    <path id="Path_1254" data-name="Path 1254" d="M362.648,110.5c.3.385,1.461,0,2.884,0s2.577.26,2.884-.144c.115-.192-.067-.577-.586-.961a3.98,3.98,0,0,0-2.317-.625,3.9,3.9,0,0,0-2.269.769C362.677,109.952,362.523,110.318,362.648,110.5Z" transform="translate(935.226 142.415)" fill="#263238"/>
    <path id="Path_1255" data-name="Path 1255" d="M352.729,92.167a4.057,4.057,0,0,1,1.5-3.615,2.884,2.884,0,0,1,3.711.279,3.355,3.355,0,0,1,2.884-4.057c1.788-.115,3.317,1.24,5.038,1.711a8.191,8.191,0,0,0,5.105-.606c1.625-.654,3.144-1.558,4.807-2.154a14.008,14.008,0,0,1,17.921,8.22,6.22,6.22,0,0,1,6.6,2.5,10.22,10.22,0,0,1,1.567,7.191,23.072,23.072,0,0,1-1.259,4.913v.423c-.115,6.019-.8,13.095-3.365,13.133-4.48.067-3.413-8.374-3.413-8.374-5.5-2.115-3.452-10.355-4.807-11.6s-4.249-4.153-15.758,1.731c-4.471,2.279-10.412,2.211-13.662,1.471a2.383,2.383,0,0,1-.279-.058h-.163a10.374,10.374,0,0,1-2.952-1.25,5.826,5.826,0,0,1-2.432-2.711,3.182,3.182,0,0,1,.625-3.423,7.037,7.037,0,0,1-1.663-3.721Z" transform="translate(935.608 143.414)" fill="#263238"/>
  </g>
</svg>
