<svg xmlns="http://www.w3.org/2000/svg" width="305.474" height="289.074" viewBox="0 0 305.474 289.074">
  <g id="Group_140" data-name="Group 140" transform="translate(-1289.823 -2260.234)">
    <g id="freepik--background-complete--inject-74" transform="translate(1296.856 2260.734)">
      <rect id="Rectangle_1416" data-name="Rectangle 1416" width="91.367" height="62.279" transform="translate(28.456)" fill="none" stroke="#ebebeb" stroke-miterlimit="10" stroke-width="1"/>
      <path id="Path_384" data-name="Path 384" d="M96.8,52.41a1.833,1.833,0,1,1-.534-1.3A1.833,1.833,0,0,1,96.8,52.41Z" transform="translate(-61.503 -48.708)" fill="#a6a6a6"/>
      <path id="Path_385" data-name="Path 385" d="M107.085,52.41a1.833,1.833,0,1,1-.534-1.3,1.833,1.833,0,0,1,.534,1.3Z" transform="translate(-64.31 -48.708)" fill="#ebebeb"/>
      <path id="Path_386" data-name="Path 386" d="M117.375,52.41a1.833,1.833,0,1,1-.534-1.3A1.833,1.833,0,0,1,117.375,52.41Z" transform="translate(-67.117 -48.708)" fill="#407bff"/>
      <line id="Line_1" data-name="Line 1" x2="91.367" transform="translate(28.456 7.287)" fill="none" stroke="#ebebeb" stroke-miterlimit="10" stroke-width="1"/>
      <rect id="Rectangle_1417" data-name="Rectangle 1417" width="52.876" height="33.532" transform="translate(0.038 145.572) rotate(-7.77)" fill="#ebebeb"/>
      <path id="Path_387" data-name="Path 387" d="M102.058,238.37c-1.84,2.313-3.731,4.545-5.592,6.829s-3.774,4.48-5.672,6.7-3.978,4.618-5.978,6.909l-.175.225L79.318,265.1l-.269.284-.32-.2q-3.382-2.182-6.741-4.429l-.24-.153c-2.545-1.673-5.09-3.352-7.614-5.091-2.422-1.622-4.843-3.28-7.272-4.93s-4.829-3.345-7.221-5.09c2.487,1.454,4.945,2.945,7.418,4.421s4.931,3.018,7.381,4.552q4.1,2.553,8.2,5.192h0q3.076,1.956,6.138,3.927c1.614-1.811,3.236-3.636,4.858-5.425h0q3.243-3.636,6.545-7.192,2.909-3.2,5.89-6.349C98.08,242.53,100.08,240.413,102.058,238.37Z" transform="translate(-49.64 -99.937)" fill="#fff"/>
      <path id="Path_388" data-name="Path 388" d="M74.548,268.69l-.058.065c-.24.276-.48.545-.727.814-1.164,1.287-2.363,2.531-3.592,3.752-1.454,1.5-3.032,2.953-4.581,4.4s-3.134,2.836-4.749,4.211-3.251,2.727-4.96,3.992c1.4-1.607,2.872-3.127,4.363-4.625s3.047-2.953,4.589-4.363,3.134-2.851,4.756-4.225c1.28-1.091,2.6-2.182,3.942-3.214l.945-.727Z" transform="translate(-51.342 -108.208)" fill="#fff"/>
      <path id="Path_389" data-name="Path 389" d="M119.1,278.264c-1.985-.764-3.927-1.629-5.818-2.523s-3.818-1.833-5.709-2.785-3.752-1.963-5.592-3.011c-1.505-.851-3-1.716-4.451-2.647l-.931-.6-.073-.051a.2.2,0,0,0,.087,0l1.1.444c1.578.633,3.127,1.331,4.661,2.043,1.927.895,3.818,1.833,5.709,2.793s3.752,1.971,5.592,3.018S117.328,277.085,119.1,278.264Z" transform="translate(-62.431 -107.652)" fill="#fff"/>
      <rect id="Rectangle_1418" data-name="Rectangle 1418" width="30.521" height="48.127" transform="translate(238.878 48.158) rotate(-80.53)" fill="#ebebeb"/>
      <path id="Path_390" data-name="Path 390" d="M432.522,80.746c-2.225,1.513-4.472,2.909-6.7,4.429s-4.487,2.909-6.741,4.3-4.705,2.909-7.054,4.363l-.218.138-6.254,3.832-.313.182-.225-.269c-1.564-1.883-3.113-3.774-4.669-5.665l-.16-.2c-1.76-2.138-3.512-4.283-5.258-6.458s-3.316-4.16-4.974-6.247-3.287-4.211-4.9-6.363c1.782,1.913,3.505,3.9,5.258,5.818s3.469,3.956,5.192,5.956c1.913,2.182,3.825,4.458,5.723,6.719h0l4.276,5.09c1.891-1.142,3.789-2.291,5.679-3.411h0q3.8-2.269,7.6-4.5,3.411-1.985,6.836-3.934C427.919,83.291,430.217,81.982,432.522,80.746Z" transform="translate(-141.135 -54.77)" fill="#fff"/>
      <path id="Path_391" data-name="Path 391" d="M399.4,99.257h-.065c-.284.175-.567.349-.851.509q-2.044,1.214-4.138,2.3c-1.7.9-3.432,1.745-5.17,2.582s-3.483,1.629-5.258,2.385-3.563,1.454-5.4,2.131c1.651-1.018,3.345-1.942,5.047-2.843s3.447-1.745,5.178-2.582,3.491-1.629,5.265-2.393c1.418-.6,2.851-1.193,4.3-1.731l1.018-.364Z" transform="translate(-139.354 -61.988)" fill="#fff"/>
      <path id="Path_392" data-name="Path 392" d="M437.292,117.7c-1.527-1.193-2.982-2.473-4.407-3.767s-2.822-2.625-4.211-3.963-2.734-2.72-4.051-4.123c-1.083-1.142-2.138-2.3-3.156-3.505l-.647-.764a.064.064,0,0,0-.051-.058.341.341,0,0,0,.065.044l.836.684c1.2.974,2.356,2,3.505,3.032,1.454,1.294,2.822,2.625,4.2,3.971s2.734,2.72,4.051,4.123S436.056,116.2,437.292,117.7Z" transform="translate(-150.879 -62.607)" fill="#fff"/>
    </g>
    <g id="freepik--Floor--inject-74" transform="translate(1289.823 2510.329)">
      <path id="Path_393" data-name="Path 393" d="M39.97,391.594l38.186-.182,38.186-.065,76.365-.116,76.365.116,38.186.065,38.186.182-38.186.175-38.186.065-76.365.124-76.365-.124-38.186-.065Z" transform="translate(-39.97 -391.23)" fill="#263238"/>
    </g>
    <g id="freepik--Character--inject-74" transform="translate(1306.893 2273.265)">
      <path id="Path_412" data-name="Path 412" d="M64.33,427.583c1.571.5,46.251.036,47.945-1.062.647-.414.953-6.923,1.105-14.806.036-1.7.058-3.454.073-5.243.109-11.585-.051-23.882-.051-23.882l-29.867.233.88,23.874.189,5.243s-17.068,7.832-18.784,9.228S62.767,427.074,64.33,427.583Z" transform="translate(-63.496 -151.81)" fill="#f7a9a0"/>
      <path id="Path_413" data-name="Path 413" d="M64.33,434.473c1.571.509,46.251,0,47.945-1.062.647-.415.96-6.923,1.105-14.8.036-1.7.065-3.462.073-5.243s0-3.694,0-5.52H84.169l.211,5.738.2,5.236s-17.039,7.839-18.755,9.236S62.767,433.964,64.33,434.473Z" transform="translate(-63.496 -158.7)" fill="#ebebeb"/>
      <path id="Path_414" data-name="Path 414" d="M64.146,436.587c1.571.509,46.542.036,48.207-1.069.793-.509,1.091-10.065,1.185-20.158l-29.227.225.189,5.272s-17.126,7.876-18.864,9.279S62.568,436.078,64.146,436.587Z" transform="translate(-63.443 -160.749)" fill="#3baeda"/>
      <path id="Path_415" data-name="Path 415" d="M65.225,441.907c7.527-.269,37.924-.625,45.393-.313.058,0,.058.044,0,.051-7.461.422-37.859.531-45.393.385C65.065,442.023,65.065,441.914,65.225,441.907Z" transform="translate(-63.896 -167.872)" fill="#263238"/>
      <path id="Path_416" data-name="Path 416" d="M90.844,420.54c2.96-.582,6.589-.167,8.879,1.92.087.08,0,.2-.124.174a41.985,41.985,0,0,0-8.727-1.716.19.19,0,0,1-.029-.378Z" transform="translate(-70.87 -162.096)" fill="#263238"/>
      <path id="Path_417" data-name="Path 417" d="M87.924,422.348c2.96-.589,6.589-.175,8.872,1.92.095.08,0,.2-.124.175a41.441,41.441,0,0,0-8.748-1.687.2.2,0,1,1,0-.407Z" transform="translate(-70.065 -162.588)" fill="#263238"/>
      <path id="Path_418" data-name="Path 418" d="M85.016,424.15c2.952-.582,6.581-.167,8.872,1.92.087.08,0,.2-.124.174a42.027,42.027,0,0,0-8.727-1.723.189.189,0,0,1-.022-.371Z" transform="translate(-69.289 -163.081)" fill="#263238"/>
      <path id="Path_419" data-name="Path 419" d="M82.074,425.91c2.96-.582,6.589-.167,8.879,1.92.087.087,0,.211-.124.182a41.529,41.529,0,0,0-8.727-1.724.19.19,0,0,1-.029-.378Z" transform="translate(-68.477 -163.561)" fill="#263238"/>
      <path id="Path_420" data-name="Path 420" d="M84.476,415.132c2.116,1.607,4.851,2.247,7.272,3.127a.371.371,0,0,0,.458-.378.074.074,0,0,0,.073-.1,15.86,15.86,0,0,0-4.64-6.749c-1.244-1.025-3.425-1.724-4.574-.1S83.247,414.194,84.476,415.132Zm-.778-2.378c-.56-3.243,2.952-1.571,3.84-.778a16.537,16.537,0,0,1,1.593,1.651,47.143,47.143,0,0,1,2.793,3.876c-1.178-.509-2.393-.909-3.592-1.367C86.9,415.612,84,414.543,83.7,412.754Z" transform="translate(-68.676 -159.277)" fill="#263238"/>
      <path id="Path_421" data-name="Path 421" d="M105.532,413.8c-.727-1.84-3.018-1.673-4.472-.967a15.845,15.845,0,0,0-6.065,5.461.08.08,0,0,0,.044.124.364.364,0,0,0,.356.473c2.6-.276,5.4-.255,7.839-1.324C104.63,416.943,106.23,415.539,105.532,413.8Zm-6.312,3.861c-1.273.167-2.545.276-3.811.487a43.639,43.639,0,0,1,3.636-3.112,16.946,16.946,0,0,1,1.934-1.258c1.054-.56,4.858-1.36,3.556,1.665C103.808,417.11,100.739,417.467,99.22,417.663Z" transform="translate(-72.045 -159.925)" fill="#263238"/>
      <path id="Path_422" data-name="Path 422" d="M129.676,206.67s-8.727,73.405-8.9,74.394c0,.131,2.473,78.452,2.473,78.452H90.654s-.88-68.634.327-80.241c1.542-14.806,11.257-72.605,11.257-72.605Z" transform="translate(-70.781 -103.821)" fill="#37474f"/>
      <path id="Path_423" data-name="Path 423" d="M121.949,407.545c-5.011-.1-3.571-.145-8.581-.189-2.451,0-18.559-.167-20.842.211-.051,0-.051.095,0,.1,2.283.385,18.391.24,20.842.218,5.011-.051,3.571-.087,8.581-.2a.073.073,0,0,0,0-.145Z" transform="translate(-71.366 -158.555)" fill="#263238"/>
      <path id="Path_424" data-name="Path 424" d="M126.085,276.017c.458-4.145,1.054-8.283,1.593-12.421Q129.321,251.11,131,238.6c1.273-9.454,2.625-18.871,3.963-28.3,0-.116.2-.109.182,0q-1.513,12.632-3.062,25.256c-1.033,8.334-2.131,16.668-3.222,24.994s-2.5,16.544-2.465,24.893c0,4.2.2,8.4.32,12.6s.24,8.4.349,12.6c.255,9.512.618,29.859.524,39.379a.095.095,0,1,1-.189,0c-.582-8.479-.764-27.809-1.04-36.3s-.574-16.806-.727-25.212a95.563,95.563,0,0,1,.451-12.494Z" transform="translate(-80.396 -104.788)" fill="#263238"/>
      <path id="Path_425" data-name="Path 425" d="M168.987,418.1c1.578-.458,38.31-25.911,39.1-27.765.305-.727-3.091-6.269-7.381-12.879-.931-1.454-1.891-2.909-2.909-4.363-6.414-9.65-13.439-19.744-13.439-19.744L159.73,370.309l14.115,19.271,3.1,4.232s-9.708,16-10.348,18.18S167.4,418.545,168.987,418.1Z" transform="translate(-89.708 -143.833)" fill="#f7a9a0"/>
      <path id="Path_426" data-name="Path 426" d="M171.511,423.789c1.578-.458,38.31-25.911,39.1-27.758.305-.727-3.083-6.276-7.388-12.879q-1.374-2.182-2.909-4.363c-1.025-1.454-2.051-3.076-3.062-4.589L172.98,390.642l3.389,4.625,3.1,4.232s-9.679,16.006-10.326,18.188S169.933,424.232,171.511,423.789Z" transform="translate(-92.232 -149.521)" fill="#ebebeb"/>
      <path id="Path_427" data-name="Path 427" d="M171.4,425.586c1.593-.458,38.542-26.056,39.32-27.918.364-.865-4.749-8.945-10.326-17.359l-24.071,16.58,3.112,4.283s-9.745,16.1-10.414,18.239S169.81,426.052,171.4,425.586Z" transform="translate(-92.197 -151.188)" fill="#407bff"/>
      <path id="Path_428" data-name="Path 428" d="M171.645,430.349c6.087-4.443,31.059-21.816,37.408-25.714.058-.036.08,0,0,.036-5.934,4.538-31.045,21.678-37.364,25.78C171.587,430.567,171.521,430.472,171.645,430.349Z" transform="translate(-92.94 -157.819)" fill="#263238"/>
      <path id="Path_429" data-name="Path 429" d="M180.872,406.611c2.116-2.182,5.36-3.84,8.421-3.389.116,0,.095.182,0,.211a41.721,41.721,0,0,0-8.2,3.476.189.189,0,0,1-.218-.3Z" transform="translate(-95.463 -157.417)" fill="#263238"/>
      <path id="Path_430" data-name="Path 430" d="M179.462,409.7c2.116-2.182,5.36-3.832,8.421-3.389.124,0,.095.189,0,.218a42.139,42.139,0,0,0-8.2,3.469.189.189,0,0,1-.218-.3Z" transform="translate(-95.078 -158.261)" fill="#263238"/>
      <path id="Path_431" data-name="Path 431" d="M178.047,412.872c2.123-2.138,5.36-3.832,8.421-3.389.124,0,.095.189,0,.218a41.718,41.718,0,0,0-8.2,3.476.189.189,0,0,1-.218-.305Z" transform="translate(-94.688 -159.126)" fill="#263238"/>
      <path id="Path_432" data-name="Path 432" d="M176.634,416.011c2.123-2.145,5.36-3.84,8.428-3.389.116,0,.087.182,0,.211a41.447,41.447,0,0,0-8.181,3.476.194.194,0,1,1-.247-.3Z" transform="translate(-94.3 -159.982)" fill="#263238"/>
      <path id="Path_433" data-name="Path 433" d="M172.828,406.225c2.647.145,5.272-.865,7.8-1.513a.364.364,0,0,0,.167-.567.08.08,0,0,0,0-.131,15.948,15.948,0,0,0-7.621-2.982c-1.607-.145-3.8.495-3.847,2.48C169.286,405.367,171.271,406.138,172.828,406.225Zm-1.978-1.534c-2.283-2.371,1.556-2.96,2.742-2.8a17.092,17.092,0,0,1,2.254.5,44.078,44.078,0,0,1,4.487,1.643c-1.258.24-2.487.589-3.738.88C175.1,405.258,172.108,406,170.85,404.69Z" transform="translate(-92.327 -156.835)" fill="#263238"/>
      <path id="Path_434" data-name="Path 434" d="M190.407,392.14c-1.636-1.113-3.432.305-4.24,1.7a15.817,15.817,0,0,0-1.978,7.941.08.08,0,0,0,.1.08.371.371,0,0,0,.56.189c1.993-1.687,4.363-3.243,5.752-5.49C191.425,395.245,191.963,393.187,190.407,392.14Zm-3.054,6.734c-.96.858-1.956,1.658-2.909,2.545.393-1.549.727-3.105,1.258-4.611a17.18,17.18,0,0,1,.9-2.131c.553-1.055,3.251-3.854,3.869-.618C190.836,395.842,188.494,397.856,187.352,398.874Z" transform="translate(-96.38 -154.306)" fill="#263238"/>
      <path id="Path_435" data-name="Path 435" d="M106.7,206.67s5.091,15.642,10.814,23.533c0,0,1.5,57.843,3.832,64.489,3.876,11,34,55.5,34,55.5l27.6-19.068s-28.863-41.778-30.376-45.778c-1-2.654-3.92-48.505-3.5-49.654,5.09-13.875-2.567-29.023-2.567-29.023Z" transform="translate(-75.243 -103.821)" fill="#37474f"/>
      <path id="Path_436" data-name="Path 436" d="M194.364,369.815c-4.182,2.756-3.025,1.905-7.17,4.712-2.036,1.367-15.373,10.4-17.039,12.014a.051.051,0,0,0,.058.08c2.1-.982,15.272-10.246,17.279-11.635,4.094-2.909,2.909-2.1,6.952-5.032C194.517,369.881,194.437,369.764,194.364,369.815Z" transform="translate(-92.549 -148.321)" fill="#263238"/>
      <path id="Path_437" data-name="Path 437" d="M159.615,234.875c.415-1.8.865-3.6,1.142-5.432a27.167,27.167,0,0,0,.233-5.592,55.059,55.059,0,0,0-2.043-11.163c-.247-.909-.509-1.818-.778-2.727-.051-.16.211-.225.255-.065a75.259,75.259,0,0,1,2.814,10.908,30.419,30.419,0,0,1-.284,10.763c-.727,3.636-1.818,7.214-1.673,10.988.073,1.956,2.4,38.3,2.4,40.186a15.272,15.272,0,0,0,.727,5.469,28.06,28.06,0,0,0,2.567,4.756c1,1.629,2,3.243,3.011,4.858,3.978,6.356,13.09,19.22,17.322,25.4l1.622,2.349c.058.08-.073.153-.131.073-4.458-6.145-13.817-18.908-17.889-25.322-2.014-3.127-4.072-6.261-5.9-9.5a13.548,13.548,0,0,1-1.76-4.894c-.233-1.753-2.691-43.836-2.545-45.727A36.213,36.213,0,0,1,159.615,234.875Z" transform="translate(-89.28 -104.676)" fill="#263238"/>
      <path id="Path_438" data-name="Path 438" d="M142.8,213.99c.691,2.814.589,6.334,2.589,8.654a6.923,6.923,0,0,0,3.891,2.022,18.762,18.762,0,0,0,5.091.276.065.065,0,0,1,0,.124c-3.025.967-7.221.807-9.512-1.687a7.687,7.687,0,0,1-1.745-4.167A39.077,39.077,0,0,1,142.69,214a.065.065,0,0,1,.109-.007Z" transform="translate(-85.06 -105.811)" fill="#263238"/>
      <path id="Path_439" data-name="Path 439" d="M121.256,239.1a.225.225,0,0,1,.444,0c.116,1.28.095,2.567.138,3.847s.058,2.429.095,3.636c.065,2.5.116,5,.175,7.5.116,5,.262,9.985.473,14.981s.429,9.977.684,14.966c.131,2.494.276,4.989.422,7.476a54.084,54.084,0,0,0,.727,7.178,42.747,42.747,0,0,0,5.41,13.817c.065.094-.087.174-.16.08a32.8,32.8,0,0,1-5.643-11.977c-1.127-4.669-1.251-9.5-1.52-14.275-.567-10.079-.938-20.158-1.193-30.245-.065-2.836-.131-5.672-.138-8.508v-4.145C121.169,242.046,121.14,240.548,121.256,239.1Z" transform="translate(-79.189 -112.617)" fill="#263238"/>
      <path id="Path_440" data-name="Path 440" d="M114.179,235.805a62.435,62.435,0,0,1,9.585,4.262.1.1,0,1,1-.087.189c-3.229-1.324-6.545-2.589-9.672-4.08C113.757,236.06,113.924,235.725,114.179,235.805Z" transform="translate(-77.202 -111.765)" fill="#263238"/>
      <path id="Path_441" data-name="Path 441" d="M112.914,206.757c0-.1.2-.131.2,0a96.225,96.225,0,0,0,.545,10.3c.145,1.585,1.454,10.356,4.363,9.716.48-.1.727-.56.807-1.251a10.683,10.683,0,0,0-.385-2.691c-.32-1.84-.575-3.68-.727-5.534a48.068,48.068,0,0,1,.116-10.377.095.095,0,1,1,.189,0,89.839,89.839,0,0,0,.88,14.319c.356,2.283,1.563,5.716-.938,6.065s-4.2-5.4-4.509-6.967a50.265,50.265,0,0,1-.545-13.577Z" transform="translate(-76.875 -103.821)" fill="#263238"/>
      <path id="Path_442" data-name="Path 442" d="M119.646,234.547a14.637,14.637,0,0,1,.654,1.818,3.942,3.942,0,0,1,.269,1.454c0,.1-.145.109-.2.044a5.193,5.193,0,0,1-.669-1.454c-.218-.56-.451-1.12-.654-1.687C118.912,234.38,119.486,234.183,119.646,234.547Z" transform="translate(-78.604 -111.372)" fill="#263238"/>
      <path id="Path_443" data-name="Path 443" d="M88.256,154.922c-3.92,6.545-18.559,35.234-15.184,43.4,2.08,5.025,7.883,3.142,11.054,1.265,3.716-2.182,9.454-34.426,9.854-40.848C94.329,152.638,92.111,148.464,88.256,154.922Z" transform="translate(-65.933 -88.819)" fill="#f7a9a0"/>
      <path id="Path_444" data-name="Path 444" d="M75.68,180.934l17.017-4.2a163.621,163.621,0,0,0,2.327-19.169c.545-9.825-3-8.6-9.614,1.854A92.1,92.1,0,0,0,75.68,180.934Z" transform="translate(-66.781 -88.593)" fill="#3baeda"/>
      <path id="Path_445" data-name="Path 445" d="M84.018,171.9a6.836,6.836,0,0,0-.458,1.934,7.273,7.273,0,0,0,.938-1.745,6.8,6.8,0,0,0,.458-1.92,7.273,7.273,0,0,0-.938,1.731Zm9.388-19.868h0a5.818,5.818,0,0,0-.305,1.454,7.148,7.148,0,0,0,.945-1.745,2.318,2.318,0,0,0,.08-.24A7.679,7.679,0,0,0,93.406,152.031Zm-.8,10.421a7.272,7.272,0,0,0-1.658,1.047,7.672,7.672,0,0,0,3.585-1.6A7.272,7.272,0,0,0,92.607,162.452Z" transform="translate(-68.93 -88.772)" fill="#fff"/>
      <path id="Path_446" data-name="Path 446" d="M92.872,182.072a128.291,128.291,0,0,1-13.89,3.462c-.058,0-.065-.08,0-.095,1.134-.218,8.661-2.414,13.9-3.469C92.931,181.992,92.931,182.05,92.872,182.072Z" transform="translate(-67.669 -97.083)" fill="#263238"/>
      <path id="Path_447" data-name="Path 447" d="M98.516,157.646a163.622,163.622,0,0,1-2.327,19.169l-7.708,1.9,8.937-27.583C98.312,151.763,98.719,153.944,98.516,157.646Z" transform="translate(-70.272 -88.671)" opacity="0.1"/>
      <path id="Path_448" data-name="Path 448" d="M101.046,199.429l44.04-8.727s-14.493-29.816-35.779-41.357c-4.923-2.676-12.537-.727-13.3,3.963C93.4,169.468,101.046,199.429,101.046,199.429Z" transform="translate(-72.177 -87.853)" fill="#3baeda"/>
      <path id="Path_449" data-name="Path 449" d="M107.967,161.252a6.617,6.617,0,0,0-.465,1.927,6.866,6.866,0,0,0,.945-1.738,6.989,6.989,0,0,0,.465-1.927A7.273,7.273,0,0,0,107.967,161.252Zm-3.992,26.456a7.009,7.009,0,0,0-.473,1.92,6.69,6.69,0,0,0,.945-1.745,7.126,7.126,0,0,0,.465-1.92A6.879,6.879,0,0,0,103.975,187.708Zm14.988-2.742a7.112,7.112,0,0,0-.465,1.927,7.38,7.38,0,0,0,.953-1.738,6.856,6.856,0,0,0,.458-1.92A7.172,7.172,0,0,0,118.963,184.966Zm-22.544-32c0,.182-.058.356-.073.545a7.148,7.148,0,0,0,.945-1.745.642.642,0,0,0,0-.109,5.091,5.091,0,0,0-.88,1.316Zm30.827,12.29c-.182-.095-.364-.167-.545-.247a6.858,6.858,0,0,0-1.92-.458,6.707,6.707,0,0,0,1.731.945,9.242,9.242,0,0,0,1.258.364c-.175-.2-.349-.4-.531-.6Zm2.313,24.529a6.742,6.742,0,0,0-1.92-.458,7.585,7.585,0,0,0,3.636,1.4,7.374,7.374,0,0,0-1.723-.931ZM103.211,171.8a7.016,7.016,0,0,0-1.92-.48,7,7,0,0,0,1.738.953,6.852,6.852,0,0,0,1.927.458,6.858,6.858,0,0,0-1.753-.924Zm35.634,11.155a7.105,7.105,0,0,0-1.033-1.687,7.65,7.65,0,0,0,1.593,3.585,7.163,7.163,0,0,0-.531-1.891Zm-20.98-13.817a7.273,7.273,0,0,0-1.033-1.694,6.718,6.718,0,0,0,.567,1.905,6.99,6.99,0,0,0,1.025,1.687,7.272,7.272,0,0,0-.531-1.862Zm10.428,8.036a6.72,6.72,0,0,0-1.687,1.025,6.625,6.625,0,0,0,1.891-.567,6.544,6.544,0,0,0,1.687-1.025,6.622,6.622,0,0,0-1.862.6Zm-16.137,16.908a6.741,6.741,0,0,0-1.687,1.033,6.865,6.865,0,0,0,1.891-.567,6.966,6.966,0,0,0,1.687-1.033A6.866,6.866,0,0,0,112.156,194.086ZM95.845,162.5l-.415.211v.495a5.041,5.041,0,0,0,.625-.24,7.017,7.017,0,0,0,1.687-1.033A7.272,7.272,0,0,0,95.845,162.5ZM110.709,179a6.544,6.544,0,0,0-1.687,1.033,6.627,6.627,0,0,0,1.891-.567,6.544,6.544,0,0,0,1.687-1.033,7.207,7.207,0,0,0-1.862.567Zm5.04-24.507a.86.86,0,0,0-.131.095,1,1,0,0,0,.2-.036Z" transform="translate(-72.168 -88.815)" fill="#fff"/>
      <path id="Path_450" data-name="Path 450" d="M110.821,134.268c8.967-2.836,32.274-9.156,36.026-16.181,4.931-9.221,1.338-29.874-1.149-33.343-1.367-1.913-14.392,3.287-15.759,5.4s1.113,18.129.618,19.947-16.6,11.817-23.678,17.591C97.956,134.995,103.781,136.493,110.821,134.268Z" transform="translate(-74.054 -70.448)" fill="#f7a9a0"/>
      <path id="Path_451" data-name="Path 451" d="M134.328,139.686,119.718,130s-5.367,3.832-12.966,10.086-7.127,10.181,5.091,8A74.1,74.1,0,0,0,134.328,139.686Z" transform="translate(-73.884 -82.907)" fill="#3baeda"/>
      <path id="Path_452" data-name="Path 452" d="M125.717,141.208a6.858,6.858,0,0,0-1.92-.458,7.311,7.311,0,0,0,1.731.945,6.909,6.909,0,0,0,1.927.458A7.1,7.1,0,0,0,125.717,141.208Zm-12.784,4.021a6.88,6.88,0,0,0-1.033-1.687,6.981,6.981,0,0,0,.56,1.9,6.88,6.88,0,0,0,1.033,1.687,6.9,6.9,0,0,0-.56-1.9Z" transform="translate(-76.661 -85.839)" fill="#fff"/>
      <path id="Path_453" data-name="Path 453" d="M123.9,133.676a128.592,128.592,0,0,1,11.97,7.883c.044,0,0,.1-.065.065-.931-.727-7.643-4.734-11.97-7.876C123.782,133.713,123.848,133.64,123.9,133.676Z" transform="translate(-79.911 -83.907)" fill="#263238"/>
      <path id="Path_454" data-name="Path 454" d="M115.59,154.539a12.485,12.485,0,0,1,1.876-.538,11.475,11.475,0,0,1,1.942-.291,7.839,7.839,0,0,1-1.862.64A7.349,7.349,0,0,1,115.59,154.539Z" transform="translate(-77.668 -89.374)" fill="#263238"/>
      <path id="Path_455" data-name="Path 455" d="M116.93,155.055a11.87,11.87,0,0,1,1.454-.865,1.862,1.862,0,0,1-.655.56,2.851,2.851,0,0,1-.8.305Z" transform="translate(-78.033 -89.505)" fill="#263238"/>
      <path id="Path_456" data-name="Path 456" d="M78.151,211.392c-5.28-.465-6.319-8.167-3.636-10.734,6.7-6.429,20.566-10.908,26.056-12.428,2.443-.669,20.362,5.178,18.137,9.083C115.115,203.589,88.79,212.337,78.151,211.392Z" transform="translate(-66.074 -98.777)" fill="#f7a9a0"/>
      <path id="Path_457" data-name="Path 457" d="M111.156,186.274a30.413,30.413,0,0,1,1.7-11.635,32.756,32.756,0,0,1,5.258-8.37c2.058-2.218,12.079-10.181,14.064-7.8,1.8,2.182-7.687,7.919-7.687,7.919s9.054-6.654,10.734-3.636-9.883,8.072-9.883,8.072,9.454-6.625,10.7-3.251c.945,2.545-9.279,7.73-9.279,7.73s8.167-5.636,9.243-3.062c1.2,2.851-7.941,8.232-7.941,8.232,1.054.684,3.047,5.556.567,9.33C128.2,190.419,111.156,186.274,111.156,186.274Z" transform="translate(-76.448 -90.552)" fill="#f7a9a0"/>
      <path id="Path_458" data-name="Path 458" d="M125,169.975c1.04-.814,2.08-1.651,3.185-2.378s2.233-1.411,3.4-2.029a22.588,22.588,0,0,1,4.763-1.978,48.354,48.354,0,0,0-8,4.32c-1.105.727-2.24,1.389-3.345,2.109C125,170.04,125,170,125,169.975Z" transform="translate(-80.235 -92.069)" fill="#263238"/>
      <path id="Path_459" data-name="Path 459" d="M128.5,175.864c1.367-.989,2.691-2.022,4.1-2.953s2.814-1.68,4.283-2.5c.109-.065.109,0,0,.087-1.454.88-2.683,1.811-4.109,2.712s-2.872,1.745-4.254,2.691C128.5,175.922,128.483,175.879,128.5,175.864Z" transform="translate(-81.187 -93.923)" fill="#263238"/>
      <path id="Path_460" data-name="Path 460" d="M130.644,181.648a39.507,39.507,0,0,1,6.661-4.174c.116-.058.1.044,0,.116-2.182,1.294-4.022,2.443-6.589,4.131C130.659,181.75,130.6,181.684,130.644,181.648Z" transform="translate(-81.77 -95.852)" fill="#263238"/>
      <path id="Path_461" data-name="Path 461" d="M142.221,167.1a4.843,4.843,0,0,0,.822-1.229,1.949,1.949,0,0,0,0-1.331H143a1.541,1.541,0,0,1-.262,1.454,7.047,7.047,0,0,1-.844,1.076,9.983,9.983,0,0,1-1.033.967,12.486,12.486,0,0,1-1.105.858h0a4.945,4.945,0,0,1,2.087-.524,2.181,2.181,0,0,1,1.018.138,1.309,1.309,0,0,1,.647,1.607,2.466,2.466,0,0,1-.531.778,19.106,19.106,0,0,1-1.513,1.556c-.3.269-.6.531-.916.778s-.647.48-.938.727c0,0,.044.065.065.058.276-.08,2.305-.865,3.2-.567a1.163,1.163,0,0,1,.851,1.047,2.335,2.335,0,0,1-.451,1.454,17.554,17.554,0,0,1-1.709,2.043h0c.465-.458,1.454-1.454,1.862-1.956a2.334,2.334,0,0,0,.545-1.505,1.454,1.454,0,0,0-.727-1.222,2.364,2.364,0,0,0-1.52-.073,16.962,16.962,0,0,0-1.8.589c.233-.145,1.3-.953,1.607-1.214a16.776,16.776,0,0,0,1.709-1.665,1.774,1.774,0,0,0,.524-1.862,1.614,1.614,0,0,0-1.578-.982,4.13,4.13,0,0,0-1.549.291c.138-.087.276-.182.407-.284a7.723,7.723,0,0,0,1.178-1.011Z" transform="translate(-84.22 -92.329)" fill="#263238"/>
      <path id="Path_462" data-name="Path 462" d="M77.67,200.33a27.18,27.18,0,0,1,3.149-2.407,36.754,36.754,0,0,1,3.352-2.014,33.935,33.935,0,0,1,3.578-1.658A30.43,30.43,0,0,1,91.487,193c-1.193.545-2.4,1.054-3.571,1.629s-2.342,1.142-3.491,1.753-2.283,1.251-3.418,1.9S78.775,199.618,77.67,200.33Z" transform="translate(-67.324 -100.092)" fill="#263238"/>
      <path id="Path_463" data-name="Path 463" d="M98.13,154.435c2.422.051,5.476-4.683,6.421-7.868a39,39,0,0,0-1.324-4.363c-.473-1.5-.967-3.178-1.3-4.749-.065-.32-9.316,4.5-9.316,4.5a25.663,25.663,0,0,1,2.247,5.818,4.365,4.365,0,0,1,.073.662.624.624,0,0,0,0,.109C95,149.839,95.8,154.384,98.13,154.435Z" transform="translate(-71.399 -84.936)" fill="#f7a9a0"/>
      <path id="Path_464" data-name="Path 464" d="M95.961,148.442a6.3,6.3,0,0,1-1.018.167.624.624,0,0,1,0-.109,4.363,4.363,0,0,0-.073-.662,25.808,25.808,0,0,0-2.24-5.818s7.5-3.912,9.039-4.451C101.742,139.453,101.727,147.067,95.961,148.442Z" transform="translate(-71.404 -84.972)" fill="#263238"/>
      <path id="Path_465" data-name="Path 465" d="M95.174,120.167c2.342,2.909,4.458,13.148,2.967,16.224-2.182,4.465-7.621,7.01-11.9,3.971-4.145-2.909-6.661-16.348-4.814-19.344C84.142,116.611,91.712,115.884,95.174,120.167Z" transform="translate(-68.181 -79.444)" fill="#f7a9a0"/>
      <path id="Path_466" data-name="Path 466" d="M93.11,134s.058,0,.065.051c.124.691.385,1.454,1.054,1.563v.044C93.452,135.723,93.117,134.727,93.11,134Z" transform="translate(-71.535 -83.998)" fill="#263238"/>
      <path id="Path_467" data-name="Path 467" d="M93.573,132.838c1.091-.32,1.651,1.891.633,2.182S92.657,133.107,93.573,132.838Z" transform="translate(-71.533 -83.672)" fill="#263238"/>
      <path id="Path_468" data-name="Path 468" d="M87.382,135.3s-.044.051,0,.073c.2.684.3,1.454-.262,1.869v.044C87.825,136.987,87.673,135.911,87.382,135.3Z" transform="translate(-69.901 -84.352)" fill="#263238"/>
      <path id="Path_469" data-name="Path 469" d="M86.148,134.527c-1.12.2-.647,2.422.393,2.24S87.093,134.367,86.148,134.527Z" transform="translate(-69.46 -84.139)" fill="#263238"/>
      <path id="Path_470" data-name="Path 470" d="M93.785,130.292a8.1,8.1,0,0,1-.931.058,1.512,1.512,0,0,1-.967-.116.487.487,0,0,1-.16-.567,1.2,1.2,0,0,1,1.062-.582,1.731,1.731,0,0,1,1.222.3.509.509,0,0,1-.225.909Z" transform="translate(-71.149 -82.653)" fill="#263238"/>
      <path id="Path_471" data-name="Path 471" d="M84.562,132.641a7.44,7.44,0,0,0,.814-.451,1.52,1.52,0,0,0,.727-.611.48.48,0,0,0-.167-.567,1.2,1.2,0,0,0-1.207.073,1.731,1.731,0,0,0-.873.916.509.509,0,0,0,.705.64Z" transform="translate(-69.002 -83.147)" fill="#263238"/>
      <path id="Path_472" data-name="Path 472" d="M95.361,142.262c-.124.2-.225.465-.473.545a1.869,1.869,0,0,1-.778,0v.044a.953.953,0,0,0,.967.153.727.727,0,0,0,.385-.727A.062.062,0,0,0,95.361,142.262Z" transform="translate(-71.808 -86.246)" fill="#263238"/>
      <path id="Path_473" data-name="Path 473" d="M92.31,137.209a2.378,2.378,0,0,1-1.294,1.454,2.909,2.909,0,0,1-.829.247.6.6,0,0,1-.16,0h-.16a.182.182,0,0,1-.175-.116h0a.218.218,0,0,1,0-.073h0v-.065c-.145-.516-.3-1.331-.3-1.331-.167.145-1.033.829-1.091.553a36.359,36.359,0,0,1-.873-7.272.065.065,0,0,1,.131,0c.509,2.182.625,4.487,1.105,6.7a4.3,4.3,0,0,1,1.011-.611c.08,0,.262,1.578.349,1.811a3.323,3.323,0,0,0,2.182-1.353C92.266,137.107,92.331,137.143,92.31,137.209Z" transform="translate(-69.986 -83.054)" fill="#263238"/>
      <path id="Path_474" data-name="Path 474" d="M91.65,141.045a2.683,2.683,0,0,0,1.273.5,1.229,1.229,0,0,0,.727-.16c.473-.284.349-.764.138-1.134a2.836,2.836,0,0,0-.415-.553,3.447,3.447,0,0,1-1.723,1.345Z" transform="translate(-71.137 -85.553)" fill="#263238"/>
      <path id="Path_475" data-name="Path 475" d="M93.4,141.754a1.229,1.229,0,0,0,.727-.16c.473-.284.349-.764.138-1.134A1.251,1.251,0,0,0,93.4,141.754Z" transform="translate(-71.613 -85.76)" fill="#ff9abb"/>
      <path id="Path_476" data-name="Path 476" d="M98.82,126.273c-2.582,1.149-5.09-1.513-5.41-4.276,0,0-6.7,3.483-9.09-2.051a5.89,5.89,0,0,1-3.636,4.2v2.371c-.8.051-2.313-1.723-1.127-3.971a7.156,7.156,0,0,1,.567-5.309,4.094,4.094,0,0,1,3.934-2.08,6.2,6.2,0,0,1,3.869-2.589,5.294,5.294,0,0,1,4.64,1.374s3.731-.6,5.221,1.665a5.483,5.483,0,0,1,.814,4.363,3.785,3.785,0,0,1,1.549,2.909C100.3,124.39,99.591,125.946,98.82,126.273Z" transform="translate(-67.719 -78.126)" fill="#263238"/>
      <path id="Path_477" data-name="Path 477" d="M86.23,122a6.989,6.989,0,0,0,.487,1.389,6.087,6.087,0,0,0,.727,1.244,3.832,3.832,0,0,0,2.371,1.454,6.072,6.072,0,0,0,2.829-.291c.458-.175.924-.327,1.367-.531s.88-.436,1.331-.64c-.407.269-.836.524-1.258.793a10.929,10.929,0,0,1-1.353.633,6.065,6.065,0,0,1-2.974.378,3.992,3.992,0,0,1-2.523-1.622,6.043,6.043,0,0,1-1-2.807Z" transform="translate(-69.659 -80.724)" fill="#263238"/>
      <path id="Path_478" data-name="Path 478" d="M97.53,114.342a7.01,7.01,0,0,1,2.8-.378,4.16,4.16,0,0,1,2.633,1.12,4.465,4.465,0,0,1,.814,1.207,4.138,4.138,0,0,1,.422,1.374,3.876,3.876,0,0,1-.633,2.734,4.283,4.283,0,0,0,.371-2.691,4.7,4.7,0,0,0-1.222-2.378,3.7,3.7,0,0,0-1.1-.727,5.758,5.758,0,0,0-1.316-.349A8.893,8.893,0,0,0,97.53,114.342Z" transform="translate(-72.741 -78.528)" fill="#263238"/>
      <path id="Path_479" data-name="Path 479" d="M83.845,116.13a6.872,6.872,0,0,0-2.182.349,4.291,4.291,0,0,0-1.825,1.156,4.363,4.363,0,0,0-.96,1.949,7.672,7.672,0,0,0-.138,2.24,5.651,5.651,0,0,1-.124-2.291,3.862,3.862,0,0,1,2.974-3.309A5.3,5.3,0,0,1,83.845,116.13Z" transform="translate(-67.564 -79.102)" fill="#263238"/>
      <path id="Path_480" data-name="Path 480" d="M82.87,126.651a7.956,7.956,0,0,0,1.716-1.927,4.85,4.85,0,0,0,.516-1.156,5.818,5.818,0,0,0,.2-1.287,3.221,3.221,0,0,1,.058,1.345,3.549,3.549,0,0,1-.48,1.28,4.443,4.443,0,0,1-.88,1.033,4.2,4.2,0,0,1-1.134.713Z" transform="translate(-68.742 -80.801)" fill="#263238"/>
      <path id="Path_481" data-name="Path 481" d="M84.856,138.826c-1.164.24-2.414-.989-2.785-2.742s.276-3.389,1.454-3.636,2.414.982,2.785,2.742S86.02,138.579,84.856,138.826ZM83.6,132.877c-.931.2-1.418,1.593-1.1,3.113s1.338,2.6,2.269,2.407,1.454-1.593,1.091-3.12-1.338-2.6-2.262-2.4Z" transform="translate(-68.496 -83.566)" fill="#455a64"/>
      <path id="Path_482" data-name="Path 482" d="M94.2,136.747a3.265,3.265,0,1,1,2.305-3.818,3.171,3.171,0,0,1-2.305,3.818Zm-1.28-5.927A2.829,2.829,0,1,0,96.078,133a2.727,2.727,0,0,0-3.156-2.182Z" transform="translate(-70.7 -82.999)" fill="#455a64"/>
      <path id="Path_483" data-name="Path 483" d="M89.859,135.011c-1.716-.218-2.327.458-2.334.465l-.335-.284c0-.036.727-.865,2.72-.611Z" transform="translate(-69.92 -84.143)" fill="#455a64"/>
      <path id="Path_484" data-name="Path 484" d="M98.487,132.63l-.167-.407c.269-.109,4.545-1.9,5.243-2.087a8.811,8.811,0,0,1,2.909.473l-.131.415a8.371,8.371,0,0,0-2.625-.473h0C103.178,130.7,100.727,131.7,98.487,132.63Z" transform="translate(-72.957 -82.934)" fill="#455a64"/>
      <path id="Path_485" data-name="Path 485" d="M102.37,131.608s.989-3.942,2.7-3.7,1.789,5.367.364,6.618a1.8,1.8,0,0,1-2.6-.044Z" transform="translate(-74.061 -82.333)" fill="#f7a9a0"/>
      <path id="Path_486" data-name="Path 486" d="M105.469,129.92v.044a4.553,4.553,0,0,0-1.193,3.505,1,1,0,0,1,1.294-.785c.044,0,0,.065,0,.073a1.12,1.12,0,0,0-1,.8,5.374,5.374,0,0,0-.189,1.127c0,.124-.225.138-.233,0h0C103.571,133.185,103.971,130.705,105.469,129.92Z" transform="translate(-74.477 -82.885)" fill="#263238"/>
      <path id="Path_487" data-name="Path 487" d="M95.36,153.124h0c.524,1.92,1.869,6.334,4.945,5a7.222,7.222,0,0,0,2.909-2.713,17.919,17.919,0,0,0,1.818-3.44,25.851,25.851,0,0,0,1.389-4.094c0-.058.1,0,.095,0a19.191,19.191,0,0,1-1.076,4.174,15.621,15.621,0,0,1-1.934,3.782,7.272,7.272,0,0,1-3.105,2.749,2.7,2.7,0,0,1-3.214-.916A10.377,10.377,0,0,1,95.36,153.124Z" transform="translate(-72.149 -87.777)" fill="#263238"/>
      <path id="Path_488" data-name="Path 488" d="M136.137,87.2a2.909,2.909,0,0,1,.778-3.331s-2.72-.545-3.2-2.778c-.247-1.156,1.389-2.574,1.389-2.574a3.338,3.338,0,0,1-2.458-2.545c-.247-1.607,1.454-2.793,1.454-2.793s-1.818-1.454-1.542-3.192c.574-3.483,14.188-7.127,17.6-2.72,1.585,2.051-1.789,2.763-1.789,2.763s5.091.138,5.89,2.909-3.636,3.418-3.636,3.418,4.93.182,5.469,3.127c.56,3.069-3.985,2.974-3.985,2.974s3.563,1.222,3.454,3.578c-.182,3.891-7.512,1.018-10.319,2.523l.044,5.214S137.053,89.508,136.137,87.2Z" transform="translate(-82.289 -65.241)" fill="#f7a9a0"/>
      <path id="Path_489" data-name="Path 489" d="M134.98,74.691c-.044,0-.073-.044-.036-.065a24.725,24.725,0,0,1,14.246-2.909c.16,0,.189.284,0,.291a50.811,50.811,0,0,0-14.21,2.683Z" transform="translate(-82.943 -66.976)" fill="#263238"/>
      <path id="Path_490" data-name="Path 490" d="M135.981,82.406c-.051,0-.08-.065,0-.087a23.078,23.078,0,0,1,15.73-2.233c.182.044.305.269.087.233C148.1,79.715,140.25,80.864,135.981,82.406Z" transform="translate(-83.217 -69.143)" fill="#263238"/>
      <path id="Path_491" data-name="Path 491" d="M154.135,88.705c-5.214-1.062-10.268-.356-15.359,1.105a.059.059,0,0,1-.036-.109c2.305-1.389,5.643-1.985,8.276-2.233a14.159,14.159,0,0,1,7.178,1.091C154.265,88.56,154.244,88.727,154.135,88.705Z" transform="translate(-83.975 -71.282)" fill="#263238"/>
    </g>
    <g id="freepik--Device--inject-74" transform="translate(1367.177 2265.941)">
      <path id="Path_492" data-name="Path 492" d="M284.125,55.17H159A12.777,12.777,0,0,0,146.34,68.064V325.643A12.784,12.784,0,0,0,159,338.536H284.125A12.8,12.8,0,0,0,296.8,325.643V68.063A12.792,12.792,0,0,0,284.125,55.17Zm4.756,262.524c0,6.778-5.09,12.261-11.337,12.261H165.6c-6.276,0-11.359-5.483-11.359-12.261V77.83c0-13.817,5.091-14.486,11.359-14.486h22.42c1.309,0,2.371,1.454,2.371,3.316v.793c0,4.3,2.356,4.312,5.243,4.312h51.85c2.909,0,5.258,0,5.258-4.312v-.771c0-1.84,1.054-3.316,2.378-3.316h22.42c6.261,0,11.337,1.833,11.337,14.486Z" transform="translate(-146.339 -55.17)" fill="#263238"/>
      <path id="Path_493" data-name="Path 493" d="M291.856,81.186v239.85c0,6.778-5.091,12.261-11.337,12.261H168.579c-6.276,0-11.359-5.483-11.359-12.261V81.186c0-13.817,5.091-14.486,11.359-14.486h22.427c1.3,0,2.363,1.454,2.363,3.316v.793c0,4.3,2.356,4.312,5.243,4.312h51.85c2.909,0,5.258,0,5.258-4.312v-.793c0-1.84,1.055-3.316,2.378-3.316h22.42C286.78,66.7,291.856,68.533,291.856,81.186Z" transform="translate(-149.307 -58.315)" fill="#fff"/>
      <path id="Path_494" data-name="Path 494" d="M291.856,81.186v21.758H157.22V81.186c0-13.817,5.091-14.486,11.359-14.486h22.427c1.3,0,2.363,1.454,2.363,3.316v.793c0,4.3,2.356,4.312,5.243,4.312h51.85c2.909,0,5.258,0,5.258-4.312v-.793c0-1.833,1.055-3.316,2.378-3.316h22.42C286.78,66.7,291.856,68.54,291.856,81.186Z" transform="translate(-149.307 -58.315)" fill="#3baeda"/>
      <path id="Path_495" data-name="Path 495" d="M253.877,69.945H239.733a.873.873,0,0,1-.873-.873h0a.873.873,0,0,1,.873-.873h14.144a.873.873,0,0,1,.873.873h0a.865.865,0,0,1-.873.873Z" transform="translate(-171.578 -58.724)" fill="#fff"/>
      <g id="freepik--u5Zjqx--inject-74" transform="translate(32.972 12.581)">
        <path id="Path_496" data-name="Path 496" d="M196.523,73.444l-.218.218c0,.044-.08.08-.124.124a2.952,2.952,0,0,0-4.174,0l-.116-.116-.211-.218h0l.269-.24a3.084,3.084,0,0,1,.64-.407,3.339,3.339,0,0,1,.836-.284l.422-.051h.655a3.075,3.075,0,0,1,.764.182,2.862,2.862,0,0,1,.524.247,3.225,3.225,0,0,1,.5.342l.225.211Z" transform="translate(-191.68 -72.47)" fill="#fff"/>
        <path id="Path_497" data-name="Path 497" d="M192.942,74.809l-.342-.342a2.4,2.4,0,0,1,1.4-.727,2.458,2.458,0,0,1,2.094.691c-.116.116-.225.233-.342.342a1.985,1.985,0,0,0-1.4-.574A1.963,1.963,0,0,0,192.942,74.809Z" transform="translate(-191.931 -72.809)" fill="#fff"/>
        <path id="Path_498" data-name="Path 498" d="M195.658,75.514l-.342.335a1,1,0,0,0-.727-.291.974.974,0,0,0-.727.3l-.342-.342a1.454,1.454,0,0,1,2.138,0Z" transform="translate(-192.182 -73.173)" fill="#fff"/>
        <path id="Path_499" data-name="Path 499" d="M195.2,76.465a.313.313,0,1,1-.313-.305.305.305,0,0,1,.313.305Z" transform="translate(-192.468 -73.477)" fill="#fff"/>
      </g>
      <path id="Path_500" data-name="Path 500" d="M169.29,74.382a.894.894,0,1,1,.894.887.894.894,0,0,1-.894-.887Z" transform="translate(-152.6 -60.165)" fill="#fff"/>
      <path id="Path_501" data-name="Path 501" d="M173.15,74.382a.894.894,0,1,1,.894.887.894.894,0,0,1-.894-.887Z" transform="translate(-153.653 -60.165)" fill="#fff"/>
      <path id="Path_502" data-name="Path 502" d="M177,74.382a.894.894,0,1,1,.894.887.894.894,0,0,1-.894-.887Z" transform="translate(-154.703 -60.165)" fill="#fff"/>
      <path id="Path_503" data-name="Path 503" d="M180.88,74.382a.894.894,0,1,1,.894.887.894.894,0,0,1-.894-.887Z" transform="translate(-155.761 -60.165)" fill="#fff"/>
      <path id="Path_504" data-name="Path 504" d="M184.75,74.382a.894.894,0,1,1,.27.633A.894.894,0,0,1,184.75,74.382Z" transform="translate(-156.817 -60.165)" fill="#fff"/>
      <path id="Path_505" data-name="Path 505" d="M325.732,76.13H318.46V72.77h7.272Zm-6.879-.371H325.4V73.141h-6.545Z" transform="translate(-193.291 -59.971)" fill="#fff"/>
      <rect id="Rectangle_1420" data-name="Rectangle 1420" width="4.683" height="2.225" transform="translate(125.78 13.366)" fill="#fff"/>
      <rect id="Rectangle_1421" data-name="Rectangle 1421" width="0.647" height="1.803" transform="translate(132.448 13.577)" fill="#fff"/>
      <path id="Path_506" data-name="Path 506" d="M173.268,102.294l-3.978-3.723,3.978-3.731.618.662-3.28,3.069,3.28,3.069Z" transform="translate(-152.6 -65.991)" fill="#fff"/>
      <path id="Path_507" data-name="Path 507" d="M323.5,102.453h-2.647v-.916a.24.24,0,0,0-.131-.2l-.3-.167a.24.24,0,0,0-.24,0l-.793.465-1.324-2.3.793-.458a.225.225,0,0,0,.109-.218v-.335a.226.226,0,0,0-.109-.218l-.793-.458,1.324-2.3.793.458a.218.218,0,0,0,.24,0,2.454,2.454,0,0,1,.3-.175.218.218,0,0,0,.131-.2V94.49H323.5v.924a.218.218,0,0,0,.131.2,2.459,2.459,0,0,1,.3.175.218.218,0,0,0,.24,0l.793-.458,1.324,2.3-.793.458a.225.225,0,0,0-.109.218v.335a.218.218,0,0,0,.109.211l.793.465-1.324,2.3-.793-.465a.24.24,0,0,0-.24,0l-.3.167a.24.24,0,0,0-.131.2Zm-2.1-.545h1.556v-.371a.764.764,0,0,1,.429-.684,2.764,2.764,0,0,0,.247-.145.771.771,0,0,1,.807,0l.327.189.778-1.353-.327-.189a.771.771,0,0,1-.378-.727v-.276a.785.785,0,0,1,.378-.727l.327-.182-.778-1.353-.327.182a.771.771,0,0,1-.807,0,2.764,2.764,0,0,0-.247-.145.764.764,0,0,1-.429-.684v-.378H321.4v.378a.764.764,0,0,1-.429.684l-.247.145a.771.771,0,0,1-.807,0l-.32-.182-.785,1.353.327.182a.778.778,0,0,1,.378.727v.284a.785.785,0,0,1-.378.727l-.327.182.785,1.353.32-.189a.785.785,0,0,1,.807,0l.247.145a.764.764,0,0,1,.429.684Zm.778-1.454a.827.827,0,1,1,0,.015Zm0-3.447a1.436,1.436,0,1,1,0,.036Z" transform="translate(-193.185 -65.896)" fill="#fff"/>
      <rect id="Rectangle_1422" data-name="Rectangle 1422" width="82.524" height="5.17" transform="translate(21.177 57.639)" fill="#fff"/>
      <path id="Path_508" data-name="Path 508" d="M258.009,139.64H175.39v-5.28h82.619Z" transform="translate(-154.264 -76.772)" fill="#ebebeb"/>
      <rect id="Rectangle_1423" data-name="Rectangle 1423" width="5.28" height="5.28" transform="translate(98.48 57.588)" fill="#0f0f0f"/>
      <path id="Path_509" data-name="Path 509" d="M287.007,139.378l-.48.364-.88-1.171-.327-.422a.987.987,0,0,0,.189-.109.814.814,0,0,0,.247-.32l.342.458Z" transform="translate(-184.251 -77.688)" fill="#fff"/>
      <path id="Path_510" data-name="Path 510" d="M285.474,136.009a1.3,1.3,0,1,0-.422,1.942.851.851,0,0,0,.182-.116,1.381,1.381,0,0,0,.269-.276,1.309,1.309,0,0,0-.029-1.549Zm-.56,1.411a.983.983,0,0,1-.189.109.772.772,0,1,1,.436-.429.814.814,0,0,1-.247.32Z" transform="translate(-183.656 -77.083)" fill="#fff"/>
      <rect id="Rectangle_1424" data-name="Rectangle 1424" width="0.276" height="3.142" transform="translate(22.261 58.657)" fill="#c7c7c7"/>
      <path id="Path_511" data-name="Path 511" d="M331.909,128.37a3.419,3.419,0,0,1-1.018.422,3.5,3.5,0,1,1,1.018-.422Z" transform="translate(-195.497 -73.364)" fill="#0f0f0f"/>
      <path id="Path_512" data-name="Path 512" d="M332.048,125.749a1.069,1.069,0,1,1-1.069-1.069A1.069,1.069,0,0,1,332.048,125.749Z" transform="translate(-196.415 -74.131)" fill="#fff"/>
      <path id="Path_513" data-name="Path 513" d="M332.534,129.507v.444a3.421,3.421,0,0,1-1.018.422,3.476,3.476,0,0,1-2.676-.429v-.436a1.847,1.847,0,1,1,3.694,0Z" transform="translate(-196.123 -74.944)" fill="#fff"/>
      <rect id="Rectangle_1425" data-name="Rectangle 1425" width="134.629" height="10.676" transform="translate(7.913 71.151)" fill="#ebebeb"/>
      <rect id="Rectangle_1426" data-name="Rectangle 1426" width="3.207" height="3.207" transform="translate(16.268 74.881)" fill="#fff"/>
      <path id="Path_514" data-name="Path 514" d="M190.647,161.347H187.44l1.309-1.607-1.309-1.6h3.207l1.309,1.6Z" transform="translate(-157.551 -83.259)" fill="#fff"/>
      <path id="Path_515" data-name="Path 515" d="M179.887,158.14l.524,1.054,1.164.167-.844.822.2,1.164-1.047-.545-1.04.545.2-1.164-.844-.822,1.171-.167Z" transform="translate(-155.03 -83.259)" fill="#407bff"/>
      <rect id="Rectangle_1427" data-name="Rectangle 1427" width="25.54" height="1.302" transform="translate(36.703 75.834)" fill="#263238"/>
      <rect id="Rectangle_1428" data-name="Rectangle 1428" width="23.191" height="1.302" transform="translate(105.621 75.834)" fill="#263238"/>
      <rect id="Rectangle_1429" data-name="Rectangle 1429" width="25.831" height="1.302" transform="translate(70.046 75.834)" fill="#455a64"/>
      <rect id="Rectangle_1430" data-name="Rectangle 1430" width="3.207" height="3.207" transform="translate(16.268 85.557)" fill="#fff"/>
      <path id="Path_516" data-name="Path 516" d="M172.031,176.141H168.46V172.57h3.571Zm-3.178-.349H171.7v-2.843h-2.843Z" transform="translate(-152.373 -87.195)" fill="#ebebeb"/>
      <path id="Path_517" data-name="Path 517" d="M190.647,176.027H187.44l1.309-1.607-1.309-1.6h3.207l1.309,1.6Z" transform="translate(-157.551 -87.263)" fill="#fff"/>
      <path id="Path_518" data-name="Path 518" d="M190.622,176.141H186.95l1.454-1.789-1.454-1.782h3.672l1.454,1.782Zm-2.909-.364h2.734l1.164-1.454-1.164-1.454h-2.734l1.156,1.454Z" transform="translate(-157.417 -87.195)" fill="#ebebeb"/>
      <path id="Path_519" data-name="Path 519" d="M179.887,172.82l.524,1.054,1.164.167-.844.822.2,1.164-1.047-.553-1.04.553.2-1.164-.844-.822,1.171-.167Z" transform="translate(-155.03 -87.263)" fill="#407bff"/>
      <rect id="Rectangle_1431" data-name="Rectangle 1431" width="25.54" height="1.302" transform="translate(36.703 86.509)" fill="#263238"/>
      <rect id="Rectangle_1432" data-name="Rectangle 1432" width="23.191" height="1.302" transform="translate(105.621 86.509)" fill="#263238"/>
      <rect id="Rectangle_1433" data-name="Rectangle 1433" width="25.831" height="1.302" transform="translate(70.046 86.509)" fill="#455a64"/>
      <rect id="Rectangle_1434" data-name="Rectangle 1434" width="134.629" height="10.676" transform="translate(7.913 92.494)" fill="#ebebeb"/>
      <rect id="Rectangle_1435" data-name="Rectangle 1435" width="3.207" height="3.207" transform="translate(16.268 96.232)" fill="#fff"/>
      <path id="Path_520" data-name="Path 520" d="M190.647,190.707H187.44l1.309-1.607-1.309-1.6h3.207l1.309,1.6Z" transform="translate(-157.551 -91.268)" fill="#fff"/>
      <path id="Path_521" data-name="Path 521" d="M179.887,187.5l.524,1.054,1.164.167-.844.822.2,1.164-1.047-.553-1.04.553.2-1.164-.844-.822,1.171-.167Z" transform="translate(-155.03 -91.268)" fill="#fff"/>
      <rect id="Rectangle_1436" data-name="Rectangle 1436" width="25.54" height="1.302" transform="translate(36.703 97.178)" fill="#dbdbdb"/>
      <rect id="Rectangle_1437" data-name="Rectangle 1437" width="23.191" height="1.302" transform="translate(105.621 97.178)" fill="#dbdbdb"/>
      <rect id="Rectangle_1438" data-name="Rectangle 1438" width="25.831" height="1.302" transform="translate(70.046 97.178)" fill="#c7c7c7"/>
      <rect id="Rectangle_1439" data-name="Rectangle 1439" width="3.207" height="3.207" transform="translate(16.268 106.901)" fill="#fff"/>
      <path id="Path_522" data-name="Path 522" d="M172.031,205.491H168.46V201.92h3.571Zm-3.207-.364h2.843v-2.843h-2.814Z" transform="translate(-152.373 -95.201)" fill="#ebebeb"/>
      <path id="Path_523" data-name="Path 523" d="M190.647,205.377H187.44l1.309-1.6-1.309-1.607h3.207l1.309,1.607Z" transform="translate(-157.551 -95.27)" fill="#fff"/>
      <path id="Path_524" data-name="Path 524" d="M190.622,205.491H186.95l1.454-1.782-1.454-1.789h3.672l1.454,1.789Zm-2.909-.364h2.734l1.164-1.454-1.164-1.454h-2.734l1.156,1.454Z" transform="translate(-157.417 -95.201)" fill="#ebebeb"/>
      <path id="Path_525" data-name="Path 525" d="M179.887,202.17l.524,1.062,1.164.167-.844.822.2,1.156-1.047-.545-1.04.545.2-1.156-.844-.822,1.171-.167Z" transform="translate(-155.03 -95.27)" fill="#407bff"/>
      <rect id="Rectangle_1440" data-name="Rectangle 1440" width="25.54" height="1.302" transform="translate(36.703 107.853)" fill="#dbdbdb"/>
      <rect id="Rectangle_1441" data-name="Rectangle 1441" width="23.191" height="1.302" transform="translate(105.621 107.853)" fill="#dbdbdb"/>
      <rect id="Rectangle_1442" data-name="Rectangle 1442" width="25.831" height="1.302" transform="translate(70.046 107.853)" fill="#c7c7c7"/>
      <rect id="Rectangle_1443" data-name="Rectangle 1443" width="134.629" height="10.676" transform="translate(7.913 113.845)" fill="#ebebeb"/>
      <rect id="Rectangle_1444" data-name="Rectangle 1444" width="3.207" height="3.207" transform="translate(16.268 117.576)" fill="#fff"/>
      <path id="Path_526" data-name="Path 526" d="M190.647,220.057H187.44l1.309-1.6-1.309-1.607h3.207l1.309,1.607Z" transform="translate(-157.551 -99.274)" fill="#fff"/>
      <path id="Path_527" data-name="Path 527" d="M179.887,216.85l.524,1.054,1.164.174-.844.814.2,1.164-1.047-.545-1.04.545.2-1.164-.844-.814,1.171-.174Z" transform="translate(-155.03 -99.274)" fill="#407bff"/>
      <rect id="Rectangle_1445" data-name="Rectangle 1445" width="25.54" height="1.302" transform="translate(36.703 118.529)" fill="#dbdbdb"/>
      <rect id="Rectangle_1446" data-name="Rectangle 1446" width="23.191" height="1.302" transform="translate(105.621 118.529)" fill="#dbdbdb"/>
      <rect id="Rectangle_1447" data-name="Rectangle 1447" width="25.831" height="1.302" transform="translate(70.046 118.529)" fill="#c7c7c7"/>
      <rect id="Rectangle_1448" data-name="Rectangle 1448" width="3.207" height="3.207" transform="translate(16.268 128.252)" fill="#fff"/>
      <path id="Path_528" data-name="Path 528" d="M172.031,234.851H168.46V231.28h3.571Zm-3.207-.364h2.843v-2.843h-2.814Z" transform="translate(-152.373 -103.21)" fill="#ebebeb"/>
      <path id="Path_529" data-name="Path 529" d="M190.647,234.737H187.44l1.309-1.607-1.309-1.6h3.207l1.309,1.6Z" transform="translate(-157.551 -103.278)" fill="#fff"/>
      <path id="Path_530" data-name="Path 530" d="M190.622,234.851H186.95l1.454-1.789-1.454-1.782h3.672l1.454,1.782Zm-2.909-.364h2.734l1.164-1.454-1.164-1.418h-2.734l1.156,1.418Z" transform="translate(-157.417 -103.21)" fill="#ebebeb"/>
      <path id="Path_531" data-name="Path 531" d="M179.887,231.53l.524,1.054,1.164.167-.844.822.2,1.164-1.047-.545-1.04.545.2-1.164-.844-.822,1.171-.167Z" transform="translate(-155.03 -103.278)" fill="#fff"/>
      <path id="Path_532" data-name="Path 532" d="M178.463,234.905l.24-1.454-1.033-1.018,1.454-.211.64-1.3.64,1.3,1.454.211-1.04,1.04.247,1.454-1.287-.676Zm1.28-1.091.8.422-.153-.887.647-.633-.894-.131-.4-.814-.4.814-.894.131.647.633-.153.887Z" transform="translate(-154.886 -103.112)" fill="#ebebeb"/>
      <rect id="Rectangle_1449" data-name="Rectangle 1449" width="25.54" height="1.302" transform="translate(36.703 129.204)" fill="#dbdbdb"/>
      <rect id="Rectangle_1450" data-name="Rectangle 1450" width="23.191" height="1.302" transform="translate(105.621 129.204)" fill="#dbdbdb"/>
      <rect id="Rectangle_1451" data-name="Rectangle 1451" width="25.831" height="1.302" transform="translate(70.046 129.204)" fill="#c7c7c7"/>
      <rect id="Rectangle_1452" data-name="Rectangle 1452" width="134.629" height="10.676" transform="translate(7.913 135.189)" fill="#ebebeb"/>
      <rect id="Rectangle_1453" data-name="Rectangle 1453" width="3.207" height="3.207" transform="translate(16.268 138.927)" fill="#fff"/>
      <path id="Path_533" data-name="Path 533" d="M190.647,249.417H187.44l1.309-1.607-1.309-1.6h3.207l1.309,1.6Z" transform="translate(-157.551 -107.283)" fill="#fff"/>
      <path id="Path_534" data-name="Path 534" d="M179.887,246.21l.524,1.054,1.164.167-.844.822.2,1.164-1.047-.553-1.04.553.2-1.164-.844-.822,1.171-.167Z" transform="translate(-155.03 -107.283)" fill="#407bff"/>
      <rect id="Rectangle_1454" data-name="Rectangle 1454" width="25.54" height="1.302" transform="translate(36.703 139.88)" fill="#dbdbdb"/>
      <rect id="Rectangle_1455" data-name="Rectangle 1455" width="23.191" height="1.302" transform="translate(105.621 139.88)" fill="#dbdbdb"/>
      <rect id="Rectangle_1456" data-name="Rectangle 1456" width="25.831" height="1.302" transform="translate(70.046 139.88)" fill="#c7c7c7"/>
      <rect id="Rectangle_1457" data-name="Rectangle 1457" width="3.207" height="3.207" transform="translate(16.268 149.603)" fill="#fff"/>
      <path id="Path_535" data-name="Path 535" d="M172.031,264.2H168.46V260.64h3.571Zm-3.178-.393H171.7v-2.836h-2.843Z" transform="translate(-152.373 -111.219)" fill="#ebebeb"/>
      <path id="Path_536" data-name="Path 536" d="M190.647,264.1H187.44l1.309-1.607-1.309-1.6h3.207l1.309,1.6Z" transform="translate(-157.551 -111.287)" fill="#fff"/>
      <path id="Path_537" data-name="Path 537" d="M190.622,264.2H186.95l1.454-1.782-1.454-1.782h3.672l1.454,1.782Zm-2.909-.364h2.734l1.164-1.454-1.164-1.418h-2.734l1.156,1.418Z" transform="translate(-157.417 -111.219)" fill="#ebebeb"/>
      <path id="Path_538" data-name="Path 538" d="M179.887,260.89l.524,1.054,1.164.167-.844.822.2,1.164-1.047-.553-1.04.553.2-1.164-.844-.822,1.171-.167Z" transform="translate(-155.03 -111.287)" fill="#fff"/>
      <path id="Path_539" data-name="Path 539" d="M178.463,264.258l.24-1.454-1.033-1.018,1.454-.2.64-1.3.64,1.3,1.454.2-1.04,1.018.247,1.454-1.287-.676Zm1.28-1.083.8.422-.153-.895.647-.633-.894-.124-.4-.815-.4.815-.894.124.647.633-.153.895Z" transform="translate(-154.886 -111.121)" fill="#ebebeb"/>
      <rect id="Rectangle_1458" data-name="Rectangle 1458" width="25.54" height="1.302" transform="translate(36.703 150.548)" fill="#dbdbdb"/>
      <rect id="Rectangle_1459" data-name="Rectangle 1459" width="23.191" height="1.302" transform="translate(105.621 150.548)" fill="#dbdbdb"/>
      <rect id="Rectangle_1460" data-name="Rectangle 1460" width="25.831" height="1.302" transform="translate(70.046 150.548)" fill="#c7c7c7"/>
      <rect id="Rectangle_1461" data-name="Rectangle 1461" width="134.629" height="10.676" transform="translate(7.913 156.54)" fill="#ebebeb"/>
      <rect id="Rectangle_1462" data-name="Rectangle 1462" width="3.207" height="3.207" transform="translate(16.268 160.271)" fill="#fff"/>
      <path id="Path_540" data-name="Path 540" d="M190.647,278.767H187.44l1.309-1.6-1.309-1.607h3.207l1.309,1.607Z" transform="translate(-157.551 -115.289)" fill="#fff"/>
      <path id="Path_541" data-name="Path 541" d="M179.887,275.56l.524,1.055,1.164.175-.844.822.2,1.156-1.047-.545-1.04.545.2-1.156-.844-.822,1.171-.175Z" transform="translate(-155.03 -115.289)" fill="#fff"/>
      <rect id="Rectangle_1463" data-name="Rectangle 1463" width="25.54" height="1.302" transform="translate(36.703 161.223)" fill="#dbdbdb"/>
      <rect id="Rectangle_1464" data-name="Rectangle 1464" width="23.191" height="1.302" transform="translate(105.621 161.223)" fill="#dbdbdb"/>
      <rect id="Rectangle_1465" data-name="Rectangle 1465" width="25.831" height="1.302" transform="translate(70.046 161.223)" fill="#c7c7c7"/>
      <rect id="Rectangle_1466" data-name="Rectangle 1466" width="3.207" height="3.207" transform="translate(16.268 170.946)" fill="#fff"/>
      <path id="Path_542" data-name="Path 542" d="M172.031,293.563H168.46V290h3.571Zm-3.207-.364h2.843v-2.843h-2.814Z" transform="translate(-152.373 -119.228)" fill="#ebebeb"/>
      <path id="Path_543" data-name="Path 543" d="M190.647,293.447H187.44l1.309-1.6-1.309-1.607h3.207l1.309,1.607Z" transform="translate(-157.551 -119.294)" fill="#fff"/>
      <path id="Path_544" data-name="Path 544" d="M190.622,293.561H186.95l1.454-1.782-1.454-1.789h3.672l1.454,1.789Zm-2.909-.364h2.734l1.164-1.418-1.164-1.454h-2.734l1.156,1.454Z" transform="translate(-157.417 -119.226)" fill="#ebebeb"/>
      <path id="Path_545" data-name="Path 545" d="M179.887,290.24l.524,1.055,1.164.175-.844.822.2,1.156-1.047-.545-1.04.545.2-1.156-.844-.822,1.171-.175Z" transform="translate(-155.03 -119.294)" fill="#fff"/>
      <path id="Path_546" data-name="Path 546" d="M178.463,293.621l.24-1.454-1.033-1.011,1.454-.211.64-1.294.64,1.294,1.454.211-1.04,1.033.247,1.454-1.287-.676Zm1.28-1.084.8.414-.153-.887.647-.633-.894-.131-.4-.807-.4.807-.894.131.647.633-.153.887Z" transform="translate(-154.886 -119.133)" fill="#ebebeb"/>
      <rect id="Rectangle_1467" data-name="Rectangle 1467" width="25.54" height="1.302" transform="translate(36.703 171.899)" fill="#dbdbdb"/>
      <rect id="Rectangle_1468" data-name="Rectangle 1468" width="23.191" height="1.302" transform="translate(105.621 171.899)" fill="#dbdbdb"/>
      <rect id="Rectangle_1469" data-name="Rectangle 1469" width="25.831" height="1.302" transform="translate(70.046 171.899)" fill="#c7c7c7"/>
      <rect id="Rectangle_1470" data-name="Rectangle 1470" width="134.629" height="10.676" transform="translate(7.913 177.884)" fill="#ebebeb"/>
      <rect id="Rectangle_1471" data-name="Rectangle 1471" width="3.207" height="3.207" transform="translate(16.268 181.622)" fill="#fff"/>
      <path id="Path_547" data-name="Path 547" d="M190.647,308.127H187.44l1.309-1.607-1.309-1.6h3.207l1.309,1.6Z" transform="translate(-157.551 -123.298)" fill="#fff"/>
      <path id="Path_548" data-name="Path 548" d="M179.887,304.92l.524,1.055,1.164.167-.844.822.2,1.164-1.047-.553-1.04.553.2-1.164-.844-.822,1.171-.167Z" transform="translate(-155.03 -123.298)" fill="#fff"/>
      <path id="Path_549" data-name="Path 549" d="M178.463,308.3l.24-1.454-1.033-1.011,1.454-.211.64-1.3.64,1.3,1.454.211-1.04,1.033.247,1.454-1.287-.676Zm1.28-1.091.8.422-.153-.887.647-.633-.894-.131-.4-.814-.378.814-.894.131.647.633-.153.887Z" transform="translate(-154.886 -123.135)" fill="#ebebeb"/>
      <rect id="Rectangle_1472" data-name="Rectangle 1472" width="25.54" height="1.302" transform="translate(36.703 182.574)" fill="#dbdbdb"/>
      <rect id="Rectangle_1473" data-name="Rectangle 1473" width="23.191" height="1.302" transform="translate(105.621 182.574)" fill="#dbdbdb"/>
      <rect id="Rectangle_1474" data-name="Rectangle 1474" width="25.831" height="1.302" transform="translate(70.046 182.574)" fill="#c7c7c7"/>
      <rect id="Rectangle_1475" data-name="Rectangle 1475" width="3.207" height="3.207" transform="translate(16.268 192.297)" fill="#fff"/>
      <path id="Path_550" data-name="Path 550" d="M172.031,322.921H168.46V319.35h3.571Zm-3.207-.364h2.843v-2.843h-2.814Z" transform="translate(-152.373 -127.235)" fill="#ebebeb"/>
      <path id="Path_551" data-name="Path 551" d="M190.647,322.807H187.44l1.309-1.607-1.309-1.6h3.207l1.309,1.6Z" transform="translate(-157.551 -127.303)" fill="#fff"/>
      <path id="Path_552" data-name="Path 552" d="M190.622,322.921H186.95l1.454-1.789-1.454-1.782h3.672l1.454,1.782Zm-2.909-.364h2.734l1.164-1.454-1.164-1.418h-2.734l1.156,1.418Z" transform="translate(-157.417 -127.235)" fill="#ebebeb"/>
      <path id="Path_553" data-name="Path 553" d="M179.887,319.6l.524,1.054,1.164.167-.844.822.2,1.164-1.047-.553-1.04.553.2-1.164-.844-.822,1.171-.167Z" transform="translate(-155.03 -127.303)" fill="#fff"/>
      <path id="Path_554" data-name="Path 554" d="M178.463,322.968l.24-1.454L177.67,320.5l1.454-.211.64-1.3.64,1.3,1.454.211-1.04,1.04.247,1.454-1.287-.669Zm1.28-1.083.8.422-.153-.895.647-.625-.894-.131-.4-.814-.4.814-.894.131.647.625-.153.895Z" transform="translate(-154.886 -127.136)" fill="#ebebeb"/>
      <rect id="Rectangle_1476" data-name="Rectangle 1476" width="25.54" height="1.302" transform="translate(36.703 193.25)" fill="#dbdbdb"/>
      <rect id="Rectangle_1477" data-name="Rectangle 1477" width="23.191" height="1.302" transform="translate(105.621 193.25)" fill="#dbdbdb"/>
      <rect id="Rectangle_1478" data-name="Rectangle 1478" width="25.831" height="1.302" transform="translate(70.046 193.25)" fill="#c7c7c7"/>
      <rect id="Rectangle_1479" data-name="Rectangle 1479" width="134.629" height="10.676" transform="translate(7.913 199.235)" fill="#ebebeb"/>
      <rect id="Rectangle_1480" data-name="Rectangle 1480" width="3.207" height="3.207" transform="translate(16.268 202.973)" fill="#fff"/>
      <path id="Path_555" data-name="Path 555" d="M190.647,337.477H187.44l1.309-1.6-1.309-1.607h3.207l1.309,1.607Z" transform="translate(-157.551 -131.304)" fill="#fff"/>
      <path id="Path_556" data-name="Path 556" d="M179.887,334.27l.524,1.062,1.164.167-.844.822.2,1.156-1.047-.545-1.04.545.2-1.156-.844-.822,1.171-.167Z" transform="translate(-155.03 -131.304)" fill="#fff"/>
      <path id="Path_557" data-name="Path 557" d="M178.463,337.648l.24-1.454-1.033-1.011,1.454-.211.64-1.3.64,1.3,1.454.211-1.04,1.04.247,1.454L179.779,337Zm1.28-1.084.8.422-.153-.894.647-.633-.894-.124-.4-.814-.378.844-.894.124.647.633-.153.894Z" transform="translate(-154.886 -131.141)" fill="#ebebeb"/>
      <rect id="Rectangle_1481" data-name="Rectangle 1481" width="25.54" height="1.302" transform="translate(36.703 203.918)" fill="#dbdbdb"/>
      <rect id="Rectangle_1482" data-name="Rectangle 1482" width="23.191" height="1.302" transform="translate(105.621 203.918)" fill="#dbdbdb"/>
      <rect id="Rectangle_1483" data-name="Rectangle 1483" width="25.831" height="1.302" transform="translate(70.046 203.918)" fill="#c7c7c7"/>
      <rect id="Rectangle_1484" data-name="Rectangle 1484" width="3.207" height="3.207" transform="translate(16.268 213.641)" fill="#fff"/>
      <path id="Path_558" data-name="Path 558" d="M172.031,352.271H168.46V348.7h3.571Zm-3.207-.364h2.843v-2.843h-2.814Z" transform="translate(-152.373 -135.241)" fill="#ebebeb"/>
      <path id="Path_559" data-name="Path 559" d="M190.647,352.157H187.44l1.309-1.6-1.309-1.607h3.207l1.309,1.607Z" transform="translate(-157.551 -135.309)" fill="#fff"/>
      <path id="Path_560" data-name="Path 560" d="M190.622,352.271H186.95l1.454-1.782L186.95,348.7h3.672l1.454,1.789Zm-2.909-.364h2.734l1.164-1.418-1.164-1.454h-2.734l1.156,1.454Z" transform="translate(-157.417 -135.241)" fill="#ebebeb"/>
      <path id="Path_561" data-name="Path 561" d="M179.887,348.95l.524,1.054,1.164.175-.844.822.2,1.156-1.047-.545-1.04.545.2-1.156-.844-.822,1.171-.175Z" transform="translate(-155.03 -135.309)" fill="#fff"/>
      <path id="Path_562" data-name="Path 562" d="M178.463,352.331l.24-1.454-1.033-1.011,1.454-.2.64-1.3.64,1.3,1.454.2-1.04,1.033.247,1.454-1.287-.676Zm1.28-1.084.8.422-.153-.895.647-.633-.894-.131-.4-.807-.4.807-.894.131.647.633-.153.895Z" transform="translate(-154.886 -135.148)" fill="#ebebeb"/>
      <rect id="Rectangle_1485" data-name="Rectangle 1485" width="25.54" height="1.302" transform="translate(36.703 214.594)" fill="#dbdbdb"/>
      <rect id="Rectangle_1486" data-name="Rectangle 1486" width="23.191" height="1.302" transform="translate(105.621 214.594)" fill="#dbdbdb"/>
      <rect id="Rectangle_1487" data-name="Rectangle 1487" width="25.831" height="1.302" transform="translate(70.046 214.594)" fill="#c7c7c7"/>
      <rect id="Rectangle_1488" data-name="Rectangle 1488" width="134.629" height="10.676" transform="translate(7.913 220.586)" fill="#ebebeb"/>
      <rect id="Rectangle_1489" data-name="Rectangle 1489" width="3.207" height="3.207" transform="translate(16.268 224.317)" fill="#fff"/>
      <path id="Path_563" data-name="Path 563" d="M190.647,366.837H187.44l1.309-1.6-1.309-1.607h3.207l1.309,1.607Z" transform="translate(-157.551 -139.313)" fill="#fff"/>
      <path id="Path_564" data-name="Path 564" d="M179.887,363.63l.524,1.054,1.164.175-.844.814.2,1.164-1.047-.545-1.04.545.2-1.164-.844-.814,1.171-.175Z" transform="translate(-155.03 -139.313)" fill="#407bff"/>
      <rect id="Rectangle_1490" data-name="Rectangle 1490" width="25.54" height="1.302" transform="translate(36.703 225.269)" fill="#dbdbdb"/>
      <rect id="Rectangle_1491" data-name="Rectangle 1491" width="23.191" height="1.302" transform="translate(105.621 225.269)" fill="#dbdbdb"/>
      <rect id="Rectangle_1492" data-name="Rectangle 1492" width="25.831" height="1.302" transform="translate(70.046 225.269)" fill="#c7c7c7"/>
      <rect id="Rectangle_1493" data-name="Rectangle 1493" width="3.207" height="3.207" transform="translate(16.268 234.992)" fill="#fff"/>
      <path id="Path_565" data-name="Path 565" d="M172.031,381.661H168.46V378.09h3.571Zm-3.207-.364h2.843v-2.843h-2.814Z" transform="translate(-152.373 -143.258)" fill="#ebebeb"/>
      <path id="Path_566" data-name="Path 566" d="M190.647,381.517H187.44l1.309-1.607-1.309-1.6h3.207l1.309,1.6Z" transform="translate(-157.551 -143.318)" fill="#fff"/>
      <path id="Path_567" data-name="Path 567" d="M190.622,381.661H186.95l1.454-1.789-1.454-1.782h3.672l1.454,1.782Zm-2.909-.364h2.734l1.164-1.454-1.164-1.418h-2.734l1.156,1.418Z" transform="translate(-157.417 -143.258)" fill="#ebebeb"/>
      <path id="Path_568" data-name="Path 568" d="M179.887,378.31l.524,1.054,1.164.167-.844.822.2,1.163-1.047-.553-1.04.553.2-1.163-.844-.822,1.171-.167Z" transform="translate(-155.03 -143.318)" fill="#fff"/>
      <path id="Path_569" data-name="Path 569" d="M178.463,381.691l.24-1.454-1.033-1.011,1.454-.211.64-1.294.64,1.294,1.454.211-1.04,1.033.247,1.454-1.287-.676Zm1.28-1.091.8.422-.153-.887.647-.633-.894-.131-.4-.814-.378.822-.894.131.647.633-.153.887Z" transform="translate(-154.886 -143.157)" fill="#ebebeb"/>
      <rect id="Rectangle_1494" data-name="Rectangle 1494" width="25.54" height="1.302" transform="translate(36.703 235.945)" fill="#dbdbdb"/>
      <rect id="Rectangle_1495" data-name="Rectangle 1495" width="23.191" height="1.302" transform="translate(105.621 235.945)" fill="#dbdbdb"/>
      <rect id="Rectangle_1496" data-name="Rectangle 1496" width="25.831" height="1.302" transform="translate(70.046 235.945)" fill="#c7c7c7"/>
      <rect id="Rectangle_1497" data-name="Rectangle 1497" width="134.629" height="10.676" transform="translate(7.913 241.93)" fill="#ebebeb"/>
      <rect id="Rectangle_1498" data-name="Rectangle 1498" width="3.207" height="3.207" transform="translate(16.268 245.668)" fill="#fff"/>
      <path id="Path_570" data-name="Path 570" d="M190.647,396.2H187.44l1.309-1.607-1.309-1.6h3.207l1.309,1.6Z" transform="translate(-157.551 -147.322)" fill="#fff"/>
      <path id="Path_571" data-name="Path 571" d="M179.887,392.99l.524,1.055,1.164.167-.844.822.2,1.163-1.047-.553-1.04.553.2-1.163-.844-.822,1.171-.167Z" transform="translate(-155.03 -147.322)" fill="#407bff"/>
      <rect id="Rectangle_1499" data-name="Rectangle 1499" width="25.54" height="1.302" transform="translate(36.703 246.62)" fill="#dbdbdb"/>
      <rect id="Rectangle_1500" data-name="Rectangle 1500" width="23.191" height="1.302" transform="translate(105.621 246.62)" fill="#dbdbdb"/>
      <rect id="Rectangle_1501" data-name="Rectangle 1501" width="25.831" height="1.302" transform="translate(70.046 246.62)" fill="#c7c7c7"/>
      <rect id="Rectangle_1502" data-name="Rectangle 1502" width="3.207" height="3.207" transform="translate(16.268 256.343)" fill="#fff"/>
      <path id="Path_572" data-name="Path 572" d="M172.031,410.983H168.46V407.42h3.571Zm-3.207-.364h2.843v-2.836h-2.814Z" transform="translate(-152.373 -151.259)" fill="#ebebeb"/>
      <path id="Path_573" data-name="Path 573" d="M190.647,410.87H187.44l1.309-1.6-1.309-1.6h3.207l1.309,1.6Z" transform="translate(-157.551 -151.327)" fill="#fff"/>
      <path id="Path_574" data-name="Path 574" d="M190.622,410.983H186.95L188.4,409.2l-1.454-1.782h3.672l1.454,1.782Zm-2.909-.364h2.734l1.164-1.418-1.164-1.418h-2.734l1.156,1.418Z" transform="translate(-157.417 -151.259)" fill="#ebebeb"/>
      <path id="Path_575" data-name="Path 575" d="M179.887,407.67l.524,1.054,1.164.167-.844.822.2,1.156-1.047-.545-1.04.545.2-1.156-.844-.822,1.171-.167Z" transform="translate(-155.03 -151.327)" fill="#fff"/>
      <path id="Path_576" data-name="Path 576" d="M178.463,411.038l.24-1.454-1.033-1.018,1.454-.2.64-1.3.64,1.3,1.454.2-1.04,1.018.247,1.454-1.287-.676Zm1.28-1.084.8.422-.153-.894.647-.633-.894-.131-.4-.807-.4.807-.894.131.647.633-.153.894Z" transform="translate(-154.886 -151.161)" fill="#ebebeb"/>
      <rect id="Rectangle_1503" data-name="Rectangle 1503" width="25.54" height="1.302" transform="translate(36.703 257.288)" fill="#dbdbdb"/>
      <rect id="Rectangle_1504" data-name="Rectangle 1504" width="23.191" height="1.302" transform="translate(105.621 257.288)" fill="#dbdbdb"/>
      <rect id="Rectangle_1505" data-name="Rectangle 1505" width="25.831" height="1.302" transform="translate(70.046 257.288)" fill="#c7c7c7"/>
      <path id="Path_577" data-name="Path 577" d="M291.843,417.21a12.231,12.231,0,0,1-6.785,10.676H164.042a12.224,12.224,0,0,1-6.792-10.676Z" transform="translate(-149.316 -153.929)" fill="#ebebeb"/>
      <rect id="Rectangle_1506" data-name="Rectangle 1506" width="3.207" height="3.207" transform="translate(16.268 267.011)" fill="#fff"/>
      <path id="Path_578" data-name="Path 578" d="M190.647,425.547H187.44l1.309-1.6-1.309-1.607h3.207l1.309,1.607Z" transform="translate(-157.551 -155.329)" fill="#fff"/>
      <path id="Path_579" data-name="Path 579" d="M179.887,422.34l.524,1.062,1.164.167-.844.822.2,1.156L179.887,425l-1.04.545.2-1.156-.844-.822,1.171-.167Z" transform="translate(-155.03 -155.329)" fill="#407bff"/>
      <rect id="Rectangle_1507" data-name="Rectangle 1507" width="25.54" height="1.302" transform="translate(36.703 267.964)" fill="#dbdbdb"/>
      <rect id="Rectangle_1508" data-name="Rectangle 1508" width="23.191" height="1.302" transform="translate(105.621 267.964)" fill="#dbdbdb"/>
      <rect id="Rectangle_1509" data-name="Rectangle 1509" width="25.831" height="1.302" transform="translate(70.046 267.964)" fill="#c7c7c7"/>
    </g>
    <g id="freepik--paper-plane--inject-74" transform="translate(1331.34 2363.737)">
      <path id="Path_580" data-name="Path 580" d="M164.553,260.162v-.545l2.909-.036v.545Zm-3.636,0c-.989,0-1.956,0-2.909-.044v-.545q1.454,0,2.909.044Zm10.181-.116V259.5l2.909-.1v.545Zm-16.726,0c-.982-.044-1.956-.087-2.909-.145v-.538l2.909.138Zm23.271-.233v-.545c.953-.051,1.92-.1,2.909-.167v.545Zm-29.816-.153c-.982-.073-1.949-.16-2.909-.255l.058-.538c.945.087,1.905.174,2.909.247Zm36.361-.247-.036-.545,2.909-.218.044.545Zm-42.906-.4c-.982-.116-1.949-.247-2.909-.385l.08-.538c.938.138,1.9.262,2.909.385ZM190.7,258.9l-.051-.545,2.909-.262.051.545Zm6.545-.611-.051-.545,2.909-.305.058.545ZM134.831,258c-.974-.174-1.927-.364-2.865-.553l.109-.538c.931.2,1.883.378,2.851.553Zm68.925-.465-.058-.545.727-.08,2.138-.269.073.538c-.727.1-1.454.189-2.182.269Zm6.5-.88-.087-.538c.96-.153,1.913-.313,2.873-.487l.095.538c-.974.167-1.949.335-2.894.487Zm-81.841,0c-.953-.24-1.9-.494-2.822-.727l.153-.524c.916.262,1.854.516,2.8.727Zm88.3-1.156-.109-.538c.953-.2,1.9-.4,2.843-.611l.116.531c-.96.2-1.913.4-2.865.6Zm-94.6-.691c-.938-.32-1.862-.662-2.742-1l.2-.509c.88.342,1.8.676,2.72,1Zm101-.764-.131-.524c.938-.233,1.876-.473,2.807-.727l.145.524c-.931.233-1.9.473-2.836.705Zm-107.1-1.68c-.894-.415-1.774-.858-2.611-1.3l.262-.487c.829.444,1.694.88,2.582,1.294Zm113.445,0-.153-.524,2.778-.822.16.524Zm6.261-1.913-.167-.524,2.756-.909.174.516c-.953.276-1.847.589-2.8.887Zm-125.452-1.229c-.822-.524-1.636-1.084-2.414-1.651l.327-.444c.727.567,1.571,1.113,2.385,1.636Zm131.626-.887-.182-.516c.916-.327,1.825-.662,2.727-1l.2.509c-.916.313-1.825.64-2.749.974Zm6.145-2.305-.2-.509c.909-.349,1.811-.727,2.705-1.076l.2.509c-.9.335-1.8.691-2.712,1.047ZM104.987,245.3c-.727-.647-1.454-1.324-2.131-2.014l.393-.378c.669.684,1.374,1.345,2.094,1.985Zm149.108-1.767-.211-.509c.895-.378,1.789-.727,2.669-1.142l.218.495C255.9,242.774,255,243.152,254.095,243.538Zm6.007-2.633-.225-.495,2.64-1.214.233.495Zm-159.689-.371h0a17.339,17.339,0,0,1-1.665-2.422l.473-.269a17.28,17.28,0,0,0,1.622,2.356Zm165.63-2.407-.24-.487c.88-.429,1.753-.851,2.611-1.28l.247.495Zm5.869-2.909-.247-.487c.88-.444,1.738-.894,2.589-1.338l.247.487c-.829.415-1.694.887-2.574,1.338ZM97.38,234.644a11.9,11.9,0,0,1-.32-2.727v-.225h.545v.211a11.22,11.22,0,0,0,.305,2.6Zm180.349-2.473-.262-.48c.873-.465,1.723-.931,2.56-1.389l.262.473q-1.243.7-2.552,1.4ZM283.467,229l-.269-.473,2.523-1.454.276.465c-.807.487-1.651.938-2.523,1.462Zm-185.28-.785-.516-.167a16.229,16.229,0,0,1,1.142-2.712l.48.247A16.794,16.794,0,0,0,98.187,228.215ZM289.146,225.7l-.276-.465q1.3-.771,2.487-1.505l.284.465C290.848,224.681,290.019,225.183,289.146,225.7Zm-187.912-3.134-.436-.327c.56-.727,1.2-1.5,1.891-2.247l.4.371c-.676.735-1.3,1.476-1.854,2.2Zm193.512-.291-.291-.458c.887-.56,1.709-1.084,2.458-1.571l.291.458c-.749.5-1.571,1.011-2.458,1.571Zm5.512-3.571-.305-.458c1.571-1.047,2.407-1.643,2.407-1.643l.32.444S301.836,217.642,300.258,218.7Zm-194.6-.873-.364-.407c.727-.633,1.454-1.265,2.233-1.891l.342.429c-.778.618-1.52,1.244-2.211,1.869Zm5.09-4.036-.32-.451c.778-.545,1.593-1.091,2.429-1.629l.3.458c-.807.538-1.6,1.076-2.385,1.622Zm5.5-3.505-.269-.473c.829-.487,1.687-.96,2.553-1.454l.255.48c-.836.487-1.687.967-2.516,1.454Zm5.774-3.069-.24-.487c.88-.429,1.767-.844,2.647-1.236l.218.5c-.851.385-1.731.8-2.6,1.222Zm5.97-2.632-.2-.5c.924-.371,1.825-.727,2.676-1l.182.516c-.822.291-1.716.618-2.64.982Z" transform="translate(-97.06 -193.316)" fill="#263238"/>
      <path id="Path_581" data-name="Path 581" d="M384.1,199.714l-4.509,13.475,9.985-8.232L428.2,189.78Z" transform="translate(-174.13 -189.685)" fill="#3baeda"/>
      <path id="Path_582" data-name="Path 582" d="M379.59,213.189l9.985-8.232L428.2,189.78Z" transform="translate(-174.13 -189.685)" fill="#ffcd00" opacity="0.1"/>
      <path id="Path_583" data-name="Path 583" d="M390.971,213.719l-11.381,5.163,9.985-8.232Z" transform="translate(-174.13 -195.378)" fill="#263238"/>
      <path id="Path_584" data-name="Path 584" d="M393.32,204.957l38.622-15.177-31.154,32.056Z" transform="translate(-177.875 -189.685)" fill="#3baeda"/>
      <path id="Path_585" data-name="Path 585" d="M379.606,199.678,363.12,189.65l60.584.095Z" transform="translate(-169.637 -189.65)" fill="#3baeda"/>
    </g>
    <g id="freepik--Window--inject-74" transform="translate(1363.948 2339.761)">
      <rect id="Rectangle_1510" data-name="Rectangle 1510" width="156.817" height="129.662" transform="translate(0.204 0.182)" fill="#fff"/>
      <path id="Path_586" data-name="Path 586" d="M298.92,286.524l-156.816.109h-.131v-.109L141.9,156.862v-.182h.182L298.9,156.8h.058v.051Zm0,0-.058-129.662.058.058-156.816.124.182-.182-.073,129.662-.109-.109Z" transform="translate(-141.9 -156.68)" fill="#263238"/>
      <path id="Path_587" data-name="Path 587" d="M150.205,161.313a1.833,1.833,0,1,1-1.833-1.833A1.833,1.833,0,0,1,150.205,161.313Z" transform="translate(-143.166 -157.444)" fill="#fff"/>
      <path id="Path_588" data-name="Path 588" d="M150.137,161.275a1.927,1.927,0,0,1-1.833,1.92,1.949,1.949,0,0,1-1.4-.516,1.926,1.926,0,1,1,3.236-1.4Zm0,0a1.818,1.818,0,0,0-.553-1.28,1.745,1.745,0,1,0,0,2.553A1.811,1.811,0,0,0,150.137,161.275Z" transform="translate(-143.098 -157.406)" fill="#263238"/>
      <path id="Path_589" data-name="Path 589" d="M160.5,161.313a1.833,1.833,0,1,1-1.833-1.833A1.833,1.833,0,0,1,160.5,161.313Z" transform="translate(-145.973 -157.444)" fill="#fff"/>
      <path id="Path_590" data-name="Path 590" d="M160.427,161.275a1.927,1.927,0,0,1-1.833,1.92,1.949,1.949,0,0,1-1.4-.516,1.926,1.926,0,1,1,3.236-1.4Zm0,0a1.818,1.818,0,0,0-.553-1.28,1.745,1.745,0,1,0,0,2.553A1.811,1.811,0,0,0,160.427,161.275Z" transform="translate(-145.905 -157.406)" fill="#263238"/>
      <path id="Path_591" data-name="Path 591" d="M170.8,161.313a1.833,1.833,0,1,1-1.833-1.833A1.833,1.833,0,0,1,170.8,161.313Z" transform="translate(-148.782 -157.444)" fill="#fff"/>
      <path id="Path_592" data-name="Path 592" d="M170.727,161.276a1.927,1.927,0,0,1-1.833,1.92,1.963,1.963,0,0,1-1.411-.516,2.036,2.036,0,0,1-.6-1.4,2.007,2.007,0,0,1,.6-1.411,1.963,1.963,0,0,1,1.411-.516A1.927,1.927,0,0,1,170.727,161.276Zm0,0a1.825,1.825,0,0,0-.56-1.28,1.745,1.745,0,1,0,0,2.553,1.818,1.818,0,0,0,.56-1.273Z" transform="translate(-148.714 -157.408)" fill="#263238"/>
      <path id="Path_593" data-name="Path 593" d="M142.18,166.882l19.6-.087,19.606-.029,39.2-.065,39.2.065,19.606.029,19.6.087-19.6.095-19.606.029-39.2.058-39.2-.058-19.606-.036Z" transform="translate(-141.976 -159.413)" fill="#263238"/>
      <path id="Path_594" data-name="Path 594" d="M268.335,256.376H208.98V206.169l29.67-18.849,29.685,18.849Z" transform="translate(-160.198 -165.038)" fill="#3baeda"/>
      <path id="Path_596" data-name="Path 596" d="M266.245,251.642H213.58v-67.6h39.1l13.563,12.879Z" transform="translate(-161.453 -164.143)" fill="#fff"/>
      <path id="Path_597" data-name="Path 597" d="M266.147,251.53l-52.665.175h-.167v-.175L213.22,183.9v-.269h.269l39.1.065h.087l.058.058,13.541,12.9.051.051v.073l-.058,27.409Zm0,0-.174-54.723.051.131-13.577-12.857.138.051-39.1.065.305-.3-.095,67.631-.175-.174Z" transform="translate(-161.355 -164.032)" fill="#263238"/>
      <path id="Path_598" data-name="Path 598" d="M267.35,184.04l13.563,12.879H267.35Z" transform="translate(-176.121 -164.143)" fill="#dbdbdb"/>
      <rect id="Rectangle_1511" data-name="Rectangle 1511" width="29.278" height="1.738" transform="translate(86.546 32.972) rotate(180)" fill="#dbdbdb"/>
      <rect id="Rectangle_1512" data-name="Rectangle 1512" width="29.278" height="1.738" transform="translate(86.546 37.357) rotate(180)" fill="#dbdbdb"/>
      <rect id="Rectangle_1513" data-name="Rectangle 1513" width="29.278" height="1.738" transform="translate(86.546 41.735) rotate(180)" fill="#dbdbdb"/>
      <rect id="Rectangle_1514" data-name="Rectangle 1514" width="42.898" height="1.738" transform="translate(100.167 46.12) rotate(180)" fill="#dbdbdb"/>
      <rect id="Rectangle_1515" data-name="Rectangle 1515" width="42.898" height="1.738" transform="translate(100.167 50.498) rotate(180)" fill="#dbdbdb"/>
      <rect id="Rectangle_1516" data-name="Rectangle 1516" width="42.898" height="1.738" transform="translate(100.167 54.883) rotate(180)" fill="#dbdbdb"/>
      <rect id="Rectangle_1517" data-name="Rectangle 1517" width="42.898" height="1.738" transform="translate(100.167 59.261) rotate(180)" fill="#dbdbdb"/>
      <rect id="Rectangle_1518" data-name="Rectangle 1518" width="42.898" height="1.738" transform="translate(100.167 63.646) rotate(180)" fill="#dbdbdb"/>
      <rect id="Rectangle_1519" data-name="Rectangle 1519" width="42.898" height="1.738" transform="translate(100.167 68.024) rotate(180)" fill="#dbdbdb"/>
      <rect id="Rectangle_1520" data-name="Rectangle 1520" width="42.898" height="1.738" transform="translate(100.167 72.409) rotate(180)" fill="#dbdbdb"/>
      <rect id="Rectangle_1521" data-name="Rectangle 1521" width="42.898" height="1.738" transform="translate(100.167 76.794) rotate(180)" fill="#dbdbdb"/>
      <rect id="Rectangle_1522" data-name="Rectangle 1522" width="42.898" height="1.738" transform="translate(100.167 81.179) rotate(180)" fill="#dbdbdb"/>
      <path id="Path_599" data-name="Path 599" d="M268.341,230.52v37.641H209V230.52c2.552,1.454,5.09,2.96,7.578,4.436s5.025,3.018,7.519,4.552q4.174,2.545,8.334,5.149l.095-.051a.4.4,0,0,1-.073.058l6.232,3.9c2.065-1.3,4.145-2.611,6.218-3.9a.634.634,0,0,0-.073-.058l.095.044q4.16-2.6,8.334-5.156c2.494-1.52,5-3.04,7.512-4.538S265.8,231.967,268.341,230.52Z" transform="translate(-160.204 -176.822)" fill="#3baeda"/>
      <g id="Group_11" data-name="Group 11" transform="translate(48.752 53.698)" opacity="0.2">
        <path id="Path_600" data-name="Path 600" d="M268.324,230.52c-2.393,1.687-4.836,3.3-7.272,4.96s-4.872,3.243-7.323,4.843q-3.84,2.524-7.694,4.989l-.233.16-6.836,4.363-.342.2-.327-.2-6.828-4.363-.24-.146c-2.574-1.651-5.141-3.309-7.7-5-2.443-1.593-4.887-3.214-7.316-4.836s-4.858-3.272-7.272-4.96c2.553,1.454,5.091,2.96,7.578,4.436s5.025,3.018,7.519,4.552q4.174,2.545,8.334,5.149h0l6.232,3.9c2.065-1.3,4.145-2.611,6.218-3.9h0q4.16-2.6,8.334-5.156c2.494-1.52,5-3.04,7.512-4.538S265.779,231.967,268.324,230.52Z" transform="translate(-208.94 -230.52)"/>
        <path id="Path_601" data-name="Path 601" d="M232.56,249.89a.4.4,0,0,1-.073.058c-.313.269-.625.538-.938.793-1.454,1.258-3.011,2.465-4.56,3.636-1.891,1.454-3.825,2.829-5.767,4.2s-3.92,2.683-5.92,3.963-4.029,2.538-6.123,3.694c1.8-1.578,3.636-3.054,5.556-4.487s3.84-2.829,5.774-4.2,3.92-2.691,5.927-3.978c1.593-1.025,3.214-2.029,4.872-2.974.385-.225.771-.436,1.156-.655Z" transform="translate(-209.005 -235.804)"/>
        <path id="Path_602" data-name="Path 602" d="M281.637,266.222c-2.094-1.156-4.131-2.407-6.123-3.694s-3.971-2.618-5.934-3.963-3.876-2.756-5.767-4.2c-1.542-1.164-3.062-2.363-4.545-3.636l-.945-.807a.624.624,0,0,0-.073-.058l.095.044,1.156.662c1.658.945,3.272,1.949,4.88,2.974,2,1.287,3.963,2.618,5.912,3.978s3.883,2.749,5.774,4.2S279.834,264.644,281.637,266.222Z" transform="translate(-222.391 -235.796)"/>
      </g>
      <rect id="Rectangle_1523" data-name="Rectangle 1523" width="50.367" height="10.676" transform="translate(53.428 107.49)" fill="#0f0f0f"/>
      <path id="Path_603" data-name="Path 603" d="M230.826,309.936a.9.9,0,0,0-.167-.131,1.668,1.668,0,0,0-.255-.138,2.174,2.174,0,0,0-.327-.109,1.987,1.987,0,0,0-.364-.036,1,1,0,0,0-.611.153.487.487,0,0,0-.2.415.436.436,0,0,0,.255.414,1.324,1.324,0,0,0,.32.131c.124.036.276.08.444.116a4.35,4.35,0,0,1,.567.174,1.457,1.457,0,0,1,.429.225.836.836,0,0,1,.269.327,1.054,1.054,0,0,1,.1.473,1.164,1.164,0,0,1-.124.545,1.046,1.046,0,0,1-.327.364,1.376,1.376,0,0,1-.48.211,2.5,2.5,0,0,1-.582.065,2.976,2.976,0,0,1-.916-.138,2.665,2.665,0,0,1-.793-.415l.3-.56a1.193,1.193,0,0,0,.218.167,2.038,2.038,0,0,0,.335.175,2.972,2.972,0,0,0,.407.131,1.885,1.885,0,0,0,.458.058,1.128,1.128,0,0,0,.6-.138.436.436,0,0,0,.211-.393.415.415,0,0,0-.08-.262.64.64,0,0,0-.225-.182,1.643,1.643,0,0,0-.356-.145l-.473-.131c-.211-.058-.385-.116-.538-.175a1.215,1.215,0,0,1-.385-.218.817.817,0,0,1-.225-.3.916.916,0,0,1-.08-.415,1.15,1.15,0,0,1,.116-.538,1.127,1.127,0,0,1,.313-.4,1.455,1.455,0,0,1,.48-.24,2.18,2.18,0,0,1,.589-.08,2.241,2.241,0,0,1,.778.131,2.768,2.768,0,0,1,.618.335Z" transform="translate(-165.406 -198.214)" fill="#fff"/>
      <path id="Path_604" data-name="Path 604" d="M235.092,312.556a1,1,0,0,0,.538-.131.958.958,0,0,0,.349-.334,1.331,1.331,0,0,0,.189-.465,2.771,2.771,0,0,0,.051-.545V309h.662v2.094a3.171,3.171,0,0,1-.1.8,1.818,1.818,0,0,1-.313.654,1.411,1.411,0,0,1-.56.444,1.848,1.848,0,0,1-.814.167,1.826,1.826,0,0,1-.836-.175,1.535,1.535,0,0,1-.545-.458,1.841,1.841,0,0,1-.305-.662,2.989,2.989,0,0,1-.095-.771V309h.654v2.094a2.67,2.67,0,0,0,.051.545,1.375,1.375,0,0,0,.189.473,1.025,1.025,0,0,0,.349.334A1.112,1.112,0,0,0,235.092,312.556Z" transform="translate(-166.835 -198.231)" fill="#fff"/>
      <path id="Path_605" data-name="Path 605" d="M242.653,312.047a1,1,0,0,1-.1.451,1.091,1.091,0,0,1-.269.335,1.272,1.272,0,0,1-.407.211,1.8,1.8,0,0,1-.494.073H239.41V309h2.131a.778.778,0,0,1,.385.095.873.873,0,0,1,.3.24,1.077,1.077,0,0,1,.189.335,1.193,1.193,0,0,1,.065.385,1.149,1.149,0,0,1-.153.567.952.952,0,0,1-.436.393,1.048,1.048,0,0,1,.56.378A1.076,1.076,0,0,1,242.653,312.047Zm-2.6-2.5v1.222h1.236a.466.466,0,0,0,.225-.051.621.621,0,0,0,.182-.124.568.568,0,0,0,.124-.189.654.654,0,0,0,.044-.247.64.64,0,0,0-.153-.436.494.494,0,0,0-.385-.174Zm1.963,2.363a.727.727,0,0,0-.044-.247.618.618,0,0,0-.116-.2.544.544,0,0,0-.175-.138.487.487,0,0,0-.225-.051h-1.4v1.258h1.324a.525.525,0,0,0,.24-.051.494.494,0,0,0,.189-.131.581.581,0,0,0,.131-.2A.728.728,0,0,0,242.021,311.909Z" transform="translate(-168.499 -198.231)" fill="#fff"/>
      <path id="Path_606" data-name="Path 606" d="M247.136,309.936a1.225,1.225,0,0,0-.167-.131,1.769,1.769,0,0,0-.262-.138,2.178,2.178,0,0,0-.327-.109,1.987,1.987,0,0,0-.364-.036.953.953,0,0,0-.6.153.487.487,0,0,0-.2.415.494.494,0,0,0,.058.247.48.48,0,0,0,.189.167,1.457,1.457,0,0,0,.32.131c.131.036.276.08.451.116a4.342,4.342,0,0,1,.567.175,1.59,1.59,0,0,1,.429.225.9.9,0,0,1,.269.327,1.055,1.055,0,0,1,.095.473,1.258,1.258,0,0,1-.116.545,1.046,1.046,0,0,1-.327.364,1.454,1.454,0,0,1-.48.211,2.521,2.521,0,0,1-.589.065,2.908,2.908,0,0,1-.909-.138,2.494,2.494,0,0,1-.793-.415l.291-.56a1.2,1.2,0,0,0,.218.167,2.382,2.382,0,0,0,.335.175,2.968,2.968,0,0,0,.407.131,2,2,0,0,0,.465.058,1.1,1.1,0,0,0,.589-.138.436.436,0,0,0,.211-.393.414.414,0,0,0-.08-.262.575.575,0,0,0-.225-.182,1.582,1.582,0,0,0-.349-.145l-.48-.131c-.2-.058-.385-.116-.538-.175a1.177,1.177,0,0,1-.378-.218.831.831,0,0,1-.233-.3,1.025,1.025,0,0,1-.08-.415,1.251,1.251,0,0,1,.116-.538,1.15,1.15,0,0,1,.32-.4,1.382,1.382,0,0,1,.473-.24,2.188,2.188,0,0,1,.6-.08,2.225,2.225,0,0,1,.771.131,2.827,2.827,0,0,1,.625.335Z" transform="translate(-169.855 -198.214)" fill="#fff"/>
      <path id="Path_607" data-name="Path 607" d="M249.34,311.013a2.182,2.182,0,0,1,.131-.727,1.97,1.97,0,0,1,.393-.662,2.08,2.08,0,0,1,.633-.48,1.963,1.963,0,0,1,.844-.174,1.8,1.8,0,0,1,.967.247,1.679,1.679,0,0,1,.6.654l-.516.342a1.106,1.106,0,0,0-.2-.313,1.142,1.142,0,0,0-.269-.2,1.175,1.175,0,0,0-.305-.109,1.455,1.455,0,0,0-.3-.036,1.214,1.214,0,0,0-.574.131,1.258,1.258,0,0,0-.407.349,1.69,1.69,0,0,0-.255.48,2.006,2.006,0,0,0-.08.538,1.672,1.672,0,0,0,.095.574,1.693,1.693,0,0,0,.276.487,1.556,1.556,0,0,0,.422.335,1.222,1.222,0,0,0,.538.124,1.589,1.589,0,0,0,.313,0,1.223,1.223,0,0,0,.305-.124,1.54,1.54,0,0,0,.276-.211,1.055,1.055,0,0,0,.2-.313l.545.313a1.215,1.215,0,0,1-.284.407,1.679,1.679,0,0,1-.407.3,2.27,2.27,0,0,1-.48.189,1.969,1.969,0,0,1-.495.065,1.73,1.73,0,0,1-.8-.189,2.015,2.015,0,0,1-.618-.487,2.125,2.125,0,0,1-.407-.676,2.079,2.079,0,0,1-.145-.829Z" transform="translate(-171.208 -198.222)" fill="#fff"/>
      <path id="Path_608" data-name="Path 608" d="M255.17,313.116V309h1.8a1.119,1.119,0,0,1,.516.116,1.274,1.274,0,0,1,.4.305,1.384,1.384,0,0,1,.269.429,1.3,1.3,0,0,1,.095.494,1.454,1.454,0,0,1-.058.4,1.573,1.573,0,0,1-.16.356,1.186,1.186,0,0,1-.262.276,1.038,1.038,0,0,1-.327.182l.967,1.571h-.727l-.894-1.454h-.96v1.454Zm.647-2.014h1.142a.568.568,0,0,0,.255-.058.73.73,0,0,0,.2-.175.784.784,0,0,0,.124-.247.761.761,0,0,0,.051-.291.806.806,0,0,0-.058-.3.926.926,0,0,0-.145-.247.793.793,0,0,0-.211-.167.59.59,0,0,0-.247-.058h-1.105Z" transform="translate(-172.798 -198.231)" fill="#fff"/>
      <path id="Path_609" data-name="Path 609" d="M260.46,313.116V309h.647v4.131Z" transform="translate(-174.241 -198.231)" fill="#fff"/>
      <path id="Path_610" data-name="Path 610" d="M265.881,312.047a1,1,0,0,1-.1.451,1.112,1.112,0,0,1-.276.335,1.2,1.2,0,0,1-.407.211,1.8,1.8,0,0,1-.494.073H262.63V309h2.131a.785.785,0,0,1,.393.095.844.844,0,0,1,.291.24.952.952,0,0,1,.189.334,1.21,1.21,0,0,1,.073.385,1.157,1.157,0,0,1-.16.567.953.953,0,0,1-.436.393,1.048,1.048,0,0,1,.56.378A1.083,1.083,0,0,1,265.881,312.047Zm-2.6-2.5v1.222h1.2a.438.438,0,0,0,.218-.051.539.539,0,0,0,.182-.124.567.567,0,0,0,.124-.189.653.653,0,0,0,.044-.247.64.64,0,0,0-.153-.436.48.48,0,0,0-.385-.175Zm1.927,2.385a.728.728,0,0,0-.044-.247.786.786,0,0,0-.116-.2.577.577,0,0,0-.182-.138.466.466,0,0,0-.225-.051h-1.36v1.258H264.6a.523.523,0,0,0,.24-.051.581.581,0,0,0,.2-.131.678.678,0,0,0,.175-.458Z" transform="translate(-174.833 -198.231)" fill="#fff"/>
      <path id="Path_611" data-name="Path 611" d="M270.858,312.542v.575H268V309h2.785v.575h-2.131v1.178h1.84v.538h-1.84v1.265Z" transform="translate(-176.298 -198.231)" fill="#fff"/>
      <path id="Path_612" data-name="Path 612" d="M193.07,290.662l10.348-.087,10.348-.029,20.7-.065,20.7.065,10.348.029,10.348.087-10.348.095-10.348.029-20.7.058-20.7-.058-10.348-.036Z" transform="translate(-155.858 -193.179)" fill="#263238"/>
      <path id="Path_613" data-name="Path 613" d="M212.86,295.052q6.749-.1,13.5-.138l13.5-.044,13.5.044q6.756,0,13.5.138-6.748.095-13.5.138l-13.5.044-13.5-.044Q219.616,295.161,212.86,295.052Z" transform="translate(-161.257 -194.376)" fill="#263238"/>
    </g>
  </g>
</svg>
