<svg xmlns="http://www.w3.org/2000/svg" width="275.471" height="275.607" viewBox="0 0 275.471 275.607">
  <g id="Group_141" data-name="Group 141" transform="translate(-329.307 -2596.8)">
    <g id="freepik--Shadow--inject-68" transform="translate(329.307 2853.275)" opacity="0.2">
      <ellipse id="freepik--path--inject-68" cx="66.934" cy="9.566" rx="66.934" ry="9.566" transform="translate(0 0)" fill="#f5f5f5"/>
    </g>
    <path id="Path_624" data-name="Path 624" d="M148.526,106.671c.583-10.216,22.182-9.2,26.424.33s.761,18.3,12.532,24.05c20.813,10.14,23.078,23.61,15.211,36.869s-38.593,22.546-55.307.845c-16.487-21.422,8.577-26.2-4.394-36.277C131.685,123.647,132.648,107.9,148.526,106.671Z" transform="translate(231.6 2497.379)" fill="#555"/>
    <path id="Path_625" data-name="Path 625" d="M134.591,164.264c-.279.338-.431.507-.625.727s-.38.406-.566.608c-.38.38-.76.761-1.141,1.107-.769.718-1.555,1.377-2.349,2.02a48.323,48.323,0,0,1-5.011,3.439,55.774,55.774,0,0,1-5.3,2.8c-.913.406-1.817.845-2.738,1.183l-1.386.532-.693.262a8.451,8.451,0,0,1-1.242.363,5.814,5.814,0,0,1-5.738-1.994,9.7,9.7,0,0,1-1.859-3.71,26.106,26.106,0,0,1-.845-6.287,59.386,59.386,0,0,1,.989-11.662l3.786.313a105.815,105.815,0,0,0,.93,10.867,23.326,23.326,0,0,0,1.166,4.783,3.144,3.144,0,0,0,.744,1.259c.059,0,0-.076-.22-.186a1.691,1.691,0,0,0-.456-.1l.1-.059.6-.3,1.208-.575,2.366-1.217c1.546-.845,3.076-1.732,4.529-2.7s2.873-1.969,4.225-3.051a22.779,22.779,0,0,0,1.927-1.69c.313-.279.6-.566.887-.845l.414-.406.3-.33Z" transform="translate(236.299 2488.975)" fill="#ffc3bd"/>
    <path id="Path_626" data-name="Path 626" d="M138.185,152.2c-3.1-.761-10.985,9.448-10.985,9.448l4.791,9.118s13.242-7.479,12.743-11.594C144.211,154.881,142.706,153.31,138.185,152.2Z" transform="translate(232.874 2489.206)" fill="#3baeda"/>
    <path id="Path_628" data-name="Path 628" d="M136.826,156.39l.76,11.94c-2.636,1.8-4.91,3.093-4.91,3.093l-1-1.91Z" transform="translate(232.179 2488.551)" opacity="0.2"/>
    <path id="Path_629" data-name="Path 629" d="M109.293,155.574l3.49-7.774-7.419,1.766s-1.284,4.648.98,6.76Z" transform="translate(236.314 2489.882)" fill="#ffc3bd"/>
    <path id="Path_630" data-name="Path 630" d="M112.418,141.22l-6.372.532-.617,6.8,7.419-1.766Z" transform="translate(236.247 2490.901)" fill="#ffc3bd"/>
    <path id="Path_631" data-name="Path 631" d="M146.715,399.4l-7.479.3-1.327-17.374,7.479-.287Z" transform="translate(231.214 2453.584)" fill="#ffc3bd"/>
    <path id="Path_632" data-name="Path 632" d="M223.537,325.256l-4.876,5.7L203.89,321.5l4.876-5.7Z" transform="translate(220.989 2463.847)" fill="#ffc3bd"/>
    <path id="Path_633" data-name="Path 633" d="M219.171,331.986l4.47-7.149a.592.592,0,0,1,.752-.237l6.16,2.721a1.208,1.208,0,0,1,.5,1.69c-1.606,2.467-2.535,3.574-4.462,6.718-1.208,1.935-3.169,5.915-4.842,8.56s-4.394,1.158-3.938-.1c2.045-5.653,1.453-8.366,1.09-10.926A1.951,1.951,0,0,1,219.171,331.986Z" transform="translate(218.84 2462.492)" fill="#263238"/>
    <path id="Path_634" data-name="Path 634" d="M137.024,401.988l8.112-2.273a.591.591,0,0,1,.718.33l2.721,6.16a1.208,1.208,0,0,1-.845,1.606c-2.839.744-4.225.963-7.817,1.961-2.2.617-8.611,3.507-11.754,3.76s-3.549-2.848-2.265-3.228a17.856,17.856,0,0,0,10.005-7.538,1.96,1.96,0,0,1,1.124-.777Z" transform="translate(233.182 2450.848)" fill="#263238"/>
    <g id="Group_12" data-name="Group 12" transform="translate(369.124 2779.647)" opacity="0.2">
      <path id="Path_635" data-name="Path 635" d="M137.91,382.326l.684,8.957,7.479-.3-.684-8.957Z" transform="translate(-137.91 -326.063)"/>
      <path id="Path_636" data-name="Path 636" d="M208.766,315.8l-4.876,5.7,7.622,4.867,4.876-5.7Z" transform="translate(-148.135 -315.8)"/>
    </g>
    <path id="Path_637" data-name="Path 637" d="M135.456,154.635c-.727,4.225-1.42,14.957,1.69,39.9l30.421,1.876c.237-11.662.845-21.058,7.157-43.6a3.87,3.87,0,0,0-3.482-4.918c-2.315-.135-5.231-.228-8.205-.1a102.474,102.474,0,0,0-13.985,1.268c-3.946.71-8.264,1.808-10.774,2.476a3.862,3.862,0,0,0-2.822,3.093Z" transform="translate(231.69 2489.891)" fill="#3baeda"/>
    <path id="Path_639" data-name="Path 639" d="M135.654,203.12s-9.464,57.31-10.385,80.169c-.955,23.779,9.743,77.862,9.743,77.862h10.14s-3.7-51.632-1.361-74.9c2.535-25.351,14.137-81.766,14.137-81.766Z" transform="translate(233.182 2481.309)" fill="#4d4d4d"/>
    <path id="Path_640" data-name="Path 640" d="M147.507,389.779h-11.9l-.879-3.794,13.326-.465Z" transform="translate(231.707 2453.043)" fill="#ffcd00"/>
    <path id="Path_641" data-name="Path 641" d="M151.133,220.441c-8.4,14.56-4.124,42.336-2.113,52.7,2.3-15.211,5.738-33.8,8.374-47.449C156.736,217.856,155,213.723,151.133,220.441Z" transform="translate(229.94 2479.147)" opacity="0.2"/>
    <path id="Path_642" data-name="Path 642" d="M147.08,203.7s4.225,68.651,9.464,78.149c8.34,15.059,43.705,27.4,43.705,27.4l6.642-7.774s-22.123-18.4-33.8-28.849c-2.78-18.988,7.048-48.953-3.574-67.544Z" transform="translate(229.793 2481.219)" fill="#4d4d4d"/>
    <path id="Path_643" data-name="Path 643" d="M168.4,202.863l.608,2.772c.093.22-.169.414-.524.4L137.218,204.1c-.279,0-.5-.169-.5-.338l-.11-2.738c0-.194.237-.338.541-.321l30.768,1.944a.566.566,0,0,1,.482.22Z" transform="translate(231.415 2481.684)" fill="#407bff"/>
    <path id="Path_644" data-name="Path 644" d="M168.993,206.278l.845.051c.161,0,.3-.068.287-.169l-.169-3.558c0-.11-.144-.2-.3-.211l-.845-.051c-.161,0-.3.068-.287.169l.169,3.566C168.689,206.2,168.833,206.278,168.993,206.278Z" transform="translate(226.47 2481.43)" fill="#263238"/>
    <path id="Path_645" data-name="Path 645" d="M139.913,204.518l.845.051c.169,0,.3-.068.3-.169l-.169-3.566c0-.1-.144-.194-.313-.2l-.845-.051c-.169,0-.3.068-.287.169l.161,3.558A.333.333,0,0,0,139.913,204.518Z" transform="translate(230.977 2481.703)" fill="#263238"/>
    <path id="Path_646" data-name="Path 646" d="M154.463,205.416l.845.051c.161,0,.3-.068.287-.177l-.169-3.558c0-.1-.144-.194-.3-.211l-.845-.051c-.161,0-.3.068-.287.177l.169,3.558C154.159,205.3,154.3,205.4,154.463,205.416Z" transform="translate(228.722 2481.565)" fill="#263238"/>
    <path id="Path_647" data-name="Path 647" d="M216.582,317.691l-8.248,9.65-3.9-1.563,9.186-11.788Z" transform="translate(220.906 2464.128)" fill="#407bff"/>
    <path id="Path_648" data-name="Path 648" d="M137.924,181.394a4.3,4.3,0,0,0-3.38,4.09,3.267,3.267,0,0,0-.33-.549,3.577,3.577,0,0,0-.541-.642,4.395,4.395,0,0,0-.668-.532,3.921,3.921,0,0,0-.752-.38,3.86,3.86,0,0,0-.845-.228,4.05,4.05,0,0,0-.845-.076,5.5,5.5,0,0,0-.845.1,4.226,4.226,0,0,0-1.546.676,3.957,3.957,0,0,0-.642.541,4.921,4.921,0,0,0-.524.668,4.033,4.033,0,0,0-.389.76,5.242,5.242,0,0,0-.228.845,4.593,4.593,0,0,0-.059.845,3.964,3.964,0,0,0,.355,1.648,4.6,4.6,0,0,0,.414.744,3.9,3.9,0,0,0,.541.634,4.018,4.018,0,0,0,.668.532,3.922,3.922,0,0,0,.752.38,4.449,4.449,0,0,0,.845.228,5.363,5.363,0,0,0,.634.059,4.3,4.3,0,0,0,1.69,8.155,4.318,4.318,0,0,0,1.766,8.163,4.3,4.3,0,0,0,1.851,8.129,4.266,4.266,0,0,0-2.3,3.093,4,4,0,0,0-.068.845,4.065,4.065,0,0,0,.355,1.69,4.229,4.229,0,0,0,.414.735,4,4,0,0,0,.549.642,4.484,4.484,0,0,0,.659.541,4.352,4.352,0,0,0,3.253.575,4.05,4.05,0,0,0,.845-.262,4.783,4.783,0,0,0,.735-.406,4.483,4.483,0,0,0,.642-.549,3.867,3.867,0,0,0,.524-.668,4.023,4.023,0,0,0,.389-.761,4.358,4.358,0,0,0,.228-.845,4.145,4.145,0,0,0,.068-.642,4.31,4.31,0,0,0,8.172-1.749,4.31,4.31,0,0,0,8.163-1.783,4.318,4.318,0,0,0,8.172-1.783,4.318,4.318,0,0,0,8.171-1.783,4.3,4.3,0,0,0,8.155-1.808,3.261,3.261,0,0,0,.33.549,3.578,3.578,0,0,0,.541.642,4.558,4.558,0,0,0,.668.541,4.223,4.223,0,0,0,.752.38,4.444,4.444,0,0,0,.845.228,4.073,4.073,0,0,0,.845.068,3.965,3.965,0,0,0,.845-.093,4.858,4.858,0,0,0,1.546-.676,5,5,0,0,0,.642-.549,4.92,4.92,0,0,0,.524-.668,3.558,3.558,0,0,0,.38-.761,4.377,4.377,0,0,0,.237-.8,4.746,4.746,0,0,0,.068-.845,4.647,4.647,0,0,0-.355-1.69,4.583,4.583,0,0,0-.422-.735,3.953,3.953,0,0,0-.541-.642,5.122,5.122,0,0,0-.668-.532,4.222,4.222,0,0,0-.752-.38,4.444,4.444,0,0,0-.845-.228,5.193,5.193,0,0,0-.625-.059,4.3,4.3,0,0,0-1.69-8.155,4.318,4.318,0,0,0-1.775-8.155,4.31,4.31,0,0,0-1.842-8.138,5.067,5.067,0,0,0,.549-.313,4.6,4.6,0,0,0,1.175-1.208,4.225,4.225,0,0,0,.38-.752,4,4,0,0,0,.228-.845,4.829,4.829,0,0,0,.076-.845,4.714,4.714,0,0,0-.1-.845,4.327,4.327,0,0,0-5.138-3.3,4.686,4.686,0,0,0-.8.262,4.276,4.276,0,0,0-.744.414,4.353,4.353,0,0,0-.642.541,5.684,5.684,0,0,0-.524.668,4,4,0,0,0-.38.761,3.86,3.86,0,0,0-.228.845,3.938,3.938,0,0,0-.068.642,4.31,4.31,0,0,0-8.18,1.69,4.318,4.318,0,0,0-8.163,1.783,4.318,4.318,0,0,0-8.171,1.783,4.318,4.318,0,0,0-8.163,1.783A4.318,4.318,0,0,0,137.924,181.394Z" transform="translate(233.009 2486.075)" fill="#3baeda"/>
    <path id="Path_649" data-name="Path 649" d="M137.924,181.394a4.3,4.3,0,0,0-3.38,4.09,3.267,3.267,0,0,0-.33-.549,3.577,3.577,0,0,0-.541-.642,4.395,4.395,0,0,0-.668-.532,3.921,3.921,0,0,0-.752-.38,3.86,3.86,0,0,0-.845-.228,4.05,4.05,0,0,0-.845-.076,5.5,5.5,0,0,0-.845.1,4.226,4.226,0,0,0-1.546.676,3.957,3.957,0,0,0-.642.541,4.921,4.921,0,0,0-.524.668,4.033,4.033,0,0,0-.389.76,5.242,5.242,0,0,0-.228.845,4.593,4.593,0,0,0-.059.845,3.964,3.964,0,0,0,.355,1.648,4.6,4.6,0,0,0,.414.744,3.9,3.9,0,0,0,.541.634,4.018,4.018,0,0,0,.668.532,3.922,3.922,0,0,0,.752.38,4.449,4.449,0,0,0,.845.228,5.363,5.363,0,0,0,.634.059,4.3,4.3,0,0,0,1.69,8.155,4.318,4.318,0,0,0,1.766,8.163,4.3,4.3,0,0,0,1.851,8.129,4.266,4.266,0,0,0-2.3,3.093,4,4,0,0,0-.068.845,4.065,4.065,0,0,0,.355,1.69,4.229,4.229,0,0,0,.414.735,4,4,0,0,0,.549.642,4.484,4.484,0,0,0,.659.541,4.352,4.352,0,0,0,3.253.575,4.05,4.05,0,0,0,.845-.262,4.783,4.783,0,0,0,.735-.406,4.483,4.483,0,0,0,.642-.549,3.867,3.867,0,0,0,.524-.668,4.023,4.023,0,0,0,.389-.761,4.358,4.358,0,0,0,.228-.845,4.145,4.145,0,0,0,.068-.642,4.31,4.31,0,0,0,8.172-1.749,4.31,4.31,0,0,0,8.163-1.783,4.318,4.318,0,0,0,8.172-1.783,4.318,4.318,0,0,0,8.171-1.783,4.3,4.3,0,0,0,8.155-1.808,3.261,3.261,0,0,0,.33.549,3.578,3.578,0,0,0,.541.642,4.558,4.558,0,0,0,.668.541,4.223,4.223,0,0,0,.752.38,4.444,4.444,0,0,0,.845.228,4.073,4.073,0,0,0,.845.068,3.965,3.965,0,0,0,.845-.093,4.858,4.858,0,0,0,1.546-.676,5,5,0,0,0,.642-.549,4.92,4.92,0,0,0,.524-.668,3.558,3.558,0,0,0,.38-.761,4.377,4.377,0,0,0,.237-.8,4.746,4.746,0,0,0,.068-.845,4.647,4.647,0,0,0-.355-1.69,4.583,4.583,0,0,0-.422-.735,3.953,3.953,0,0,0-.541-.642,5.122,5.122,0,0,0-.668-.532,4.222,4.222,0,0,0-.752-.38,4.444,4.444,0,0,0-.845-.228,5.193,5.193,0,0,0-.625-.059,4.3,4.3,0,0,0-1.69-8.155,4.318,4.318,0,0,0-1.775-8.155,4.31,4.31,0,0,0-1.842-8.138,5.067,5.067,0,0,0,.549-.313,4.6,4.6,0,0,0,1.175-1.208,4.225,4.225,0,0,0,.38-.752,4,4,0,0,0,.228-.845,4.829,4.829,0,0,0,.076-.845,4.714,4.714,0,0,0-.1-.845,4.327,4.327,0,0,0-5.138-3.3,4.686,4.686,0,0,0-.8.262,4.276,4.276,0,0,0-.744.414,4.353,4.353,0,0,0-.642.541,5.684,5.684,0,0,0-.524.668,4,4,0,0,0-.38.761,3.86,3.86,0,0,0-.228.845,3.938,3.938,0,0,0-.068.642,4.31,4.31,0,0,0-8.18,1.69,4.318,4.318,0,0,0-8.163,1.783,4.318,4.318,0,0,0-8.171,1.783,4.318,4.318,0,0,0-8.163,1.783A4.318,4.318,0,0,0,137.924,181.394Z" transform="translate(232.971 2485.575)" fill="#9ddcf5" opacity="0.62"/>
    <rect id="Rectangle_1546" data-name="Rectangle 1546" width="46.705" height="29.923" rx="1.86" transform="matrix(0.977, -0.213, 0.213, 0.977, 365.729, 2674.797)" fill="#fff"/>
    <path id="Path_650" data-name="Path 650" d="M179.192,156.57c1.479,3.718,2.763,7.411,3.938,11.2s2.248,7.605,3.11,11.509c.11.49.211.989.313,1.479l.144.735.076.372.059.355a3.658,3.658,0,0,1,.059.465,4.91,4.91,0,0,1-.431,2.425,4.749,4.749,0,0,1-1.732,1.96,5.442,5.442,0,0,1-1.639.684,7.743,7.743,0,0,1-1.251.186,14.78,14.78,0,0,1-3.684-.287,31.839,31.839,0,0,1-3.093-.761,65.82,65.82,0,0,1-11.18-4.605l1.352-3.549c3.71.845,7.5,1.749,11.121,2.315.9.144,1.791.245,2.637.3a8.449,8.449,0,0,0,2.129-.042c.211,0,.321-.177-.118.051a2.079,2.079,0,0,0-.786.887,2.273,2.273,0,0,0-.22,1v.1h0l-.093-.338-.186-.684c-.127-.448-.237-.9-.38-1.352-1.039-3.625-2.222-7.25-3.456-10.876s-2.535-7.242-3.853-10.791Z" transform="translate(227.189 2488.522)" fill="#ffc3bd"/>
    <path id="Path_651" data-name="Path 651" d="M179.1,148.29c2.983,1.115,6,11.83,6,11.83l-12.346,7.715s-3.921-10.343-2.4-14.2C171.944,149.617,175.688,147.014,179.1,148.29Z" transform="translate(226.24 2489.856)" fill="#3baeda"/>
    <path id="Path_653" data-name="Path 653" d="M217.765,337.335h-.085a1.039,1.039,0,0,1-.955-.254.583.583,0,0,1-.237-.566c.127-.946,2.577-2.1,2.856-2.231a.159.159,0,0,1,.245.186C219.235,335.451,218.61,337.005,217.765,337.335Zm1.344-2.535c-.972.482-2.206,1.268-2.273,1.766a.262.262,0,0,0,.118.245.668.668,0,0,0,.625.177c.456-.1,1.031-.913,1.487-2.155Z" transform="translate(219.038 2460.988)" fill="#407bff"/>
    <path id="Path_654" data-name="Path 654" d="M219.089,334.6c-.845.33-2.628.515-3.194,0a.625.625,0,0,1-.1-.769.9.9,0,0,1,.6-.507c1.048-.313,2.882.845,2.958.845a.182.182,0,0,1-.008.313Zm-2.645-.938a.583.583,0,0,0-.33.3.448.448,0,0,0,0,.363c.38.355,1.868.279,2.729,0a4.125,4.125,0,0,0-2.375-.668Z" transform="translate(219.158 2461.141)" fill="#407bff"/>
    <path id="Path_655" data-name="Path 655" d="M135.953,404.51a2.814,2.814,0,0,1-1.876.042,1,1,0,0,1-.549-.744.6.6,0,0,1,.169-.541c.744-.727,4.039-.068,4.411,0a.16.16,0,0,1,.135.144.169.169,0,0,1-.093.186A12.873,12.873,0,0,1,135.953,404.51Zm-1.69-1.132a.641.641,0,0,0-.3.152.2.2,0,0,0-.059.211.667.667,0,0,0,.346.5c.549.271,1.758,0,3.287-.71a9.675,9.675,0,0,0-3.287-.152Z" transform="translate(231.895 2450.345)" fill="#ffcd00"/>
    <path id="Path_656" data-name="Path 656" d="M138.4,403.227h-.068c-.972-.152-3.118-1.225-3.211-2.087a.656.656,0,0,1,.507-.659,1.284,1.284,0,0,1,1.031,0c1.124.507,1.834,2.4,1.859,2.484a.152.152,0,0,1,0,.169A.161.161,0,0,1,138.4,403.227Zm-2.535-2.442h-.1c-.3.118-.3.253-.287.3.059.507,1.555,1.411,2.586,1.69a4.141,4.141,0,0,0-1.546-1.969A.921.921,0,0,0,135.864,400.784Z" transform="translate(231.646 2450.742)" fill="#ffcd00"/>
    <path id="Path_657" data-name="Path 657" d="M164.328,147.439a102.358,102.358,0,0,0-13.994,1.268c-1.69.3-3.439.676-5.07,1.056h0c-1.259,1.344-3.448,8.138-.989,12.735,1.622-2.721,4.352-5.07,6.169-5.341,1.994.541,3.963,3.558,4.445,6.219,3.262-.592,10.318-8.222,14.366-14.366l1.031-1.589C168.376,147.363,166.381,147.354,164.328,147.439Z" transform="translate(230.401 2489.947)" fill="#3baeda"/>
    <path id="Path_658" data-name="Path 658" d="M165.054,129.63c-1.158,4.5-2.535,12.676.423,15.363,0,0-2.789,4.538-9.87,5.358-7.791.913-4.115-4.09-4.115-4.09,5.07-1.631,5.189-5.282,4.529-8.645Z" transform="translate(229.244 2492.697)" fill="#ffc3bd"/>
    <path id="Path_659" data-name="Path 659" d="M151.387,149.081s-3.118,3.287-.152,9.3c6.27-2.915,12.278-6.372,14.137-10.546Z" transform="translate(229.347 2489.877)" fill="#ffc3bd"/>
    <path id="Path_660" data-name="Path 660" d="M162.359,133.48l-5.349,4.732a12.9,12.9,0,0,1,.279,2.4c1.935-.448,5.129-2.375,5.459-4.36A7.013,7.013,0,0,0,162.359,133.48Z" transform="translate(228.254 2492.101)" opacity="0.2"/>
    <path id="Path_661" data-name="Path 661" d="M170.518,120.639c-2.653,6.955-3.634,9.954-8.349,12.473-7.107,3.794-15.067-.989-14.543-8.594.473-6.853,4.732-17.078,12.557-17.746a10.14,10.14,0,0,1,10.335,13.867Z" transform="translate(229.712 2496.246)" fill="#ffc3bd"/>
    <path id="Path_662" data-name="Path 662" d="M155.258,106.742c3.177-.735,4.225,2.89-1.335,4.166S152.673,107.351,155.258,106.742Z" transform="translate(229.152 2496.259)" fill="#263238"/>
    <path id="Path_663" data-name="Path 663" d="M159.467,104.4c-4.538,1.69-2.535,6.9,2.611,8.391s3.431,10.216,8.045,12.135,7.056-12.76,3.076-16.9S162.517,103.248,159.467,104.4Z" transform="translate(228.265 2496.686)" fill="#263238"/>
    <path id="Path_664" data-name="Path 664" d="M154.321,120.79a16.165,16.165,0,0,1-3.211,3.042,2.62,2.62,0,0,0,1.935,1.031Z" transform="translate(229.168 2494.067)" fill="#ed847e"/>
    <path id="Path_665" data-name="Path 665" d="M156.112,129.228a6.1,6.1,0,0,1-.845-.2.177.177,0,0,1-.118-.22.194.194,0,0,1,.228-.118,4.791,4.791,0,0,0,4.284-.617.177.177,0,0,1,.254,0,.186.186,0,0,1,0,.254A4.969,4.969,0,0,1,156.112,129.228Z" transform="translate(228.544 2492.947)" fill="#263238"/>
    <path id="Path_666" data-name="Path 666" d="M173.874,129.948A5.476,5.476,0,0,1,170.257,132c-1.893.22-2.535-1.546-1.775-3.177.7-1.47,2.535-3.38,4.31-2.822a2.442,2.442,0,0,1,1.082,3.946Z" transform="translate(226.525 2493.275)" fill="#ffc3bd"/>
    <path id="Path_667" data-name="Path 667" d="M164.923,120.308a.364.364,0,0,1-.262-.321,4.184,4.184,0,0,0-1.918-2.78.355.355,0,1,1,.372-.6,4.8,4.8,0,0,1,2.248,3.329.347.347,0,0,1-.33.38Z" transform="translate(227.397 2494.727)" fill="#263238"/>
    <path id="Path_668" data-name="Path 668" d="M160.512,121.777c-.194.524-.634.845-.98.727s-.473-.659-.279-1.192.634-.845.98-.727S160.715,121.236,160.512,121.777Z" transform="translate(227.921 2494.103)" fill="#263238"/>
    <path id="Path_669" data-name="Path 669" d="M152.753,119.037c-.194.524-.634.845-.98.727s-.473-.659-.27-1.191.634-.845.98-.727S152.956,118.5,152.753,119.037Z" transform="translate(229.123 2494.527)" fill="#263238"/>
    <path id="Path_670" data-name="Path 670" d="M152.642,117.845,151.51,117S151.8,118.2,152.642,117.845Z" transform="translate(229.106 2494.655)" fill="#263238"/>
    <path id="Path_671" data-name="Path 671" d="M160.392,120.525l-1.132-.845S159.547,120.922,160.392,120.525Z" transform="translate(227.905 2494.239)" fill="#263238"/>
    <path id="Path_672" data-name="Path 672" d="M151.166,113.785a.346.346,0,0,1-.3-.177.355.355,0,0,1,.135-.482,3.515,3.515,0,0,1,3.236-.22.355.355,0,1,1-.321.634h0a2.8,2.8,0,0,0-2.535.2.287.287,0,0,1-.211.042Z" transform="translate(229.214 2495.334)" fill="#263238"/>
    <path id="Path_673" data-name="Path 673" d="M165.451,182.066l-5.113-6.3-1.428,7.5s3.71,3.067,6.591,1.893Z" transform="translate(227.96 2485.547)" fill="#ffc3bd"/>
    <path id="Path_674" data-name="Path 674" d="M154.778,174.54l-2.467,5.966,5.577,2.569,1.428-7.5Z" transform="translate(228.982 2485.738)" fill="#ffc3bd"/>
    <rect id="Rectangle_1547" data-name="Rectangle 1547" width="0.803" height="10.867" transform="translate(598.204 2715.123) rotate(-5.49)" fill="#407bff"/>
    <rect id="Rectangle_1548" data-name="Rectangle 1548" width="0.803" height="4.386" transform="translate(599.622 2729.705) rotate(-5.49)" fill="#407bff"/>
    <rect id="Rectangle_1549" data-name="Rectangle 1549" width="198.161" height="117.967" transform="translate(604.779 2804.362) rotate(174.51)" fill="#3baeda"/>
    <path id="Path_1142" data-name="Path 1142" d="M198.161,0V117.967H0Z" transform="translate(604.779 2804.362) rotate(174.51)" opacity="0.1"/>
    <path id="Path_675" data-name="Path 675" d="M274.784,279.615,170,225.043,367.248,206.08Z" transform="translate(226.241 2480.85)" fill="#263238" opacity="0.1"/>
    <path id="Path_676" data-name="Path 676" d="M250.912,151.474,170,215.815l197.248-18.963-91.686-47.744A22.731,22.731,0,0,0,250.912,151.474Z" transform="translate(226.241 2490.077)" fill="#3baeda"/>
    <path id="Path_678" data-name="Path 678" d="M326.669,205.21l26.695,7.132.642,6.659L277.961,279.48,191.784,234.6,190.5,221.283Z" transform="translate(223.064 2480.985)" fill="#fff"/>
    <path id="Path_679" data-name="Path 679" d="M351.64,205.21l5.045,13.977,21.65-6.845" transform="translate(198.093 2480.985)" fill="#e0e0e0"/>
    <path id="Path_680" data-name="Path 680" d="M351.64,205.21l2.594,11.526,24.1-4.394" transform="translate(198.093 2480.985)" fill="#f0f0f0"/>
    <path id="Path_681" data-name="Path 681" d="M292.615,277.446,380.608,333.9,183.36,352.857l75.622-72.183A27.337,27.337,0,0,1,292.615,277.446Z" transform="translate(224.171 2470.462)" fill="#3baeda"/>
  </g>
</svg>
