<svg xmlns="http://www.w3.org/2000/svg" width="382.27" height="248.307" viewBox="0 0 382.27 248.307">
  <g id="Group_139" data-name="Group 139" transform="translate(-1220.597 -3008)">
    <path id="Path_83" data-name="Path 83" d="M236.57,432.255a32.716,32.716,0,0,0-15.939-16.373c-7.055-3.3-22.786-1.782-22.786-1.782l-41.345-.089c.849,3.634,3.563,12.958,5.553,16.094a15.542,15.542,0,0,0,8.575,6.8c4.389,1.241,9.039-.042,13.593-.339,8.011-.517,15.85,2.073,23.564,4.3s15.9,4.115,23.707,2.227c2.215-.54,4.537-1.526,5.612-3.533C238.3,437.345,237.562,434.583,236.57,432.255Z" transform="translate(1127.076 2812.44)" fill="#e0e0e0"/>
    <rect id="Rectangle_1407" data-name="Rectangle 1407" width="54.166" height="36.511" transform="translate(1507.664 3123.689) rotate(-12.87)" fill="#f5f5f5"/>
    <path id="Path_99" data-name="Path 99" d="M587.114,221.46a3.678,3.678,0,0,1-.386.594l-1.188,1.621-4.4,5.939c-3.783,5.012-8.961,11.877-14.7,19.479l-.118.16-.184-.089-.434-.208-22.252-10.808-6.723-3.32-1.781-.926a3.887,3.887,0,0,1-.624-.356,4.067,4.067,0,0,1,.665.267l1.853.843,6.794,3.159,22.311,10.69.44.214-.3.071c5.784-7.566,11-14.4,14.846-19.39,1.883-2.435,3.421-4.412,4.525-5.832L586.7,222A3.367,3.367,0,0,1,587.114,221.46Z" transform="translate(973.629 2890.537)" fill="#e0e0e0"/>
    <path id="Path_100" data-name="Path 100" d="M548,284.195c-.119-.065,2.738-5.85,6.378-12.922s6.7-12.762,6.818-12.7-2.738,5.85-6.378,12.928S548.11,284.254,548,284.195Z" transform="translate(968.076 2875.466)" fill="#e0e0e0"/>
    <path id="Path_101" data-name="Path 101" d="M599.6,251.069c.083-.107,5.113,3.842,11.236,8.813s11.01,9.092,10.921,9.2-5.113-3.842-11.236-8.819S599.51,251.175,599.6,251.069Z" transform="translate(947.117 2878.513)" fill="#e0e0e0"/>
    <rect id="Rectangle_1408" data-name="Rectangle 1408" width="21.527" height="31.938" transform="translate(1320.394 3035.819) rotate(-77)" fill="#f5f5f5"/>
    <path id="Path_102" data-name="Path 102" d="M257.858,65.526a2.375,2.375,0,0,1-.356.214l-1.039.558L252.6,68.3l-12.81,6.532-.107.053-.077-.089-.178-.226L230.41,63.138l-2.708-3.5-.724-.956a1.745,1.745,0,0,1-.238-.344,2.206,2.206,0,0,1,.279.309l.772.926,2.779,3.433,9.092,11.408.178.22-.178-.036,12.845-6.473,3.9-1.93,1.069-.511A1.924,1.924,0,0,1,257.858,65.526Z" transform="translate(1098.549 2956.786)" fill="#e0e0e0"/>
    <path id="Path_103" data-name="Path 103" d="M218.58,86.686c-.048-.065,2.969-2.375,6.711-5.214s6.835-5.048,6.883-4.982-2.969,2.375-6.711,5.214S218.627,86.751,218.58,86.686Z" transform="translate(1101.864 2949.416)" fill="#e0e0e0"/>
    <path id="Path_104" data-name="Path 104" d="M259,80.07c.071-.036,1.728,3.355,3.694,7.566s3.5,7.655,3.427,7.72S264.4,92,262.431,87.79,258.921,80.1,259,80.07Z" transform="translate(1085.449 2947.961)" fill="#e0e0e0"/>
    <rect id="Rectangle_1409" data-name="Rectangle 1409" width="24.746" height="16.682" transform="translate(1499.768 3029.879) rotate(-23.25)" fill="#f5f5f5"/>
    <path id="Path_105" data-name="Path 105" d="M543.529,67a2,2,0,0,1-.125.291l-.392.825c-.362.736-.873,1.782-1.491,3.029l-5.006,9.965-.042.083h-.089l-.214-.053-10.885-3.029-3.3-1.016-.891-.267-.309-.107a1.535,1.535,0,0,1,.321.065l.9.226,3.314.873,10.9,2.969.214.059-.125.059c1.972-3.878,3.759-7.382,5.06-9.935.647-1.247,1.188-2.269,1.556-2.969l.428-.808A1.465,1.465,0,0,1,543.529,67Z" transform="translate(979.124 2953.269)" fill="#e0e0e0"/>
    <path id="Path_106" data-name="Path 106" d="M531.878,100.6c-.059,0,.748-2.856,1.782-6.336S535.643,88,535.7,88s-.748,2.851-1.782,6.331S531.949,100.614,531.878,100.6Z" transform="translate(974.622 2944.74)" fill="#e0e0e0"/>
    <path id="Path_107" data-name="Path 107" d="M550.9,82.2c.03-.059,2.619,1.3,5.778,3.035s5.7,3.177,5.665,3.231-2.613-1.3-5.772-3.035S550.87,82.252,550.9,82.2Z" transform="translate(966.895 2947.097)" fill="#e0e0e0"/>
    <rect id="Rectangle_1410" data-name="Rectangle 1410" width="228.352" height="151.007" rx="14.57" transform="translate(1295.091 3073.301)" fill="#455a64"/>
    <path id="Path_159" data-name="Path 159" d="M160.86,394.16h247.4V396.8a10.571,10.571,0,0,1-10.571,10.571H171.431A10.571,10.571,0,0,1,160.86,396.8Z" transform="translate(1125.306 2820.397)" fill="#455a64"/>
    <rect id="Rectangle_1411" data-name="Rectangle 1411" width="215.453" height="127.52" transform="translate(1301.22 3079.299)" fill="#263238"/>
    <path id="Path_160" data-name="Path 160" d="M330.25,391.77l3.064,4.887h43.2l2.851-4.887Z" transform="translate(1056.51 2821.367)" fill="#263238"/>
    <rect id="Rectangle_1412" data-name="Rectangle 1412" width="207.02" height="122.799" rx="3.27" transform="translate(1305.662 3083.616)" fill="#ebebeb"/>
    <path id="Path_161" data-name="Path 161" d="M400.33,302.926H193.31l.226-113.8H400.33Z" transform="translate(1112.126 2903.667)" fill="#fafafa"/>
    <path id="Path_162" data-name="Path 162" d="M220.014,180.531a1.651,1.651,0,1,1-.486-1.169A1.657,1.657,0,0,1,220.014,180.531Z" transform="translate(1102.627 2907.83)" fill="#263238"/>
    <path id="Path_163" data-name="Path 163" d="M203.134,180.531a1.645,1.645,0,1,1-.482-1.169A1.657,1.657,0,0,1,203.134,180.531Z" transform="translate(1109.483 2907.83)" fill="#263238"/>
    <path id="Path_164" data-name="Path 164" d="M211.234,180.531a1.645,1.645,0,1,1-.482-1.169A1.657,1.657,0,0,1,211.234,180.531Z" transform="translate(1106.193 2907.83)" fill="#263238"/>
    <path id="Path_165" data-name="Path 165" d="M402.276,391.668c0,.083-50.68.148-113.184.148s-113.2-.065-113.2-.148,50.674-.148,113.2-.148S402.276,391.591,402.276,391.668Z" transform="translate(1119.201 2821.469)" fill="#263238"/>
    <path id="Path_166" data-name="Path 166" d="M304.953,263.444l84.227-.784,2.465,57.254-87.214-.624Z" transform="translate(1066.996 2873.804)" fill="#3baeda"/>
    <path id="Path_167" data-name="Path 167" d="M305.31,241.183,345.1,208.847a4.585,4.585,0,0,1,5.784,0l38.648,31.546" transform="translate(1066.639 2896.077)" fill="#3baeda"/>
    <path id="Path_169" data-name="Path 169" d="M304.429,335.719c-.1-.1,6.622-7.477,15.025-16.474s15.3-16.189,15.411-16.105-6.622,7.471-15.031,16.474S304.536,335.826,304.429,335.719Z" transform="translate(1066.997 2857.364)" fill="#263238"/>
    <path id="Path_170" data-name="Path 170" d="M431.449,336.841c-.107.1-6.687-7.126-14.7-16.076s-14.419-16.331-14.312-16.426,6.687,7.126,14.7,16.082S431.556,336.746,431.449,336.841Z" transform="translate(1027.192 2856.876)" fill="#263238"/>
    <g id="Group_5" data-name="Group 5" transform="translate(1371.949 3136.464)" opacity="0.5">
      <path id="Path_171" data-name="Path 171" d="M389.537,262.66l-42.224,33.874-42-33.09" transform="translate(-305.31 -262.66)"/>
    </g>
    <path id="Path_172" data-name="Path 172" d="M312.34,250.55l-.19-26.308L385.9,223.22l.885,27.674-36.7,29.176Z" transform="translate(1063.861 2889.822)" fill="#fafafa"/>
    <path id="Path_173" data-name="Path 173" d="M312.3,250.46s.243.172.7.523l2.007,1.55,7.637,5.939c6.58,5.137,16.034,12.471,27.478,21.427h-.154l36.683-29.2-.054.125c-.172-5.279-.35-10.82-.528-16.456-.125-3.795-.243-7.548-.362-11.224l.154.148-73.746.974.1-.1c.036,8.273.071,14.846.089,19.348v5.19c0-1.188-.036-2.91-.059-5.155-.042-4.519-.107-11.093-.184-19.384v-.095h.1l73.7-1.069h.154v.154c.119,3.676.238,7.423.362,11.218.178,5.636.356,11.177.523,16.456v.077l-.059.048-36.724,29.159-.077.065-.077-.065-27.448-21.539-7.578-5.974-1.978-1.568Z" transform="translate(1063.897 2889.911)" fill="#263238"/>
    <path id="Path_174" data-name="Path 174" d="M382.3,245.522c0,.083-11.283.244-25.192.356s-25.192.137-25.192.053,11.283-.243,25.192-.362S382.3,245.433,382.3,245.522Z" transform="translate(1055.832 2880.787)" fill="#263238"/>
    <path id="Path_175" data-name="Path 175" d="M382.327,258.036c0,.083-11.283.249-25.186.362s-25.191.137-25.191.048,11.283-.244,25.191-.356S382.327,257.953,382.327,258.036Z" transform="translate(1055.819 2875.702)" fill="#263238"/>
    <path id="Path_176" data-name="Path 176" d="M382.357,272.456c0,.089-11.283.249-25.186.362s-25.192.137-25.192.048,11.283-.243,25.192-.356S382.357,272.373,382.357,272.456Z" transform="translate(1055.807 2869.845)" fill="#263238"/>
    <path id="Path_177" data-name="Path 177" d="M383.971,286.874c0,.089-10.755.244-24.028.35s-24.034.131-24.034.042,10.755-.244,24.034-.35S383.971,286.791,383.971,286.874Z" transform="translate(1054.211 2863.991)" fill="#263238"/>
    <path id="Path_178" data-name="Path 178" d="M381.111,299.58a.977.977,0,0,1-.3.036l-.849.036-3.112.077-10.28.19c-4.015.071-7.655.1-10.286.1h-3.961a1.188,1.188,0,0,1-.3-.03.973.973,0,0,1,.3-.036l.843-.036,3.118-.077,10.28-.184c4.015-.077,7.649-.1,10.28-.1h3.967A1.522,1.522,0,0,1,381.111,299.58Z" transform="translate(1047.664 2858.821)" fill="#263238"/>
    <path id="Path_179" data-name="Path 179" d="M377.69,311.688a92.547,92.547,0,0,1-10.69.024,92.62,92.62,0,0,1,10.69-.024Z" transform="translate(1041.584 2853.958)" fill="#263238"/>
    <path id="Path_181" data-name="Path 181" d="M401.594,222.83c.083,0,.119.344.077.754s-.142.73-.226.725-.119-.35-.077-.76S401.5,222.818,401.594,222.83Z" transform="translate(1027.633 2889.98)" fill="#263238"/>
    <path id="Path_182" data-name="Path 182" d="M402.78,213.09a3.614,3.614,0,0,1-.065,1.461,3.669,3.669,0,0,1-.374,1.419,6.889,6.889,0,0,1,.439-2.88Z" transform="translate(1027.236 2893.936)" fill="#263238"/>
    <path id="Path_183" data-name="Path 183" d="M404.608,203.45a3.564,3.564,0,0,1-.16,1.461,3.647,3.647,0,0,1-.469,1.39,3.509,3.509,0,0,1,.166-1.455A3.564,3.564,0,0,1,404.608,203.45Z" transform="translate(1026.572 2897.851)" fill="#263238"/>
    <path id="Path_184" data-name="Path 184" d="M407.139,194a6.848,6.848,0,0,1-.849,2.8,3.648,3.648,0,0,1,.279-1.443,3.49,3.49,0,0,1,.57-1.354Z" transform="translate(1025.627 2901.689)" fill="#263238"/>
    <path id="Path_185" data-name="Path 185" d="M410.411,184.78a3.652,3.652,0,0,1-.4,1.413,3.562,3.562,0,0,1-.683,1.3,3.679,3.679,0,0,1,.4-1.4A3.516,3.516,0,0,1,410.411,184.78Z" transform="translate(1024.392 2905.434)" fill="#263238"/>
    <path id="Path_186" data-name="Path 186" d="M414.5,175.928a7.037,7.037,0,0,1-1.33,2.6,3.561,3.561,0,0,1,.529-1.366C414.067,176.439,414.423,175.887,414.5,175.928Z" transform="translate(1022.833 2909.03)" fill="#263238"/>
    <path id="Path_187" data-name="Path 187" d="M419.461,167.548a3.633,3.633,0,0,1-.683,1.3c-.428.677-.837,1.188-.909,1.146a3.453,3.453,0,0,1,.647-1.318C418.969,168.005,419.39,167.5,419.461,167.548Z" transform="translate(1020.924 2912.434)" fill="#263238"/>
    <path id="Path_188" data-name="Path 188" d="M425.325,159.807a3.7,3.7,0,0,1-.814,1.223c-.517.594-.986,1.075-1.057,1.021s.3-.594.82-1.217S425.259,159.754,425.325,159.807Z" transform="translate(1018.66 2915.578)" fill="#263238"/>
    <path id="Path_189" data-name="Path 189" d="M432.061,152.835c.059.065-.368.564-.95,1.116s-1.1.95-1.188.891.362-.558.95-1.116S432.008,152.77,432.061,152.835Z" transform="translate(1016.033 2918.411)" fill="#263238"/>
    <path id="Path_190" data-name="Path 190" d="M439.659,146.78c.048.071-.44.517-1.087.992a3.6,3.6,0,0,1-1.265.736c-.053-.065.434-.511,1.087-.986A3.505,3.505,0,0,1,439.659,146.78Z" transform="translate(1013.031 2920.867)" fill="#263238"/>
    <path id="Path_191" data-name="Path 191" d="M447.99,141.81a6.948,6.948,0,0,1-2.571,1.39c-.042-.077.5-.445,1.188-.831A3.508,3.508,0,0,1,447.99,141.81Z" transform="translate(1009.736 2922.886)" fill="#263238"/>
    <path id="Path_192" data-name="Path 192" d="M456.974,138.11a3.706,3.706,0,0,1-1.318.641,3.521,3.521,0,0,1-1.425.35,3.618,3.618,0,0,1,1.319-.641A3.426,3.426,0,0,1,456.974,138.11Z" transform="translate(1006.157 2924.388)" fill="#263238"/>
    <path id="Path_193" data-name="Path 193" d="M466.452,135.871a3.683,3.683,0,0,1-1.407.392,3.564,3.564,0,0,1-1.455.148A5.838,5.838,0,0,1,466.452,135.871Z" transform="translate(1002.355 2925.303)" fill="#263238"/>
    <path id="Path_194" data-name="Path 194" d="M476.226,135.227a3.611,3.611,0,0,1-1.455.166,3.473,3.473,0,0,1-1.461-.137,3.621,3.621,0,0,1,1.455-.172A3.468,3.468,0,0,1,476.226,135.227Z" transform="translate(998.408 2925.627)" fill="#263238"/>
    <path id="Path_195" data-name="Path 195" d="M486.026,136.164a3.6,3.6,0,0,1-1.467-.083,3.528,3.528,0,0,1-1.419-.386A7.05,7.05,0,0,1,486.026,136.164Z" transform="translate(994.415 2925.373)" fill="#263238"/>
    <path id="Path_196" data-name="Path 196" d="M495.5,138.642a6.9,6.9,0,0,1-2.762-.962,3.753,3.753,0,0,1,1.431.333A3.509,3.509,0,0,1,495.5,138.642Z" transform="translate(990.516 2924.563)" fill="#263238"/>
    <path id="Path_197" data-name="Path 197" d="M504.41,142.765a3.7,3.7,0,0,1-1.342-.594,3.6,3.6,0,0,1-1.188-.861,3.564,3.564,0,0,1,1.342.594C503.923,142.314,504.457,142.694,504.41,142.765Z" transform="translate(986.804 2923.089)" fill="#263238"/>
    <path id="Path_198" data-name="Path 198" d="M512.347,148.519a3.722,3.722,0,0,1-1.188-.849c-.594-.523-1.045-1.01-.992-1.075s.594.309,1.188.843S512.406,148.46,512.347,148.519Z" transform="translate(983.44 2920.946)" fill="#263238"/>
    <path id="Path_199" data-name="Path 199" d="M518.055,154.629c-.071.047-.327-.172-.594-.493s-.4-.624-.333-.683.321.166.594.493S518.126,154.576,518.055,154.629Z" transform="translate(980.618 2918.161)" fill="#263238"/>
    <path id="Path_200" data-name="Path 200" d="M563.1,214.833a3.641,3.641,0,0,1-1.407-.487c-.748-.344-1.324-.689-1.283-.766a3.874,3.874,0,0,1,1.413.487A3.73,3.73,0,0,1,563.1,214.833Z" transform="translate(963.035 2893.737)" fill="#263238"/>
    <path id="Path_201" data-name="Path 201" d="M572.439,218.407a7.22,7.22,0,0,1-2.839-.867A7.128,7.128,0,0,1,572.439,218.407Z" transform="translate(959.301 2892.129)" fill="#263238"/>
    <path id="Path_202" data-name="Path 202" d="M582.232,220.284a3.671,3.671,0,0,1-1.5,0,3.623,3.623,0,0,1-1.455-.315,3.786,3.786,0,0,1,1.49,0A3.736,3.736,0,0,1,582.232,220.284Z" transform="translate(955.369 2891.173)" fill="#263238"/>
    <path id="Path_203" data-name="Path 203" d="M592.2,220.169a3.682,3.682,0,0,1-1.467.261,3.562,3.562,0,0,1-1.5-.042,3.894,3.894,0,0,1,1.473-.267A3.623,3.623,0,0,1,592.2,220.169Z" transform="translate(951.324 2891.103)" fill="#263238"/>
    <path id="Path_204" data-name="Path 204" d="M602.068,218.394a3.812,3.812,0,0,1-1.407.5,3.723,3.723,0,0,1-1.491.148,3.735,3.735,0,0,1,1.425-.445A3.622,3.622,0,0,1,602.068,218.394Z" transform="translate(947.291 2891.785)" fill="#263238"/>
    <path id="Path_205" data-name="Path 205" d="M611.486,214.71c.042.077-.535.416-1.283.766a3.563,3.563,0,0,1-1.413.475A7.221,7.221,0,0,1,611.486,214.71Z" transform="translate(943.384 2893.279)" fill="#263238"/>
    <path id="Path_206" data-name="Path 206" d="M620,209.14c.053.065-.41.552-1.069,1.051a3.276,3.276,0,0,1-1.3.736c-.047-.071.463-.493,1.116-.98A4.16,4.16,0,0,1,620,209.14Z" transform="translate(939.796 2895.541)" fill="#263238"/>
    <path id="Path_207" data-name="Path 207" d="M627.124,201.838a3.3,3.3,0,0,1-.79,1.277c-.529.635-1.039,1.075-1.1,1.016s.344-.594.861-1.188S627.053,201.791,627.124,201.838Z" transform="translate(936.707 2898.507)" fill="#263238"/>
    <path id="Path_208" data-name="Path 208" d="M632.275,193a3.171,3.171,0,0,1-.41,1.443,3.3,3.3,0,0,1-.8,1.271,4.375,4.375,0,0,1,.511-1.4A4.507,4.507,0,0,1,632.275,193Z" transform="translate(934.335 2902.095)" fill="#263238"/>
    <path id="Path_209" data-name="Path 209" d="M634.77,183.26a3.138,3.138,0,0,1,.065,1.5,3.074,3.074,0,0,1-.368,1.455,4.625,4.625,0,0,1,.059-1.485A4.517,4.517,0,0,1,634.77,183.26Z" transform="translate(932.97 2906.052)" fill="#263238"/>
    <path id="Path_210" data-name="Path 210" d="M633.51,173.4a3.238,3.238,0,0,1,.535,1.4,3.163,3.163,0,0,1,.125,1.491,4.408,4.408,0,0,1-.428-1.419A4.511,4.511,0,0,1,633.51,173.4Z" transform="translate(933.345 2910.056)" fill="#263238"/>
    <path id="Path_211" data-name="Path 211" d="M629.16,164.437c.065-.053.517.457.932,1.188a3.087,3.087,0,0,1,.558,1.384c-.077.042-.422-.529-.826-1.229a4.591,4.591,0,0,1-.665-1.342Z" transform="translate(935.111 2913.697)" fill="#263238"/>
    <path id="Path_212" data-name="Path 212" d="M622.218,157.3a3.1,3.1,0,0,1,1.265.808c.63.54,1.039,1.075.98,1.134s-.594-.374-1.188-.9S622.17,157.371,622.218,157.3Z" transform="translate(937.932 2916.595)" fill="#263238"/>
    <path id="Path_213" data-name="Path 213" d="M613.15,153.231a2.969,2.969,0,0,1,1.485.243,3.076,3.076,0,0,1,1.336.683,4.646,4.646,0,0,1-1.431-.392A4.865,4.865,0,0,1,613.15,153.231Z" transform="translate(941.613 2918.253)" fill="#263238"/>
    <path id="Path_214" data-name="Path 214" d="M603.22,153.063a2.87,2.87,0,0,1,1.437-.433,2.968,2.968,0,0,1,1.5.048,15.988,15.988,0,0,1-2.969.386Z" transform="translate(945.658 2918.522)" fill="#263238"/>
    <path id="Path_215" data-name="Path 215" d="M594.615,157c-.065-.053.344-.594,1.015-1.111a2.8,2.8,0,0,1,1.342-.683c.042.083-.517.445-1.188.932S594.681,157.063,594.615,157Z" transform="translate(949.143 2917.444)" fill="#263238"/>
    <path id="Path_216" data-name="Path 216" d="M590.614,165.244a2.711,2.711,0,0,1,.089-1.5,2.623,2.623,0,0,1,.623-1.372,6.448,6.448,0,0,1-.326,1.443A5.723,5.723,0,0,1,590.614,165.244Z" transform="translate(950.793 2914.535)" fill="#263238"/>
    <path id="Path_217" data-name="Path 217" d="M591.937,174.983a2.887,2.887,0,0,1-.719-1.318,2.8,2.8,0,0,1-.249-1.485,5.353,5.353,0,0,1,.54,1.384A5.116,5.116,0,0,1,591.937,174.983Z" transform="translate(950.628 2910.552)" fill="#263238"/>
    <path id="Path_218" data-name="Path 218" d="M597.622,183a2.97,2.97,0,0,1-1.277-.8c-.629-.546-1.015-1.1-.95-1.158s.547.392,1.152.926S597.67,182.93,597.622,183Z" transform="translate(948.827 2906.952)" fill="#263238"/>
    <path id="Path_219" data-name="Path 219" d="M606.309,187.752a3.135,3.135,0,0,1-1.473-.279,3,3,0,0,1-1.336-.683,4.643,4.643,0,0,1,1.431.392A4.394,4.394,0,0,1,606.309,187.752Z" transform="translate(945.532 2904.618)" fill="#263238"/>
    <path id="Path_220" data-name="Path 220" d="M616.119,189.237a5.481,5.481,0,0,1-2.969-.065,4.693,4.693,0,0,1,1.485-.071A4.323,4.323,0,0,1,616.119,189.237Z" transform="translate(941.613 2903.691)" fill="#263238"/>
    <path id="Path_221" data-name="Path 221" d="M626.034,187.53a5.559,5.559,0,0,1-2.874.736,4.237,4.237,0,0,1,1.408-.469A4.531,4.531,0,0,1,626.034,187.53Z" transform="translate(937.548 2904.317)" fill="#263238"/>
    <path id="Path_222" data-name="Path 222" d="M635.2,183.38a3.723,3.723,0,0,1-1.241.831,3.683,3.683,0,0,1-1.384.558,7.232,7.232,0,0,1,2.625-1.39Z" transform="translate(933.722 2906.002)" fill="#263238"/>
    <path id="Path_223" data-name="Path 223" d="M643.43,177.42c.059.065-.41.54-1.045,1.063a3.854,3.854,0,0,1-1.247.825c-.053-.071.422-.546,1.051-1.063A3.909,3.909,0,0,1,643.43,177.42Z" transform="translate(930.248 2908.423)" fill="#263238"/>
    <path id="Path_224" data-name="Path 224" d="M650.526,170.106c.065.053-.315.594-.849,1.229s-1.022,1.087-1.081,1.027a3.926,3.926,0,0,1,.843-1.229C649.967,170.5,650.454,170.04,650.526,170.106Z" transform="translate(927.22 2911.396)" fill="#263238"/>
    <path id="Path_225" data-name="Path 225" d="M656.3,161.768a3.647,3.647,0,0,1-.63,1.354c-.427.707-.825,1.241-.9,1.188a3.675,3.675,0,0,1,.63-1.354C655.821,162.261,656.219,161.727,656.3,161.768Z" transform="translate(924.71 2914.781)" fill="#263238"/>
    <path id="Path_226" data-name="Path 226" d="M660.649,152.63a3.823,3.823,0,0,1-.4,1.443,3.36,3.36,0,0,1-.7,1.318,4.237,4.237,0,0,1,.41-1.431A3.735,3.735,0,0,1,660.649,152.63Z" transform="translate(922.768 2918.491)" fill="#263238"/>
    <path id="Path_227" data-name="Path 227" d="M663.682,143a3.6,3.6,0,0,1-.22,1.473,3.716,3.716,0,0,1-.523,1.4,7.1,7.1,0,0,1,.742-2.874Z" transform="translate(921.392 2922.402)" fill="#263238"/>
    <path id="Path_228" data-name="Path 228" d="M665.6,133.2a3.563,3.563,0,0,1-.071,1.491,3.749,3.749,0,0,1-.374,1.443,3.561,3.561,0,0,1,.071-1.491,3.789,3.789,0,0,1,.374-1.443Z" transform="translate(920.51 2926.383)" fill="#263238"/>
    <path id="Path_229" data-name="Path 229" d="M666.644,123.24a7.08,7.08,0,0,1-.22,2.969,3.845,3.845,0,0,1-.042-1.5A3.746,3.746,0,0,1,666.644,123.24Z" transform="translate(920.015 2930.427)" fill="#263238"/>
    <path id="Path_230" data-name="Path 230" d="M667.038,113.25a7.218,7.218,0,0,1-.059,2.969,3.887,3.887,0,0,1-.125-1.491,3.794,3.794,0,0,1,.184-1.479Z" transform="translate(919.812 2934.485)" fill="#263238"/>
    <path id="Path_231" data-name="Path 231" d="M667,103.25a3.726,3.726,0,0,1,.178,1.485,3.56,3.56,0,0,1-.137,1.485,3.75,3.75,0,0,1-.178-1.485A3.817,3.817,0,0,1,667,103.25Z" transform="translate(919.806 2938.546)" fill="#263238"/>
    <path id="Path_232" data-name="Path 232" d="M666.9,97.1c.083,0,.16.148.166.338s-.059.339-.148.344-.16-.148-.16-.339S666.8,97.1,666.9,97.1Z" transform="translate(919.84 2941.044)" fill="#263238"/>
    <rect id="Rectangle_1413" data-name="Rectangle 1413" width="40.602" height="27.371" transform="translate(1559.366 3024.895) rotate(-6.2)" fill="#3baeda"/>
    <path id="Path_233" data-name="Path 233" d="M623.819,99.045h0L620.85,71.823h0l40.383-4.383h0l2.97,27.229h0ZM620.9,71.835l2.969,27.181L664.2,94.633l-2.97-27.181Z" transform="translate(938.486 2953.09)" fill="#263238"/>
    <path id="Path_234" data-name="Path 234" d="M661.524,68a2.777,2.777,0,0,1-.338.4l-1.016,1.111-3.795,4.026-12.643,13.2-.1.113-.131-.083-.309-.2-15.607-9.983-4.751-3.058-1.271-.849a3.537,3.537,0,0,1-.434-.315,2.679,2.679,0,0,1,.475.249l1.307.79,4.751,2.969,15.684,9.894.309.2h-.232l12.768-13.118,3.878-3.943,1.063-1.057a2.892,2.892,0,0,1,.392-.344Z" transform="translate(938.372 2952.863)" fill="#263238"/>
    <path id="Path_235" data-name="Path 235" d="M626.149,108.9c-.083-.053,2.548-4.115,5.873-9.062s6.1-8.908,6.182-8.86-2.542,4.115-5.873,9.062S626.232,108.962,626.149,108.9Z" transform="translate(936.335 2943.53)" fill="#263238"/>
    <path id="Path_236" data-name="Path 236" d="M669,88c.077-.071,3.48,3.308,7.6,7.542s7.406,7.72,7.334,7.8-3.474-3.3-7.6-7.542S668.916,88.041,669,88Z" transform="translate(918.931 2944.741)" fill="#263238"/>
    <path id="Path_237" data-name="Path 237" d="M378.419,206.35c.083,0,.208.3.279.707s.054.742-.03.76-.208-.3-.279-.713S378.336,206.362,378.419,206.35Z" transform="translate(1036.977 2896.674)" fill="#263238"/>
    <path id="Path_238" data-name="Path 238" d="M376.843,196.59a3.684,3.684,0,0,1,.386,1.425,3.629,3.629,0,0,1,.083,1.473,3.528,3.528,0,0,1-.386-1.425,3.629,3.629,0,0,1-.083-1.473Z" transform="translate(1037.603 2900.638)" fill="#263238"/>
    <path id="Path_239" data-name="Path 239" d="M375.405,186.81a3.562,3.562,0,0,1,.356,1.431,3.665,3.665,0,0,1,.053,1.473,3.47,3.47,0,0,1-.356-1.431A3.664,3.664,0,0,1,375.405,186.81Z" transform="translate(1038.191 2904.61)" fill="#263238"/>
    <path id="Path_240" data-name="Path 240" d="M374.269,177a3.694,3.694,0,0,1,.309,1.443,3.494,3.494,0,0,1,0,1.473,3.634,3.634,0,0,1-.3-1.443A3.564,3.564,0,0,1,374.269,177Z" transform="translate(1038.662 2908.594)" fill="#263238"/>
    <path id="Path_241" data-name="Path 241" d="M373.573,167.12a7.063,7.063,0,0,1,.166,2.934A7.048,7.048,0,0,1,373.573,167.12Z" transform="translate(1038.948 2912.606)" fill="#263238"/>
    <path id="Path_242" data-name="Path 242" d="M373.412,157.23a7.211,7.211,0,0,1,0,2.969,3.474,3.474,0,0,1-.148-1.467A3.563,3.563,0,0,1,373.412,157.23Z" transform="translate(1039.05 2916.624)" fill="#263238"/>
    <path id="Path_243" data-name="Path 243" d="M373.917,147.37a3.758,3.758,0,0,1,.03,1.479,3.648,3.648,0,0,1-.273,1.449,3.519,3.519,0,0,1-.036-1.473,3.6,3.6,0,0,1,.279-1.455Z" transform="translate(1038.913 2920.628)" fill="#263238"/>
    <path id="Path_244" data-name="Path 244" d="M375.278,137.6a3.467,3.467,0,0,1-.1,1.473,3.564,3.564,0,0,1-.41,1.419A7.223,7.223,0,0,1,375.278,137.6Z" transform="translate(1038.431 2924.596)" fill="#263238"/>
    <path id="Path_245" data-name="Path 245" d="M377.586,128.05a3.725,3.725,0,0,1-.273,1.449,3.767,3.767,0,0,1-.564,1.366,3.561,3.561,0,0,1,.267-1.455A3.49,3.49,0,0,1,377.586,128.05Z" transform="translate(1037.625 2928.474)" fill="#263238"/>
    <path id="Path_246" data-name="Path 246" d="M381.042,118.88a3.6,3.6,0,0,1-.451,1.407,3.688,3.688,0,0,1-.73,1.283,7.125,7.125,0,0,1,1.188-2.69Z" transform="translate(1036.361 2932.199)" fill="#263238"/>
    <path id="Path_247" data-name="Path 247" d="M385.634,110.258a3.667,3.667,0,0,1-.624,1.336,4.443,4.443,0,0,1-.891,1.188,3.669,3.669,0,0,1,.629-1.336C385.165,110.739,385.563,110.21,385.634,110.258Z" transform="translate(1034.631 2935.702)" fill="#263238"/>
    <path id="Path_248" data-name="Path 248" d="M391.341,102.347c.065.059-.291.594-.8,1.241s-.974,1.1-1.045,1.045a3.718,3.718,0,0,1,.8-1.241C390.812,102.763,391.282,102.294,391.341,102.347Z" transform="translate(1032.446 2938.915)" fill="#263238"/>
    <path id="Path_249" data-name="Path 249" d="M398.144,95.4c.054.071-.386.564-.98,1.111s-1.128.932-1.188.873.38-.552.98-1.1S398.09,95.33,398.144,95.4Z" transform="translate(1029.818 2941.74)" fill="#263238"/>
    <path id="Path_250" data-name="Path 250" d="M406.014,89.72c.042.077-.475.487-1.158.92a3.617,3.617,0,0,1-1.318.659c-.048-.065.469-.481,1.152-.92a3.764,3.764,0,0,1,1.324-.659Z" transform="translate(1026.746 2944.042)" fill="#263238"/>
    <path id="Path_251" data-name="Path 251" d="M414.842,85.67a7.145,7.145,0,0,1-2.732,1.069,3.61,3.61,0,0,1,1.312-.677A3.563,3.563,0,0,1,414.842,85.67Z" transform="translate(1023.263 2945.687)" fill="#263238"/>
    <path id="Path_252" data-name="Path 252" d="M422.934,83.849c0,.083-.3.214-.695.291s-.742.071-.76,0,.3-.214.7-.291S422.923,83.766,422.934,83.849Z" transform="translate(1019.458 2946.45)" fill="#263238"/>
    <rect id="Rectangle_1414" data-name="Rectangle 1414" width="29.758" height="44.148" transform="translate(1400.071 3035.758) rotate(-68.86)" fill="#3baeda"/>
    <path id="Path_253" data-name="Path 253" d="M393.83,90.042h0L352.64,74.109h0L363.383,46.34h0l41.19,15.927h0ZM352.676,74.091,393.83,90l10.725-27.727L363.4,46.364Z" transform="translate(1047.416 2961.66)" fill="#263238"/>
    <path id="Path_254" data-name="Path 254" d="M411.926,62.917a2.836,2.836,0,0,1-.523.22l-1.538.558-5.671,2-18.813,6.461-.154.053-.083-.143-.2-.344-10.1-17.442-3.023-5.309-.8-1.455a2.969,2.969,0,0,1-.261-.523,3.29,3.29,0,0,1,.327.481l.873,1.419,3.1,5.232C377.7,58.6,381.3,64.735,385.268,71.5l.2.344-.237-.089,18.873-6.354,5.713-1.871,1.562-.493A2.6,2.6,0,0,1,411.926,62.917Z" transform="translate(1040.057 2961.396)" fill="#263238"/>
    <path id="Path_255" data-name="Path 255" d="M352.67,86c-.053-.1,4.513-2.7,10.2-5.82s10.339-5.57,10.393-5.475-4.513,2.7-10.2,5.826S352.723,86.1,352.67,86Z" transform="translate(1047.404 2950.14)" fill="#263238"/>
    <path id="Path_256" data-name="Path 256" d="M410.626,83c.107-.03,1.7,4.929,3.563,11.075s3.3,11.165,3.189,11.194-1.7-4.923-3.563-11.076S410.519,83.053,410.626,83Z" transform="translate(1023.868 2946.771)" fill="#263238"/>
    <path id="Path_257" data-name="Path 257" d="M349.2,217.29c.083,0,.125.344.095.754s-.131.736-.214.73-.131-.344-.1-.754S349.113,217.284,349.2,217.29Z" transform="translate(1048.907 2892.23)" fill="#263238"/>
    <path id="Path_258" data-name="Path 258" d="M349.481,207.12a3.758,3.758,0,0,1,.154,1.514,3.889,3.889,0,0,1-.16,1.508,3.807,3.807,0,0,1-.148-1.508,3.937,3.937,0,0,1,.154-1.514Z" transform="translate(1048.77 2896.361)" fill="#263238"/>
    <path id="Path_259" data-name="Path 259" d="M348.855,197a7.587,7.587,0,0,1,.279,3.011,3.668,3.668,0,0,1-.291-1.491A3.926,3.926,0,0,1,348.855,197Z" transform="translate(1048.986 2900.471)" fill="#263238"/>
    <path id="Path_260" data-name="Path 260" d="M347.2,186.94a3.866,3.866,0,0,1,.439,1.455,3.827,3.827,0,0,1,.137,1.514,3.913,3.913,0,0,1-.439-1.455A3.693,3.693,0,0,1,347.2,186.94Z" transform="translate(1049.635 2904.557)" fill="#263238"/>
    <path id="Path_261" data-name="Path 261" d="M344.45,177.15a7.411,7.411,0,0,1,.921,2.88,3.814,3.814,0,0,1-.594-1.4,3.772,3.772,0,0,1-.327-1.485Z" transform="translate(1050.743 2908.533)" fill="#263238"/>
    <path id="Path_262" data-name="Path 262" d="M340.56,167.76a3.753,3.753,0,0,1,.76,1.312,3.885,3.885,0,0,1,.481,1.443,3.9,3.9,0,0,1-.76-1.312A3.82,3.82,0,0,1,340.56,167.76Z" transform="translate(1052.322 2912.347)" fill="#263238"/>
    <path id="Path_263" data-name="Path 263" d="M335.51,158.928c.071-.048.5.487.95,1.188a3.947,3.947,0,0,1,.641,1.384c-.077.042-.481-.5-.909-1.223A3.832,3.832,0,0,1,335.51,158.928Z" transform="translate(1054.373 2915.935)" fill="#263238"/>
    <path id="Path_264" data-name="Path 264" d="M329.28,150.9c.065-.059.552.416,1.087,1.057a3.908,3.908,0,0,1,.849,1.265c-.071.047-.552-.428-1.087-1.063A3.857,3.857,0,0,1,329.28,150.9Z" transform="translate(1056.904 2919.198)" fill="#263238"/>
    <path id="Path_265" data-name="Path 265" d="M321.995,143.815c.053-.065.594.338,1.223.9s1.075,1.069,1.016,1.128a3.866,3.866,0,0,1-1.223-.9C322.381,144.385,321.924,143.881,321.995,143.815Z" transform="translate(1059.865 2922.074)" fill="#263238"/>
    <path id="Path_266" data-name="Path 266" d="M313.728,137.88a3.765,3.765,0,0,1,1.342.707,4.215,4.215,0,0,1,1.188.968,3.932,3.932,0,0,1-1.342-.713C314.209,138.385,313.68,137.951,313.728,137.88Z" transform="translate(1063.221 2924.482)" fill="#263238"/>
    <path id="Path_267" data-name="Path 267" d="M304.67,133.26a3.771,3.771,0,0,1,1.437.493,3.82,3.82,0,0,1,1.307.772,3.77,3.77,0,0,1-1.437-.493A3.9,3.9,0,0,1,304.67,133.26Z" transform="translate(1066.899 2926.358)" fill="#263238"/>
    <path id="Path_268" data-name="Path 268" d="M295,130.188a3.913,3.913,0,0,1,1.5.243,3.8,3.8,0,0,1,1.419.546,4.008,4.008,0,0,1-1.5-.243A3.92,3.92,0,0,1,295,130.188Z" transform="translate(1070.826 2927.606)" fill="#263238"/>
    <path id="Path_269" data-name="Path 269" d="M284.89,128.842a6.171,6.171,0,0,1,3.011.244,9.407,9.407,0,0,1-3.011-.244Z" transform="translate(1074.932 2928.188)" fill="#263238"/>
    <path id="Path_270" data-name="Path 270" d="M274.75,129.337a7.441,7.441,0,0,1,3-.356,3.765,3.765,0,0,1-1.485.333,3.954,3.954,0,0,1-1.52.024Z" transform="translate(1079.05 2928.108)" fill="#263238"/>
    <path id="Path_271" data-name="Path 271" d="M264.93,131.6a3.753,3.753,0,0,1,1.4-.594,3.711,3.711,0,0,1,1.485-.309,3.878,3.878,0,0,1-1.4.594,3.944,3.944,0,0,1-1.485.309Z" transform="translate(1083.039 2927.398)" fill="#263238"/>
    <path id="Path_272" data-name="Path 272" d="M255.768,135.639c-.042-.077.517-.457,1.259-.855a3.753,3.753,0,0,1,1.4-.594,7.638,7.638,0,0,1-2.66,1.443Z" transform="translate(1086.76 2925.981)" fill="#263238"/>
    <path id="Path_273" data-name="Path 273" d="M247.647,141.406c-.059-.059.416-.546,1.057-1.087a3.907,3.907,0,0,1,1.265-.849c.048.071-.428.558-1.063,1.087a3.729,3.729,0,0,1-1.259.849Z" transform="translate(1090.06 2923.836)" fill="#263238"/>
    <path id="Path_274" data-name="Path 274" d="M241,148.77a3.4,3.4,0,0,1,.766-1.318c.517-.665,1.021-1.128,1.081-1.075a4.78,4.78,0,0,1-.837,1.265C241.5,148.313,241.071,148.818,241,148.77Z" transform="translate(1092.758 2921.033)" fill="#263238"/>
    <path id="Path_275" data-name="Path 275" d="M237.27,156.086c-.077-.036,0-.362.184-.736s.386-.641.463-.594,0,.368-.184.736S237.347,156.128,237.27,156.086Z" transform="translate(1094.285 2917.63)" fill="#263238"/>
    <path id="Path_276" data-name="Path 276" d="M173.75,215.819c0-.083.315-.19.719-.243s.742,0,.754.065-.3.2-.719.244S173.756,215.919,173.75,215.819Z" transform="translate(1120.07 2892.936)" fill="#263238"/>
    <path id="Path_277" data-name="Path 277" d="M163.85,214.9a4.7,4.7,0,0,1,1.473.22,4.592,4.592,0,0,1,1.437.392,5.089,5.089,0,0,1-2.91-.594Z" transform="translate(1124.091 2893.201)" fill="#263238"/>
    <path id="Path_278" data-name="Path 278" d="M154.888,210.47a4.477,4.477,0,0,1,1.33.677c.7.416,1.265.766,1.229.849a3.315,3.315,0,0,1-1.384-.594C155.351,210.987,154.84,210.541,154.888,210.47Z" transform="translate(1127.732 2895)" fill="#263238"/>
    <path id="Path_279" data-name="Path 279" d="M147.445,203.787c.065-.053.552.4,1.128.98s1.021,1.075.968,1.14-.594-.333-1.188-.92S147.38,203.846,147.445,203.787Z" transform="translate(1130.757 2897.716)" fill="#263238"/>
    <path id="Path_280" data-name="Path 280" d="M141.57,195.688c.077-.042.5.475.944,1.188a3.811,3.811,0,0,1,.689,1.324c-.071.053-.493-.469-.944-1.158A3.67,3.67,0,0,1,141.57,195.688Z" transform="translate(1133.14 2901.004)" fill="#263238"/>
    <path id="Path_281" data-name="Path 281" d="M137.25,186.66a3.729,3.729,0,0,1,.725,1.306,3.949,3.949,0,0,1,.445,1.431,3.688,3.688,0,0,1-.73-1.306A3.8,3.8,0,0,1,137.25,186.66Z" transform="translate(1134.895 2904.67)" fill="#263238"/>
    <path id="Path_282" data-name="Path 282" d="M134.377,177.06a3.777,3.777,0,0,1,.529,1.4,3.683,3.683,0,0,1,.226,1.479,3.611,3.611,0,0,1-.529-1.4A3.694,3.694,0,0,1,134.377,177.06Z" transform="translate(1136.064 2908.569)" fill="#263238"/>
    <path id="Path_283" data-name="Path 283" d="M132.608,167.19a3.885,3.885,0,0,1,.374,1.449,3.737,3.737,0,0,1,.071,1.5,3.675,3.675,0,0,1-.374-1.449,3.611,3.611,0,0,1-.071-1.5Z" transform="translate(1136.799 2912.578)" fill="#263238"/>
    <path id="Path_284" data-name="Path 284" d="M131.613,157.22a7.2,7.2,0,0,1,.238,2.969,3.682,3.682,0,0,1-.273-1.467A3.623,3.623,0,0,1,131.613,157.22Z" transform="translate(1137.223 2916.627)" fill="#263238"/>
    <path id="Path_285" data-name="Path 285" d="M131.176,149.71c.089,0,.172.327.19.736s-.036.742-.119.748-.172-.327-.19-.736S131.093,149.716,131.176,149.71Z" transform="translate(1137.411 2919.677)" fill="#263238"/>
    <rect id="Rectangle_1415" data-name="Rectangle 1415" width="49.433" height="33.322" transform="matrix(0.999, -0.047, 0.047, 0.999, 1241.573, 3035.709)" fill="#3baeda"/>
    <path id="Path_286" data-name="Path 286" d="M87.308,124.706h0l-1.568-33.3h0l49.4-2.328h0l1.568,33.3h0Zm-1.538-33.3,1.568,33.256,49.35-2.328L135.12,89.08Z" transform="translate(1155.815 2944.302)" fill="#263238"/>
    <path id="Path_287" data-name="Path 287" d="M135.44,89.74A3.257,3.257,0,0,1,135,90.2l-1.318,1.271-4.9,4.614-16.355,15.126-.137.125-.148-.107-.356-.261L93.537,97.68c-2.292-1.7-4.157-3.082-5.5-4.068l-1.479-1.128a3.257,3.257,0,0,1-.5-.416,4.074,4.074,0,0,1,.552.344l1.532,1.045,5.582,3.955L112.047,110.6l.362.261h-.285l16.438-15.025,5-4.507,1.378-1.188a3.052,3.052,0,0,1,.5-.4Z" transform="translate(1155.685 2944.033)" fill="#263238"/>
    <path id="Path_288" data-name="Path 288" d="M88.7,135.421c-.095-.077,3.4-4.816,7.815-10.583s8.071-10.381,8.166-10.309-3.4,4.816-7.809,10.583S88.8,135.493,88.7,135.421Z" transform="translate(1154.614 2933.966)" fill="#263238"/>
    <path id="Path_289" data-name="Path 289" d="M143.219,112.529c.1-.083,3.979,4.276,8.67,9.727s8.427,9.941,8.314,10.024-3.973-4.276-8.67-9.733S143.124,112.612,143.219,112.529Z" transform="translate(1132.471 2934.778)" fill="#263238"/>
    <path id="Path_290" data-name="Path 290" d="M217.541,286.036a1.348,1.348,0,0,0-1.021-1.5l-1.324.089-4.751-1.645a1.419,1.419,0,0,0-1.782,1.289c0,1.36-.594,5.066-1.669,3.9l-.083-.077c-1.562-1.74-3.367-2.583-4.062-2.482a.8.8,0,0,0-.344,1.4.837.837,0,0,0,.285.2c.047,0,.107.06.154.083a12,12,0,0,1,1.811,1.621,6.3,6.3,0,0,1,1.188,1.782c.315.736.564,1.378.76,1.93l.071,4.353-1.888,20.352s-12.53-13.16-12.24-13.285l.73,20.5,7.59,6.277a9.543,9.543,0,0,0,15.642-7.512l-.434-26.314.309-3.45Z" transform="translate(1112.398 2865.572)" fill="#ffbe9d"/>
    <path id="Path_291" data-name="Path 291" d="M89.443,336.88,75.719,368.26,64.887,390.9l-8.059,2.708s-6.378,1.853-6.378,3.171,1.681,1.021,1.681,1.021c.309,1.972,3.041.855,4.953,0s6.164-1.093,6.164-1.093a1.728,1.728,0,0,0-.119,2.767c.677.475,1.853-.1,2.649-.95s2.851-1.241,5.137-2.061,2.66-3.884,2.66-3.884l27.442-46.244Z" transform="translate(1170.147 2843.66)" fill="#ffbe9d"/>
    <path id="Path_292" data-name="Path 292" d="M156.161,335.328l3.45,4.555,7.477-16.587s-7.257-8.854-9.912-12.566-4.6-4.323-4.6-4.323A37.133,37.133,0,0,0,145.347,305l-11.913.713-12.1,5.28a16.759,16.759,0,0,0-7.287,6.135l-11.39,18.3,16.129,6.895,5.41,30.976c1.033,4.638,1.942,9.015,6.224,11.153L160.336,355.7l-3.5-5.523Z" transform="translate(1148.943 2856.608)" fill="#3baeda"/>
    <path id="Path_293" data-name="Path 293" d="M138.785,346.52c.071.048-1.782,2.91-4.115,6.4s-4.306,6.271-4.371,6.224,1.782-2.91,4.115-6.4S138.714,346.472,138.785,346.52Z" transform="translate(1137.718 2839.746)" fill="#263238"/>
    <path id="Path_294" data-name="Path 294" d="M172.28,396a5.571,5.571,0,0,1-.8.475c-.517.285-1.277.689-2.221,1.188-1.894.98-4.519,2.292-7.459,3.676s-5.624,2.577-7.584,3.409c-.98.416-1.782.748-2.328.968a5.819,5.819,0,0,1-.873.309,5.237,5.237,0,0,1,.825-.422l2.286-1.051c1.936-.885,4.608-2.108,7.542-3.492s5.576-2.666,7.489-3.563l2.269-1.093A5.441,5.441,0,0,1,172.28,396Z" transform="translate(1129.302 2819.65)" fill="#263238"/>
    <path id="Path_295" data-name="Path 295" d="M137.005,330.613a10.588,10.588,0,0,1-1.051-1.324,21.152,21.152,0,0,0-2.655-3.029,9.379,9.379,0,0,0-3.427-2.013c-.98-.309-1.633-.3-1.633-.356a1.187,1.187,0,0,1,.457-.036,5.872,5.872,0,0,1,1.235.178,8.736,8.736,0,0,1,3.563,2,17.073,17.073,0,0,1,2.625,3.136A8.5,8.5,0,0,1,137.005,330.613Z" transform="translate(1138.554 2848.954)" fill="#263238"/>
    <path id="Path_296" data-name="Path 296" d="M171.578,360.61a1.233,1.233,0,0,1,0,.333v.938a21.914,21.914,0,0,1-.481,3.427,24.55,24.55,0,0,1-13.819,17.222,22.558,22.558,0,0,1-3.242,1.188c-.392.119-.707.184-.915.232a1.3,1.3,0,0,1-.321.059s.428-.148,1.188-.4a26.589,26.589,0,0,0,3.183-1.295,25.132,25.132,0,0,0,13.706-17.085,27.521,27.521,0,0,0,.594-3.391A10.391,10.391,0,0,1,171.578,360.61Z" transform="translate(1128.579 2834.023)" fill="#263238"/>
    <g id="Group_6" data-name="Group 6" transform="translate(1267.792 3190.493)" opacity="0.3">
      <path id="Path_297" data-name="Path 297" d="M131.951,374.045c-.053-.3,3.836-20.405,3.836-20.405l-5.867,8.807" transform="translate(-129.92 -353.64)"/>
    </g>
    <path id="Path_298" data-name="Path 298" d="M191.452,323.57a1.452,1.452,0,0,1,.042.344c0,.261.036.594.065,1,.042.9.107,2.138.184,3.652.148,3.124.356,7.37.594,12.056s.4,8.979.493,12.067c.048,1.544.077,2.8.089,3.658v1a1.291,1.291,0,0,1,0,.344,1.452,1.452,0,0,1-.042-.344c0-.261-.036-.594-.065-.992-.042-.9-.107-2.144-.184-3.652-.148-3.124-.356-7.37-.594-12.061s-.4-8.973-.493-12.067c-.048-1.544-.077-2.791-.089-3.658v-.992a1.323,1.323,0,0,1,0-.35Z" transform="translate(1112.886 2849.066)" fill="#263238"/>
    <g id="Group_7" data-name="Group 7" transform="translate(1279.833 3209.211)" opacity="0.2">
      <path id="Path_299" data-name="Path 299" d="M150.828,401.568c-.962-.8-.742-2.423.107-3.337a7.647,7.647,0,0,1,3.3-1.692c5.683-1.841,11.4-4.442,15.143-9.1a9.177,9.177,0,0,1,1.681-1.782,2.322,2.322,0,0,1,2.334-.321c1.146.594,1.188,2.257.707,3.462a6.64,6.64,0,0,1-3.13,3.421" transform="translate(-150.197 -385.158)"/>
    </g>
    <g id="Group_8" data-name="Group 8" transform="translate(1304.463 3176.205)" opacity="0.2">
      <path id="Path_300" data-name="Path 300" d="M191.67,329.58l3.32,19.265L192.4,345.43Z" transform="translate(-191.67 -329.58)"/>
    </g>
    <path id="Path_301" data-name="Path 301" d="M241.012,414.79,235.4,434.043l23.915,7.126c.54-2.328-10.47-10.589-10.47-10.589l4.133-12.21Z" transform="translate(1095.032 2812.018)" fill="#3baeda"/>
    <g id="Group_9" data-name="Group 9" transform="translate(1335.782 3239.344)" opacity="0.6">
      <path id="Path_302" data-name="Path 302" d="M245.419,435.9a1.015,1.015,0,0,0-1.01.909.986.986,0,0,0,.9,1.01,1.081,1.081,0,0,0,1.063-.974,1.015,1.015,0,0,0-1.051-.944" transform="translate(-244.409 -435.899)" fill="#fff"/>
    </g>
    <g id="Group_10" data-name="Group 10" transform="translate(1330.432 3244.143)" opacity="0.6">
      <path id="Path_303" data-name="Path 303" d="M235.4,445.9l.641-1.918,22.691,7.53s.926.778.594,1.491Z" transform="translate(-235.4 -443.98)" fill="#fff"/>
    </g>
    <path id="Path_304" data-name="Path 304" d="M256.994,441.133c-.036.113-.635,0-1.324.2s-1.134.594-1.229.523.279-.7,1.116-.932S257.053,441.033,256.994,441.133Z" transform="translate(1087.305 2801.436)" fill="#263238"/>
    <path id="Path_305" data-name="Path 305" d="M261.037,444.245c0,.125-.594.172-1.117.546s-.814.867-.926.825,0-.724.689-1.188S261.067,444.132,261.037,444.245Z" transform="translate(1085.465 2800.105)" fill="#263238"/>
    <path id="Path_306" data-name="Path 306" d="M263.317,448.9c-.119,0-.107-.641.386-1.188s1.111-.641,1.128-.534-.416.356-.813.813S263.436,448.919,263.317,448.9Z" transform="translate(1083.719 2798.882)" fill="#263238"/>
    <path id="Path_307" data-name="Path 307" d="M258.083,435.893c-.083.089-.594-.232-1.241-.38s-1.253-.095-1.283-.214.594-.386,1.378-.2S258.2,435.816,258.083,435.893Z" transform="translate(1086.845 2803.796)" fill="#263238"/>
    <path id="Path_308" data-name="Path 308" d="M258.047,429.449a2.376,2.376,0,0,1-1.188-.362,5.421,5.421,0,0,1-1.14-.76,5.812,5.812,0,0,1-.594-.594,1.466,1.466,0,0,1-.273-.386.535.535,0,0,1,.131-.641.671.671,0,0,1,.594-.113,1.725,1.725,0,0,1,.434.2,4.748,4.748,0,0,1,.665.475,4.36,4.36,0,0,1,.891,1.057,2.061,2.061,0,0,1,.416,1.188c-.065,0-.226-.428-.665-1.016a4.75,4.75,0,0,0-.891-.92,4.376,4.376,0,0,0-.624-.416c-.232-.142-.445-.208-.546-.113s-.042.048,0,.137a1.1,1.1,0,0,0,.2.285,6.756,6.756,0,0,0,.529.552,7.465,7.465,0,0,0,1.021.79C257.626,429.2,258.071,429.383,258.047,429.449Z" transform="translate(1087.154 2807.236)" fill="#263238"/>
    <path id="Path_309" data-name="Path 309" d="M259.87,429.2a1.965,1.965,0,0,1,.03-1.247,3.892,3.892,0,0,1,.552-1.265,3.661,3.661,0,0,1,.523-.635,1.027,1.027,0,0,1,.944-.38.594.594,0,0,1,.4.481,1.782,1.782,0,0,1,0,.475,2.793,2.793,0,0,1-.238.808,2.969,2.969,0,0,1-.879,1.087,1.632,1.632,0,0,1-1.188.434,5.079,5.079,0,0,0,.986-.665,2.816,2.816,0,0,0,.713-1.01,2.431,2.431,0,0,0,.184-.7c.042-.267,0-.5-.095-.5a.964.964,0,0,0-.54.267,4.7,4.7,0,0,0-.487.558,4.489,4.489,0,0,0-.594,1.128C259.948,428.726,259.942,429.2,259.87,429.2Z" transform="translate(1085.129 2807.602)" fill="#263238"/>
    <path id="Path_310" data-name="Path 310" d="M231.1,362.26c.594,4.442-.915,9.448-2.524,13.659l-10.488,24.633-11.61-1.781a14.911,14.911,0,0,1-5.511,3.729c-1.384.457-5.939,1.354-9.686-1.342h0s-5.3,7.388-13.659,9.621-20.975,3.468-27.092-6.3l29.1-28.054c.594.142,25.079-16.367,38.3-20.126C217.957,356.3,229.983,354.095,231.1,362.26Z" transform="translate(1129.501 2835.882)" fill="#263238"/>
    <path id="Path_311" data-name="Path 311" d="M220.672,410.834a1.489,1.489,0,0,1,.154-.1l.475-.25c.422-.226,1.039-.54,1.823-.974a29.627,29.627,0,0,0,2.779-1.71,14.639,14.639,0,0,0,3.142-2.916,10.1,10.1,0,0,0,2.037-4.715,15.666,15.666,0,0,0-.249-5.939,9.592,9.592,0,0,0-3.2-5.576,12.121,12.121,0,0,0-6.533-2.328,20.145,20.145,0,0,0-3.593.03,27.013,27.013,0,0,0-3.45.594,41.085,41.085,0,0,0-6.265,2.168c-3.878,1.7-7.245,3.528-10.2,4.793a36.314,36.314,0,0,1-7.215,2.405c-.439.1-.837.166-1.188.214s-.63.1-.867.119l-.535.054H187.6l.184-.042.529-.077c.232-.036.523-.077.861-.148s.73-.131,1.188-.238a38.135,38.135,0,0,0,7.126-2.494c2.934-1.283,6.289-3.13,10.179-4.852a40.985,40.985,0,0,1,6.307-2.2,27.55,27.55,0,0,1,3.486-.594,20.812,20.812,0,0,1,3.652-.03,12.365,12.365,0,0,1,6.723,2.405,8.457,8.457,0,0,1,2.179,2.649,12.057,12.057,0,0,1,1.111,3.1,16.07,16.07,0,0,1,.226,6.04,10.387,10.387,0,0,1-2.12,4.8,14.466,14.466,0,0,1-3.219,2.922,29.227,29.227,0,0,1-2.815,1.675c-.8.416-1.425.719-1.853.92l-.493.226a.754.754,0,0,1-.178.059Z" transform="translate(1114.446 2823.724)" fill="#455a64"/>
    <path id="Path_312" data-name="Path 312" d="M252.045,373.35a34.249,34.249,0,0,1-2.435,3.973,35.954,35.954,0,0,1-2.69,3.8,35.266,35.266,0,0,1,2.435-3.973A35.944,35.944,0,0,1,252.045,373.35Z" transform="translate(1090.353 2828.848)" fill="#455a64"/>
    <path id="Path_313" data-name="Path 313" d="M231.889,424.539a20.517,20.517,0,0,1-2.108.546c-1.3.321-3.088.814-5.024,1.491s-3.64,1.407-4.858,1.966a20.979,20.979,0,0,1-1.989.891,2.376,2.376,0,0,1,.487-.327c.327-.2.808-.457,1.407-.76a40.532,40.532,0,0,1,9.929-3.474c.659-.137,1.188-.232,1.574-.279A2.381,2.381,0,0,1,231.889,424.539Z" transform="translate(1102.135 2808.059)" fill="#455a64"/>
    <path id="Path_314" data-name="Path 314" d="M258.5,425.67c-.053,0-.19-.523-.683-1.247a5.03,5.03,0,0,0-5.974-1.942c-.825.3-1.259.659-1.295.594s.083-.119.285-.279a4.2,4.2,0,0,1,.926-.535A4.947,4.947,0,0,1,258,424.316a4.09,4.09,0,0,1,.434.98C258.533,425.5,258.533,425.67,258.5,425.67Z" transform="translate(1088.884 2809.149)" fill="#455a64"/>
    <path id="Path_315" data-name="Path 315" d="M174.438,412.79a1.6,1.6,0,0,1,.154.552,9.005,9.005,0,0,1,.131,1.562,9.668,9.668,0,0,1-1.366,4.965,7.6,7.6,0,0,1-3.979,3.231,5.712,5.712,0,0,1-1.544.3,1.591,1.591,0,0,1-.594,0,11.1,11.1,0,0,0,2.049-.475,7.721,7.721,0,0,0,3.789-3.189,10.155,10.155,0,0,0,1.413-4.8C174.562,413.6,174.384,412.8,174.438,412.79Z" transform="translate(1122.714 2812.83)" fill="#455a64"/>
    <path id="Path_316" data-name="Path 316" d="M156.59,434.243c-.065.053-.374-.214-.665-.594s-.445-.79-.368-.831.339.255.624.647S156.655,434.189,156.59,434.243Z" transform="translate(1127.468 2804.698)" fill="#455a64"/>
    <path id="Path_317" data-name="Path 317" d="M160.541,438.72c-.053.065-.386-.166-.742-.511s-.594-.671-.534-.725.4.166.748.5S160.6,438.654,160.541,438.72Z" transform="translate(1125.958 2802.804)" fill="#455a64"/>
    <path id="Path_318" data-name="Path 318" d="M165.253,442.424c-.042.071-.416-.083-.831-.356s-.713-.546-.665-.594a1.673,1.673,0,0,1,.831.356C164.992,442.091,165.295,442.376,165.253,442.424Z" transform="translate(1124.131 2801.184)" fill="#455a64"/>
    <path id="Path_319" data-name="Path 319" d="M170.633,445c0,.083-.422,0-.891-.154s-.82-.368-.784-.451.434,0,.885.16S170.657,444.92,170.633,445Z" transform="translate(1122.018 2800.007)" fill="#455a64"/>
    <path id="Path_320" data-name="Path 320" d="M176.475,446.2c0,.083-.4.119-.9.071s-.885-.148-.873-.232.422-.119.9-.071S176.475,446.114,176.475,446.2Z" transform="translate(1119.685 2799.365)" fill="#455a64"/>
    <path id="Path_321" data-name="Path 321" d="M182.447,445.98c0,.083-.386.178-.879.214a3.981,3.981,0,0,1-.665,0h0c-.148,0-.238-.036-.243-.077s.077-.083.22-.125h0a3.788,3.788,0,0,1,.653-.1C182.049,445.849,182.435,445.891,182.447,445.98Z" transform="translate(1117.264 2799.393)" fill="#455a64"/>
    <path id="Path_322" data-name="Path 322" d="M188.374,444.961c0,.083-.35.232-.837.339s-.885.119-.9.036.356-.237.837-.338S188.356,444.866,188.374,444.961Z" transform="translate(1114.836 2799.788)" fill="#455a64"/>
    <path id="Path_323" data-name="Path 323" d="M194.142,443.206c0,.083-.327.273-.8.434s-.873.214-.9.137.333-.273.8-.434S194.112,443.129,194.142,443.206Z" transform="translate(1112.476 2800.491)" fill="#455a64"/>
    <path id="Path_324" data-name="Path 324" d="M199.7,440.873c.042.077-.3.309-.742.511s-.843.309-.879.232.3-.309.748-.511S199.664,440.8,199.7,440.873Z" transform="translate(1110.191 2801.435)" fill="#455a64"/>
    <path id="Path_325" data-name="Path 325" d="M205.016,437.988c.042.071-.267.333-.695.594s-.808.386-.843.315.267-.338.689-.594S204.975,437.923,205.016,437.988Z" transform="translate(1107.998 2802.603)" fill="#455a64"/>
    <path id="Path_326" data-name="Path 326" d="M210.005,434.621c.053.071-.232.356-.635.647s-.766.463-.814.392.238-.362.635-.647S209.964,434.555,210.005,434.621Z" transform="translate(1105.936 2803.97)" fill="#455a64"/>
    <path id="Path_327" data-name="Path 327" d="M214.7,430.8c.059.065-.2.38-.594.7s-.725.534-.778.469.2-.38.594-.7S214.638,430.744,214.7,430.8Z" transform="translate(1104 2805.519)" fill="#455a64"/>
    <path id="Path_328" data-name="Path 328" d="M219.109,426.683c.059.065-.184.392-.54.725s-.7.558-.754.5.178-.38.54-.724S219.056,426.624,219.109,426.683Z" transform="translate(1102.177 2807.192)" fill="#455a64"/>
    <path id="Path_329" data-name="Path 329" d="M223.749,422.991c.048.071-.232.362-.629.647s-.76.463-.814.4.232-.356.629-.647S223.7,422.925,223.749,422.991Z" transform="translate(1100.353 2808.693)" fill="#455a64"/>
    <path id="Path_330" data-name="Path 330" d="M228.9,420.1c.036.077-.3.315-.73.534s-.825.333-.867.255.285-.315.73-.534S228.869,420.031,228.9,420.1Z" transform="translate(1098.32 2809.871)" fill="#455a64"/>
    <path id="Path_331" data-name="Path 331" d="M234.537,418.3c0,.083-.356.249-.826.362s-.879.148-.9.071.344-.25.826-.368S234.526,418.215,234.537,418.3Z" transform="translate(1096.085 2810.613)" fill="#455a64"/>
    <path id="Path_332" data-name="Path 332" d="M240.482,417.862c0,.089-.41.119-.9.107s-.879-.053-.885-.137.392-.178.891-.172S240.487,417.79,240.482,417.862Z" transform="translate(1093.692 2810.853)" fill="#455a64"/>
    <path id="Path_333" data-name="Path 333" d="M246.33,419.1c-.042.077-.422-.036-.873-.2s-.825-.321-.808-.4.434-.059.909.113S246.366,419.021,246.33,419.1Z" transform="translate(1091.276 2810.531)" fill="#455a64"/>
    <path id="Path_334" data-name="Path 334" d="M246.205,422.987c-.053-.071.214-.362.529-.718s.594-.653.647-.594-.071.433-.416.814S246.259,423.052,246.205,422.987Z" transform="translate(1090.647 2809.225)" fill="#455a64"/>
    <path id="Path_335" data-name="Path 335" d="M240.92,426.158c0-.083.315-.3.76-.481s.843-.273.885-.2-.3.291-.766.481S240.968,426.241,240.92,426.158Z" transform="translate(1092.79 2807.688)" fill="#455a64"/>
    <path id="Path_336" data-name="Path 336" d="M235.2,428.064c0-.083.327-.273.8-.434s.867-.22.9-.137-.333.273-.8.428S235.23,428.142,235.2,428.064Z" transform="translate(1095.113 2806.874)" fill="#455a64"/>
    <path id="Path_337" data-name="Path 337" d="M229.6,430.143c-.036-.077.309-.285.772-.469s.855-.261.885-.184-.315.291-.772.475S229.628,430.226,229.6,430.143Z" transform="translate(1097.389 2806.06)" fill="#455a64"/>
    <path id="Path_338" data-name="Path 338" d="M224.068,432.5c-.036-.077.3-.3.754-.493s.849-.291.879-.214-.3.3-.754.493A1.8,1.8,0,0,1,224.068,432.5Z" transform="translate(1099.635 2805.123)" fill="#455a64"/>
    <path id="Path_339" data-name="Path 339" d="M212.89,247.753s3.884-1.188,9.044-6.919,7.239-13.065,7.922-13.065,3.563-1.615,10.1,10.25,4.549,14.888,3.427,14.948-8.908-1.5-13.659-.594a51.441,51.441,0,0,0-10.69,3.836Z" transform="translate(1104.174 2888.004)" fill="#455a64"/>
    <path id="Path_340" data-name="Path 340" d="M199.246,267.147l1.538,2.465.689,1.1a3.355,3.355,0,0,0,4.472,1.158l8.243-3.563-5.766-10.885-8.124,5.1a3.355,3.355,0,0,0-1.051,4.632Z" transform="translate(1109.926 2875.932)" fill="#263238"/>
    <path id="Path_341" data-name="Path 341" d="M208.33,278.435l3.094,5.083,1.318-.475,9.341,6.533,2.084-5.024s-5.345-1.859-6.473-3.64,0-2.286,0-2.286L215.041,276Z" transform="translate(1106.026 2868.386)" fill="#263238"/>
    <path id="Path_342" data-name="Path 342" d="M251.315,238.449c3.5,6.431,5.19,12.269,3.777,13.065s-5.392-3.818-8.908-10.25-5.19-12.269-3.777-13.065S247.811,232.011,251.315,238.449Z" transform="translate(1092.39 2887.836)" fill="#263238"/>
    <path id="Path_343" data-name="Path 343" d="M198.145,277.74l2.245-.891-1.621-2.589-1.639,1.194Z" transform="translate(1110.575 2869.093)" fill="#455a64"/>
    <path id="Path_344" data-name="Path 344" d="M216.542,277.54l-5.873,4.389-.879-1.449Z" transform="translate(1105.433 2867.761)" fill="#455a64"/>
    <path id="Path_345" data-name="Path 345" d="M199.756,274.26l1.621,2.589-.463.184L199.56,274.4Z" transform="translate(1109.588 2869.093)" fill="#455a64"/>
    <path id="Path_346" data-name="Path 346" d="M202.63,273.311a25.868,25.868,0,0,0,4.822-2.631,12.972,12.972,0,0,0-2.482,1.188A12.786,12.786,0,0,0,202.63,273.311Z" transform="translate(1108.341 2870.547)" fill="#455a64"/>
    <path id="Path_347" data-name="Path 347" d="M201.24,270.748a10.853,10.853,0,0,0,2.239-1.146,11.288,11.288,0,0,0,2.1-1.4,21.255,21.255,0,0,0-4.335,2.548Z" transform="translate(1108.906 2871.554)" fill="#455a64"/>
    <path id="Path_348" data-name="Path 348" d="M204.339,276.224a1.978,1.978,0,0,0,.707-.214l.742-.309c.273-.125.558-.291.861-.457a9.8,9.8,0,0,0,2.09-1.384,12.132,12.132,0,0,0-2.233,1.122c-.3.166-.594.344-.843.475s-.5.255-.707.362C204.565,276.034,204.322,276.182,204.339,276.224Z" transform="translate(1107.647 2869.255)" fill="#455a64"/>
    <path id="Path_349" data-name="Path 349" d="M247.24,243.361s3.278-2.375,5.5,2.114-1.33,5.529-1.33,5.529A30.946,30.946,0,0,1,247.24,243.361Z" transform="translate(1090.224 2881.897)" fill="#455a64"/>
    <path id="Path_350" data-name="Path 350" d="M240.41,234.94a4.365,4.365,0,0,0,.2.879c.154.558.368,1.366.665,2.375.178.487.38,1.015.594,1.586l.333.885c.059.148.113.3.172.463s.143.3.214.457l.926,1.942c.077.172.16.339.243.511s.184.333.279.5l.594,1.016.594,1.016c.1.16.19.333.3.487s.22.315.321.469l1.235,1.782c.1.137.19.279.291.41l.321.386.594.724,1.087,1.307c.719.748,1.313,1.33,1.722,1.74a4.752,4.752,0,0,0,.665.594,6.225,6.225,0,0,0-.594-.683L249.508,252l-1.027-1.36-.594-.731-.309-.386c-.1-.131-.19-.273-.285-.41l-1.188-1.782-.315-.463c-.113-.154-.2-.327-.3-.487l-.594-1.01c-.2-.339-.392-.677-.594-1-.089-.166-.2-.327-.279-.5s-.16-.339-.243-.5l-.932-1.918c-.071-.154-.154-.3-.214-.457s-.125-.309-.184-.457c-.119-.3-.232-.594-.344-.873l-.624-1.568c-.315-.968-.564-1.782-.748-2.322A6.058,6.058,0,0,0,240.41,234.94Z" transform="translate(1092.997 2885.062)" fill="#263238"/>
    <path id="Path_351" data-name="Path 351" d="M223.977,280.411a1,1,0,0,1,.695,1.217c-.255,1.01-.671,2.6-1,3.563a2.665,2.665,0,0,1-.445.879.831.831,0,0,1-1.514-.428,2.647,2.647,0,0,1,.089-1.033c.208-.944.594-2.375.926-3.51a1,1,0,0,1,1.253-.689Z" transform="translate(1100.599 2866.612)" fill="#ffbe9d"/>
    <path id="Path_352" data-name="Path 352" d="M226.688,283.168a1,1,0,0,1,.695,1.217c-.255,1.01-.671,2.6-1.01,3.563a2.56,2.56,0,0,1-.445.879.909.909,0,0,1-.879.333.932.932,0,0,1-.629-.766,2.774,2.774,0,0,1,.083-1.033c.214-.938.594-2.375.926-3.51a1.015,1.015,0,0,1,1.259-.689Z" transform="translate(1099.498 2865.494)" fill="#ffbe9d"/>
    <path id="Path_353" data-name="Path 353" d="M229.5,284.836a.879.879,0,0,1,.594,1.057c-.22.873-.594,2.245-.873,3.082a2.274,2.274,0,0,1-.386.766.719.719,0,0,1-1.306-.374,2.3,2.3,0,0,1,.071-.9c.184-.813.517-2.037.8-3.041a.879.879,0,0,1,1.087-.594Z" transform="translate(1098.235 2864.812)" fill="#ffbe9d"/>
    <path id="Path_354" data-name="Path 354" d="M232.463,285.169a.879.879,0,0,1,.594,1.063c-.22.879-.594,2.257-.879,3.1a2.221,2.221,0,0,1-.386.766.719.719,0,0,1-1.313-.374,2.33,2.33,0,0,1,.071-.9c.184-.814.517-2.049.808-3.052a.879.879,0,0,1,1.093-.594Z" transform="translate(1097.037 2864.675)" fill="#ffbe9d"/>
    <path id="Path_355" data-name="Path 355" d="M224.6,287.462a6.153,6.153,0,0,1,.434-1.9,6.279,6.279,0,0,1,.736-1.811,6.062,6.062,0,0,1-.439,1.9A6.375,6.375,0,0,1,224.6,287.462Z" transform="translate(1099.418 2865.239)" fill="#eb996e"/>
    <path id="Path_356" data-name="Path 356" d="M230.23,289.723A24.352,24.352,0,0,1,231.341,286a8.272,8.272,0,0,1-1.111,3.729Z" transform="translate(1097.132 2864.325)" fill="#eb996e"/>
    <path id="Path_357" data-name="Path 357" d="M227.44,289.355a24.673,24.673,0,0,1,1.11-3.735A8.266,8.266,0,0,1,227.44,289.355Z" transform="translate(1098.265 2864.479)" fill="#eb996e"/>
    <path id="Path_358" data-name="Path 358" d="M270.642,207.35c.065.047-2.375,3.355-5.44,7.382s-5.618,7.251-5.683,7.2,2.375-3.355,5.434-7.382S270.571,207.3,270.642,207.35Z" transform="translate(1085.237 2896.268)" fill="#263238"/>
    <path id="Path_359" data-name="Path 359" d="M289.35,223.219c.036.077-5.083,2.53-11.438,5.475s-11.527,5.274-11.562,5.2,5.083-2.53,11.432-5.475S289.3,223.142,289.35,223.219Z" transform="translate(1082.462 2889.823)" fill="#263238"/>
    <path id="Path_360" data-name="Path 360" d="M289.952,255.158c0,.083-3.658-.2-8.148-.629s-8.13-.855-8.124-.938,3.658.2,8.154.629S289.964,255.075,289.952,255.158Z" transform="translate(1079.485 2877.494)" fill="#263238"/>
    <path id="Path_361" data-name="Path 361" d="M143.28,266.128l4.032,22.923a7.542,7.542,0,0,0,8.492,6.1h0a7.459,7.459,0,0,0,6.414-8.575l-.653-3.943s5.642-1.532,5.054-7.2c-.285-2.732-1.33-8.314-2.34-13.338a10.814,10.814,0,0,0-12.34-8.451h0a10.547,10.547,0,0,0-8.658,12.477Z" transform="translate(1132.528 2877.522)" fill="#ffbe9d"/>
    <path id="Path_362" data-name="Path 362" d="M168.95,301.723a13.617,13.617,0,0,1-7.72-1.253s2.239,3.878,7.9,2.69Z" transform="translate(1125.155 2858.448)" fill="#eb996e"/>
    <path id="Path_363" data-name="Path 363" d="M175.6,273.975a.813.813,0,0,1-.695.9.784.784,0,0,1-.926-.629.814.814,0,0,1,.695-.909.784.784,0,0,1,.926.635Z" transform="translate(1119.982 2869.473)" fill="#263238"/>
    <path id="Path_364" data-name="Path 364" d="M174.763,271.641c-.089.119-.766-.267-1.645-.16s-1.479.594-1.586.511,0-.243.285-.475a2.341,2.341,0,0,1,1.253-.546,2.186,2.186,0,0,1,1.33.267C174.709,271.409,174.828,271.576,174.763,271.641Z" transform="translate(1120.988 2870.435)" fill="#263238"/>
    <path id="Path_365" data-name="Path 365" d="M161.623,275.659a.819.819,0,0,1-.695.909.79.79,0,0,1-.932-.635.814.814,0,0,1,.695-.9.79.79,0,0,1,.932.629Z" transform="translate(1125.659 2868.787)" fill="#263238"/>
    <path id="Path_366" data-name="Path 366" d="M160.436,273.531c-.089.113-.76-.267-1.645-.166s-1.479.594-1.586.517.03-.244.291-.481a2.256,2.256,0,0,1,1.253-.54,2.221,2.221,0,0,1,1.324.261C160.37,273.317,160.483,273.531,160.436,273.531Z" transform="translate(1126.805 2869.667)" fill="#263238"/>
    <path id="Path_367" data-name="Path 367" d="M168.472,280.237a6.247,6.247,0,0,1,1.407-.416c.22-.047.428-.119.451-.273a1.146,1.146,0,0,0-.232-.641l-.861-1.615a31.272,31.272,0,0,1-2.013-4.252,29.968,29.968,0,0,1,2.375,4.086c.291.564.594,1.1.831,1.627a1.247,1.247,0,0,1,.22.855.558.558,0,0,1-.333.368,1.5,1.5,0,0,1-.374.1A5.98,5.98,0,0,1,168.472,280.237Z" transform="translate(1122.723 2869.589)" fill="#263238"/>
    <path id="Path_368" data-name="Path 368" d="M165.014,286.67c.143,0,.255.915,1.152,1.5s1.906.356,1.924.487-.2.208-.635.267a2.429,2.429,0,0,1-1.6-.35,2.067,2.067,0,0,1-.9-1.265C164.865,286.913,164.966,286.67,165.014,286.67Z" transform="translate(1123.658 2864.052)" fill="#263238"/>
    <path id="Path_369" data-name="Path 369" d="M159.665,268.82c-.059.244-.956.232-1.978.469s-1.823.594-1.984.422c-.077-.095.042-.338.356-.594a3.616,3.616,0,0,1,3.017-.677C159.475,268.535,159.689,268.7,159.665,268.82Z" transform="translate(1127.409 2871.492)" fill="#263238"/>
    <path id="Path_370" data-name="Path 370" d="M174.141,268.31c-.131.214-.766.077-1.5.149s-1.336.285-1.5.095c-.071-.089,0-.3.249-.517a2.061,2.061,0,0,1,1.188-.463,2.126,2.126,0,0,1,1.241.261C174.088,268.013,174.195,268.2,174.141,268.31Z" transform="translate(1121.14 2871.813)" fill="#263238"/>
    <path id="Path_371" data-name="Path 371" d="M163.168,249.816a2,2,0,0,0-2.607.16,1.782,1.782,0,0,0-.5-2.375,3.064,3.064,0,0,0-2.6-.374,8.807,8.807,0,0,0-2.429,1.188.915.915,0,0,0-.4-.926,2.2,2.2,0,0,0-1.021-.321,7.785,7.785,0,0,0-4.282.962,26.722,26.722,0,0,0-3.961,2.69h0a18.924,18.924,0,0,0-3.623,3.872l-.048.042a6.335,6.335,0,0,0-1.419,4.109c.469,4.08,1.823,6.438,2.583,10.3a1.354,1.354,0,0,0,.291.719c.469.487,1.312.071,1.782-.44a7.293,7.293,0,0,0,1.508-4.591c.053-1.639-.184-3.272-.143-4.911V259.8a9.205,9.205,0,0,1,.119-1.247,4.071,4.071,0,0,1,3.017-2.969c2.375-.4,7.1,1.912,9.431,1.544s2.459-2.013,2.459-2.013L162.7,257.9a8.45,8.45,0,0,0,.22-3.486,3.962,3.962,0,0,0,1.188-2.037A2.619,2.619,0,0,0,163.168,249.816Z" transform="translate(1133.67 2880.127)" fill="#263238"/>
    <path id="Path_372" data-name="Path 372" d="M144.755,278.817c-.1-.03-4.08-.7-3.5,3.153s4.389,2.488,4.377,2.375S144.755,278.817,144.755,278.817Z" transform="translate(1133.293 2867.268)" fill="#ffbe9d"/>
    <path id="Path_373" data-name="Path 373" d="M144.93,283.981a.974.974,0,0,1-.166.125.707.707,0,0,1-.511.089,1.693,1.693,0,0,1-1-1.378,2.293,2.293,0,0,1,.048-.992.778.778,0,0,1,.439-.594.357.357,0,0,1,.428.125c.065.1.053.184.077.184s.071-.077,0-.232a.493.493,0,0,0-.19-.22.546.546,0,0,0-.392-.042.974.974,0,0,0-.594.7,2.3,2.3,0,0,0-.071,1.11,1.782,1.782,0,0,0,1.241,1.52.742.742,0,0,0,.594-.2C144.936,284.076,144.942,283.981,144.93,283.981Z" transform="translate(1132.577 2866.344)" fill="#eb996e"/>
    <path id="Path_374" data-name="Path 374" d="M125.63,325.812a.712.712,0,0,1,.338-.053,1.33,1.33,0,0,1,.879.439,1.912,1.912,0,0,1,.511,1.461,8.5,8.5,0,0,1-.451,2,2.72,2.72,0,0,0,.137,2.286c.422.736,1.283,1.3,1.633,2.328a2.738,2.738,0,0,1-.861,2.969,2.779,2.779,0,0,1-1.6.624,5.868,5.868,0,0,1-1.716-.279,3.111,3.111,0,0,0-1.6-.1,2.328,2.328,0,0,0-1.188.962,8.208,8.208,0,0,1-1.01,1.265,2.019,2.019,0,0,1-1.5.552,2.97,2.97,0,0,1-2.375-1.574,5.809,5.809,0,0,1-.594-2.423c-.042-.76,0-1.443,0-2.037a10.206,10.206,0,0,0-.131-1.514,7.766,7.766,0,0,0-.362-1.247,1.227,1.227,0,0,1,.166.3,3.947,3.947,0,0,1,.309.926,8.472,8.472,0,0,1,.19,1.532,19.272,19.272,0,0,0,.077,2.031,5.542,5.542,0,0,0,.594,2.31,2.738,2.738,0,0,0,2.156,1.413,1.716,1.716,0,0,0,1.289-.487,7.91,7.91,0,0,0,.968-1.223,2.631,2.631,0,0,1,1.342-1.081,3.326,3.326,0,0,1,1.782.1,5.972,5.972,0,0,0,1.627.267,2.483,2.483,0,0,0,1.431-.552,2.453,2.453,0,0,0,.784-2.655c-.291-.909-1.128-1.485-1.592-2.286a2.411,2.411,0,0,1-.339-1.289,4.906,4.906,0,0,1,.214-1.188,8.592,8.592,0,0,0,.493-1.948,1.781,1.781,0,0,0-.428-1.372,1.33,1.33,0,0,0-.8-.451C125.748,325.794,125.63,325.829,125.63,325.812Z" transform="translate(1143.635 2848.178)" fill="#fafafa"/>
    <path id="Path_375" data-name="Path 375" d="M135.149,384.724a1.742,1.742,0,0,0,.178.368,1.551,1.551,0,0,0,.92.641,1.871,1.871,0,0,0,1.7-.356,3.563,3.563,0,0,0,1.134-2.079c.19-.885.154-1.894.327-2.969a4.749,4.749,0,0,1,.546-1.621,2.708,2.708,0,0,1,1.366-1.223,3.848,3.848,0,0,1,1.906-.172c.647.065,1.283.214,1.924.3a4.661,4.661,0,0,0,1.942-.1,4.435,4.435,0,0,0,1.734-.962,3.771,3.771,0,0,0,1.069-1.657,3.171,3.171,0,0,0-.036-1.894,3.26,3.26,0,0,0-2.583-2.3c-1.188-.131-2.257.445-3.379.469a3.207,3.207,0,0,1-1.568-.356,7.4,7.4,0,0,1-1.229-.79,7.512,7.512,0,0,0-2.079-1.271,2.138,2.138,0,0,0-1.782.119,1.615,1.615,0,0,0-.76.826,3.8,3.8,0,0,0-.1.4.933.933,0,0,1,.036-.416,1.627,1.627,0,0,1,.76-.914,2.291,2.291,0,0,1,.831-.285,2.53,2.53,0,0,1,1.033.113,7.448,7.448,0,0,1,2.162,1.259,4.229,4.229,0,0,0,2.655,1.063,8.234,8.234,0,0,0,1.621-.3,5,5,0,0,1,1.782-.19,3.527,3.527,0,0,1,2.833,2.482,3.4,3.4,0,0,1,.042,2.079,4.08,4.08,0,0,1-1.152,1.782,4.686,4.686,0,0,1-1.859,1.033,4.852,4.852,0,0,1-2.061.095c-.665-.089-1.3-.232-1.918-.3a3.593,3.593,0,0,0-1.782.148,2.375,2.375,0,0,0-1.235,1.093,4.684,4.684,0,0,0-.534,1.526c-.172,1.051-.154,2.072-.362,2.969a3.735,3.735,0,0,1-1.241,2.168,1.983,1.983,0,0,1-1.835.333,1.55,1.55,0,0,1-.944-.724A.867.867,0,0,1,135.149,384.724Z" transform="translate(1135.748 2830.831)" fill="#fafafa"/>
    <path id="Path_376" data-name="Path 376" d="M161.257,334.241a2.193,2.193,0,0,1,.41-.552,3.172,3.172,0,0,1,1.782-.891,3.047,3.047,0,0,1,2.839,1.128,3.26,3.26,0,0,1,.719,1.835,4.869,4.869,0,0,0,.451,2.067,1.6,1.6,0,0,0,.867.647,4.671,4.671,0,0,0,1.188.184,9.57,9.57,0,0,1,1.289.059,2.423,2.423,0,0,1,1.3.463,1.6,1.6,0,0,1,.451.594,1.579,1.579,0,0,1,.119.742,2.477,2.477,0,0,1-.594,1.342,3.794,3.794,0,0,1-1.188.932c-.445.226-.915.41-1.372.624a4.834,4.834,0,0,0-1.265.778,2.452,2.452,0,0,0-.742,1.265,19.613,19.613,0,0,0-.071,3.207,4.157,4.157,0,0,1-.451,1.663,1.978,1.978,0,0,1-1.413,1.063,2.192,2.192,0,0,1-1.7-.594,5.2,5.2,0,0,1-1.134-1.384,14.75,14.75,0,0,0-.915-1.455,2.685,2.685,0,0,0-1.265-.986,2.275,2.275,0,0,0-1.556.1,9.2,9.2,0,0,0-1.449.772,8.244,8.244,0,0,1-1.473.766,4.558,4.558,0,0,1-1.633.273,5.143,5.143,0,0,1-2.969-1.045,4.216,4.216,0,0,1-1.627-2.512,2.91,2.91,0,0,1,.707-2.714,2.837,2.837,0,0,1,1.223-.63,10.078,10.078,0,0,1,1.277-.22,4.156,4.156,0,0,0,2.185-.742,4.348,4.348,0,0,0,1.188-1.782c.255-.635.422-1.265.641-1.841a5.39,5.39,0,0,1,.8-1.514,7,7,0,0,1,1.033-1,3.658,3.658,0,0,1,1.782-.861.826.826,0,0,1,.659.184,1.057,1.057,0,0,0-.653-.119,3.645,3.645,0,0,0-1.7.891,6.589,6.589,0,0,0-1,1,5.489,5.489,0,0,0-.754,1.479c-.208.594-.368,1.188-.594,1.853a4.49,4.49,0,0,1-1.188,1.859,4.3,4.3,0,0,1-2.3.808,4.325,4.325,0,0,0-2.375.808,2.643,2.643,0,0,0-.594,2.47,3.99,3.99,0,0,0,1.532,2.34,4.893,4.893,0,0,0,2.809.974,4.153,4.153,0,0,0,1.52-.255,8.184,8.184,0,0,0,1.425-.748,9.385,9.385,0,0,1,1.336-.766,2.565,2.565,0,0,1,1.782-.107,2.97,2.97,0,0,1,1.413,1.087,13.946,13.946,0,0,1,.938,1.491,5.147,5.147,0,0,0,1.063,1.3,1.859,1.859,0,0,0,1.461.493,1.633,1.633,0,0,0,1.188-.9,3.9,3.9,0,0,0,.416-1.532,17.158,17.158,0,0,1,.089-3.26,2.756,2.756,0,0,1,.831-1.407,4.963,4.963,0,0,1,1.342-.826c.469-.214.932-.392,1.366-.594a3.484,3.484,0,0,0,1.1-.861,2.215,2.215,0,0,0,.594-1.188,1.33,1.33,0,0,0-.1-.594,1.39,1.39,0,0,0-.38-.487,2.187,2.187,0,0,0-1.188-.41c-.422-.047-.849-.047-1.271-.071a4.851,4.851,0,0,1-1.241-.208,1.853,1.853,0,0,1-.974-.742,4.953,4.953,0,0,1-.463-2.162,3.111,3.111,0,0,0-.653-1.782,2.969,2.969,0,0,0-2.684-1.134,3.188,3.188,0,0,0-1.728.814,5.8,5.8,0,0,0-.457.522Z" transform="translate(1129.814 2845.332)" fill="#fafafa"/>
    <path id="Path_377" data-name="Path 377" d="M148.885,315.08a2.067,2.067,0,0,1-1.235.594,3.869,3.869,0,0,1-1.508,0,2.637,2.637,0,0,1-1.621-.932,3.474,3.474,0,0,1-.594-1.782,4.753,4.753,0,0,1,.1-1.5,2.013,2.013,0,0,1,.635-1.188,5.342,5.342,0,0,0-.416,1.259,5.087,5.087,0,0,0-.042,1.431,3.438,3.438,0,0,0,.552,1.609,2.376,2.376,0,0,0,1.431.837,4.157,4.157,0,0,0,1.413.053A6.068,6.068,0,0,0,148.885,315.08Z" transform="translate(1132.191 2854.468)" fill="#fafafa"/>
    <path id="Path_378" data-name="Path 378" d="M186.608,315.659a.471.471,0,0,1-.042.16,1.638,1.638,0,0,1-.232.428,2.666,2.666,0,0,1-1.479.986,2.753,2.753,0,0,1-1.253,0,3.326,3.326,0,0,1-1.265-.677,4.068,4.068,0,0,0-1.247-.766,1.134,1.134,0,0,0-1.265.5,10.694,10.694,0,0,0-.73,1.449,2.97,2.97,0,0,1-1.051,1.188,2.8,2.8,0,0,1-3.961-.855,1.188,1.188,0,0,1-.243-.594,3.974,3.974,0,0,0,.339.534,2.969,2.969,0,0,0,1.342,1,2.7,2.7,0,0,0,3.3-1.413,11.276,11.276,0,0,1,.748-1.491,1.6,1.6,0,0,1,.707-.594,1.389,1.389,0,0,1,.891-.036,4.257,4.257,0,0,1,1.348.831,3.1,3.1,0,0,0,1.146.653,2.577,2.577,0,0,0,1.146,0,2.643,2.643,0,0,0,1.431-.843A4.738,4.738,0,0,0,186.608,315.659Z" transform="translate(1120.034 2852.374)" fill="#fafafa"/>
    <path id="Path_379" data-name="Path 379" d="M199.834,344.8a3.147,3.147,0,0,1-.659-.428,13.534,13.534,0,0,1-1.621-1.413,7.724,7.724,0,0,1-.944-1.188,3.948,3.948,0,0,1-.594-1.639,3.2,3.2,0,0,1,.3-1.906,2.376,2.376,0,0,1,.671-.8,7.217,7.217,0,0,1,.873-.558,3.788,3.788,0,0,0,.79-.594,1.87,1.87,0,0,0,.457-.784,4.6,4.6,0,0,0,.059-1.782,8.913,8.913,0,0,1-.125-1.71,2.091,2.091,0,0,1,.552-1.419,3.153,3.153,0,0,1,2-.8.855.855,0,0,1,.736.273,1.4,1.4,0,0,0-.73-.154,3.159,3.159,0,0,0-1.853.837,1.876,1.876,0,0,0-.451,1.283,9.908,9.908,0,0,0,.148,1.657,4.668,4.668,0,0,1-.048,1.918,2.126,2.126,0,0,1-.529.915,3.8,3.8,0,0,1-.855.624,3.2,3.2,0,0,0-1.431,1.265,3.005,3.005,0,0,0-.291,1.734,4.751,4.751,0,0,0,1.413,2.678C198.961,344.121,199.87,344.757,199.834,344.8Z" transform="translate(1111.042 2846.544)" fill="#fafafa"/>
    <path id="Path_380" data-name="Path 380" d="M177.5,374.912a.818.818,0,0,1,.273,0,6.488,6.488,0,0,1,.8.047,7.673,7.673,0,0,1,2.815.819,5.125,5.125,0,0,1,2.66,3.367,3.563,3.563,0,0,1-.368,2.571,3.48,3.48,0,0,1-2.233,1.669,3.179,3.179,0,0,1-1.443-.077,1.96,1.96,0,0,0-1.235,0,2.376,2.376,0,0,0-.962.742,6.879,6.879,0,0,0-.635,1,3.985,3.985,0,0,1-1.55,1.782,2.928,2.928,0,0,1-2.037.243,2.566,2.566,0,0,1-1.419-.926,2.84,2.84,0,0,1-.546-1.152,2.441,2.441,0,0,1-.042-.8.913.913,0,0,1,.059-.273,4.274,4.274,0,0,0,.1,1.045,2.773,2.773,0,0,0,.564,1.075,2.375,2.375,0,0,0,1.306.79,2.732,2.732,0,0,0,1.871-.255,3.788,3.788,0,0,0,1.419-1.681,3.831,3.831,0,0,1,1.782-1.912,2.256,2.256,0,0,1,1.413,0,2.816,2.816,0,0,0,1.312.077,3.2,3.2,0,0,0,2.031-1.52,3.308,3.308,0,0,0,.35-2.375,4.953,4.953,0,0,0-2.488-3.237,8.1,8.1,0,0,0-2.72-.891A6.1,6.1,0,0,1,177.5,374.912Z" transform="translate(1120.963 2828.219)" fill="#fafafa"/>
    <path id="Path_381" data-name="Path 381" d="M159.089,406.133a4.046,4.046,0,0,0-.552-1.223,3.012,3.012,0,0,0-1.111-.9,2.376,2.376,0,0,0-3.064.82,2.97,2.97,0,0,0-.517,1.3,4.008,4.008,0,0,0,.131,1.336,1.087,1.087,0,0,1-.2-.327,2.4,2.4,0,0,1-.154-1.033,3.074,3.074,0,0,1,.493-1.473,2.559,2.559,0,0,1,3.427-.915,3.029,3.029,0,0,1,1.188,1.027,2.376,2.376,0,0,1,.38.968A1.07,1.07,0,0,1,159.089,406.133Z" transform="translate(1128.246 2816.643)" fill="#fafafa"/>
    <path id="Path_382" data-name="Path 382" d="M155.644,420.644a3.412,3.412,0,0,0-.267-.73,3.118,3.118,0,0,0-1.425-1.461,2.97,2.97,0,0,0-2.892.22,4.542,4.542,0,0,0-1.188,1.354,4.292,4.292,0,0,1-.677.772,1.627,1.627,0,0,1-1.039.386,2.589,2.589,0,0,1-1.782-1.075,5.937,5.937,0,0,0-1.259-1.312,2.221,2.221,0,0,0-1.538-.279,3.128,3.128,0,0,0-1.3.54,5.3,5.3,0,0,0-1.366,1.574,5.4,5.4,0,0,1-.41.671,2.717,2.717,0,0,1,.3-.725,4.983,4.983,0,0,1,1.342-1.692,3.17,3.17,0,0,1,1.39-.594,2.465,2.465,0,0,1,1.734.285,6.049,6.049,0,0,1,1.336,1.36,2.316,2.316,0,0,0,1.556.962,1.956,1.956,0,0,0,1.461-1.027,4.9,4.9,0,0,1,1.289-1.413,3.076,3.076,0,0,1,4.591,1.431,2.439,2.439,0,0,1,.148.594C155.679,420.573,155.679,420.644,155.644,420.644Z" transform="translate(1133.575 2810.743)" fill="#fafafa"/>
    <path id="Path_383" data-name="Path 383" d="M168.323,385.431a6.8,6.8,0,0,0-1.71-.754,5.391,5.391,0,0,0-2-.107,4.815,4.815,0,0,0-2.257.879,4.157,4.157,0,0,0-1.425,1.93,4.276,4.276,0,0,0-.214,1.972,5.6,5.6,0,0,0,.63,1.746,1.84,1.84,0,0,1-.333-.4,3.606,3.606,0,0,1-.517-1.318,4.329,4.329,0,0,1,1.675-4.157,4.9,4.9,0,0,1,2.375-.909,5.166,5.166,0,0,1,2.09.178,4.07,4.07,0,0,1,1.271.594C168.21,385.3,168.335,385.419,168.323,385.431Z" transform="translate(1125.474 2824.41)" fill="#fafafa"/>
  </g>
</svg>
