<svg xmlns="http://www.w3.org/2000/svg" width="91.772" height="91.772" viewBox="0 0 91.772 91.772">
  <g id="agencies" transform="translate(-1 -1)">
    <path id="Path_1113" data-name="Path 1113" d="M83.765,34.748A10.359,10.359,0,0,0,77.97,15.8V1H1V63.168H22.546a5.9,5.9,0,0,0,5.1,2.96V81.671a5.173,5.173,0,0,0,8.881,3.615,5.173,5.173,0,0,0,8.881-3.615v-13.4a5.86,5.86,0,0,0,2.96.823v18.5a5.173,5.173,0,0,0,8.881,3.615,5.173,5.173,0,0,0,8.881-3.615v-18.5a5.86,5.86,0,0,0,2.96-.823v13.4a5.173,5.173,0,0,0,8.881,3.615,5.173,5.173,0,0,0,8.881-3.615V66.129a5.927,5.927,0,0,0,5.921-5.921V48.366A14.823,14.823,0,0,0,83.765,34.748Zm1.606-8.585a7.4,7.4,0,1,1-7.4-7.4A7.409,7.409,0,0,1,85.371,26.163ZM75.01,3.96v8.881H3.96V3.96ZM3.96,60.208V15.8H75.01v.437a10.354,10.354,0,0,0-2.823,18.517,14.865,14.865,0,0,0-7.368,6.836,14.727,14.727,0,0,0-1.776-.922,10.361,10.361,0,1,0-11.59,0,14.726,14.726,0,0,0-1.776.922,14.866,14.866,0,0,0-7.368-6.836,10.361,10.361,0,1,0-11.578-.007,14.823,14.823,0,0,0-9.007,13.618V60.208ZM49.847,32.084a7.4,7.4,0,1,1,7.4,7.4A7.409,7.409,0,0,1,49.847,32.084ZM29.124,26.163a7.4,7.4,0,1,1,7.4,7.4A7.409,7.409,0,0,1,29.124,26.163ZM42.446,81.671a2.22,2.22,0,0,1-4.441,0V57.247h-2.96V81.671a2.22,2.22,0,0,1-4.441,0V46.886h-2.96V63.168a2.963,2.963,0,0,1-2.96-2.96V48.366a11.819,11.819,0,0,1,22.56-4.956,14.743,14.743,0,0,0-4.8,10.876V81.671ZM66.129,66.129V52.807h-2.96V87.592a2.22,2.22,0,1,1-4.441,0V63.168h-2.96V87.592a2.22,2.22,0,1,1-4.441,0V52.807h-2.96V66.129a2.963,2.963,0,0,1-2.96-2.96V54.287a11.842,11.842,0,0,1,23.683,0v8.881A2.963,2.963,0,0,1,66.129,66.129Zm23.683-5.921a2.963,2.963,0,0,1-2.96,2.96V46.886h-2.96V81.671a2.22,2.22,0,0,1-4.441,0V57.247H76.49V81.671a2.22,2.22,0,0,1-4.441,0V54.287a14.743,14.743,0,0,0-4.8-10.876,11.819,11.819,0,0,1,22.56,4.956Z"/>
    <path id="Path_1114" data-name="Path 1114" d="M5,5H7.96V7.96H5Z" transform="translate(1.921 1.921)"/>
    <path id="Path_1115" data-name="Path 1115" d="M9,5h2.96V7.96H9Z" transform="translate(3.842 1.921)"/>
    <path id="Path_1116" data-name="Path 1116" d="M13,5h2.96V7.96H13Z" transform="translate(5.762 1.921)"/>
    <path id="Path_1117" data-name="Path 1117" d="M5,13H7.96v2.96H5Z" transform="translate(1.921 5.762)"/>
    <path id="Path_1118" data-name="Path 1118" d="M9,13h2.96v2.96H9Z" transform="translate(3.842 5.762)"/>
    <path id="Path_1119" data-name="Path 1119" d="M13,13h2.96v2.96H13Z" transform="translate(5.762 5.762)"/>
    <path id="Path_1120" data-name="Path 1120" d="M5,17H19.8v2.96H5Z" transform="translate(1.921 7.683)"/>
    <path id="Path_1121" data-name="Path 1121" d="M5,21H19.8v2.96H5Z" transform="translate(1.921 9.604)"/>
    <path id="Path_1122" data-name="Path 1122" d="M5,25H19.8v2.96H5Z" transform="translate(1.921 11.525)"/>
    <path id="Path_1123" data-name="Path 1123" d="M5,29H16.842v2.96H5Z" transform="translate(1.921 13.446)"/>
    <path id="Path_1124" data-name="Path 1124" d="M5,33H16.842v2.96H5Z" transform="translate(1.921 15.366)"/>
    <path id="Path_1125" data-name="Path 1125" d="M5,37H16.842v2.96H5Z" transform="translate(1.921 17.287)"/>
  </g>
</svg>
