<svg id="entreprise" xmlns="http://www.w3.org/2000/svg" width="104.598" height="104.598" viewBox="0 0 104.598 104.598">
  <g id="Group_69" data-name="Group 69" transform="translate(36.609 34.866)">
    <g id="Group_68" data-name="Group 68">
      <rect id="Rectangle_1606" data-name="Rectangle 1606" width="4" height="3" transform="translate(-0.31 0.433)"/>
    </g>
  </g>
  <g id="Group_71" data-name="Group 71" transform="translate(36.609 41.839)">
    <g id="Group_70" data-name="Group 70">
      <rect id="Rectangle_1607" data-name="Rectangle 1607" width="4" height="3" transform="translate(-0.31 0.46)"/>
    </g>
  </g>
  <g id="Group_73" data-name="Group 73" transform="translate(36.609 48.813)">
    <g id="Group_72" data-name="Group 72">
      <rect id="Rectangle_1608" data-name="Rectangle 1608" width="4" height="3" transform="translate(-0.31 0.487)"/>
    </g>
  </g>
  <g id="Group_75" data-name="Group 75" transform="translate(36.609 55.786)">
    <g id="Group_74" data-name="Group 74">
      <rect id="Rectangle_1609" data-name="Rectangle 1609" width="4" height="4" transform="translate(-0.31 -0.487)"/>
    </g>
  </g>
  <g id="Group_77" data-name="Group 77" transform="translate(43.583 34.866)">
    <g id="Group_76" data-name="Group 76">
      <rect id="Rectangle_1610" data-name="Rectangle 1610" width="4" height="3" transform="translate(-0.283 0.433)"/>
    </g>
  </g>
  <g id="Group_79" data-name="Group 79" transform="translate(43.583 41.839)">
    <g id="Group_78" data-name="Group 78">
      <rect id="Rectangle_1611" data-name="Rectangle 1611" width="4" height="3" transform="translate(-0.283 0.46)"/>
    </g>
  </g>
  <g id="Group_81" data-name="Group 81" transform="translate(43.583 48.813)">
    <g id="Group_80" data-name="Group 80">
      <rect id="Rectangle_1612" data-name="Rectangle 1612" width="4" height="3" transform="translate(-0.283 0.487)"/>
    </g>
  </g>
  <g id="Group_83" data-name="Group 83" transform="translate(43.583 55.786)">
    <g id="Group_82" data-name="Group 82">
      <rect id="Rectangle_1613" data-name="Rectangle 1613" width="4" height="4" transform="translate(-0.283 -0.487)"/>
    </g>
  </g>
  <g id="Group_85" data-name="Group 85" transform="translate(50.556 34.866)">
    <g id="Group_84" data-name="Group 84">
      <rect id="Rectangle_1614" data-name="Rectangle 1614" width="4" height="3" transform="translate(-0.257 0.433)"/>
    </g>
  </g>
  <g id="Group_87" data-name="Group 87" transform="translate(50.556 41.839)">
    <g id="Group_86" data-name="Group 86">
      <rect id="Rectangle_1615" data-name="Rectangle 1615" width="4" height="3" transform="translate(-0.257 0.46)"/>
    </g>
  </g>
  <g id="Group_89" data-name="Group 89" transform="translate(50.556 48.813)">
    <g id="Group_88" data-name="Group 88">
      <rect id="Rectangle_1616" data-name="Rectangle 1616" width="4" height="3" transform="translate(-0.257 0.487)"/>
    </g>
  </g>
  <g id="Group_91" data-name="Group 91" transform="translate(50.556 55.786)">
    <g id="Group_90" data-name="Group 90">
      <rect id="Rectangle_1617" data-name="Rectangle 1617" width="4" height="4" transform="translate(-0.257 -0.487)"/>
    </g>
  </g>
  <g id="Group_93" data-name="Group 93" transform="translate(57.529 34.866)">
    <g id="Group_92" data-name="Group 92">
      <rect id="Rectangle_1618" data-name="Rectangle 1618" width="4" height="3" transform="translate(-0.23 0.433)"/>
    </g>
  </g>
  <g id="Group_95" data-name="Group 95" transform="translate(43.583 27.893)">
    <g id="Group_94" data-name="Group 94">
      <rect id="Rectangle_1619" data-name="Rectangle 1619" width="4" height="3" transform="translate(-0.283 0.406)"/>
    </g>
  </g>
  <g id="Group_97" data-name="Group 97" transform="translate(50.556 27.893)">
    <g id="Group_96" data-name="Group 96">
      <rect id="Rectangle_1620" data-name="Rectangle 1620" width="4" height="3" transform="translate(-0.257 0.406)"/>
    </g>
  </g>
  <g id="Group_99" data-name="Group 99" transform="translate(57.529 27.893)">
    <g id="Group_98" data-name="Group 98">
      <rect id="Rectangle_1621" data-name="Rectangle 1621" width="4" height="3" transform="translate(-0.23 0.406)"/>
    </g>
  </g>
  <g id="Group_101" data-name="Group 101" transform="translate(57.529 41.839)">
    <g id="Group_100" data-name="Group 100">
      <rect id="Rectangle_1622" data-name="Rectangle 1622" width="4" height="3" transform="translate(-0.23 0.46)"/>
    </g>
  </g>
  <g id="Group_103" data-name="Group 103" transform="translate(57.529 48.813)">
    <g id="Group_102" data-name="Group 102">
      <rect id="Rectangle_1623" data-name="Rectangle 1623" width="4" height="3" transform="translate(-0.23 0.487)"/>
    </g>
  </g>
  <g id="Group_105" data-name="Group 105" transform="translate(57.529 55.786)">
    <g id="Group_104" data-name="Group 104">
      <rect id="Rectangle_1624" data-name="Rectangle 1624" width="4" height="4" transform="translate(-0.23 -0.487)"/>
    </g>
  </g>
  <g id="Group_107" data-name="Group 107" transform="translate(64.502 34.866)">
    <g id="Group_106" data-name="Group 106">
      <rect id="Rectangle_1625" data-name="Rectangle 1625" width="4" height="3" transform="translate(-0.203 0.433)"/>
    </g>
  </g>
  <g id="Group_109" data-name="Group 109" transform="translate(64.502 41.839)">
    <g id="Group_108" data-name="Group 108">
      <rect id="Rectangle_1626" data-name="Rectangle 1626" width="4" height="3" transform="translate(-0.203 0.46)"/>
    </g>
  </g>
  <g id="Group_111" data-name="Group 111" transform="translate(64.502 48.813)">
    <g id="Group_110" data-name="Group 110">
      <rect id="Rectangle_1627" data-name="Rectangle 1627" width="4" height="3" transform="translate(-0.203 0.487)"/>
    </g>
  </g>
  <g id="Group_113" data-name="Group 113" transform="translate(64.502 55.786)">
    <g id="Group_112" data-name="Group 112">
      <rect id="Rectangle_1628" data-name="Rectangle 1628" width="4" height="4" transform="translate(-0.203 -0.487)"/>
    </g>
  </g>
  <g id="Group_115" data-name="Group 115" transform="translate(0 0)">
    <g id="Group_114" data-name="Group 114" transform="translate(0 0)">
      <path id="Path_1111" data-name="Path 1111" d="M102.857,26.15H76.705V1.743A1.742,1.742,0,0,0,74.964,0H29.636a1.742,1.742,0,0,0-1.743,1.741V26.15H1.743A1.742,1.742,0,0,0,0,27.891V90.652A1.742,1.742,0,0,0,1.741,92.4H5.387a10.461,10.461,0,0,0-.158,1.743v8.717A1.742,1.742,0,0,0,6.971,104.6H97.625a1.742,1.742,0,0,0,1.743-1.741V94.139a10.415,10.415,0,0,0-.158-1.743h3.644a1.742,1.742,0,0,0,1.743-1.741V27.893A1.742,1.742,0,0,0,102.857,26.15ZM74.962,74.962a3.487,3.487,0,1,1-3.487-3.487A3.486,3.486,0,0,1,74.962,74.962ZM33.123,71.476a3.487,3.487,0,1,1-3.487,3.487A3.486,3.486,0,0,1,33.123,71.476Zm-10.46,29.636H8.717V94.139a6.973,6.973,0,0,1,13.946,0ZM12.2,80.192a3.487,3.487,0,1,1,3.487,3.487A3.486,3.486,0,0,1,12.2,80.192ZM22.927,86.6a10.509,10.509,0,0,0-2.193-1.623,6.973,6.973,0,1,0-10.089,0,10.527,10.527,0,0,0-4,3.928H3.487V29.636H27.893V70.4a6.878,6.878,0,0,0,.186,9.353A10.489,10.489,0,0,0,22.927,86.6ZM40.1,101.112H26.15v-12.2a6.973,6.973,0,0,1,13.946,0Zm20.92,0H43.583v-12.2a8.717,8.717,0,0,1,17.433,0ZM47.069,71.476a5.23,5.23,0,1,1,5.23,5.23A5.23,5.23,0,0,1,47.069,71.476ZM62.916,82.915a12.279,12.279,0,0,0-5-4.829,8.717,8.717,0,1,0-11.231,0,12.279,12.279,0,0,0-5,4.829,10.529,10.529,0,0,0-3.515-3.164A6.923,6.923,0,0,0,31.38,68.237V3.487H73.219v64.75a6.943,6.943,0,0,0-6.788,11.515A10.529,10.529,0,0,0,62.916,82.915ZM78.449,94.139v6.973H64.5v-12.2a6.973,6.973,0,0,1,13.946,0Zm17.433,6.973H81.935V94.139a6.973,6.973,0,0,1,13.946,0Zm-10.46-20.92a3.487,3.487,0,1,1,3.487,3.487A3.486,3.486,0,0,1,85.422,80.192Zm15.69,8.717H97.953a10.527,10.527,0,0,0-4-3.928,6.973,6.973,0,1,0-10.089,0A10.5,10.5,0,0,0,81.671,86.6a10.489,10.489,0,0,0-5.151-6.853,6.878,6.878,0,0,0,.186-9.353V29.636h24.406V88.909Z" transform="translate(0 0)"/>
    </g>
  </g>
  <g id="Group_117" data-name="Group 117" transform="translate(81.935 40.096)">
    <g id="Group_116" data-name="Group 116">
      <rect id="Rectangle_1629" data-name="Rectangle 1629" width="3" height="28" transform="translate(0.364 0.203)"/>
    </g>
  </g>
  <g id="Group_119" data-name="Group 119" transform="translate(92.395 40.096)">
    <g id="Group_118" data-name="Group 118">
      <rect id="Rectangle_1630" data-name="Rectangle 1630" width="4" height="28" transform="translate(-0.096 0.203)"/>
    </g>
  </g>
  <g id="Group_121" data-name="Group 121" transform="translate(8.717 40.096)">
    <g id="Group_120" data-name="Group 120">
      <rect id="Rectangle_1631" data-name="Rectangle 1631" width="4" height="28" transform="translate(-0.417 0.203)"/>
    </g>
  </g>
  <g id="Group_123" data-name="Group 123" transform="translate(19.176 40.096)">
    <g id="Group_122" data-name="Group 122">
      <rect id="Rectangle_1632" data-name="Rectangle 1632" width="3" height="28" transform="translate(0.123 0.203)"/>
    </g>
  </g>
  <g id="Group_125" data-name="Group 125" transform="translate(40.096 6.973)">
    <g id="Group_124" data-name="Group 124">
      <path id="Path_1112" data-name="Path 1112" d="M206.665,32H185.743A1.742,1.742,0,0,0,184,33.741V47.69a1.742,1.742,0,0,0,1.741,1.743h20.922a1.742,1.742,0,0,0,1.743-1.741V33.743A1.742,1.742,0,0,0,206.665,32ZM204.92,45.946H187.487V35.487H204.92Z" transform="translate(-184 -32)"/>
    </g>
  </g>
</svg>
