<svg id="noun-doc-3888030" xmlns="http://www.w3.org/2000/svg" width="32" height="39.384" viewBox="0 0 32 39.384">
  <path id="Path_764" data-name="Path 764" d="M228.731,247.461a1.231,1.231,0,1,1,0-2.461h4.923a1.231,1.231,0,1,1,0,2.461Z" transform="translate(-220.115 -227.77)" fill="#3baeda"/>
  <path id="Path_765" data-name="Path 765" d="M227.5,333.731a1.231,1.231,0,0,0,1.231,1.231h9.846a1.231,1.231,0,1,0,0-2.461h-9.846A1.231,1.231,0,0,0,227.5,333.731Z" transform="translate(-220.115 -309.116)" fill="#3baeda"/>
  <path id="Path_766" data-name="Path 766" d="M228.731,422.461a1.231,1.231,0,1,1,0-2.461H243.5a1.231,1.231,0,1,1,0,2.461Z" transform="translate(-220.115 -390.462)" fill="#3baeda"/>
  <path id="Path_767" data-name="Path 767" d="M154.5,13.552v-.01q0-.039,0-.077c0,.029,0,.058,0,.087L141.122.015A1.265,1.265,0,0,0,140.958,0H128.65A6.154,6.154,0,0,0,122.5,6.158V33.234a6.154,6.154,0,0,0,6.154,6.154h19.692a6.154,6.154,0,0,0,6.154-6.154ZM139.727,8.619a6.154,6.154,0,0,0,6.154,6.154h6.154V33.234a3.692,3.692,0,0,1-3.692,3.692H128.65a3.692,3.692,0,0,1-3.692-3.692V6.157a3.692,3.692,0,0,1,3.692-3.692h11.077Zm2.462-4.413,8.105,8.105h-4.413a3.692,3.692,0,0,1-3.692-3.692Z" transform="translate(-122.496 -0.004)" fill="#3baeda" fill-rule="evenodd"/>
</svg>
