<svg xmlns="http://www.w3.org/2000/svg" width="291.316" height="275.7" viewBox="0 0 291.316 275.7">
  <g id="Group_140" data-name="Group 140" transform="translate(-1289.823 -2260.234)">
    <g id="freepik--background-complete--inject-74" transform="translate(1296.53 2260.734)">
      <rect id="Rectangle_1416" data-name="Rectangle 1416" width="87.133" height="59.392" transform="translate(27.137)" fill="none" stroke="#ebebeb" stroke-miterlimit="10" stroke-width="1"/>
      <path id="Path_384" data-name="Path 384" d="M96.625,52.325a1.748,1.748,0,1,1-.509-1.24A1.748,1.748,0,0,1,96.625,52.325Z" transform="translate(-62.969 -48.795)" fill="#a6a6a6"/>
      <path id="Path_385" data-name="Path 385" d="M106.915,52.325a1.748,1.748,0,1,1-.509-1.24,1.748,1.748,0,0,1,.509,1.24Z" transform="translate(-66.123 -48.795)" fill="#ebebeb"/>
      <path id="Path_386" data-name="Path 386" d="M117.205,52.325a1.748,1.748,0,1,1-.509-1.24A1.748,1.748,0,0,1,117.205,52.325Z" transform="translate(-69.277 -48.795)" fill="#407bff"/>
      <line id="Line_1" data-name="Line 1" x2="87.133" transform="translate(27.137 6.949)" fill="none" stroke="#ebebeb" stroke-miterlimit="10" stroke-width="1"/>
      <rect id="Rectangle_1417" data-name="Rectangle 1417" width="50.425" height="31.978" transform="translate(0.036 138.825) rotate(-7.77)" fill="#ebebeb"/>
      <path id="Path_387" data-name="Path 387" d="M99.628,238.37c-1.755,2.205-3.558,4.334-5.333,6.512s-3.6,4.272-5.409,6.394-3.794,4.4-5.7,6.588l-.166.215-5.077,5.777-.257.27-.305-.194q-3.225-2.081-6.429-4.223l-.229-.146c-2.427-1.6-4.855-3.2-7.261-4.855-2.309-1.547-4.619-3.128-6.935-4.7s-4.6-3.19-6.887-4.855c2.372,1.387,4.716,2.809,7.074,4.217s4.7,2.878,7.039,4.341q3.911,2.434,7.823,4.952h0q2.934,1.866,5.853,3.745c1.54-1.727,3.086-3.468,4.633-5.174h0q3.093-3.468,6.242-6.859,2.774-3.051,5.617-6.054C95.835,242.337,97.742,240.319,99.628,238.37Z" transform="translate(-49.64 -106.353)" fill="#fff"/>
      <path id="Path_388" data-name="Path 388" d="M73.682,268.69l-.055.062c-.229.264-.458.52-.694.777-1.11,1.228-2.254,2.413-3.426,3.579-1.387,1.429-2.892,2.816-4.369,4.2s-2.989,2.7-4.529,4.015-3.1,2.6-4.73,3.807c1.332-1.533,2.739-2.982,4.161-4.411s2.906-2.816,4.376-4.161,2.989-2.719,4.536-4.029c1.221-1.04,2.476-2.081,3.759-3.065l.9-.694Z" transform="translate(-51.552 -115.646)" fill="#fff"/>
      <path id="Path_389" data-name="Path 389" d="M118.057,277.725c-1.893-.728-3.745-1.553-5.548-2.406s-3.641-1.748-5.444-2.656-3.579-1.872-5.333-2.871c-1.436-.811-2.857-1.637-4.244-2.524L96.6,266.7l-.069-.049a.193.193,0,0,0,.083,0l1.047.423c1.5.6,2.982,1.269,4.445,1.949,1.838.853,3.641,1.748,5.444,2.663s3.579,1.879,5.333,2.878S116.364,276.6,118.057,277.725Z" transform="translate(-64.011 -115.021)" fill="#fff"/>
      <rect id="Rectangle_1418" data-name="Rectangle 1418" width="29.107" height="45.897" transform="translate(227.807 45.926) rotate(-80.53)" fill="#ebebeb"/>
      <path id="Path_390" data-name="Path 390" d="M430.322,80.377c-2.122,1.443-4.265,2.774-6.394,4.224s-4.279,2.774-6.429,4.1-4.487,2.774-6.727,4.161l-.208.132L404.6,96.647l-.3.173-.215-.257c-1.491-1.8-2.968-3.6-4.452-5.4l-.153-.187c-1.678-2.039-3.35-4.085-5.014-6.158s-3.162-3.967-4.744-5.957-3.135-4.015-4.674-6.068c1.7,1.824,3.343,3.717,5.014,5.548s3.308,3.773,4.952,5.68c1.824,2.081,3.648,4.251,5.458,6.408h0l4.078,4.855c1.8-1.089,3.613-2.185,5.416-3.253h0q3.62-2.164,7.247-4.293,3.253-1.893,6.519-3.752C425.932,82.8,428.124,81.556,430.322,80.377Z" transform="translate(-152.439 -55.605)" fill="#fff"/>
      <path id="Path_391" data-name="Path 391" d="M398.431,99.257h-.062c-.271.166-.541.333-.811.485q-1.949,1.158-3.946,2.192c-1.623.86-3.273,1.664-4.931,2.462s-3.322,1.553-5.014,2.275-3.4,1.387-5.146,2.032c1.574-.971,3.19-1.852,4.813-2.712s3.287-1.664,4.938-2.462,3.329-1.553,5.021-2.282c1.352-.576,2.719-1.137,4.1-1.651l.971-.347Z" transform="translate(-150.438 -63.714)" fill="#fff"/>
      <path id="Path_392" data-name="Path 392" d="M436.527,116.951c-1.456-1.137-2.843-2.358-4.2-3.592s-2.691-2.5-4.016-3.78-2.608-2.594-3.863-3.932c-1.033-1.089-2.039-2.191-3.01-3.343l-.617-.728a.061.061,0,0,0-.049-.055.326.326,0,0,0,.062.042l.8.652c1.144.929,2.247,1.907,3.343,2.892,1.387,1.234,2.691,2.5,4.009,3.787s2.608,2.594,3.863,3.932S435.348,115.522,436.527,116.951Z" transform="translate(-163.387 -64.41)" fill="#fff"/>
    </g>
    <g id="freepik--Floor--inject-74" transform="translate(1289.823 2498.761)">
      <path id="Path_393" data-name="Path 393" d="M39.97,391.577l36.416-.173,36.416-.062,72.826-.111,72.826.111,36.416.062,36.416.173-36.416.166-36.416.062-72.826.118-72.826-.118-36.416-.062Z" transform="translate(-39.97 -391.23)" fill="#263238"/>
    </g>
    <g id="freepik--Character--inject-74" transform="translate(1306.102 2272.685)">
      <path id="Path_412" data-name="Path 412" d="M64.3,425.5c1.5.479,44.107.035,45.723-1.013.617-.4.908-6.6,1.054-14.12.035-1.623.055-3.294.069-5,.1-11.048-.049-22.775-.049-22.775l-28.483.222.839,22.768.18,5s-16.277,7.469-17.913,8.8S62.807,425.012,64.3,425.5Z" transform="translate(-63.502 -162.505)" fill="#f7a9a0"/>
      <path id="Path_413" data-name="Path 413" d="M64.3,433.239c1.5.485,44.107,0,45.723-1.013.617-.4.915-6.6,1.054-14.113.035-1.623.062-3.3.069-5s0-3.523,0-5.264H83.217l.2,5.472.187,4.993s-16.249,7.476-17.886,8.808S62.807,432.754,64.3,433.239Z" transform="translate(-63.502 -170.247)" fill="#ebebeb"/>
      <path id="Path_414" data-name="Path 414" d="M64.113,435.6c1.5.485,44.385.035,45.973-1.019.756-.485,1.04-9.6,1.13-19.224l-27.872.215.18,5.028s-16.332,7.511-17.99,8.849S62.609,435.118,64.113,435.6Z" transform="translate(-63.443 -172.549)" fill="#ffcd00"/>
      <path id="Path_415" data-name="Path 415" d="M65.219,441.887c7.178-.257,36.167-.6,43.289-.3.055,0,.055.042,0,.049-7.115.4-36.1.506-43.289.368C65.067,442,65.067,441.894,65.219,441.887Z" transform="translate(-63.952 -180.552)" fill="#263238"/>
      <path id="Path_416" data-name="Path 416" d="M90.836,420.529c2.823-.555,6.283-.159,8.468,1.831.083.076,0,.194-.118.166a40.039,40.039,0,0,0-8.322-1.637.181.181,0,0,1-.028-.361Z" transform="translate(-71.787 -174.063)" fill="#263238"/>
      <path id="Path_417" data-name="Path 417" d="M87.914,422.337c2.823-.562,6.283-.167,8.461,1.831.09.076,0,.194-.118.167a39.518,39.518,0,0,0-8.343-1.609.194.194,0,1,1,0-.388Z" transform="translate(-70.883 -174.616)" fill="#263238"/>
      <path id="Path_418" data-name="Path 418" d="M85.01,424.139c2.816-.555,6.276-.159,8.461,1.831.083.076,0,.194-.118.166a40.078,40.078,0,0,0-8.322-1.644.18.18,0,0,1-.021-.354Z" transform="translate(-70.011 -175.169)" fill="#263238"/>
      <path id="Path_419" data-name="Path 419" d="M82.066,425.9c2.823-.555,6.283-.16,8.468,1.831.083.083,0,.2-.118.173a39.6,39.6,0,0,0-8.322-1.644.181.181,0,0,1-.028-.361Z" transform="translate(-69.099 -175.709)" fill="#263238"/>
      <path id="Path_420" data-name="Path 420" d="M84.39,414.892c2.018,1.533,4.626,2.143,6.935,2.982a.354.354,0,0,0,.437-.361.07.07,0,0,0,.069-.1,15.125,15.125,0,0,0-4.425-6.436c-1.186-.978-3.266-1.644-4.362-.1S83.218,414,84.39,414.892Zm-.742-2.268c-.534-3.093,2.816-1.5,3.662-.742a15.774,15.774,0,0,1,1.519,1.574,44.955,44.955,0,0,1,2.663,3.7c-1.124-.485-2.282-.867-3.426-1.3C86.707,415.35,83.94,414.331,83.648,412.625Z" transform="translate(-69.322 -170.895)" fill="#263238"/>
      <path id="Path_421" data-name="Path 421" d="M105.043,413.734c-.693-1.755-2.878-1.6-4.265-.922a15.111,15.111,0,0,0-5.784,5.208.076.076,0,0,0,.042.118.347.347,0,0,0,.34.451c2.476-.264,5.153-.243,7.476-1.262C104.183,416.73,105.708,415.391,105.043,413.734Zm-6.02,3.682c-1.214.16-2.427.264-3.634.465a41.618,41.618,0,0,1,3.468-2.968,16.159,16.159,0,0,1,1.845-1.2c1.006-.534,4.633-1.3,3.391,1.588C103.4,416.889,100.472,417.229,99.023,417.416Z" transform="translate(-73.108 -171.623)" fill="#263238"/>
      <path id="Path_422" data-name="Path 422" d="M127.853,206.67s-8.322,70-8.489,70.946c0,.125,2.358,74.816,2.358,74.816H90.64s-.839-65.454.312-76.522c1.47-14.12,10.736-69.24,10.736-69.24Z" transform="translate(-71.688 -108.588)" fill="#37474f"/>
      <path id="Path_423" data-name="Path 423" d="M120.583,407.535c-4.778-.1-3.405-.139-8.183-.18-2.337,0-17.7-.16-19.876.2-.049,0-.049.09,0,.1,2.178.368,17.539.229,19.876.208,4.778-.049,3.405-.083,8.183-.187a.069.069,0,0,0,0-.139Z" transform="translate(-72.344 -170.084)" fill="#263238"/>
      <path id="Path_424" data-name="Path 424" d="M126.063,272.967c.437-3.953,1.006-7.9,1.519-11.845q1.567-11.908,3.169-23.836c1.214-9.016,2.5-18,3.78-26.991,0-.111.187-.1.173,0q-1.443,12.046-2.92,24.086c-.985,7.948-2.032,15.9-3.072,23.836s-2.386,15.777-2.351,23.739c0,4.009.194,8.01.305,12.019s.229,8.01.333,12.018c.243,9.071.589,28.476.5,37.554a.09.09,0,1,1-.18,0c-.555-8.086-.728-26.52-.992-34.62s-.548-16.027-.694-24.044a91.135,91.135,0,0,1,.43-11.915Z" transform="translate(-82.491 -109.674)" fill="#263238"/>
      <path id="Path_425" data-name="Path 425" d="M168.558,415.1c1.5-.437,36.534-24.71,37.283-26.478.291-.693-2.947-5.978-7.039-12.282-.888-1.387-1.8-2.774-2.774-4.161-6.117-9.2-12.816-18.829-12.816-18.829L159.73,369.523,173.191,387.9l2.954,4.036s-9.258,15.257-9.869,17.338S167.047,415.523,168.558,415.1Z" transform="translate(-92.954 -153.543)" fill="#f7a9a0"/>
      <path id="Path_426" data-name="Path 426" d="M171.394,421.491c1.5-.437,36.534-24.71,37.283-26.471.291-.693-2.94-5.985-7.046-12.282q-1.311-2.081-2.774-4.161c-.978-1.387-1.956-2.934-2.92-4.376l-23.142,15.68,3.232,4.411,2.954,4.036s-9.231,15.264-9.848,17.345S169.889,421.914,171.394,421.491Z" transform="translate(-95.789 -159.934)" fill="#ebebeb"/>
      <path id="Path_427" data-name="Path 427" d="M171.278,423.488c1.519-.437,36.756-24.849,37.5-26.624.347-.825-4.529-8.53-9.848-16.554l-22.955,15.812,2.968,4.085s-9.293,15.354-9.931,17.393S169.766,423.932,171.278,423.488Z" transform="translate(-95.749 -161.806)" fill="#407bff"/>
      <path id="Path_428" data-name="Path 428" d="M171.642,429.156c5.8-4.237,29.62-20.805,35.674-24.523.056-.035.076,0,0,.035-5.659,4.327-29.606,20.674-35.633,24.585C171.586,429.364,171.524,429.274,171.642,429.156Z" transform="translate(-96.585 -169.257)" fill="#263238"/>
      <path id="Path_429" data-name="Path 429" d="M180.87,406.45c2.018-2.081,5.111-3.662,8.031-3.232.111,0,.09.173,0,.2a39.785,39.785,0,0,0-7.823,3.315.18.18,0,0,1-.208-.284Z" transform="translate(-99.419 -168.806)" fill="#263238"/>
      <path id="Path_430" data-name="Path 430" d="M179.46,409.541c2.018-2.081,5.111-3.655,8.031-3.232.118,0,.09.18,0,.208a40.186,40.186,0,0,0-7.823,3.308.18.18,0,0,1-.208-.284Z" transform="translate(-98.987 -169.754)" fill="#263238"/>
      <path id="Path_431" data-name="Path 431" d="M178.044,412.712c2.025-2.039,5.111-3.655,8.031-3.232.118,0,.09.18,0,.208A39.784,39.784,0,0,0,178.252,413a.18.18,0,0,1-.208-.291Z" transform="translate(-98.549 -170.726)" fill="#263238"/>
      <path id="Path_432" data-name="Path 432" d="M176.631,415.851c2.025-2.046,5.111-3.662,8.038-3.232.111,0,.083.173,0,.2a39.526,39.526,0,0,0-7.8,3.315.185.185,0,1,1-.236-.284Z" transform="translate(-98.113 -171.687)" fill="#263238"/>
      <path id="Path_433" data-name="Path 433" d="M172.665,405.983c2.524.139,5.028-.825,7.441-1.442a.347.347,0,0,0,.159-.541.076.076,0,0,0,0-.125A15.209,15.209,0,0,0,173,401.032c-1.533-.139-3.627.472-3.669,2.365C169.288,405.165,171.181,405.9,172.665,405.983Zm-1.886-1.463c-2.178-2.261,1.484-2.823,2.615-2.67a16.3,16.3,0,0,1,2.15.479,42.039,42.039,0,0,1,4.279,1.567c-1.2.229-2.372.562-3.565.839C174.836,405.061,171.979,405.768,170.779,404.52Z" transform="translate(-95.896 -168.152)" fill="#263238"/>
      <path id="Path_434" data-name="Path 434" d="M190.118,392.122c-1.56-1.061-3.273.291-4.043,1.623a15.084,15.084,0,0,0-1.886,7.573.076.076,0,0,0,.1.076.354.354,0,0,0,.534.18c1.9-1.609,4.161-3.093,5.486-5.236C191.089,395.083,191.6,393.12,190.118,392.122Zm-2.913,6.422c-.915.818-1.866,1.581-2.774,2.427.375-1.477.694-2.961,1.2-4.4a16.382,16.382,0,0,1,.86-2.032c.527-1.006,3.1-3.676,3.689-.589C190.528,395.651,188.295,397.573,187.206,398.543Z" transform="translate(-100.449 -165.31)" fill="#263238"/>
      <path id="Path_435" data-name="Path 435" d="M106.7,206.67s4.855,14.917,10.313,22.442c0,0,1.429,55.162,3.655,61.5,3.7,10.493,32.422,52.929,32.422,52.929l26.319-18.184S151.882,285.515,150.44,281.7c-.95-2.531-3.738-46.257-3.336-47.353,4.855-13.232-2.448-27.678-2.448-27.678Z" transform="translate(-76.7 -108.588)" fill="#37474f"/>
      <path id="Path_436" data-name="Path 436" d="M193.242,369.815c-3.988,2.628-2.885,1.817-6.838,4.494-1.942,1.3-14.661,9.917-16.249,11.457a.049.049,0,0,0,.055.076c2-.936,14.564-9.772,16.478-11.1,3.9-2.774,2.774-2,6.63-4.8C193.388,369.877,193.311,369.766,193.242,369.815Z" transform="translate(-96.145 -158.586)" fill="#263238"/>
      <path id="Path_437" data-name="Path 437" d="M159.547,233.713c.4-1.72.825-3.433,1.089-5.181a25.909,25.909,0,0,0,.222-5.333,52.507,52.507,0,0,0-1.949-10.645c-.236-.867-.485-1.734-.742-2.6-.049-.153.2-.215.243-.062a71.772,71.772,0,0,1,2.684,10.4,29.009,29.009,0,0,1-.27,10.264c-.694,3.468-1.734,6.88-1.6,10.479.069,1.866,2.289,36.52,2.289,38.323a14.564,14.564,0,0,0,.694,5.215,26.76,26.76,0,0,0,2.448,4.536c.95,1.553,1.907,3.093,2.871,4.633,3.793,6.061,12.483,18.33,16.519,24.224l1.547,2.24c.055.076-.069.146-.125.069-4.251-5.86-13.177-18.031-17.06-24.148-1.921-2.982-3.884-5.971-5.631-9.064A12.92,12.92,0,0,1,161.1,282.4c-.222-1.671-2.566-41.8-2.427-43.608A34.537,34.537,0,0,1,159.547,233.713Z" transform="translate(-92.473 -109.548)" fill="#263238"/>
      <path id="Path_438" data-name="Path 438" d="M142.794,213.989c.659,2.684.562,6.04,2.469,8.253a6.6,6.6,0,0,0,3.71,1.928,17.892,17.892,0,0,0,4.855.264.062.062,0,0,1,0,.118c-2.885.922-6.887.77-9.071-1.609a7.331,7.331,0,0,1-1.664-3.974,37.265,37.265,0,0,1-.4-4.972.062.062,0,0,1,.1-.007Z" transform="translate(-87.731 -110.823)" fill="#263238"/>
      <path id="Path_439" data-name="Path 439" d="M121.252,239.092a.215.215,0,0,1,.423,0c.111,1.221.09,2.448.132,3.669s.055,2.316.09,3.468c.062,2.386.111,4.764.166,7.15.111,4.764.25,9.522.451,14.286s.409,9.515.652,14.272c.125,2.379.264,4.758.4,7.129a51.576,51.576,0,0,0,.694,6.845,40.765,40.765,0,0,0,5.16,13.177c.062.09-.083.166-.153.076a31.284,31.284,0,0,1-5.382-11.422c-1.075-4.452-1.193-9.064-1.449-13.614-.541-9.612-.895-19.224-1.137-28.843-.062-2.7-.125-5.409-.132-8.114v-3.953C121.169,241.9,121.141,240.472,121.252,239.092Z" transform="translate(-81.134 -118.471)" fill="#263238"/>
      <path id="Path_440" data-name="Path 440" d="M114.165,235.8a59.542,59.542,0,0,1,9.14,4.064.1.1,0,0,1-.083.18c-3.079-1.262-6.242-2.469-9.224-3.891C113.763,236.048,113.923,235.729,114.165,235.8Z" transform="translate(-78.902 -117.514)" fill="#263238"/>
      <path id="Path_441" data-name="Path 441" d="M112.9,206.753c0-.1.194-.125.194,0a91.764,91.764,0,0,0,.52,9.82c.139,1.512,1.387,9.876,4.161,9.265.458-.1.693-.534.77-1.193a10.188,10.188,0,0,0-.368-2.566c-.305-1.755-.548-3.509-.693-5.278a45.84,45.84,0,0,1,.111-9.9.09.09,0,1,1,.18,0,85.676,85.676,0,0,0,.839,13.655c.34,2.178,1.491,5.451-.895,5.784s-4-5.146-4.3-6.644a47.936,47.936,0,0,1-.52-12.948Z" transform="translate(-78.535 -108.588)" fill="#263238"/>
      <path id="Path_442" data-name="Path 442" d="M119.618,234.538a13.961,13.961,0,0,1,.624,1.734,3.759,3.759,0,0,1,.257,1.387c0,.1-.139.1-.194.042a4.952,4.952,0,0,1-.638-1.387c-.208-.534-.43-1.068-.624-1.609C118.917,234.378,119.465,234.191,119.618,234.538Z" transform="translate(-80.477 -117.072)" fill="#263238"/>
      <path id="Path_443" data-name="Path 443" d="M87.529,154.771c-3.738,6.242-17.7,33.6-14.481,41.389,1.983,4.792,7.518,3,10.541,1.207,3.544-2.081,9.016-32.831,9.4-38.955C93.32,152.594,91.205,148.613,87.529,154.771Z" transform="translate(-66.24 -91.732)" fill="#f7a9a0"/>
      <path id="Path_444" data-name="Path 444" d="M75.68,179.539l16.228-4a156.04,156.04,0,0,0,2.219-18.281c.52-9.369-2.857-8.2-9.168,1.768A87.833,87.833,0,0,0,75.68,179.539Z" transform="translate(-67.193 -91.478)" fill="#ffcd00"/>
      <path id="Path_445" data-name="Path 445" d="M84,170.953a6.519,6.519,0,0,0-.437,1.845,6.935,6.935,0,0,0,.895-1.664,6.484,6.484,0,0,0,.437-1.831A6.936,6.936,0,0,0,84,170.953Zm8.953-18.947h0a5.548,5.548,0,0,0-.291,1.387,6.817,6.817,0,0,0,.9-1.664,2.21,2.21,0,0,0,.076-.229A7.323,7.323,0,0,0,92.95,152.006Zm-.763,9.938a6.935,6.935,0,0,0-1.581,1,7.317,7.317,0,0,0,3.419-1.526A6.935,6.935,0,0,0,92.187,161.944Z" transform="translate(-69.608 -91.679)" fill="#fff"/>
      <path id="Path_446" data-name="Path 446" d="M92.227,182.067a122.345,122.345,0,0,1-13.246,3.3c-.055,0-.062-.076,0-.09,1.082-.208,8.26-2.3,13.26-3.308C92.282,181.991,92.282,182.046,92.227,182.067Z" transform="translate(-68.191 -101.017)" fill="#263238"/>
      <path id="Path_447" data-name="Path 447" d="M98.05,157.344a156.041,156.041,0,0,1-2.219,18.281l-7.351,1.81L97,151.13C97.856,151.733,98.245,153.814,98.05,157.344Z" transform="translate(-71.116 -91.565)" opacity="0.1"/>
      <path id="Path_448" data-name="Path 448" d="M100.787,197.052l42-8.322s-13.822-28.434-34.121-39.44c-4.7-2.552-11.956-.694-12.684,3.78C93.491,168.479,100.787,197.052,100.787,197.052Z" transform="translate(-73.257 -90.647)" fill="#ffcd00"/>
      <path id="Path_449" data-name="Path 449" d="M107.386,160.807a6.31,6.31,0,0,0-.444,1.838,6.548,6.548,0,0,0,.9-1.657,6.665,6.665,0,0,0,.444-1.838A6.936,6.936,0,0,0,107.386,160.807Zm-3.807,25.23a6.684,6.684,0,0,0-.451,1.831,6.38,6.38,0,0,0,.9-1.664,6.8,6.8,0,0,0,.444-1.831A6.56,6.56,0,0,0,103.579,186.037Zm14.293-2.615a6.782,6.782,0,0,0-.444,1.838,7.038,7.038,0,0,0,.908-1.658,6.539,6.539,0,0,0,.437-1.831A6.839,6.839,0,0,0,117.872,183.423Zm-21.5-30.514c0,.173-.055.34-.069.52a6.816,6.816,0,0,0,.9-1.664.61.61,0,0,0,0-.1,4.855,4.855,0,0,0-.839,1.255Zm29.4,11.72c-.173-.09-.347-.16-.52-.236a6.541,6.541,0,0,0-1.831-.437,6.4,6.4,0,0,0,1.651.9,8.815,8.815,0,0,0,1.2.347c-.166-.187-.333-.381-.506-.569Zm2.205,23.392a6.43,6.43,0,0,0-1.831-.437,7.233,7.233,0,0,0,3.468,1.332,7.032,7.032,0,0,0-1.644-.888ZM102.851,170.87a6.691,6.691,0,0,0-1.831-.458,6.678,6.678,0,0,0,1.657.908,6.534,6.534,0,0,0,1.838.437,6.54,6.54,0,0,0-1.671-.881Zm33.982,10.638a6.776,6.776,0,0,0-.985-1.609,7.3,7.3,0,0,0,1.519,3.419,6.831,6.831,0,0,0-.506-1.8Zm-20.008-13.177a6.936,6.936,0,0,0-.985-1.616,6.407,6.407,0,0,0,.541,1.817,6.665,6.665,0,0,0,.978,1.609,6.935,6.935,0,0,0-.506-1.775ZM126.77,176a6.409,6.409,0,0,0-1.609.978,6.318,6.318,0,0,0,1.8-.541,6.241,6.241,0,0,0,1.609-.978,6.315,6.315,0,0,0-1.775.576Zm-15.389,16.124a6.428,6.428,0,0,0-1.609.985,6.547,6.547,0,0,0,1.8-.541,6.643,6.643,0,0,0,1.609-.985A6.547,6.547,0,0,0,111.381,192.119ZM95.825,161.993l-.4.2v.472a4.809,4.809,0,0,0,.6-.229,6.692,6.692,0,0,0,1.609-.985A6.935,6.935,0,0,0,95.825,161.993ZM110,177.736a6.241,6.241,0,0,0-1.609.985,6.32,6.32,0,0,0,1.8-.541,6.241,6.241,0,0,0,1.609-.985,6.873,6.873,0,0,0-1.775.541Zm4.806-23.371a.82.82,0,0,0-.125.09.949.949,0,0,0,.194-.035Z" transform="translate(-73.246 -91.728)" fill="#fff"/>
      <path id="Path_450" data-name="Path 450" d="M110.428,131.953c8.551-2.7,30.778-8.731,34.357-15.431,4.7-8.794,1.276-28.489-1.1-31.8-1.3-1.824-13.725,3.135-15.028,5.146s1.061,17.289.589,19.023-15.833,11.27-22.581,16.776C98.16,132.647,103.715,134.075,110.428,131.953Z" transform="translate(-75.366 -71.092)" fill="#f7a9a0"/>
      <path id="Path_451" data-name="Path 451" d="M132.816,139.238,118.884,130s-5.118,3.655-12.365,9.619-6.8,9.709,4.855,7.629A70.668,70.668,0,0,0,132.816,139.238Z" transform="translate(-75.174 -85.089)" fill="#ffcd00"/>
      <path id="Path_452" data-name="Path 452" d="M125.077,141.187a6.54,6.54,0,0,0-1.831-.437,6.972,6.972,0,0,0,1.651.9,6.589,6.589,0,0,0,1.838.437A6.775,6.775,0,0,0,125.077,141.187Zm-12.192,3.835a6.561,6.561,0,0,0-.985-1.609,6.657,6.657,0,0,0,.534,1.81,6.561,6.561,0,0,0,.985,1.609,6.581,6.581,0,0,0-.534-1.81Z" transform="translate(-78.294 -88.384)" fill="#fff"/>
      <path id="Path_453" data-name="Path 453" d="M123.895,133.676a122.636,122.636,0,0,1,11.415,7.518c.042,0,0,.1-.062.062-.888-.694-7.289-4.515-11.415-7.511C123.784,133.71,123.846,133.641,123.895,133.676Z" transform="translate(-81.946 -86.213)" fill="#263238"/>
      <path id="Path_454" data-name="Path 454" d="M115.59,154.5a11.906,11.906,0,0,1,1.789-.513,10.943,10.943,0,0,1,1.852-.277,7.476,7.476,0,0,1-1.775.61A7.01,7.01,0,0,1,115.59,154.5Z" transform="translate(-79.425 -92.356)" fill="#263238"/>
      <path id="Path_455" data-name="Path 455" d="M116.93,155.015a11.32,11.32,0,0,1,1.387-.825,1.775,1.775,0,0,1-.624.534,2.719,2.719,0,0,1-.763.291Z" transform="translate(-79.836 -92.503)" fill="#263238"/>
      <path id="Path_456" data-name="Path 456" d="M77.916,210.316c-5.035-.444-6.027-7.788-3.468-10.236,6.387-6.131,19.612-10.4,24.849-11.852,2.33-.638,19.418,4.938,17.3,8.662C113.167,202.875,88.062,211.218,77.916,210.316Z" transform="translate(-66.399 -102.92)" fill="#f7a9a0"/>
      <path id="Path_457" data-name="Path 457" d="M111.154,184.965a29,29,0,0,1,1.623-11.1,31.238,31.238,0,0,1,5.014-7.982c1.963-2.115,11.519-9.709,13.413-7.441,1.713,2.081-7.33,7.552-7.33,7.552s8.634-6.346,10.236-3.468-9.425,7.7-9.425,7.7,9.016-6.318,10.2-3.1c.9,2.427-8.849,7.372-8.849,7.372s7.788-5.375,8.815-2.92c1.144,2.719-7.573,7.851-7.573,7.851,1.006.652,2.906,5.3.541,8.9C127.41,188.918,111.154,184.965,111.154,184.965Z" transform="translate(-78.055 -93.679)" fill="#f7a9a0"/>
      <path id="Path_458" data-name="Path 458" d="M125,169.679c.992-.777,1.983-1.574,3.038-2.268s2.129-1.345,3.246-1.935a21.541,21.541,0,0,1,4.543-1.886,46.113,46.113,0,0,0-7.629,4.119c-1.054.694-2.136,1.325-3.19,2.011C125,169.741,125,169.7,125,169.679Z" transform="translate(-82.309 -95.384)" fill="#263238"/>
      <path id="Path_459" data-name="Path 459" d="M128.5,175.61c1.3-.943,2.566-1.928,3.911-2.816s2.684-1.6,4.085-2.386c.1-.062.1,0,0,.083-1.387.839-2.559,1.727-3.918,2.587s-2.739,1.664-4.057,2.566C128.5,175.666,128.484,175.624,128.5,175.61Z" transform="translate(-83.379 -97.466)" fill="#263238"/>
      <path id="Path_460" data-name="Path 460" d="M130.644,181.454A37.676,37.676,0,0,1,137,177.473c.111-.055.1.042,0,.111-2.081,1.234-3.835,2.33-6.283,3.939C130.657,181.551,130.6,181.488,130.644,181.454Z" transform="translate(-84.034 -99.634)" fill="#263238"/>
      <path id="Path_461" data-name="Path 461" d="M142.1,166.981a4.618,4.618,0,0,0,.784-1.172,1.859,1.859,0,0,0,0-1.269h-.042a1.47,1.47,0,0,1-.25,1.387,6.72,6.72,0,0,1-.8,1.026,9.519,9.519,0,0,1-.985.922,11.908,11.908,0,0,1-1.054.818h0a4.716,4.716,0,0,1,1.99-.5,2.08,2.08,0,0,1,.971.132,1.248,1.248,0,0,1,.617,1.533,2.351,2.351,0,0,1-.506.742,18.22,18.22,0,0,1-1.442,1.484c-.284.257-.576.506-.874.742s-.617.458-.895.694c0,0,.042.062.062.056.264-.076,2.2-.825,3.051-.541a1.11,1.11,0,0,1,.811,1,2.226,2.226,0,0,1-.43,1.387,16.738,16.738,0,0,1-1.63,1.949h0c.444-.437,1.387-1.387,1.775-1.866a2.226,2.226,0,0,0,.52-1.436,1.387,1.387,0,0,0-.694-1.165,2.254,2.254,0,0,0-1.449-.069,16.174,16.174,0,0,0-1.72.562c.222-.139,1.241-.908,1.533-1.158a16,16,0,0,0,1.63-1.588,1.692,1.692,0,0,0,.5-1.775,1.54,1.54,0,0,0-1.5-.936,3.939,3.939,0,0,0-1.477.277c.132-.083.264-.173.388-.27a7.364,7.364,0,0,0,1.123-.964Z" transform="translate(-86.787 -95.675)" fill="#263238"/>
      <path id="Path_462" data-name="Path 462" d="M77.67,199.991a25.921,25.921,0,0,1,3-2.3,35.048,35.048,0,0,1,3.2-1.921,32.358,32.358,0,0,1,3.412-1.581A29.018,29.018,0,0,1,90.847,193c-1.137.52-2.289,1.006-3.405,1.553s-2.233,1.089-3.329,1.671-2.178,1.193-3.26,1.81S78.724,199.311,77.67,199.991Z" transform="translate(-67.803 -104.398)" fill="#263238"/>
      <path id="Path_463" data-name="Path 463" d="M97.874,153.647c2.309.049,5.222-4.466,6.124-7.5a37.19,37.19,0,0,0-1.262-4.161c-.451-1.429-.922-3.031-1.241-4.529-.062-.305-8.884,4.293-8.884,4.293a24.474,24.474,0,0,1,2.143,5.548,4.163,4.163,0,0,1,.069.631.6.6,0,0,0,0,.1C94.892,149.264,95.655,153.6,97.874,153.647Z" transform="translate(-72.382 -87.369)" fill="#f7a9a0"/>
      <path id="Path_464" data-name="Path 464" d="M95.806,147.938a6.005,6.005,0,0,1-.971.16.6.6,0,0,1,0-.1,4.161,4.161,0,0,0-.069-.631,24.612,24.612,0,0,0-2.136-5.548s7.15-3.731,8.62-4.244C101.32,139.366,101.306,146.627,95.806,147.938Z" transform="translate(-72.388 -87.409)" fill="#263238"/>
      <path id="Path_465" data-name="Path 465" d="M94.508,120.035c2.233,2.774,4.251,12.539,2.83,15.472-2.081,4.258-7.268,6.685-11.346,3.787-3.953-2.774-6.353-15.59-4.591-18.447C83.987,116.643,91.207,115.95,94.508,120.035Z" transform="translate(-68.767 -81.199)" fill="#f7a9a0"/>
      <path id="Path_466" data-name="Path 466" d="M93.11,134s.055,0,.062.049c.118.659.368,1.387,1.006,1.491v.042C93.436,135.644,93.117,134.694,93.11,134Z" transform="translate(-72.535 -86.315)" fill="#263238"/>
      <path id="Path_467" data-name="Path 467" d="M93.551,132.837c1.04-.305,1.574,1.8.6,2.081S92.677,133.093,93.551,132.837Z" transform="translate(-72.533 -85.949)" fill="#263238"/>
      <path id="Path_468" data-name="Path 468" d="M87.37,135.3s-.042.049,0,.069c.187.652.284,1.387-.25,1.782v.042C87.793,136.909,87.647,135.883,87.37,135.3Z" transform="translate(-70.699 -86.714)" fill="#263238"/>
      <path id="Path_469" data-name="Path 469" d="M86.118,134.527c-1.068.187-.617,2.309.374,2.136S87.02,134.374,86.118,134.527Z" transform="translate(-70.204 -86.474)" fill="#263238"/>
      <path id="Path_470" data-name="Path 470" d="M93.688,130.235a7.723,7.723,0,0,1-.888.055,1.442,1.442,0,0,1-.922-.111.465.465,0,0,1-.153-.541,1.144,1.144,0,0,1,1.013-.555,1.651,1.651,0,0,1,1.165.284.485.485,0,0,1-.215.867Z" transform="translate(-72.101 -84.804)" fill="#263238"/>
      <path id="Path_471" data-name="Path 471" d="M84.528,132.559a7.094,7.094,0,0,0,.777-.43,1.449,1.449,0,0,0,.694-.583.458.458,0,0,0-.16-.541,1.144,1.144,0,0,0-1.151.069,1.65,1.65,0,0,0-.832.874.485.485,0,0,0,.673.61Z" transform="translate(-69.688 -85.36)" fill="#263238"/>
      <path id="Path_472" data-name="Path 472" d="M95.3,142.261c-.118.194-.215.444-.451.52a1.782,1.782,0,0,1-.742,0v.042a.908.908,0,0,0,.922.146.694.694,0,0,0,.368-.694A.059.059,0,0,0,95.3,142.261Z" transform="translate(-72.842 -88.841)" fill="#263238"/>
      <path id="Path_473" data-name="Path 473" d="M92.083,136.9a2.268,2.268,0,0,1-1.234,1.387,2.775,2.775,0,0,1-.791.236.573.573,0,0,1-.153,0h-.153a.173.173,0,0,1-.166-.111h0a.208.208,0,0,1,0-.069h0v-.062c-.139-.492-.284-1.269-.284-1.269-.16.139-.985.791-1.04.527a34.675,34.675,0,0,1-.832-6.935.062.062,0,0,1,.125,0c.485,2.081.6,4.279,1.054,6.394a4.1,4.1,0,0,1,.964-.583c.076,0,.25,1.5.333,1.727a3.169,3.169,0,0,0,2.081-1.29C92.042,136.8,92.1,136.837,92.083,136.9Z" transform="translate(-70.794 -85.255)" fill="#263238"/>
      <path id="Path_474" data-name="Path 474" d="M91.65,140.983a2.559,2.559,0,0,0,1.214.479,1.172,1.172,0,0,0,.694-.153c.451-.27.333-.728.132-1.082a2.7,2.7,0,0,0-.4-.527,3.287,3.287,0,0,1-1.644,1.283Z" transform="translate(-72.088 -88.062)" fill="#263238"/>
      <path id="Path_475" data-name="Path 475" d="M93.4,141.694a1.172,1.172,0,0,0,.694-.153c.451-.27.333-.728.132-1.082A1.193,1.193,0,0,0,93.4,141.694Z" transform="translate(-72.622 -88.295)" fill="#ff9abb"/>
      <path id="Path_476" data-name="Path 476" d="M97.907,125.634c-2.462,1.1-4.855-1.443-5.16-4.078,0,0-6.394,3.322-8.669-1.956a5.617,5.617,0,0,1-3.468,4v2.261c-.763.049-2.205-1.644-1.075-3.787a6.824,6.824,0,0,1,.541-5.063,3.9,3.9,0,0,1,3.752-1.983,5.909,5.909,0,0,1,3.689-2.469,5.049,5.049,0,0,1,4.425,1.311s3.558-.569,4.979,1.588a5.229,5.229,0,0,1,.777,4.161,3.61,3.61,0,0,1,1.477,2.774C99.315,123.838,98.642,125.322,97.907,125.634Z" transform="translate(-68.247 -79.717)" fill="#263238"/>
      <path id="Path_477" data-name="Path 477" d="M86.23,122a6.665,6.665,0,0,0,.465,1.325,5.8,5.8,0,0,0,.694,1.186,3.655,3.655,0,0,0,2.261,1.387,5.79,5.79,0,0,0,2.7-.277c.437-.166.881-.312,1.3-.506s.839-.416,1.269-.61c-.388.257-.8.5-1.2.756a10.423,10.423,0,0,1-1.29.6,5.784,5.784,0,0,1-2.836.361,3.807,3.807,0,0,1-2.406-1.547A5.763,5.763,0,0,1,86.23,122Z" transform="translate(-70.427 -82.637)" fill="#263238"/>
      <path id="Path_478" data-name="Path 478" d="M97.53,114.324a6.685,6.685,0,0,1,2.67-.361,3.967,3.967,0,0,1,2.511,1.068,4.258,4.258,0,0,1,.777,1.151,3.946,3.946,0,0,1,.4,1.311,3.7,3.7,0,0,1-.6,2.608,4.085,4.085,0,0,0,.354-2.566,4.487,4.487,0,0,0-1.165-2.268,3.53,3.53,0,0,0-1.047-.693,5.491,5.491,0,0,0-1.255-.333A8.481,8.481,0,0,0,97.53,114.324Z" transform="translate(-73.89 -80.169)" fill="#263238"/>
      <path id="Path_479" data-name="Path 479" d="M83.6,116.127a6.554,6.554,0,0,0-2.081.333,4.092,4.092,0,0,0-1.741,1.1,4.161,4.161,0,0,0-.915,1.859,7.317,7.317,0,0,0-.132,2.136,5.389,5.389,0,0,1-.118-2.185,3.683,3.683,0,0,1,2.836-3.155A5.056,5.056,0,0,1,83.6,116.127Z" transform="translate(-68.073 -80.814)" fill="#263238"/>
      <path id="Path_480" data-name="Path 480" d="M82.87,126.448a7.587,7.587,0,0,0,1.637-1.838,4.626,4.626,0,0,0,.492-1.1,5.549,5.549,0,0,0,.194-1.228,3.072,3.072,0,0,1,.055,1.283,3.384,3.384,0,0,1-.458,1.221,4.237,4.237,0,0,1-.839.985,4.008,4.008,0,0,1-1.082.68Z" transform="translate(-69.397 -82.723)" fill="#263238"/>
      <path id="Path_481" data-name="Path 481" d="M84.722,138.529c-1.11.229-2.3-.943-2.656-2.615s.264-3.232,1.387-3.468,2.3.936,2.656,2.615S85.832,138.293,84.722,138.529Zm-1.2-5.673c-.888.187-1.352,1.519-1.047,2.968s1.276,2.483,2.164,2.3,1.387-1.519,1.04-2.975-1.276-2.476-2.157-2.289Z" transform="translate(-69.12 -85.83)" fill="#455a64"/>
      <path id="Path_482" data-name="Path 482" d="M94.009,136.45a3.114,3.114,0,1,1,2.2-3.641,3.024,3.024,0,0,1-2.2,3.641ZM92.789,130.8a2.7,2.7,0,1,0,3.01,2.081,2.6,2.6,0,0,0-3.01-2.081Z" transform="translate(-71.597 -85.193)" fill="#455a64"/>
      <path id="Path_483" data-name="Path 483" d="M89.735,134.989c-1.637-.208-2.219.437-2.226.444l-.319-.27c0-.035.694-.825,2.594-.583Z" transform="translate(-70.721 -86.479)" fill="#455a64"/>
      <path id="Path_484" data-name="Path 484" d="M98.479,132.513l-.16-.388c.257-.1,4.334-1.81,5-1.99a8.4,8.4,0,0,1,2.774.451l-.125.4a7.983,7.983,0,0,0-2.5-.451h0C102.953,130.675,100.616,131.626,98.479,132.513Z" transform="translate(-74.132 -85.12)" fill="#455a64"/>
      <path id="Path_485" data-name="Path 485" d="M102.37,131.436s.943-3.759,2.573-3.53,1.706,5.118.347,6.311a1.72,1.72,0,0,1-2.483-.042Z" transform="translate(-75.373 -84.444)" fill="#f7a9a0"/>
      <path id="Path_486" data-name="Path 486" d="M105.4,129.92v.042a4.342,4.342,0,0,0-1.137,3.343.957.957,0,0,1,1.234-.749c.042,0,0,.062,0,.069a1.068,1.068,0,0,0-.957.763,5.125,5.125,0,0,0-.18,1.075c0,.118-.215.132-.222,0h0C103.586,133.034,103.968,130.669,105.4,129.92Z" transform="translate(-75.841 -85.065)" fill="#263238"/>
      <path id="Path_487" data-name="Path 487" d="M95.36,152.879h0c.5,1.831,1.782,6.04,4.716,4.771a6.887,6.887,0,0,0,2.774-2.587,17.09,17.09,0,0,0,1.734-3.28,24.653,24.653,0,0,0,1.325-3.9c0-.055.1,0,.09,0a18.3,18.3,0,0,1-1.026,3.981,14.9,14.9,0,0,1-1.845,3.606,6.935,6.935,0,0,1-2.961,2.621,2.573,2.573,0,0,1-3.065-.874A9.9,9.9,0,0,1,95.36,152.879Z" transform="translate(-73.225 -90.561)" fill="#263238"/>
      <path id="Path_488" data-name="Path 488" d="M135.97,86.184a2.774,2.774,0,0,1,.742-3.176s-2.594-.52-3.051-2.649c-.236-1.1,1.325-2.455,1.325-2.455a3.183,3.183,0,0,1-2.344-2.427c-.236-1.533,1.387-2.663,1.387-2.663s-1.734-1.387-1.47-3.045c.548-3.322,13.53-6.8,16.783-2.594,1.512,1.956-1.706,2.635-1.706,2.635s4.855.132,5.617,2.774-3.468,3.26-3.468,3.26,4.7.173,5.215,2.982c.534,2.927-3.8,2.836-3.8,2.836s3.4,1.165,3.294,3.412c-.173,3.71-7.164.971-9.841,2.406l.042,4.972S136.844,88.383,135.97,86.184Z" transform="translate(-84.617 -65.241)" fill="#f7a9a0"/>
      <path id="Path_489" data-name="Path 489" d="M134.978,74.547c-.042,0-.069-.042-.035-.062a23.579,23.579,0,0,1,13.586-2.774c.153,0,.18.27,0,.277a48.456,48.456,0,0,0-13.551,2.559Z" transform="translate(-85.352 -67.19)" fill="#263238"/>
      <path id="Path_490" data-name="Path 490" d="M135.979,82.273c-.049,0-.076-.062,0-.083a22.009,22.009,0,0,1,15-2.129c.173.042.291.257.083.222C147.533,79.707,140.05,80.8,135.979,82.273Z" transform="translate(-85.66 -69.625)" fill="#263238"/>
      <path id="Path_491" data-name="Path 491" d="M153.42,88.644c-4.972-1.013-9.792-.34-14.647,1.054a.056.056,0,0,1-.035-.1,19.879,19.879,0,0,1,7.892-2.129,13.5,13.5,0,0,1,6.845,1.04C153.545,88.505,153.524,88.665,153.42,88.644Z" transform="translate(-86.512 -72.028)" fill="#263238"/>
    </g>
    <g id="freepik--Device--inject-74" transform="translate(1363.592 2265.7)">
      <path id="Path_492" data-name="Path 492" d="M277.739,55.17H158.414a12.185,12.185,0,0,0-12.074,12.3V313.108a12.192,12.192,0,0,0,12.074,12.3H277.739a12.206,12.206,0,0,0,12.088-12.3V67.466a12.2,12.2,0,0,0-12.088-12.3Zm4.536,250.358c0,6.464-4.855,11.693-10.812,11.693H164.711c-5.985,0-10.833-5.229-10.833-11.693V76.78c0-13.177,4.855-13.815,10.833-13.815h21.381c1.248,0,2.261,1.387,2.261,3.162v.756c0,4.1,2.247,4.113,5,4.113H242.8c2.774,0,5.014,0,5.014-4.113v-.735c0-1.755,1.006-3.162,2.268-3.162h21.381c5.971,0,10.812,1.748,10.812,13.815Z" transform="translate(-146.339 -55.17)" fill="#263238"/>
      <path id="Path_493" data-name="Path 493" d="M285.617,80.515V309.249c0,6.464-4.855,11.693-10.812,11.693H168.053c-5.985,0-10.833-5.229-10.833-11.693V80.515c0-13.177,4.855-13.815,10.833-13.815h21.388c1.241,0,2.254,1.387,2.254,3.162v.756c0,4.1,2.247,4.113,5,4.113h49.447c2.774,0,5.014,0,5.014-4.113v-.756c0-1.755,1.006-3.162,2.268-3.162H274.8C280.776,66.7,285.617,68.448,285.617,80.515Z" transform="translate(-149.674 -58.704)" fill="#fff"/>
      <path id="Path_494" data-name="Path 494" d="M285.617,80.515v20.75H157.22V80.515c0-13.177,4.855-13.815,10.833-13.815h21.388c1.241,0,2.254,1.387,2.254,3.162v.756c0,4.1,2.247,4.113,5,4.113h49.447c2.774,0,5.014,0,5.014-4.113v-.756c0-1.748,1.006-3.162,2.268-3.162H274.8C280.776,66.7,285.617,68.455,285.617,80.515Z" transform="translate(-149.674 -58.704)" fill="#ffcd00"/>
      <path id="Path_495" data-name="Path 495" d="M253.181,69.864H239.692a.832.832,0,0,1-.832-.832h0a.832.832,0,0,1,.832-.832h13.489a.832.832,0,0,1,.832.832h0a.825.825,0,0,1-.832.832Z" transform="translate(-174.696 -59.164)" fill="#fff"/>
      <g id="freepik--u5Zjqx--inject-74" transform="translate(31.444 11.998)">
        <path id="Path_496" data-name="Path 496" d="M196.3,73.4l-.208.208c0,.042-.076.076-.118.118a2.816,2.816,0,0,0-3.981,0l-.111-.111-.2-.208h0l.257-.229a2.941,2.941,0,0,1,.61-.388,3.184,3.184,0,0,1,.8-.27l.4-.049h.624a2.933,2.933,0,0,1,.728.173,2.729,2.729,0,0,1,.5.236,3.075,3.075,0,0,1,.479.326l.215.2Z" transform="translate(-191.68 -72.47)" fill="#fff"/>
        <path id="Path_497" data-name="Path 497" d="M192.926,74.758l-.326-.326a2.288,2.288,0,0,1,1.332-.694,2.344,2.344,0,0,1,2,.659c-.111.111-.215.222-.326.326a1.893,1.893,0,0,0-1.338-.548A1.872,1.872,0,0,0,192.926,74.758Z" transform="translate(-191.962 -72.851)" fill="#fff"/>
        <path id="Path_498" data-name="Path 498" d="M195.559,75.493l-.326.319a.957.957,0,0,0-.694-.277.929.929,0,0,0-.694.284l-.326-.326a1.387,1.387,0,0,1,2.039,0Z" transform="translate(-192.244 -73.26)" fill="#fff"/>
        <path id="Path_499" data-name="Path 499" d="M195.166,76.451a.3.3,0,1,1-.3-.291.291.291,0,0,1,.3.291Z" transform="translate(-192.566 -73.601)" fill="#fff"/>
      </g>
      <path id="Path_500" data-name="Path 500" d="M169.29,74.34a.853.853,0,1,1,.853.846.853.853,0,0,1-.853-.846Z" transform="translate(-153.373 -60.782)" fill="#fff"/>
      <path id="Path_501" data-name="Path 501" d="M173.15,74.34a.853.853,0,1,1,.853.846.853.853,0,0,1-.853-.846Z" transform="translate(-154.556 -60.782)" fill="#fff"/>
      <path id="Path_502" data-name="Path 502" d="M177,74.34a.853.853,0,1,1,.853.846A.853.853,0,0,1,177,74.34Z" transform="translate(-155.736 -60.782)" fill="#fff"/>
      <path id="Path_503" data-name="Path 503" d="M180.88,74.34a.853.853,0,1,1,.853.846.853.853,0,0,1-.853-.846Z" transform="translate(-156.926 -60.782)" fill="#fff"/>
      <path id="Path_504" data-name="Path 504" d="M184.75,74.34a.853.853,0,1,1,.257.6A.853.853,0,0,1,184.75,74.34Z" transform="translate(-158.112 -60.782)" fill="#fff"/>
      <path id="Path_505" data-name="Path 505" d="M325.4,75.974H318.46v-3.2H325.4Zm-6.561-.354h6.242v-2.5h-6.242Z" transform="translate(-199.092 -60.564)" fill="#fff"/>
      <rect id="Rectangle_1420" data-name="Rectangle 1420" width="4.466" height="2.122" transform="translate(119.95 12.747)" fill="#fff"/>
      <rect id="Rectangle_1421" data-name="Rectangle 1421" width="0.617" height="1.72" transform="translate(126.31 12.948)" fill="#fff"/>
      <path id="Path_506" data-name="Path 506" d="M173.084,101.948,169.29,98.4l3.794-3.558.589.631L170.545,98.4l3.128,2.927Z" transform="translate(-153.373 -67.328)" fill="#fff"/>
      <path id="Path_507" data-name="Path 507" d="M323.251,102.084h-2.524v-.874a.229.229,0,0,0-.125-.194l-.284-.16a.229.229,0,0,0-.229,0l-.756.444-1.262-2.191.756-.437a.215.215,0,0,0,.1-.208v-.319a.215.215,0,0,0-.1-.208l-.756-.437,1.262-2.191.756.437a.208.208,0,0,0,.229,0,2.339,2.339,0,0,1,.284-.166.208.208,0,0,0,.125-.187v-.9h2.524v.881a.208.208,0,0,0,.125.187,2.346,2.346,0,0,1,.284.166.208.208,0,0,0,.229,0l.756-.437,1.262,2.191-.756.437a.215.215,0,0,0-.1.208v.319a.208.208,0,0,0,.1.2l.756.444-1.262,2.191-.756-.444a.229.229,0,0,0-.229,0l-.284.16a.229.229,0,0,0-.125.194Zm-2-.52h1.484v-.354a.728.728,0,0,1,.409-.652,2.638,2.638,0,0,0,.236-.139.735.735,0,0,1,.77,0l.312.18.742-1.29-.312-.18a.735.735,0,0,1-.361-.693v-.264a.749.749,0,0,1,.361-.694l.312-.173-.742-1.29-.312.173a.735.735,0,0,1-.77,0,2.637,2.637,0,0,0-.236-.139.728.728,0,0,1-.409-.652v-.361h-1.484V95.4a.728.728,0,0,1-.409.652l-.236.139a.735.735,0,0,1-.77,0l-.305-.173-.749,1.29.312.173a.742.742,0,0,1,.361.694v.27a.749.749,0,0,1-.361.694l-.312.173.749,1.29.305-.18a.749.749,0,0,1,.77,0l.236.139a.728.728,0,0,1,.409.652Zm.742-1.387a.789.789,0,1,1,0,.014Zm0-3.287a1.37,1.37,0,1,1,0,.035Z" transform="translate(-198.973 -67.221)" fill="#fff"/>
      <rect id="Rectangle_1422" data-name="Rectangle 1422" width="78.7" height="4.931" transform="translate(20.196 54.968)" fill="#fff"/>
      <path id="Path_508" data-name="Path 508" d="M254.18,139.395H175.39V134.36h78.79Z" transform="translate(-155.243 -79.441)" fill="#ebebeb"/>
      <rect id="Rectangle_1423" data-name="Rectangle 1423" width="5.035" height="5.035" transform="translate(93.916 54.919)" fill="#0f0f0f"/>
      <path id="Path_509" data-name="Path 509" d="M286.929,139.3l-.458.347-.839-1.117-.312-.4a.94.94,0,0,0,.18-.1.776.776,0,0,0,.236-.305l.326.437Z" transform="translate(-188.935 -80.471)" fill="#fff"/>
      <path id="Path_510" data-name="Path 510" d="M285.366,135.985a1.241,1.241,0,1,0-.4,1.852.812.812,0,0,0,.173-.111,1.316,1.316,0,0,0,.257-.264,1.248,1.248,0,0,0-.028-1.477Zm-.534,1.345a.938.938,0,0,1-.18.1.736.736,0,1,1,.416-.409.777.777,0,0,1-.236.305Z" transform="translate(-188.267 -79.79)" fill="#fff"/>
      <rect id="Rectangle_1424" data-name="Rectangle 1424" width="0.264" height="2.996" transform="translate(21.229 55.939)" fill="#c7c7c7"/>
      <path id="Path_511" data-name="Path 511" d="M331.66,128.069a3.26,3.26,0,0,1-.971.4,3.336,3.336,0,1,1,.971-.4Z" transform="translate(-201.571 -75.611)" fill="#0f0f0f"/>
      <path id="Path_512" data-name="Path 512" d="M331.949,125.7a1.019,1.019,0,1,1-1.019-1.019A1.019,1.019,0,0,1,331.949,125.7Z" transform="translate(-202.602 -76.474)" fill="#fff"/>
      <path id="Path_513" data-name="Path 513" d="M332.363,129.422v.423a3.262,3.262,0,0,1-.971.4,3.315,3.315,0,0,1-2.552-.409v-.416a1.762,1.762,0,1,1,3.523,0Z" transform="translate(-202.274 -77.387)" fill="#fff"/>
      <rect id="Rectangle_1425" data-name="Rectangle 1425" width="128.39" height="10.181" transform="translate(7.546 67.853)" fill="#ebebeb"/>
      <rect id="Rectangle_1426" data-name="Rectangle 1426" width="3.058" height="3.058" transform="translate(15.514 71.411)" fill="#fff"/>
      <path id="Path_514" data-name="Path 514" d="M190.5,161.2H187.44l1.248-1.533-1.248-1.526H190.5l1.248,1.526Z" transform="translate(-158.936 -86.729)" fill="#fff"/>
      <path id="Path_515" data-name="Path 515" d="M179.809,158.14l.5,1.006,1.11.16-.8.784.194,1.11-1-.52-.992.52.187-1.11-.8-.784,1.117-.16Z" transform="translate(-156.104 -86.729)" fill="#407bff"/>
      <rect id="Rectangle_1427" data-name="Rectangle 1427" width="24.356" height="1.241" transform="translate(35.002 72.319)" fill="#263238"/>
      <rect id="Rectangle_1428" data-name="Rectangle 1428" width="22.116" height="1.241" transform="translate(100.726 72.319)" fill="#263238"/>
      <rect id="Rectangle_1429" data-name="Rectangle 1429" width="24.634" height="1.241" transform="translate(66.8 72.319)" fill="#455a64"/>
      <rect id="Rectangle_1430" data-name="Rectangle 1430" width="3.058" height="3.058" transform="translate(15.514 81.592)" fill="#fff"/>
      <path id="Path_516" data-name="Path 516" d="M171.865,175.975H168.46V172.57h3.405Zm-3.031-.333h2.712v-2.712h-2.712Z" transform="translate(-153.119 -91.152)" fill="#ebebeb"/>
      <path id="Path_517" data-name="Path 517" d="M190.5,175.878H187.44l1.248-1.533-1.248-1.526H190.5l1.248,1.526Z" transform="translate(-158.936 -91.228)" fill="#fff"/>
      <path id="Path_518" data-name="Path 518" d="M190.452,175.975h-3.5l1.387-1.706-1.387-1.7h3.5l1.387,1.7Zm-2.774-.347h2.608l1.11-1.387-1.11-1.387h-2.608l1.1,1.387Z" transform="translate(-158.786 -91.152)" fill="#ebebeb"/>
      <path id="Path_519" data-name="Path 519" d="M179.809,172.82l.5,1.006,1.11.159-.8.784.194,1.11-1-.527-.992.527.187-1.11-.8-.784,1.117-.159Z" transform="translate(-156.104 -91.228)" fill="#407bff"/>
      <rect id="Rectangle_1431" data-name="Rectangle 1431" width="24.356" height="1.241" transform="translate(35.002 82.5)" fill="#263238"/>
      <rect id="Rectangle_1432" data-name="Rectangle 1432" width="22.116" height="1.241" transform="translate(100.726 82.5)" fill="#263238"/>
      <rect id="Rectangle_1433" data-name="Rectangle 1433" width="24.634" height="1.241" transform="translate(66.8 82.5)" fill="#455a64"/>
      <rect id="Rectangle_1434" data-name="Rectangle 1434" width="128.39" height="10.181" transform="translate(7.546 88.208)" fill="#ebebeb"/>
      <rect id="Rectangle_1435" data-name="Rectangle 1435" width="3.058" height="3.058" transform="translate(15.514 91.772)" fill="#fff"/>
      <path id="Path_520" data-name="Path 520" d="M190.5,190.558H187.44l1.248-1.533L187.44,187.5H190.5l1.248,1.526Z" transform="translate(-158.936 -95.728)" fill="#fff"/>
      <path id="Path_521" data-name="Path 521" d="M179.809,187.5l.5,1.006,1.11.16-.8.784.194,1.11-1-.527-.992.527.187-1.11-.8-.784,1.117-.16Z" transform="translate(-156.104 -95.728)" fill="#fff"/>
      <rect id="Rectangle_1436" data-name="Rectangle 1436" width="24.356" height="1.241" transform="translate(35.002 92.674)" fill="#dbdbdb"/>
      <rect id="Rectangle_1437" data-name="Rectangle 1437" width="22.116" height="1.241" transform="translate(100.726 92.674)" fill="#dbdbdb"/>
      <rect id="Rectangle_1438" data-name="Rectangle 1438" width="24.634" height="1.241" transform="translate(66.8 92.674)" fill="#c7c7c7"/>
      <rect id="Rectangle_1439" data-name="Rectangle 1439" width="3.058" height="3.058" transform="translate(15.514 101.946)" fill="#fff"/>
      <path id="Path_522" data-name="Path 522" d="M171.865,205.325H168.46V201.92h3.405Zm-3.058-.347h2.712v-2.712h-2.684Z" transform="translate(-153.119 -100.147)" fill="#ebebeb"/>
      <path id="Path_523" data-name="Path 523" d="M190.5,205.228H187.44l1.248-1.526-1.248-1.533H190.5l1.248,1.533Z" transform="translate(-158.936 -100.224)" fill="#fff"/>
      <path id="Path_524" data-name="Path 524" d="M190.452,205.325h-3.5l1.387-1.7-1.387-1.706h3.5l1.387,1.706Zm-2.774-.347h2.608l1.11-1.387-1.11-1.387h-2.608l1.1,1.387Z" transform="translate(-158.786 -100.147)" fill="#ebebeb"/>
      <path id="Path_525" data-name="Path 525" d="M179.809,202.17l.5,1.013,1.11.16-.8.784.194,1.1-1-.52-.992.52.187-1.1-.8-.784,1.117-.16Z" transform="translate(-156.104 -100.224)" fill="#407bff"/>
      <rect id="Rectangle_1440" data-name="Rectangle 1440" width="24.356" height="1.241" transform="translate(35.002 102.855)" fill="#dbdbdb"/>
      <rect id="Rectangle_1441" data-name="Rectangle 1441" width="22.116" height="1.241" transform="translate(100.726 102.855)" fill="#dbdbdb"/>
      <rect id="Rectangle_1442" data-name="Rectangle 1442" width="24.634" height="1.241" transform="translate(66.8 102.855)" fill="#c7c7c7"/>
      <rect id="Rectangle_1443" data-name="Rectangle 1443" width="128.39" height="10.181" transform="translate(7.546 108.569)" fill="#ebebeb"/>
      <rect id="Rectangle_1444" data-name="Rectangle 1444" width="3.058" height="3.058" transform="translate(15.514 112.127)" fill="#fff"/>
      <path id="Path_526" data-name="Path 526" d="M190.5,219.908H187.44l1.248-1.526-1.248-1.533H190.5l1.248,1.533Z" transform="translate(-158.936 -104.723)" fill="#fff"/>
      <path id="Path_527" data-name="Path 527" d="M179.809,216.85l.5,1.006,1.11.166-.8.777.194,1.11-1-.52-.992.52L179,218.8l-.8-.777,1.117-.166Z" transform="translate(-156.104 -104.723)" fill="#407bff"/>
      <rect id="Rectangle_1445" data-name="Rectangle 1445" width="24.356" height="1.241" transform="translate(35.002 113.035)" fill="#dbdbdb"/>
      <rect id="Rectangle_1446" data-name="Rectangle 1446" width="22.116" height="1.241" transform="translate(100.726 113.035)" fill="#dbdbdb"/>
      <rect id="Rectangle_1447" data-name="Rectangle 1447" width="24.634" height="1.241" transform="translate(66.8 113.035)" fill="#c7c7c7"/>
      <rect id="Rectangle_1448" data-name="Rectangle 1448" width="3.058" height="3.058" transform="translate(15.514 122.308)" fill="#fff"/>
      <path id="Path_528" data-name="Path 528" d="M171.865,234.685H168.46V231.28h3.405Zm-3.058-.347h2.712v-2.712h-2.684Z" transform="translate(-153.119 -109.146)" fill="#ebebeb"/>
      <path id="Path_529" data-name="Path 529" d="M190.5,234.588H187.44l1.248-1.533-1.248-1.526H190.5l1.248,1.526Z" transform="translate(-158.936 -109.222)" fill="#fff"/>
      <path id="Path_530" data-name="Path 530" d="M190.452,234.685h-3.5l1.387-1.706-1.387-1.7h3.5l1.387,1.7Zm-2.774-.347h2.608l1.11-1.387-1.11-1.352h-2.608l1.1,1.352Z" transform="translate(-158.786 -109.146)" fill="#ebebeb"/>
      <path id="Path_531" data-name="Path 531" d="M179.809,231.53l.5,1.006,1.11.16-.8.784.194,1.11-1-.52-.992.52.187-1.11-.8-.784,1.117-.16Z" transform="translate(-156.104 -109.222)" fill="#fff"/>
      <path id="Path_532" data-name="Path 532" d="M178.426,234.72l.229-1.387-.985-.971,1.387-.2.61-1.241.61,1.241,1.387.2-.992.992.236,1.387-1.228-.645Zm1.221-1.04.763.4-.146-.846.617-.6-.853-.125-.381-.777-.381.777-.853.125.617.6-.146.846Z" transform="translate(-155.942 -109.035)" fill="#ebebeb"/>
      <rect id="Rectangle_1449" data-name="Rectangle 1449" width="24.356" height="1.241" transform="translate(35.002 123.216)" fill="#dbdbdb"/>
      <rect id="Rectangle_1450" data-name="Rectangle 1450" width="22.116" height="1.241" transform="translate(100.726 123.216)" fill="#dbdbdb"/>
      <rect id="Rectangle_1451" data-name="Rectangle 1451" width="24.634" height="1.241" transform="translate(66.8 123.216)" fill="#c7c7c7"/>
      <rect id="Rectangle_1452" data-name="Rectangle 1452" width="128.39" height="10.181" transform="translate(7.546 128.924)" fill="#ebebeb"/>
      <rect id="Rectangle_1453" data-name="Rectangle 1453" width="3.058" height="3.058" transform="translate(15.514 132.488)" fill="#fff"/>
      <path id="Path_533" data-name="Path 533" d="M190.5,249.268H187.44l1.248-1.533-1.248-1.526H190.5l1.248,1.526Z" transform="translate(-158.936 -113.722)" fill="#fff"/>
      <path id="Path_534" data-name="Path 534" d="M179.809,246.21l.5,1.006,1.11.16-.8.784.194,1.11-1-.527-.992.527.187-1.11-.8-.784,1.117-.16Z" transform="translate(-156.104 -113.722)" fill="#407bff"/>
      <rect id="Rectangle_1454" data-name="Rectangle 1454" width="24.356" height="1.241" transform="translate(35.002 133.397)" fill="#dbdbdb"/>
      <rect id="Rectangle_1455" data-name="Rectangle 1455" width="22.116" height="1.241" transform="translate(100.726 133.397)" fill="#dbdbdb"/>
      <rect id="Rectangle_1456" data-name="Rectangle 1456" width="24.634" height="1.241" transform="translate(66.8 133.397)" fill="#c7c7c7"/>
      <rect id="Rectangle_1457" data-name="Rectangle 1457" width="3.058" height="3.058" transform="translate(15.514 142.669)" fill="#fff"/>
      <path id="Path_535" data-name="Path 535" d="M171.865,264.038H168.46v-3.4h3.405Zm-3.031-.375h2.712v-2.7h-2.712Z" transform="translate(-153.119 -118.144)" fill="#ebebeb"/>
      <path id="Path_536" data-name="Path 536" d="M190.5,263.948H187.44l1.248-1.533-1.248-1.526H190.5l1.248,1.526Z" transform="translate(-158.936 -118.221)" fill="#fff"/>
      <path id="Path_537" data-name="Path 537" d="M190.452,264.038h-3.5l1.387-1.7-1.387-1.7h3.5l1.387,1.7Zm-2.774-.347h2.608l1.11-1.387-1.11-1.352h-2.608l1.1,1.352Z" transform="translate(-158.786 -118.144)" fill="#ebebeb"/>
      <path id="Path_538" data-name="Path 538" d="M179.809,260.89l.5,1.006,1.11.159-.8.784.194,1.11-1-.527-.992.527.187-1.11-.8-.784,1.117-.159Z" transform="translate(-156.104 -118.221)" fill="#fff"/>
      <path id="Path_539" data-name="Path 539" d="M178.426,264.073l.229-1.387-.985-.971,1.387-.194.61-1.241.61,1.241,1.387.194-.992.971.236,1.387-1.228-.645Zm1.221-1.033.763.4-.146-.853.617-.6-.853-.118-.381-.777-.381.777-.853.118.617.6-.146.853Z" transform="translate(-155.942 -118.034)" fill="#ebebeb"/>
      <rect id="Rectangle_1458" data-name="Rectangle 1458" width="24.356" height="1.241" transform="translate(35.002 143.571)" fill="#dbdbdb"/>
      <rect id="Rectangle_1459" data-name="Rectangle 1459" width="22.116" height="1.241" transform="translate(100.726 143.571)" fill="#dbdbdb"/>
      <rect id="Rectangle_1460" data-name="Rectangle 1460" width="24.634" height="1.241" transform="translate(66.8 143.571)" fill="#c7c7c7"/>
      <rect id="Rectangle_1461" data-name="Rectangle 1461" width="128.39" height="10.181" transform="translate(7.546 149.285)" fill="#ebebeb"/>
      <rect id="Rectangle_1462" data-name="Rectangle 1462" width="3.058" height="3.058" transform="translate(15.514 152.843)" fill="#fff"/>
      <path id="Path_540" data-name="Path 540" d="M190.5,278.618H187.44l1.248-1.526-1.248-1.533H190.5l1.248,1.533Z" transform="translate(-158.936 -122.717)" fill="#fff"/>
      <path id="Path_541" data-name="Path 541" d="M179.809,275.56l.5,1.006,1.11.166-.8.784.194,1.1-1-.52-.992.52.187-1.1-.8-.784,1.117-.166Z" transform="translate(-156.104 -122.717)" fill="#fff"/>
      <rect id="Rectangle_1463" data-name="Rectangle 1463" width="24.356" height="1.241" transform="translate(35.002 153.751)" fill="#dbdbdb"/>
      <rect id="Rectangle_1464" data-name="Rectangle 1464" width="22.116" height="1.241" transform="translate(100.726 153.751)" fill="#dbdbdb"/>
      <rect id="Rectangle_1465" data-name="Rectangle 1465" width="24.634" height="1.241" transform="translate(66.8 153.751)" fill="#c7c7c7"/>
      <rect id="Rectangle_1466" data-name="Rectangle 1466" width="3.058" height="3.058" transform="translate(15.514 163.024)" fill="#fff"/>
      <path id="Path_542" data-name="Path 542" d="M171.865,293.4H168.46V290h3.405Zm-3.058-.347h2.712V290.34h-2.684Z" transform="translate(-153.119 -127.143)" fill="#ebebeb"/>
      <path id="Path_543" data-name="Path 543" d="M190.5,293.3H187.44l1.248-1.526-1.248-1.533H190.5l1.248,1.533Z" transform="translate(-158.936 -127.216)" fill="#fff"/>
      <path id="Path_544" data-name="Path 544" d="M190.452,293.4h-3.5l1.387-1.7-1.387-1.706h3.5l1.387,1.706Zm-2.774-.347h2.608l1.11-1.352-1.11-1.387h-2.608l1.1,1.387Z" transform="translate(-158.786 -127.14)" fill="#ebebeb"/>
      <path id="Path_545" data-name="Path 545" d="M179.809,290.24l.5,1.006,1.11.166-.8.784.194,1.1-1-.52-.992.52.187-1.1-.8-.784,1.117-.166Z" transform="translate(-156.104 -127.216)" fill="#fff"/>
      <path id="Path_546" data-name="Path 546" d="M178.426,293.437l.229-1.387-.985-.964,1.387-.2.61-1.234.61,1.234,1.387.2-.992.985.236,1.387-1.228-.645Zm1.221-1.033.763.4-.146-.846.617-.6-.853-.125-.381-.77-.381.77-.853.125.617.6-.146.846Z" transform="translate(-155.942 -127.035)" fill="#ebebeb"/>
      <rect id="Rectangle_1467" data-name="Rectangle 1467" width="24.356" height="1.241" transform="translate(35.002 163.932)" fill="#dbdbdb"/>
      <rect id="Rectangle_1468" data-name="Rectangle 1468" width="22.116" height="1.241" transform="translate(100.726 163.932)" fill="#dbdbdb"/>
      <rect id="Rectangle_1469" data-name="Rectangle 1469" width="24.634" height="1.241" transform="translate(66.8 163.932)" fill="#c7c7c7"/>
      <rect id="Rectangle_1470" data-name="Rectangle 1470" width="128.39" height="10.181" transform="translate(7.546 169.64)" fill="#ebebeb"/>
      <rect id="Rectangle_1471" data-name="Rectangle 1471" width="3.058" height="3.058" transform="translate(15.514 173.204)" fill="#fff"/>
      <path id="Path_547" data-name="Path 547" d="M190.5,307.978H187.44l1.248-1.533-1.248-1.526H190.5l1.248,1.526Z" transform="translate(-158.936 -131.716)" fill="#fff"/>
      <path id="Path_548" data-name="Path 548" d="M179.809,304.92l.5,1.006,1.11.159-.8.784.194,1.11-1-.527-.992.527.187-1.11-.8-.784,1.117-.159Z" transform="translate(-156.104 -131.716)" fill="#fff"/>
      <path id="Path_549" data-name="Path 549" d="M178.426,308.114l.229-1.387-.985-.964,1.387-.2.61-1.241.61,1.241,1.387.2-.992.985.236,1.387-1.228-.645Zm1.221-1.04.763.4-.146-.846.617-.6-.853-.125-.381-.777-.361.777-.853.125.617.6-.146.846Z" transform="translate(-155.942 -131.532)" fill="#ebebeb"/>
      <rect id="Rectangle_1472" data-name="Rectangle 1472" width="24.356" height="1.241" transform="translate(35.002 174.113)" fill="#dbdbdb"/>
      <rect id="Rectangle_1473" data-name="Rectangle 1473" width="22.116" height="1.241" transform="translate(100.726 174.113)" fill="#dbdbdb"/>
      <rect id="Rectangle_1474" data-name="Rectangle 1474" width="24.634" height="1.241" transform="translate(66.8 174.113)" fill="#c7c7c7"/>
      <rect id="Rectangle_1475" data-name="Rectangle 1475" width="3.058" height="3.058" transform="translate(15.514 183.385)" fill="#fff"/>
      <path id="Path_550" data-name="Path 550" d="M171.865,322.755H168.46V319.35h3.405Zm-3.058-.347h2.712V319.7h-2.684Z" transform="translate(-153.119 -136.138)" fill="#ebebeb"/>
      <path id="Path_551" data-name="Path 551" d="M190.5,322.658H187.44l1.248-1.533L187.44,319.6H190.5l1.248,1.526Z" transform="translate(-158.936 -136.215)" fill="#fff"/>
      <path id="Path_552" data-name="Path 552" d="M190.452,322.755h-3.5l1.387-1.706-1.387-1.7h3.5l1.387,1.7Zm-2.774-.347h2.608l1.11-1.387-1.11-1.352h-2.608l1.1,1.352Z" transform="translate(-158.786 -136.138)" fill="#ebebeb"/>
      <path id="Path_553" data-name="Path 553" d="M179.809,319.6l.5,1.006,1.11.159-.8.784.194,1.11-1-.527-.992.527.187-1.11-.8-.784,1.117-.159Z" transform="translate(-156.104 -136.215)" fill="#fff"/>
      <path id="Path_554" data-name="Path 554" d="M178.426,322.783l.229-1.387-.985-.964,1.387-.2.61-1.241.61,1.241,1.387.2-.992.992.236,1.387-1.228-.638Zm1.221-1.033.763.4-.146-.853.617-.6-.853-.125-.381-.777-.381.777-.853.125.617.6-.146.853Z" transform="translate(-155.942 -136.028)" fill="#ebebeb"/>
      <rect id="Rectangle_1476" data-name="Rectangle 1476" width="24.356" height="1.241" transform="translate(35.002 184.294)" fill="#dbdbdb"/>
      <rect id="Rectangle_1477" data-name="Rectangle 1477" width="22.116" height="1.241" transform="translate(100.726 184.294)" fill="#dbdbdb"/>
      <rect id="Rectangle_1478" data-name="Rectangle 1478" width="24.634" height="1.241" transform="translate(66.8 184.294)" fill="#c7c7c7"/>
      <rect id="Rectangle_1479" data-name="Rectangle 1479" width="128.39" height="10.181" transform="translate(7.546 190.001)" fill="#ebebeb"/>
      <rect id="Rectangle_1480" data-name="Rectangle 1480" width="3.058" height="3.058" transform="translate(15.514 193.566)" fill="#fff"/>
      <path id="Path_555" data-name="Path 555" d="M190.5,337.328H187.44l1.248-1.526-1.248-1.533H190.5l1.248,1.533Z" transform="translate(-158.936 -140.711)" fill="#fff"/>
      <path id="Path_556" data-name="Path 556" d="M179.809,334.27l.5,1.013,1.11.159-.8.784.194,1.1-1-.52-.992.52.187-1.1-.8-.784,1.117-.159Z" transform="translate(-156.104 -140.711)" fill="#fff"/>
      <path id="Path_557" data-name="Path 557" d="M178.426,337.464l.229-1.387-.985-.964,1.387-.2.61-1.241.61,1.241,1.387.2-.992.992.236,1.387-1.228-.645Zm1.221-1.033.763.4-.146-.853.617-.6-.853-.118-.381-.777-.361.8-.853.118.617.6-.146.853Z" transform="translate(-155.942 -140.527)" fill="#ebebeb"/>
      <rect id="Rectangle_1481" data-name="Rectangle 1481" width="24.356" height="1.241" transform="translate(35.002 194.468)" fill="#dbdbdb"/>
      <rect id="Rectangle_1482" data-name="Rectangle 1482" width="22.116" height="1.241" transform="translate(100.726 194.468)" fill="#dbdbdb"/>
      <rect id="Rectangle_1483" data-name="Rectangle 1483" width="24.634" height="1.241" transform="translate(66.8 194.468)" fill="#c7c7c7"/>
      <rect id="Rectangle_1484" data-name="Rectangle 1484" width="3.058" height="3.058" transform="translate(15.514 203.74)" fill="#fff"/>
      <path id="Path_558" data-name="Path 558" d="M171.865,352.105H168.46V348.7h3.405Zm-3.058-.347h2.712v-2.712h-2.684Z" transform="translate(-153.119 -145.134)" fill="#ebebeb"/>
      <path id="Path_559" data-name="Path 559" d="M190.5,352.008H187.44l1.248-1.526-1.248-1.533H190.5l1.248,1.533Z" transform="translate(-158.936 -145.21)" fill="#fff"/>
      <path id="Path_560" data-name="Path 560" d="M190.452,352.105h-3.5l1.387-1.7L186.95,348.7h3.5l1.387,1.706Zm-2.774-.347h2.608l1.11-1.352-1.11-1.387h-2.608l1.1,1.387Z" transform="translate(-158.786 -145.134)" fill="#ebebeb"/>
      <path id="Path_561" data-name="Path 561" d="M179.809,348.95l.5,1.006,1.11.167-.8.784.194,1.1-1-.52-.992.52.187-1.1-.8-.784,1.117-.167Z" transform="translate(-156.104 -145.21)" fill="#fff"/>
      <path id="Path_562" data-name="Path 562" d="M178.426,352.147l.229-1.387-.985-.964,1.387-.194.61-1.241.61,1.241,1.387.194-.992.985.236,1.387-1.228-.645Zm1.221-1.033.763.4-.146-.853.617-.6-.853-.125-.381-.77-.381.77-.853.125.617.6-.146.853Z" transform="translate(-155.942 -145.029)" fill="#ebebeb"/>
      <rect id="Rectangle_1485" data-name="Rectangle 1485" width="24.356" height="1.241" transform="translate(35.002 204.648)" fill="#dbdbdb"/>
      <rect id="Rectangle_1486" data-name="Rectangle 1486" width="22.116" height="1.241" transform="translate(100.726 204.648)" fill="#dbdbdb"/>
      <rect id="Rectangle_1487" data-name="Rectangle 1487" width="24.634" height="1.241" transform="translate(66.8 204.648)" fill="#c7c7c7"/>
      <rect id="Rectangle_1488" data-name="Rectangle 1488" width="128.39" height="10.181" transform="translate(7.546 210.363)" fill="#ebebeb"/>
      <rect id="Rectangle_1489" data-name="Rectangle 1489" width="3.058" height="3.058" transform="translate(15.514 213.921)" fill="#fff"/>
      <path id="Path_563" data-name="Path 563" d="M190.5,366.688H187.44l1.248-1.526-1.248-1.533H190.5l1.248,1.533Z" transform="translate(-158.936 -149.709)" fill="#fff"/>
      <path id="Path_564" data-name="Path 564" d="M179.809,363.63l.5,1.006,1.11.167-.8.777.194,1.11-1-.52-.992.52.187-1.11-.8-.777,1.117-.167Z" transform="translate(-156.104 -149.709)" fill="#407bff"/>
      <rect id="Rectangle_1490" data-name="Rectangle 1490" width="24.356" height="1.241" transform="translate(35.002 214.829)" fill="#dbdbdb"/>
      <rect id="Rectangle_1491" data-name="Rectangle 1491" width="22.116" height="1.241" transform="translate(100.726 214.829)" fill="#dbdbdb"/>
      <rect id="Rectangle_1492" data-name="Rectangle 1492" width="24.634" height="1.241" transform="translate(66.8 214.829)" fill="#c7c7c7"/>
      <rect id="Rectangle_1493" data-name="Rectangle 1493" width="3.058" height="3.058" transform="translate(15.514 224.101)" fill="#fff"/>
      <path id="Path_565" data-name="Path 565" d="M171.865,381.5H168.46V378.09h3.405Zm-3.058-.347h2.712v-2.712h-2.684Z" transform="translate(-153.119 -154.141)" fill="#ebebeb"/>
      <path id="Path_566" data-name="Path 566" d="M190.5,381.368H187.44l1.248-1.533-1.248-1.526H190.5l1.248,1.526Z" transform="translate(-158.936 -154.209)" fill="#fff"/>
      <path id="Path_567" data-name="Path 567" d="M190.452,381.5h-3.5l1.387-1.706-1.387-1.7h3.5l1.387,1.7Zm-2.774-.347h2.608l1.11-1.387-1.11-1.352h-2.608l1.1,1.352Z" transform="translate(-158.786 -154.141)" fill="#ebebeb"/>
      <path id="Path_568" data-name="Path 568" d="M179.809,378.31l.5,1.006,1.11.16-.8.784.194,1.11-1-.527-.992.527.187-1.11-.8-.784,1.117-.16Z" transform="translate(-156.104 -154.209)" fill="#fff"/>
      <path id="Path_569" data-name="Path 569" d="M178.426,381.507l.229-1.387-.985-.964,1.387-.2.61-1.234.61,1.234,1.387.2-.992.985.236,1.387-1.228-.645Zm1.221-1.04.763.4-.146-.846.617-.6-.853-.125-.381-.777-.361.784-.853.125.617.6-.146.846Z" transform="translate(-155.942 -154.028)" fill="#ebebeb"/>
      <rect id="Rectangle_1494" data-name="Rectangle 1494" width="24.356" height="1.241" transform="translate(35.002 225.01)" fill="#dbdbdb"/>
      <rect id="Rectangle_1495" data-name="Rectangle 1495" width="22.116" height="1.241" transform="translate(100.726 225.01)" fill="#dbdbdb"/>
      <rect id="Rectangle_1496" data-name="Rectangle 1496" width="24.634" height="1.241" transform="translate(66.8 225.01)" fill="#c7c7c7"/>
      <rect id="Rectangle_1497" data-name="Rectangle 1497" width="128.39" height="10.181" transform="translate(7.546 230.717)" fill="#ebebeb"/>
      <rect id="Rectangle_1498" data-name="Rectangle 1498" width="3.058" height="3.058" transform="translate(15.514 234.282)" fill="#fff"/>
      <path id="Path_570" data-name="Path 570" d="M190.5,396.048H187.44l1.248-1.533-1.248-1.526H190.5l1.248,1.526Z" transform="translate(-158.936 -158.708)" fill="#fff"/>
      <path id="Path_571" data-name="Path 571" d="M179.809,392.99l.5,1.006,1.11.16-.8.784.194,1.11-1-.527-.992.527.187-1.11-.8-.784,1.117-.16Z" transform="translate(-156.104 -158.708)" fill="#407bff"/>
      <rect id="Rectangle_1499" data-name="Rectangle 1499" width="24.356" height="1.241" transform="translate(35.002 235.191)" fill="#dbdbdb"/>
      <rect id="Rectangle_1500" data-name="Rectangle 1500" width="22.116" height="1.241" transform="translate(100.726 235.191)" fill="#dbdbdb"/>
      <rect id="Rectangle_1501" data-name="Rectangle 1501" width="24.634" height="1.241" transform="translate(66.8 235.191)" fill="#c7c7c7"/>
      <rect id="Rectangle_1502" data-name="Rectangle 1502" width="3.058" height="3.058" transform="translate(15.514 244.463)" fill="#fff"/>
      <path id="Path_572" data-name="Path 572" d="M171.865,410.818H168.46v-3.4h3.405Zm-3.058-.347h2.712v-2.7h-2.684Z" transform="translate(-153.119 -163.131)" fill="#ebebeb"/>
      <path id="Path_573" data-name="Path 573" d="M190.5,410.722H187.44l1.248-1.526-1.248-1.526H190.5l1.248,1.526Z" transform="translate(-158.936 -163.207)" fill="#fff"/>
      <path id="Path_574" data-name="Path 574" d="M190.452,410.818h-3.5l1.387-1.7-1.387-1.7h3.5l1.387,1.7Zm-2.774-.347h2.608l1.11-1.352-1.11-1.352h-2.608l1.1,1.352Z" transform="translate(-158.786 -163.131)" fill="#ebebeb"/>
      <path id="Path_575" data-name="Path 575" d="M179.809,407.67l.5,1.006,1.11.16-.8.784.194,1.1-1-.52-.992.52.187-1.1-.8-.784,1.117-.16Z" transform="translate(-156.104 -163.207)" fill="#fff"/>
      <path id="Path_576" data-name="Path 576" d="M178.426,410.854l.229-1.387-.985-.971,1.387-.194.61-1.241.61,1.241,1.387.194-.992.971.236,1.387-1.228-.645Zm1.221-1.033.763.4-.146-.853.617-.6-.853-.125-.381-.77-.381.77-.853.125.617.6-.146.853Z" transform="translate(-155.942 -163.02)" fill="#ebebeb"/>
      <rect id="Rectangle_1503" data-name="Rectangle 1503" width="24.356" height="1.241" transform="translate(35.002 245.364)" fill="#dbdbdb"/>
      <rect id="Rectangle_1504" data-name="Rectangle 1504" width="22.116" height="1.241" transform="translate(100.726 245.364)" fill="#dbdbdb"/>
      <rect id="Rectangle_1505" data-name="Rectangle 1505" width="24.634" height="1.241" transform="translate(66.8 245.364)" fill="#c7c7c7"/>
      <path id="Path_577" data-name="Path 577" d="M285.605,417.21a11.665,11.665,0,0,1-6.47,10.181H163.727a11.658,11.658,0,0,1-6.477-10.181Z" transform="translate(-149.683 -166.131)" fill="#ebebeb"/>
      <rect id="Rectangle_1506" data-name="Rectangle 1506" width="3.058" height="3.058" transform="translate(15.514 254.637)" fill="#fff"/>
      <path id="Path_578" data-name="Path 578" d="M190.5,425.4H187.44l1.248-1.526-1.248-1.533H190.5l1.248,1.533Z" transform="translate(-158.936 -167.703)" fill="#fff"/>
      <path id="Path_579" data-name="Path 579" d="M179.809,422.34l.5,1.013,1.11.159-.8.784.194,1.1-1-.52-.992.52.187-1.1-.8-.784,1.117-.159Z" transform="translate(-156.104 -167.703)" fill="#407bff"/>
      <rect id="Rectangle_1507" data-name="Rectangle 1507" width="24.356" height="1.241" transform="translate(35.002 255.545)" fill="#dbdbdb"/>
      <rect id="Rectangle_1508" data-name="Rectangle 1508" width="22.116" height="1.241" transform="translate(100.726 255.545)" fill="#dbdbdb"/>
      <rect id="Rectangle_1509" data-name="Rectangle 1509" width="24.634" height="1.241" transform="translate(66.8 255.545)" fill="#c7c7c7"/>
    </g>
    <g id="freepik--paper-plane--inject-74" transform="translate(1329.416 2358.963)">
      <path id="Path_580" data-name="Path 580" d="M161.425,257.517V257l2.774-.035v.52Zm-3.468,0c-.943,0-1.866,0-2.774-.042v-.52q1.387,0,2.774.042Zm9.709-.111v-.52l2.774-.1v.52Zm-15.951,0c-.936-.042-1.866-.083-2.774-.139v-.513l2.774.132Zm22.192-.222v-.52c.909-.049,1.831-.1,2.774-.16v.52Zm-28.434-.146c-.936-.069-1.859-.153-2.774-.243l.055-.513c.9.083,1.817.166,2.774.236Zm34.676-.236-.035-.52,2.774-.208.042.52Zm-40.917-.381c-.936-.111-1.859-.236-2.774-.368l.076-.513c.895.132,1.81.25,2.774.368Zm47.124-.111-.049-.52,2.774-.25.049.52Zm6.242-.583-.049-.52,2.774-.291.055.52Zm-59.517-.271c-.929-.166-1.838-.347-2.732-.527l.1-.513c.888.187,1.8.361,2.719.527Zm65.731-.444-.055-.52.694-.076,2.039-.257.069.513c-.694.1-1.387.18-2.081.257Zm6.2-.839-.083-.513c.915-.146,1.824-.3,2.739-.465l.09.513c-.929.16-1.859.319-2.76.465Zm-78.048,0c-.908-.229-1.81-.472-2.691-.694l.146-.5c.874.25,1.768.492,2.67.694Zm84.206-1.1-.1-.513c.909-.187,1.81-.381,2.712-.583l.111.506c-.915.187-1.824.381-2.732.569Zm-90.212-.659c-.895-.305-1.775-.631-2.615-.957l.187-.485c.839.326,1.713.645,2.594.95Zm96.315-.728-.125-.5c.895-.222,1.789-.451,2.677-.694l.139.5c-.888.222-1.81.451-2.7.673Zm-102.133-1.6c-.853-.4-1.692-.818-2.49-1.241l.25-.465c.791.423,1.616.839,2.462,1.234Zm108.188,0-.146-.5,2.649-.784.153.5Zm5.971-1.824-.16-.5,2.628-.867.166.492c-.908.264-1.761.562-2.67.846Zm-119.638-1.172c-.784-.5-1.56-1.033-2.3-1.574l.312-.423c.694.541,1.5,1.061,2.275,1.56Zm125.526-.846-.173-.492c.874-.312,1.741-.631,2.6-.95l.187.485c-.874.3-1.741.61-2.621.929Zm5.86-2.2-.194-.485c.867-.333,1.727-.694,2.58-1.026l.194.485c-.86.319-1.72.659-2.587,1Zm-136.428-.694c-.694-.617-1.387-1.262-2.032-1.921l.374-.361c.638.652,1.311,1.283,2,1.893Zm142.2-1.685-.2-.486c.853-.361,1.706-.694,2.545-1.089l.208.472C248.537,240.935,247.684,241.3,246.817,241.663Zm5.728-2.511-.215-.472,2.517-1.158.222.472ZM100.257,238.8h0a16.534,16.534,0,0,1-1.588-2.309l.451-.257a16.48,16.48,0,0,0,1.547,2.247Zm157.954-2.3-.229-.465c.839-.409,1.671-.811,2.49-1.221l.236.472Zm5.6-2.774-.236-.465c.839-.423,1.658-.853,2.469-1.276l.236.465c-.791.4-1.616.846-2.455,1.276Zm-166.443-.548a11.345,11.345,0,0,1-.305-2.6v-.215h.52v.2a10.7,10.7,0,0,0,.291,2.483Zm171.991-2.358-.25-.458c.832-.444,1.644-.888,2.441-1.325l.25.451q-1.186.666-2.434,1.332Zm5.472-3.024-.257-.451,2.406-1.387.264.444c-.77.465-1.574.895-2.406,1.394Zm-176.693-.749-.492-.16a15.476,15.476,0,0,1,1.089-2.587l.458.236A16.016,16.016,0,0,0,98.135,227.051Zm182.109-2.4-.264-.444q1.241-.735,2.372-1.436l.27.444C281.867,223.68,281.076,224.159,280.244,224.651Zm-179.2-2.989-.416-.312c.534-.694,1.144-1.429,1.8-2.143l.381.354c-.645.7-1.241,1.408-1.768,2.1Zm184.543-.277-.277-.437c.846-.534,1.63-1.033,2.344-1.5l.277.437c-.714.479-1.5.964-2.344,1.5Zm5.257-3.405-.291-.437c1.5-1,2.3-1.567,2.3-1.567l.305.423S292.346,216.967,290.841,217.98Zm-185.577-.832-.347-.388c.694-.6,1.387-1.207,2.129-1.8l.326.409c-.742.589-1.449,1.186-2.108,1.782Zm4.855-3.849-.305-.43c.742-.52,1.519-1.04,2.316-1.553l.284.437c-.77.513-1.526,1.026-2.275,1.547Zm5.243-3.343-.257-.451c.791-.465,1.609-.915,2.434-1.387l.243.458c-.8.465-1.609.922-2.4,1.387Zm5.506-2.927-.229-.465c.839-.409,1.685-.8,2.524-1.179l.208.479c-.811.368-1.651.763-2.483,1.165Zm5.694-2.51-.187-.479c.881-.354,1.741-.694,2.552-.95l.173.492c-.784.277-1.637.589-2.517.936Z" transform="translate(-97.06 -193.769)" fill="#263238"/>
      <path id="Path_581" data-name="Path 581" d="M383.89,199.253l-4.3,12.851,9.522-7.851,36.832-14.474Z" transform="translate(-183.652 -189.69)" fill="#ffcd00"/>
      <path id="Path_582" data-name="Path 582" d="M379.59,212.1l9.522-7.851,36.832-14.474Z" transform="translate(-183.652 -189.69)" fill="#ffcd00" opacity="0.1"/>
      <path id="Path_583" data-name="Path 583" d="M390.443,213.577,379.59,218.5l9.522-7.851Z" transform="translate(-183.652 -196.086)" fill="#263238"/>
      <path id="Path_584" data-name="Path 584" d="M393.32,204.254l36.832-14.474-29.71,30.57Z" transform="translate(-187.86 -189.69)" fill="#ffcd00"/>
      <path id="Path_585" data-name="Path 585" d="M378.842,199.214,363.12,189.65l57.776.09Z" transform="translate(-178.604 -189.65)" fill="#ffcd00"/>
    </g>
    <g id="freepik--Window--inject-74" transform="translate(1360.513 2336.098)">
      <rect id="Rectangle_1510" data-name="Rectangle 1510" width="149.549" height="123.653" transform="translate(0.194 0.173)" fill="#fff"/>
      <path id="Path_586" data-name="Path 586" d="M291.643,280.506l-149.549.1h-.125v-.1L141.9,156.853v-.173h.173l149.549.118h.055v.049Zm0,0-.055-123.653.055.055-149.549.118.173-.173L142.2,280.506l-.1-.1Z" transform="translate(-141.9 -156.68)" fill="#263238"/>
      <path id="Path_587" data-name="Path 587" d="M150.035,161.228a1.748,1.748,0,1,1-1.748-1.748A1.748,1.748,0,0,1,150.035,161.228Z" transform="translate(-143.322 -157.538)" fill="#fff"/>
      <path id="Path_588" data-name="Path 588" d="M149.959,161.185a1.838,1.838,0,0,1-1.748,1.831,1.859,1.859,0,0,1-1.338-.492,1.837,1.837,0,1,1,3.086-1.338Zm0,0a1.734,1.734,0,0,0-.527-1.221,1.664,1.664,0,1,0,0,2.434A1.727,1.727,0,0,0,149.959,161.185Z" transform="translate(-143.246 -157.496)" fill="#263238"/>
      <path id="Path_589" data-name="Path 589" d="M160.325,161.228a1.748,1.748,0,1,1-1.748-1.748A1.748,1.748,0,0,1,160.325,161.228Z" transform="translate(-146.476 -157.538)" fill="#fff"/>
      <path id="Path_590" data-name="Path 590" d="M160.249,161.185a1.838,1.838,0,0,1-1.748,1.831,1.859,1.859,0,0,1-1.339-.492,1.837,1.837,0,1,1,3.086-1.338Zm0,0a1.734,1.734,0,0,0-.527-1.221,1.664,1.664,0,1,0,0,2.434A1.727,1.727,0,0,0,160.249,161.185Z" transform="translate(-146.399 -157.496)" fill="#263238"/>
      <path id="Path_591" data-name="Path 591" d="M170.625,161.228a1.748,1.748,0,1,1-1.748-1.748A1.748,1.748,0,0,1,170.625,161.228Z" transform="translate(-149.633 -157.538)" fill="#fff"/>
      <path id="Path_592" data-name="Path 592" d="M170.549,161.187a1.838,1.838,0,0,1-1.748,1.831,1.872,1.872,0,0,1-1.345-.492,1.942,1.942,0,0,1-.576-1.338,1.914,1.914,0,0,1,.576-1.345,1.872,1.872,0,0,1,1.345-.492A1.838,1.838,0,0,1,170.549,161.187Zm0,0a1.741,1.741,0,0,0-.534-1.221,1.664,1.664,0,1,0,0,2.434,1.734,1.734,0,0,0,.534-1.214Z" transform="translate(-149.556 -157.498)" fill="#263238"/>
      <path id="Path_593" data-name="Path 593" d="M142.18,166.873l18.69-.083,18.7-.028,37.387-.062,37.387.062,18.7.028,18.69.083-18.69.09-18.7.028-37.387.055-37.387-.055-18.7-.035Z" transform="translate(-141.986 -159.751)" fill="#263238"/>
      <path id="Path_594" data-name="Path 594" d="M265.584,253.176h-56.6V205.3l28.3-17.976L265.584,205.3Z" transform="translate(-162.459 -166.071)" fill="#ffcd00"/>
      <path id="Path_596" data-name="Path 596" d="M263.8,248.509H213.58V184.04h37.29L263.8,196.322Z" transform="translate(-163.869 -165.066)" fill="#fff"/>
      <path id="Path_597" data-name="Path 597" d="M263.694,248.383l-50.224.166h-.159v-.166l-.09-64.5v-.257h.257l37.29.062h.083l.055.055,12.913,12.3.049.049v.069l-.055,26.138Zm0,0-.166-52.187.049.125L250.628,184.06l.132.049-37.29.062.291-.284-.09,64.5-.166-.166Z" transform="translate(-163.759 -164.94)" fill="#263238"/>
      <path id="Path_598" data-name="Path 598" d="M267.35,184.04l12.934,12.282H267.35Z" transform="translate(-180.349 -165.066)" fill="#dbdbdb"/>
      <rect id="Rectangle_1511" data-name="Rectangle 1511" width="27.921" height="1.657" transform="translate(82.535 31.444) rotate(180)" fill="#dbdbdb"/>
      <rect id="Rectangle_1512" data-name="Rectangle 1512" width="27.921" height="1.657" transform="translate(82.535 35.626) rotate(180)" fill="#dbdbdb"/>
      <rect id="Rectangle_1513" data-name="Rectangle 1513" width="27.921" height="1.657" transform="translate(82.535 39.801) rotate(180)" fill="#dbdbdb"/>
      <rect id="Rectangle_1514" data-name="Rectangle 1514" width="40.91" height="1.657" transform="translate(95.524 43.982) rotate(180)" fill="#dbdbdb"/>
      <rect id="Rectangle_1515" data-name="Rectangle 1515" width="40.91" height="1.657" transform="translate(95.524 48.157) rotate(180)" fill="#dbdbdb"/>
      <rect id="Rectangle_1516" data-name="Rectangle 1516" width="40.91" height="1.657" transform="translate(95.524 52.339) rotate(180)" fill="#dbdbdb"/>
      <rect id="Rectangle_1517" data-name="Rectangle 1517" width="40.91" height="1.657" transform="translate(95.524 56.514) rotate(180)" fill="#dbdbdb"/>
      <rect id="Rectangle_1518" data-name="Rectangle 1518" width="40.91" height="1.657" transform="translate(95.524 60.696) rotate(180)" fill="#dbdbdb"/>
      <rect id="Rectangle_1519" data-name="Rectangle 1519" width="40.91" height="1.657" transform="translate(95.524 64.871) rotate(180)" fill="#dbdbdb"/>
      <rect id="Rectangle_1520" data-name="Rectangle 1520" width="40.91" height="1.657" transform="translate(95.524 69.053) rotate(180)" fill="#dbdbdb"/>
      <rect id="Rectangle_1521" data-name="Rectangle 1521" width="40.91" height="1.657" transform="translate(95.524 73.235) rotate(180)" fill="#dbdbdb"/>
      <rect id="Rectangle_1522" data-name="Rectangle 1522" width="40.91" height="1.657" transform="translate(95.524 77.417) rotate(180)" fill="#dbdbdb"/>
      <path id="Path_599" data-name="Path 599" d="M265.591,230.52v35.9H209v-35.9c2.434,1.387,4.855,2.823,7.226,4.23s4.792,2.878,7.171,4.341q3.981,2.427,7.948,4.91l.09-.049a.378.378,0,0,1-.069.055l5.943,3.717c1.97-1.241,3.953-2.49,5.93-3.717a.6.6,0,0,0-.069-.055l.09.042q3.967-2.476,7.948-4.917c2.379-1.449,4.764-2.9,7.164-4.328S263.163,231.9,265.591,230.52Z" transform="translate(-162.465 -179.311)" fill="#ffcd00"/>
      <g id="Group_11" data-name="Group 11" transform="translate(46.493 51.209)" opacity="0.2">
        <path id="Path_600" data-name="Path 600" d="M265.572,230.52c-2.282,1.609-4.612,3.149-6.935,4.73s-4.647,3.093-6.984,4.619q-3.662,2.407-7.337,4.758l-.222.153-6.519,4.161-.326.194-.312-.194-6.512-4.161-.229-.139c-2.455-1.574-4.9-3.155-7.344-4.764-2.33-1.519-4.66-3.065-6.977-4.612s-4.633-3.121-6.935-4.73c2.434,1.387,4.855,2.823,7.226,4.23s4.792,2.878,7.171,4.341q3.981,2.427,7.948,4.91h0l5.943,3.717c1.97-1.241,3.953-2.49,5.929-3.717h0q3.967-2.476,7.948-4.917c2.379-1.449,4.764-2.9,7.164-4.328S263.145,231.9,265.572,230.52Z" transform="translate(-208.94 -230.52)"/>
        <path id="Path_601" data-name="Path 601" d="M231.476,249.89a.379.379,0,0,1-.069.055c-.3.257-.6.513-.895.756-1.387,1.2-2.871,2.351-4.348,3.468-1.8,1.387-3.648,2.7-5.5,4.009s-3.738,2.559-5.645,3.78-3.842,2.42-5.839,3.523c1.713-1.5,3.468-2.913,5.3-4.279s3.662-2.7,5.506-4,3.738-2.566,5.652-3.793c1.519-.978,3.065-1.935,4.647-2.836.368-.215.735-.416,1.1-.624Z" transform="translate(-209.014 -236.457)"/>
        <path id="Path_602" data-name="Path 602" d="M280.553,265.464c-2-1.1-3.939-2.3-5.839-3.523s-3.787-2.5-5.659-3.78-3.7-2.628-5.5-4.008c-1.47-1.11-2.92-2.254-4.334-3.468l-.9-.77a.6.6,0,0,0-.069-.056l.09.042,1.1.631c1.581.9,3.121,1.859,4.653,2.836,1.907,1.228,3.78,2.5,5.638,3.793s3.7,2.621,5.506,4S278.833,263.959,280.553,265.464Z" transform="translate(-224.053 -236.447)"/>
      </g>
      <rect id="Rectangle_1523" data-name="Rectangle 1523" width="48.033" height="10.181" transform="translate(50.952 102.508)" fill="#0f0f0f"/>
      <path id="Path_603" data-name="Path 603" d="M230.7,309.89a.856.856,0,0,0-.159-.125,1.59,1.59,0,0,0-.243-.132,2.073,2.073,0,0,0-.312-.1,1.9,1.9,0,0,0-.347-.035.95.95,0,0,0-.583.146.465.465,0,0,0-.187.4.416.416,0,0,0,.243.4,1.262,1.262,0,0,0,.305.125c.118.035.264.076.423.111a4.152,4.152,0,0,1,.541.166,1.389,1.389,0,0,1,.409.215.8.8,0,0,1,.257.312,1.006,1.006,0,0,1,.1.451,1.11,1.11,0,0,1-.118.52,1,1,0,0,1-.312.347,1.312,1.312,0,0,1-.458.2,2.388,2.388,0,0,1-.555.062,2.838,2.838,0,0,1-.874-.132,2.542,2.542,0,0,1-.756-.4l.284-.534a1.14,1.14,0,0,0,.208.159,1.943,1.943,0,0,0,.319.167,2.832,2.832,0,0,0,.388.125,1.8,1.8,0,0,0,.437.056,1.075,1.075,0,0,0,.569-.132.416.416,0,0,0,.2-.375.4.4,0,0,0-.076-.25.61.61,0,0,0-.215-.173,1.568,1.568,0,0,0-.34-.139l-.451-.125c-.2-.055-.368-.111-.513-.166a1.159,1.159,0,0,1-.368-.208.778.778,0,0,1-.215-.284.874.874,0,0,1-.076-.4,1.1,1.1,0,0,1,.111-.513,1.075,1.075,0,0,1,.3-.381,1.387,1.387,0,0,1,.458-.229,2.08,2.08,0,0,1,.562-.076,2.138,2.138,0,0,1,.742.125,2.641,2.641,0,0,1,.59.319Z" transform="translate(-168.31 -203.346)" fill="#fff"/>
      <path id="Path_604" data-name="Path 604" d="M235.009,312.391a.95.95,0,0,0,.513-.125.914.914,0,0,0,.333-.319,1.269,1.269,0,0,0,.18-.444,2.642,2.642,0,0,0,.049-.52V309h.631v2a3.024,3.024,0,0,1-.1.763,1.734,1.734,0,0,1-.3.624,1.345,1.345,0,0,1-.534.423,1.763,1.763,0,0,1-.777.16,1.742,1.742,0,0,1-.8-.166,1.463,1.463,0,0,1-.52-.437,1.755,1.755,0,0,1-.291-.631,2.85,2.85,0,0,1-.09-.735v-2h.624v2a2.547,2.547,0,0,0,.049.52,1.311,1.311,0,0,0,.18.451.977.977,0,0,0,.333.319A1.061,1.061,0,0,0,235.009,312.391Z" transform="translate(-169.916 -203.364)" fill="#fff"/>
      <path id="Path_605" data-name="Path 605" d="M242.5,311.906a.957.957,0,0,1-.1.43,1.041,1.041,0,0,1-.257.319,1.213,1.213,0,0,1-.388.2,1.72,1.72,0,0,1-.472.069H239.41V309h2.032a.742.742,0,0,1,.368.09.833.833,0,0,1,.284.229,1.027,1.027,0,0,1,.18.319,1.137,1.137,0,0,1,.062.367,1.1,1.1,0,0,1-.146.541.908.908,0,0,1-.416.375,1,1,0,0,1,.534.361A1.026,1.026,0,0,1,242.5,311.906Zm-2.476-2.386v1.165h1.179a.445.445,0,0,0,.215-.049.591.591,0,0,0,.173-.118.542.542,0,0,0,.118-.18.623.623,0,0,0,.042-.236.61.61,0,0,0-.146-.416.472.472,0,0,0-.368-.166Zm1.872,2.254a.693.693,0,0,0-.042-.236.589.589,0,0,0-.111-.194.519.519,0,0,0-.166-.132.465.465,0,0,0-.215-.049h-1.338v1.2h1.262a.5.5,0,0,0,.229-.049.471.471,0,0,0,.18-.125.555.555,0,0,0,.125-.187A.694.694,0,0,0,241.9,311.774Z" transform="translate(-171.786 -203.364)" fill="#fff"/>
      <path id="Path_606" data-name="Path 606" d="M247.008,309.89a1.172,1.172,0,0,0-.16-.125,1.686,1.686,0,0,0-.25-.132,2.08,2.08,0,0,0-.312-.1,1.9,1.9,0,0,0-.347-.035.908.908,0,0,0-.576.146.465.465,0,0,0-.187.4.471.471,0,0,0,.056.236.457.457,0,0,0,.18.16,1.389,1.389,0,0,0,.305.125c.125.035.264.076.43.111a4.146,4.146,0,0,1,.541.166,1.518,1.518,0,0,1,.409.215.86.86,0,0,1,.257.312,1.006,1.006,0,0,1,.09.451,1.2,1.2,0,0,1-.111.52,1,1,0,0,1-.312.347,1.387,1.387,0,0,1-.458.2,2.4,2.4,0,0,1-.562.062,2.774,2.774,0,0,1-.867-.132,2.379,2.379,0,0,1-.756-.4l.277-.534a1.141,1.141,0,0,0,.208.159,2.275,2.275,0,0,0,.319.167,2.831,2.831,0,0,0,.388.125,1.9,1.9,0,0,0,.444.056,1.048,1.048,0,0,0,.562-.132.416.416,0,0,0,.2-.374.4.4,0,0,0-.076-.25.548.548,0,0,0-.215-.173,1.51,1.51,0,0,0-.333-.139l-.458-.125c-.194-.055-.368-.111-.513-.166a1.123,1.123,0,0,1-.361-.208.792.792,0,0,1-.222-.284.978.978,0,0,1-.076-.4,1.193,1.193,0,0,1,.111-.513,1.1,1.1,0,0,1,.305-.381,1.318,1.318,0,0,1,.451-.229,2.087,2.087,0,0,1,.569-.076,2.123,2.123,0,0,1,.735.125,2.7,2.7,0,0,1,.6.319Z" transform="translate(-173.309 -203.346)" fill="#fff"/>
      <path id="Path_607" data-name="Path 607" d="M249.34,310.918a2.081,2.081,0,0,1,.125-.694,1.878,1.878,0,0,1,.375-.631,1.983,1.983,0,0,1,.6-.458,1.872,1.872,0,0,1,.8-.166,1.719,1.719,0,0,1,.922.236,1.6,1.6,0,0,1,.576.624l-.492.326a1.055,1.055,0,0,0-.194-.3,1.089,1.089,0,0,0-.257-.194,1.121,1.121,0,0,0-.291-.1,1.389,1.389,0,0,0-.284-.035,1.158,1.158,0,0,0-.548.125,1.2,1.2,0,0,0-.388.333,1.611,1.611,0,0,0-.243.458,1.912,1.912,0,0,0-.076.513,1.594,1.594,0,0,0,.09.548,1.615,1.615,0,0,0,.264.465,1.484,1.484,0,0,0,.4.319,1.165,1.165,0,0,0,.513.118,1.512,1.512,0,0,0,.3,0,1.165,1.165,0,0,0,.291-.118,1.469,1.469,0,0,0,.264-.2,1.006,1.006,0,0,0,.194-.3l.52.3a1.158,1.158,0,0,1-.271.388,1.6,1.6,0,0,1-.388.284,2.164,2.164,0,0,1-.458.18,1.878,1.878,0,0,1-.472.062,1.65,1.65,0,0,1-.763-.18,1.922,1.922,0,0,1-.59-.465,2.027,2.027,0,0,1-.388-.645,1.983,1.983,0,0,1-.139-.791Z" transform="translate(-174.829 -203.355)" fill="#fff"/>
      <path id="Path_608" data-name="Path 608" d="M255.17,312.925V309h1.713a1.067,1.067,0,0,1,.492.111,1.215,1.215,0,0,1,.381.291,1.318,1.318,0,0,1,.257.409,1.24,1.24,0,0,1,.09.472,1.386,1.386,0,0,1-.055.381,1.5,1.5,0,0,1-.153.34,1.129,1.129,0,0,1-.25.264.99.99,0,0,1-.312.173l.922,1.5h-.694l-.853-1.387h-.915v1.387Zm.617-1.921h1.089a.542.542,0,0,0,.243-.055.694.694,0,0,0,.187-.167.748.748,0,0,0,.118-.236.727.727,0,0,0,.049-.277.769.769,0,0,0-.055-.284.882.882,0,0,0-.139-.236.756.756,0,0,0-.2-.159.563.563,0,0,0-.236-.055h-1.054Z" transform="translate(-176.616 -203.364)" fill="#fff"/>
      <path id="Path_609" data-name="Path 609" d="M260.46,312.925V309h.617v3.939Z" transform="translate(-178.237 -203.364)" fill="#fff"/>
      <path id="Path_610" data-name="Path 610" d="M265.73,311.906a.957.957,0,0,1-.1.43,1.061,1.061,0,0,1-.263.319,1.144,1.144,0,0,1-.388.2,1.72,1.72,0,0,1-.472.069H262.63V309h2.032a.748.748,0,0,1,.374.09.8.8,0,0,1,.277.229.908.908,0,0,1,.18.319,1.154,1.154,0,0,1,.069.368,1.1,1.1,0,0,1-.153.541.909.909,0,0,1-.416.375,1,1,0,0,1,.534.361A1.033,1.033,0,0,1,265.73,311.906Zm-2.476-2.386v1.165H264.4a.417.417,0,0,0,.208-.049.514.514,0,0,0,.173-.118.541.541,0,0,0,.118-.18.623.623,0,0,0,.042-.236.61.61,0,0,0-.146-.416.458.458,0,0,0-.368-.166Zm1.838,2.275a.694.694,0,0,0-.042-.236.75.75,0,0,0-.111-.194.55.55,0,0,0-.173-.132.444.444,0,0,0-.215-.049h-1.3v1.2h1.255a.5.5,0,0,0,.229-.049.554.554,0,0,0,.187-.125.647.647,0,0,0,.166-.437Z" transform="translate(-178.902 -203.364)" fill="#fff"/>
      <path id="Path_611" data-name="Path 611" d="M270.725,312.377v.548H268V309h2.656v.548h-2.032v1.123h1.755v.513h-1.755v1.207Z" transform="translate(-180.548 -203.364)" fill="#fff"/>
      <path id="Path_612" data-name="Path 612" d="M193.07,290.653l9.869-.083,9.869-.028,19.744-.062,19.744.062,9.869.028,9.869.083-9.869.09-9.869.028-19.744.056-19.744-.056-9.869-.035Z" transform="translate(-157.583 -197.688)" fill="#263238"/>
      <path id="Path_613" data-name="Path 613" d="M212.86,295.043q6.436-.1,12.878-.132l12.879-.042,12.879.042q6.443,0,12.878.132-6.436.09-12.878.132l-12.879.042-12.879-.042Q219.3,295.147,212.86,295.043Z" transform="translate(-163.648 -199.034)" fill="#263238"/>
    </g>
  </g>
</svg>
