<svg xmlns="http://www.w3.org/2000/svg" width="341.221" height="221.644" viewBox="0 0 341.221 221.644">
  <g id="Group_139" data-name="Group 139" transform="translate(-1220.597 -3008)">
    <path id="Path_83" data-name="Path 83" d="M227.972,430.268a29.2,29.2,0,0,0-14.228-14.615c-6.3-2.947-20.34-1.59-20.34-1.59l-36.9-.08c.758,3.244,3.181,11.567,4.956,14.366a13.873,13.873,0,0,0,7.655,6.07c3.917,1.108,8.068-.037,12.134-.3,7.151-.461,14.148,1.85,21.034,3.838s14.2,3.673,21.161,1.988c1.977-.482,4.05-1.362,5.009-3.154C229.515,434.811,228.857,432.346,227.972,430.268Z" transform="translate(1120.313 2789.01)" fill="#e0e0e0"/>
    <rect id="Rectangle_1407" data-name="Rectangle 1407" width="48.35" height="32.59" transform="translate(1476.838 3111.266) rotate(-12.87)" fill="#f5f5f5"/>
    <path id="Path_99" data-name="Path 99" d="M581.445,221.46a3.283,3.283,0,0,1-.345.53l-1.06,1.447-3.928,5.3c-3.377,4.474-8,10.6-13.125,17.387l-.106.143-.164-.08L562.33,246l-19.863-9.648-6-2.963-1.59-.827a3.47,3.47,0,0,1-.557-.318,3.629,3.629,0,0,1,.594.239l1.654.753,6.064,2.82,19.915,9.542.392.191-.27.064c5.163-6.753,9.822-12.855,13.252-17.307,1.68-2.173,3.053-3.939,4.039-5.205l1.113-1.4A3.008,3.008,0,0,1,581.445,221.46Z" transform="translate(942.773 2879.369)" fill="#e0e0e0"/>
    <path id="Path_100" data-name="Path 100" d="M548,281.443c-.106-.058,2.444-5.221,5.693-11.535s5.979-11.392,6.085-11.339-2.444,5.221-5.693,11.54S548.1,281.5,548,281.443Z" transform="translate(936.347 2861.932)" fill="#e0e0e0"/>
    <path id="Path_101" data-name="Path 101" d="M599.6,251.068c.074-.1,4.564,3.43,10.029,7.867s9.828,8.116,9.748,8.211-4.564-3.43-10.029-7.872S599.519,251.164,599.6,251.068Z" transform="translate(912.098 2865.457)" fill="#e0e0e0"/>
    <rect id="Rectangle_1408" data-name="Rectangle 1408" width="19.216" height="28.508" transform="translate(1309.678 3032.832) rotate(-77)" fill="#f5f5f5"/>
    <path id="Path_102" data-name="Path 102" d="M254.517,64.754a2.12,2.12,0,0,1-.318.191l-.928.5-3.446,1.792-11.434,5.831-.1.048-.069-.08-.159-.2-8.052-10.21L227.6,59.5l-.647-.853a1.557,1.557,0,0,1-.212-.307,1.969,1.969,0,0,1,.249.276l.689.827,2.481,3.064,8.116,10.183.159.2-.159-.032,11.466-5.778,3.483-1.723.954-.456A1.717,1.717,0,0,1,254.517,64.754Z" transform="translate(1087.307 2956.021)" fill="#e0e0e0"/>
    <path id="Path_103" data-name="Path 103" d="M218.58,85.591c-.042-.058,2.65-2.12,5.99-4.654s6.1-4.506,6.144-4.447-2.651,2.12-5.99,4.654S218.622,85.649,218.58,85.591Z" transform="translate(1091.142 2947.493)" fill="#e0e0e0"/>
    <path id="Path_104" data-name="Path 104" d="M259,80.07c.064-.032,1.543,3,3.3,6.753s3.122,6.833,3.059,6.891-1.537-3-3.292-6.753S258.929,80.1,259,80.07Z" transform="translate(1072.15 2945.81)" fill="#e0e0e0"/>
    <rect id="Rectangle_1409" data-name="Rectangle 1409" width="22.089" height="14.89" transform="translate(1469.79 3027.529) rotate(-23.25)" fill="#f5f5f5"/>
    <path id="Path_105" data-name="Path 105" d="M541.087,67a1.785,1.785,0,0,1-.111.26l-.35.737c-.323.657-.779,1.59-1.331,2.7l-4.469,8.895-.037.074h-.08l-.191-.048-9.717-2.7-2.942-.906-.8-.239-.276-.1a1.371,1.371,0,0,1,.286.058l.806.2,2.958.779,9.732,2.65.191.053-.111.053c1.76-3.462,3.356-6.589,4.516-8.868.578-1.113,1.06-2.025,1.389-2.65l.382-.721A1.309,1.309,0,0,1,541.087,67Z" transform="translate(949.131 2951.952)" fill="#e0e0e0"/>
    <path id="Path_106" data-name="Path 106" d="M531.878,99.243c-.053,0,.668-2.55,1.59-5.656S535.238,88,535.292,88s-.668,2.544-1.59,5.651S531.941,99.259,531.878,99.243Z" transform="translate(943.922 2942.083)" fill="#e0e0e0"/>
    <path id="Path_107" data-name="Path 107" d="M550.9,82.2c.027-.053,2.338,1.161,5.158,2.709s5.084,2.836,5.057,2.884-2.332-1.161-5.152-2.709S550.873,82.246,550.9,82.2Z" transform="translate(934.982 2944.81)" fill="#e0e0e0"/>
    <rect id="Rectangle_1410" data-name="Rectangle 1410" width="203.831" height="134.792" rx="14.57" transform="translate(1287.092 3066.289)" fill="#455a64"/>
    <path id="Path_159" data-name="Path 159" d="M160.86,394.16H381.7v2.359a9.436,9.436,0,0,1-9.436,9.436H170.3a9.436,9.436,0,0,1-9.436-9.436Z" transform="translate(1118.265 2798.216)" fill="#455a64"/>
    <rect id="Rectangle_1411" data-name="Rectangle 1411" width="192.317" height="113.827" transform="translate(1292.563 3071.643)" fill="#263238"/>
    <path id="Path_160" data-name="Path 160" d="M330.25,391.77l2.735,4.363h38.564l2.544-4.363Z" transform="translate(1038.667 2799.339)" fill="#263238"/>
    <rect id="Rectangle_1412" data-name="Rectangle 1412" width="184.79" height="109.612" rx="3.27" transform="translate(1296.528 3075.497)" fill="#ebebeb"/>
    <path id="Path_161" data-name="Path 161" d="M378.1,290.706H193.31l.2-101.576H378.1Z" transform="translate(1103.016 2894.562)" fill="#fafafa"/>
    <path id="Path_162" data-name="Path 162" d="M219.658,180.354a1.474,1.474,0,1,1-.433-1.044A1.479,1.479,0,0,1,219.658,180.354Z" transform="translate(1092.025 2899.378)" fill="#263238"/>
    <path id="Path_163" data-name="Path 163" d="M202.778,180.354a1.468,1.468,0,1,1-.43-1.044A1.479,1.479,0,0,1,202.778,180.354Z" transform="translate(1099.957 2899.378)" fill="#263238"/>
    <path id="Path_164" data-name="Path 164" d="M210.878,180.354a1.468,1.468,0,1,1-.43-1.044A1.479,1.479,0,0,1,210.878,180.354Z" transform="translate(1096.151 2899.378)" fill="#263238"/>
    <path id="Path_165" data-name="Path 165" d="M377.966,391.652c0,.074-45.238.133-101.03.133s-101.046-.058-101.046-.133,45.233-.132,101.046-.132S377.966,391.584,377.966,391.652Z" transform="translate(1111.202 2799.457)" fill="#263238"/>
    <path id="Path_166" data-name="Path 166" d="M304.9,263.36l75.183-.7,2.2,51.106-77.849-.557Z" transform="translate(1050.8 2860.009)" fill="#ffcd00"/>
    <path id="Path_167" data-name="Path 167" d="M305.31,237.6l35.516-28.863a4.092,4.092,0,0,1,5.163,0l34.5,28.158" transform="translate(1050.386 2885.779)" fill="#ffcd00"/>
    <path id="Path_169" data-name="Path 169" d="M304.429,332.22c-.09-.09,5.911-6.674,13.411-14.7s13.66-14.45,13.756-14.376-5.91,6.669-13.417,14.7S304.525,332.316,304.429,332.22Z" transform="translate(1050.801 2840.988)" fill="#263238"/>
    <path id="Path_170" data-name="Path 170" d="M428.334,333.351c-.1.09-5.969-6.361-13.12-14.35s-12.871-14.578-12.775-14.662,5.969,6.361,13.125,14.355S428.429,333.266,428.334,333.351Z" transform="translate(1004.745 2840.424)" fill="#263238"/>
    <g id="Group_5" data-name="Group 5" transform="translate(1355.697 3122.669)" opacity="0.5">
      <path id="Path_171" data-name="Path 171" d="M380.493,262.66,342.8,292.9,305.31,263.36" transform="translate(-305.31 -262.66)"/>
    </g>
    <path id="Path_172" data-name="Path 172" d="M312.32,247.615l-.17-23.483,65.832-.912.79,24.7-32.76,26.043Z" transform="translate(1047.172 2878.542)" fill="#fafafa"/>
    <path id="Path_173" data-name="Path 173" d="M312.277,247.511s.217.154.625.466l1.792,1.384,6.817,5.3c5.873,4.585,14.312,11.132,24.527,19.126H345.9l32.744-26.065-.048.111c-.154-4.712-.313-9.658-.472-14.689-.111-3.387-.217-6.737-.323-10.019l.138.133-65.827.869.085-.09c.032,7.384.064,13.252.079,17.27v4.633c0-1.06-.032-2.6-.053-4.6-.037-4.034-.1-9.9-.164-17.3v-.085h.085l65.79-.954h.138v.138c.106,3.281.212,6.626.323,10.013.159,5.031.318,9.976.466,14.689v.069l-.053.042-32.781,26.027-.069.058-.069-.058-24.5-19.226-6.764-5.333-1.765-1.4Z" transform="translate(1047.215 2878.646)" fill="#263238"/>
    <path id="Path_174" data-name="Path 174" d="M376.893,245.516c0,.074-10.072.217-22.486.318s-22.486.122-22.486.048,10.072-.217,22.486-.323S376.893,245.436,376.893,245.516Z" transform="translate(1037.882 2868.089)" fill="#263238"/>
    <path id="Path_175" data-name="Path 175" d="M376.918,258.031c0,.074-10.072.223-22.481.323s-22.486.122-22.486.042,10.072-.217,22.486-.318S376.918,257.957,376.918,258.031Z" transform="translate(1037.868 2862.206)" fill="#263238"/>
    <path id="Path_176" data-name="Path 176" d="M376.948,272.451c0,.079-10.072.223-22.481.323s-22.486.122-22.486.042,10.072-.217,22.486-.318S376.948,272.376,376.948,272.451Z" transform="translate(1037.854 2855.429)" fill="#263238"/>
    <path id="Path_177" data-name="Path 177" d="M378.81,286.869c0,.08-9.6.217-21.447.313s-21.453.117-21.453.037,9.6-.217,21.453-.313S378.81,286.794,378.81,286.869Z" transform="translate(1036.007 2848.656)" fill="#263238"/>
    <path id="Path_178" data-name="Path 178" d="M377.989,299.576a.871.871,0,0,1-.265.032l-.758.032-2.778.069-9.176.17c-3.583.064-6.833.085-9.181.085H352.3a1.062,1.062,0,0,1-.265-.026.869.869,0,0,1,.265-.032l.753-.032,2.783-.069,9.176-.164c3.583-.069,6.828-.09,9.176-.09h3.541A1.358,1.358,0,0,1,377.989,299.576Z" transform="translate(1028.432 2842.674)" fill="#263238"/>
    <path id="Path_179" data-name="Path 179" d="M376.542,311.671a82.618,82.618,0,0,1-9.542.021,82.673,82.673,0,0,1,9.542-.021Z" transform="translate(1021.398 2837.047)" fill="#263238"/>
    <path id="Path_181" data-name="Path 181" d="M401.568,222.83c.074,0,.106.307.069.673s-.127.652-.2.647-.106-.313-.069-.679S401.488,222.819,401.568,222.83Z" transform="translate(1005.256 2878.726)" fill="#263238"/>
    <path id="Path_182" data-name="Path 182" d="M402.732,213.09a3.226,3.226,0,0,1-.058,1.3,3.274,3.274,0,0,1-.334,1.267,6.149,6.149,0,0,1,.392-2.571Z" transform="translate(1004.797 2883.302)" fill="#263238"/>
    <path id="Path_183" data-name="Path 183" d="M404.539,203.45a3.181,3.181,0,0,1-.143,1.3,3.255,3.255,0,0,1-.419,1.24,3.133,3.133,0,0,1,.148-1.3A3.182,3.182,0,0,1,404.539,203.45Z" transform="translate(1004.029 2887.833)" fill="#263238"/>
    <path id="Path_184" data-name="Path 184" d="M407.048,194a6.112,6.112,0,0,1-.758,2.5,3.256,3.256,0,0,1,.249-1.288,3.116,3.116,0,0,1,.509-1.209Z" transform="translate(1002.935 2892.273)" fill="#263238"/>
    <path id="Path_185" data-name="Path 185" d="M410.295,184.78a3.26,3.26,0,0,1-.355,1.262,3.18,3.18,0,0,1-.61,1.161,3.284,3.284,0,0,1,.355-1.246A3.139,3.139,0,0,1,410.295,184.78Z" transform="translate(1001.507 2896.606)" fill="#263238"/>
    <path id="Path_186" data-name="Path 186" d="M414.357,175.928a6.282,6.282,0,0,1-1.187,2.316,3.179,3.179,0,0,1,.472-1.219C413.97,176.384,414.288,175.891,414.357,175.928Z" transform="translate(999.702 2900.766)" fill="#263238"/>
    <path id="Path_187" data-name="Path 187" d="M419.291,167.548a3.242,3.242,0,0,1-.609,1.161c-.382.6-.747,1.06-.811,1.023a3.082,3.082,0,0,1,.578-1.177C418.851,167.956,419.227,167.505,419.291,167.548Z" transform="translate(997.494 2904.705)" fill="#263238"/>
    <path id="Path_188" data-name="Path 188" d="M425.123,159.807a3.3,3.3,0,0,1-.726,1.092c-.461.53-.88.959-.944.912s.265-.53.732-1.087S425.065,159.759,425.123,159.807Z" transform="translate(994.874 2908.343)" fill="#263238"/>
    <path id="Path_189" data-name="Path 189" d="M431.831,152.834c.053.058-.329.5-.848,1s-.986.848-1.06.8.323-.5.848-1S431.783,152.776,431.831,152.834Z" transform="translate(991.834 2911.62)" fill="#263238"/>
    <path id="Path_190" data-name="Path 190" d="M439.406,146.78c.042.064-.392.461-.97.885a3.211,3.211,0,0,1-1.129.657c-.048-.058.387-.456.97-.88A3.129,3.129,0,0,1,439.406,146.78Z" transform="translate(988.362 2914.462)" fill="#263238"/>
    <path id="Path_191" data-name="Path 191" d="M447.713,141.81a6.2,6.2,0,0,1-2.3,1.24c-.037-.069.445-.4,1.06-.742A3.132,3.132,0,0,1,447.713,141.81Z" transform="translate(984.549 2916.798)" fill="#263238"/>
    <path id="Path_192" data-name="Path 192" d="M456.679,138.11a3.308,3.308,0,0,1-1.177.573,3.143,3.143,0,0,1-1.272.313,3.229,3.229,0,0,1,1.177-.572A3.058,3.058,0,0,1,456.679,138.11Z" transform="translate(980.408 2918.536)" fill="#263238"/>
    <path id="Path_193" data-name="Path 193" d="M466.145,135.87a3.287,3.287,0,0,1-1.256.35,3.181,3.181,0,0,1-1.3.132A5.211,5.211,0,0,1,466.145,135.87Z" transform="translate(976.009 2919.594)" fill="#263238"/>
    <path id="Path_194" data-name="Path 194" d="M475.913,135.209a3.223,3.223,0,0,1-1.3.148,3.1,3.1,0,0,1-1.3-.122,3.232,3.232,0,0,1,1.3-.154A3.1,3.1,0,0,1,475.913,135.209Z" transform="translate(971.442 2919.969)" fill="#263238"/>
    <path id="Path_195" data-name="Path 195" d="M485.716,136.112a3.218,3.218,0,0,1-1.309-.074,3.149,3.149,0,0,1-1.267-.345A6.293,6.293,0,0,1,485.716,136.112Z" transform="translate(966.823 2919.675)" fill="#263238"/>
    <path id="Path_196" data-name="Path 196" d="M495.2,138.539a6.155,6.155,0,0,1-2.465-.859,3.351,3.351,0,0,1,1.278.3A3.132,3.132,0,0,1,495.2,138.539Z" transform="translate(962.312 2918.739)" fill="#263238"/>
    <path id="Path_197" data-name="Path 197" d="M504.138,142.609a3.3,3.3,0,0,1-1.2-.53,3.212,3.212,0,0,1-1.06-.769,3.182,3.182,0,0,1,1.2.53C503.7,142.206,504.181,142.545,504.138,142.609Z" transform="translate(958.017 2917.033)" fill="#263238"/>
    <path id="Path_198" data-name="Path 198" d="M512.112,148.312a3.322,3.322,0,0,1-1.06-.758c-.53-.466-.933-.9-.885-.959s.53.276,1.06.753S512.165,148.259,512.112,148.312Z" transform="translate(954.124 2914.553)" fill="#263238"/>
    <path id="Path_199" data-name="Path 199" d="M517.954,154.5c-.064.042-.292-.154-.53-.44s-.355-.557-.3-.61.286.148.53.44S518.018,154.454,517.954,154.5Z" transform="translate(950.859 2911.331)" fill="#263238"/>
    <path id="Path_200" data-name="Path 200" d="M562.81,214.7a3.25,3.25,0,0,1-1.256-.435c-.668-.307-1.182-.615-1.145-.684a3.458,3.458,0,0,1,1.262.435A3.33,3.33,0,0,1,562.81,214.7Z" transform="translate(930.515 2883.073)" fill="#263238"/>
    <path id="Path_201" data-name="Path 201" d="M572.134,218.314a6.445,6.445,0,0,1-2.534-.774A6.363,6.363,0,0,1,572.134,218.314Z" transform="translate(926.194 2881.211)" fill="#263238"/>
    <path id="Path_202" data-name="Path 202" d="M581.915,220.242a3.276,3.276,0,0,1-1.336,0,3.234,3.234,0,0,1-1.3-.281,3.38,3.38,0,0,1,1.33,0A3.335,3.335,0,0,1,581.915,220.242Z" transform="translate(921.646 2880.105)" fill="#263238"/>
    <path id="Path_203" data-name="Path 203" d="M591.885,220.158a3.287,3.287,0,0,1-1.309.233,3.18,3.18,0,0,1-1.336-.037,3.476,3.476,0,0,1,1.315-.239A3.234,3.234,0,0,1,591.885,220.158Z" transform="translate(916.966 2880.024)" fill="#263238"/>
    <path id="Path_204" data-name="Path 204" d="M601.757,218.393a3.4,3.4,0,0,1-1.256.445,3.324,3.324,0,0,1-1.331.133,3.333,3.333,0,0,1,1.272-.4A3.233,3.233,0,0,1,601.757,218.393Z" transform="translate(912.299 2880.814)" fill="#263238"/>
    <path id="Path_205" data-name="Path 205" d="M611.2,214.71c.037.069-.477.371-1.145.684a3.181,3.181,0,0,1-1.262.424A6.446,6.446,0,0,1,611.2,214.71Z" transform="translate(907.779 2882.542)" fill="#263238"/>
    <path id="Path_206" data-name="Path 206" d="M619.743,209.14c.048.058-.366.493-.954.938a2.925,2.925,0,0,1-1.161.657c-.042-.064.413-.44,1-.875A3.712,3.712,0,0,1,619.743,209.14Z" transform="translate(903.627 2885.159)" fill="#263238"/>
    <path id="Path_207" data-name="Path 207" d="M626.921,201.838a2.945,2.945,0,0,1-.7,1.14c-.472.567-.928.959-.981.906s.307-.53.769-1.06S626.857,201.8,626.921,201.838Z" transform="translate(900.053 2888.591)" fill="#263238"/>
    <path id="Path_208" data-name="Path 208" d="M632.146,193a2.831,2.831,0,0,1-.366,1.288,2.948,2.948,0,0,1-.71,1.134,3.9,3.9,0,0,1,.456-1.251A4.023,4.023,0,0,1,632.146,193Z" transform="translate(897.309 2892.743)" fill="#263238"/>
    <path id="Path_209" data-name="Path 209" d="M634.733,183.26a2.8,2.8,0,0,1,.058,1.336,2.743,2.743,0,0,1-.329,1.3,4.129,4.129,0,0,1,.053-1.325A4.034,4.034,0,0,1,634.733,183.26Z" transform="translate(895.729 2897.32)" fill="#263238"/>
    <path id="Path_210" data-name="Path 210" d="M633.51,173.4a2.89,2.89,0,0,1,.477,1.251,2.823,2.823,0,0,1,.111,1.33,3.935,3.935,0,0,1-.382-1.267A4.027,4.027,0,0,1,633.51,173.4Z" transform="translate(896.163 2901.953)" fill="#263238"/>
    <path id="Path_211" data-name="Path 211" d="M629.16,164.437c.058-.048.461.408.832,1.06a2.755,2.755,0,0,1,.5,1.235c-.069.037-.376-.472-.737-1.1a4.1,4.1,0,0,1-.593-1.2Z" transform="translate(898.207 2906.167)" fill="#263238"/>
    <path id="Path_212" data-name="Path 212" d="M622.218,157.3a2.767,2.767,0,0,1,1.129.721c.562.482.928.959.875,1.012s-.53-.334-1.06-.806S622.175,157.364,622.218,157.3Z" transform="translate(901.47 2909.519)" fill="#263238"/>
    <path id="Path_213" data-name="Path 213" d="M613.15,153.23a2.65,2.65,0,0,1,1.325.217,2.746,2.746,0,0,1,1.193.61,4.147,4.147,0,0,1-1.277-.35A4.342,4.342,0,0,1,613.15,153.23Z" transform="translate(905.73 2911.437)" fill="#263238"/>
    <path id="Path_214" data-name="Path 214" d="M603.216,153.008a2.562,2.562,0,0,1,1.283-.387,2.65,2.65,0,0,1,1.341.042,14.271,14.271,0,0,1-2.65.344Z" transform="translate(910.41 2911.749)" fill="#263238"/>
    <path id="Path_215" data-name="Path 215" d="M594.615,156.811c-.058-.048.307-.53.906-.991a2.5,2.5,0,0,1,1.2-.61c.037.074-.461.4-1.06.832S594.673,156.864,594.615,156.811Z" transform="translate(914.443 2910.501)" fill="#263238"/>
    <path id="Path_216" data-name="Path 216" d="M590.607,164.936a2.42,2.42,0,0,1,.08-1.341,2.342,2.342,0,0,1,.556-1.225,5.757,5.757,0,0,1-.291,1.288A5.108,5.108,0,0,1,590.607,164.936Z" transform="translate(916.351 2907.136)" fill="#263238"/>
    <path id="Path_217" data-name="Path 217" d="M591.832,174.682a2.577,2.577,0,0,1-.641-1.177,2.5,2.5,0,0,1-.223-1.325,4.778,4.778,0,0,1,.482,1.235A4.568,4.568,0,0,1,591.832,174.682Z" transform="translate(916.16 2902.527)" fill="#263238"/>
    <path id="Path_218" data-name="Path 218" d="M597.382,182.791a2.651,2.651,0,0,1-1.14-.71c-.562-.488-.906-.986-.848-1.034s.488.35,1.028.827S597.425,182.727,597.382,182.791Z" transform="translate(914.077 2898.362)" fill="#263238"/>
    <path id="Path_219" data-name="Path 219" d="M606.007,187.649a2.8,2.8,0,0,1-1.315-.249,2.68,2.68,0,0,1-1.193-.61,4.144,4.144,0,0,1,1.277.35A3.922,3.922,0,0,1,606.007,187.649Z" transform="translate(910.264 2895.661)" fill="#263238"/>
    <path id="Path_220" data-name="Path 220" d="M615.8,189.219a4.893,4.893,0,0,1-2.65-.058,4.189,4.189,0,0,1,1.325-.064A3.859,3.859,0,0,1,615.8,189.219Z" transform="translate(905.73 2894.589)" fill="#263238"/>
    <path id="Path_221" data-name="Path 221" d="M625.726,187.53a4.962,4.962,0,0,1-2.566.657,3.782,3.782,0,0,1,1.256-.419A4.044,4.044,0,0,1,625.726,187.53Z" transform="translate(901.026 2895.313)" fill="#263238"/>
    <path id="Path_222" data-name="Path 222" d="M634.923,183.38a3.324,3.324,0,0,1-1.108.742,3.287,3.287,0,0,1-1.235.5,6.456,6.456,0,0,1,2.343-1.24Z" transform="translate(896.6 2897.263)" fill="#263238"/>
    <path id="Path_223" data-name="Path 223" d="M643.183,177.42c.053.058-.366.482-.933.949a3.44,3.44,0,0,1-1.113.737c-.048-.064.376-.488.938-.949A3.49,3.49,0,0,1,643.183,177.42Z" transform="translate(892.58 2900.064)" fill="#263238"/>
    <path id="Path_224" data-name="Path 224" d="M650.318,170.105c.058.048-.281.53-.758,1.1s-.912.97-.965.917a3.505,3.505,0,0,1,.753-1.1C649.82,170.455,650.254,170.047,650.318,170.105Z" transform="translate(889.077 2903.504)" fill="#263238"/>
    <path id="Path_225" data-name="Path 225" d="M656.132,161.768a3.256,3.256,0,0,1-.562,1.209c-.382.631-.737,1.108-.8,1.06a3.28,3.28,0,0,1,.562-1.209C655.708,162.208,656.063,161.731,656.132,161.768Z" transform="translate(886.172 2907.42)" fill="#263238"/>
    <path id="Path_226" data-name="Path 226" d="M660.531,152.63a3.412,3.412,0,0,1-.355,1.288,3,3,0,0,1-.625,1.177,3.782,3.782,0,0,1,.366-1.278A3.334,3.334,0,0,1,660.531,152.63Z" transform="translate(883.926 2911.713)" fill="#263238"/>
    <path id="Path_227" data-name="Path 227" d="M663.6,143a3.214,3.214,0,0,1-.2,1.315,3.318,3.318,0,0,1-.466,1.251A6.334,6.334,0,0,1,663.6,143Z" transform="translate(882.333 2916.238)" fill="#263238"/>
    <path id="Path_228" data-name="Path 228" d="M665.55,133.2a3.18,3.18,0,0,1-.064,1.331,3.347,3.347,0,0,1-.334,1.288,3.178,3.178,0,0,1,.063-1.331,3.382,3.382,0,0,1,.334-1.288Z" transform="translate(881.313 2920.844)" fill="#263238"/>
    <path id="Path_229" data-name="Path 229" d="M666.61,123.24a6.32,6.32,0,0,1-.2,2.65,3.432,3.432,0,0,1-.037-1.336A3.344,3.344,0,0,1,666.61,123.24Z" transform="translate(880.741 2925.524)" fill="#263238"/>
    <path id="Path_230" data-name="Path 230" d="M667.016,113.25a6.443,6.443,0,0,1-.053,2.65,3.469,3.469,0,0,1-.111-1.331,3.387,3.387,0,0,1,.164-1.32Z" transform="translate(880.505 2930.218)" fill="#263238"/>
    <path id="Path_231" data-name="Path 231" d="M666.985,103.25a3.326,3.326,0,0,1,.159,1.325,3.178,3.178,0,0,1-.122,1.325,3.347,3.347,0,0,1-.159-1.325,3.408,3.408,0,0,1,.122-1.325Z" transform="translate(880.498 2934.917)" fill="#263238"/>
    <path id="Path_232" data-name="Path 232" d="M666.887,97.1c.074,0,.143.133.148.3s-.053.3-.132.307-.143-.133-.143-.3S666.792,97.1,666.887,97.1Z" transform="translate(880.538 2937.807)" fill="#263238"/>
    <rect id="Rectangle_1413" data-name="Rectangle 1413" width="36.242" height="24.432" transform="translate(1522.989 3023.081) rotate(-6.2)" fill="#ffcd00"/>
    <path id="Path_233" data-name="Path 233" d="M623.5,95.651h0l-2.65-24.3h0L656.9,67.44h0l2.651,24.3h0Zm-2.608-24.289,2.65,24.262,36-3.912L656.9,67.451Z" transform="translate(902.112 2951.745)" fill="#263238"/>
    <path id="Path_234" data-name="Path 234" d="M657.187,68a2.479,2.479,0,0,1-.3.36l-.906.991-3.387,3.594L641.305,84.724l-.09.1-.117-.074-.276-.175-13.931-8.911-4.241-2.73-1.134-.758a3.154,3.154,0,0,1-.387-.281,2.393,2.393,0,0,1,.424.223l1.166.705,4.241,2.65,14,8.831.276.175h-.207l11.4-11.71,3.461-3.52.949-.944a2.58,2.58,0,0,1,.35-.307Z" transform="translate(901.98 2951.481)" fill="#263238"/>
    <path id="Path_235" data-name="Path 235" d="M626.148,106.978c-.074-.048,2.274-3.674,5.243-8.089s5.444-7.951,5.518-7.909-2.269,3.674-5.243,8.089S626.223,107.031,626.148,106.978Z" transform="translate(899.623 2940.683)" fill="#263238"/>
    <path id="Path_236" data-name="Path 236" d="M669,88c.069-.064,3.106,2.953,6.785,6.732s6.61,6.891,6.547,6.96-3.1-2.947-6.785-6.732S668.924,88.036,669,88Z" transform="translate(879.487 2942.084)" fill="#263238"/>
    <path id="Path_237" data-name="Path 237" d="M378.411,206.35c.074,0,.186.27.249.631s.048.663-.026.679-.186-.27-.249-.636S378.337,206.361,378.411,206.35Z" transform="translate(1016.067 2886.47)" fill="#263238"/>
    <path id="Path_238" data-name="Path 238" d="M376.839,196.59a3.288,3.288,0,0,1,.345,1.272,3.239,3.239,0,0,1,.074,1.315,3.149,3.149,0,0,1-.345-1.272,3.239,3.239,0,0,1-.074-1.315Z" transform="translate(1016.792 2891.056)" fill="#263238"/>
    <path id="Path_239" data-name="Path 239" d="M375.4,186.81a3.18,3.18,0,0,1,.318,1.278,3.271,3.271,0,0,1,.048,1.315,3.1,3.1,0,0,1-.318-1.277A3.271,3.271,0,0,1,375.4,186.81Z" transform="translate(1017.472 2895.652)" fill="#263238"/>
    <path id="Path_240" data-name="Path 240" d="M374.261,177a3.3,3.3,0,0,1,.276,1.288,3.118,3.118,0,0,1,0,1.315,3.244,3.244,0,0,1-.27-1.288A3.182,3.182,0,0,1,374.261,177Z" transform="translate(1018.017 2900.262)" fill="#263238"/>
    <path id="Path_241" data-name="Path 241" d="M373.565,167.12a6.3,6.3,0,0,1,.148,2.619A6.292,6.292,0,0,1,373.565,167.12Z" transform="translate(1018.348 2904.904)" fill="#263238"/>
    <path id="Path_242" data-name="Path 242" d="M373.394,157.23a6.437,6.437,0,0,1,0,2.65,3.1,3.1,0,0,1-.133-1.309A3.18,3.18,0,0,1,373.394,157.23Z" transform="translate(1018.465 2909.552)" fill="#263238"/>
    <path id="Path_243" data-name="Path 243" d="M373.881,147.37a3.354,3.354,0,0,1,.027,1.32,3.256,3.256,0,0,1-.244,1.293,3.141,3.141,0,0,1-.032-1.315,3.212,3.212,0,0,1,.249-1.3Z" transform="translate(1018.307 2914.185)" fill="#263238"/>
    <path id="Path_244" data-name="Path 244" d="M375.223,137.6a3.1,3.1,0,0,1-.09,1.315,3.181,3.181,0,0,1-.366,1.267A6.447,6.447,0,0,1,375.223,137.6Z" transform="translate(1017.749 2918.776)" fill="#263238"/>
    <path id="Path_245" data-name="Path 245" d="M377.5,128.05a3.325,3.325,0,0,1-.244,1.293,3.362,3.362,0,0,1-.5,1.219,3.179,3.179,0,0,1,.239-1.3A3.115,3.115,0,0,1,377.5,128.05Z" transform="translate(1016.817 2923.264)" fill="#263238"/>
    <path id="Path_246" data-name="Path 246" d="M380.915,118.88a3.213,3.213,0,0,1-.4,1.256,3.292,3.292,0,0,1-.652,1.145,6.361,6.361,0,0,1,1.06-2.4Z" transform="translate(1015.355 2927.573)" fill="#263238"/>
    <path id="Path_247" data-name="Path 247" d="M385.472,110.258a3.273,3.273,0,0,1-.557,1.193,3.966,3.966,0,0,1-.8,1.06,3.275,3.275,0,0,1,.562-1.193C385.053,110.687,385.408,110.215,385.472,110.258Z" transform="translate(1013.353 2931.626)" fill="#263238"/>
    <path id="Path_248" data-name="Path 248" d="M391.143,102.347c.058.053-.26.53-.71,1.108s-.869.981-.933.933a3.319,3.319,0,0,1,.716-1.108C390.671,102.718,391.09,102.3,391.143,102.347Z" transform="translate(1010.825 2935.344)" fill="#263238"/>
    <path id="Path_249" data-name="Path 249" d="M397.911,95.394c.048.064-.345.5-.875.991s-1.007.832-1.06.779.339-.493.875-.986S397.863,95.336,397.911,95.394Z" transform="translate(1007.784 2938.612)" fill="#263238"/>
    <path id="Path_250" data-name="Path 250" d="M405.748,89.72c.037.069-.424.435-1.034.822a3.229,3.229,0,0,1-1.177.588c-.042-.058.419-.429,1.028-.822a3.36,3.36,0,0,1,1.182-.588Z" transform="translate(1004.23 2941.275)" fill="#263238"/>
    <path id="Path_251" data-name="Path 251" d="M414.548,85.67a6.377,6.377,0,0,1-2.438.954,3.223,3.223,0,0,1,1.171-.6A3.181,3.181,0,0,1,414.548,85.67Z" transform="translate(1000.2 2943.179)" fill="#263238"/>
    <path id="Path_252" data-name="Path 252" d="M422.778,83.842c0,.074-.265.191-.62.26s-.663.064-.679,0,.265-.191.626-.26S422.768,83.768,422.778,83.842Z" transform="translate(995.798 2944.062)" fill="#263238"/>
    <rect id="Rectangle_1414" data-name="Rectangle 1414" width="26.563" height="39.407" transform="translate(1380.799 3032.778) rotate(-68.86)" fill="#ffcd00"/>
    <path id="Path_253" data-name="Path 253" d="M389.407,85.349h0L352.64,71.127h0l9.589-24.787h0L399,60.557h0ZM352.672,71.111l36.735,14.2,9.573-24.75-36.735-14.2Z" transform="translate(1028.146 2961.66)" fill="#263238"/>
    <path id="Path_254" data-name="Path 254" d="M407.506,61.207a2.532,2.532,0,0,1-.466.2l-1.373.5L400.6,63.683,383.811,69.45l-.138.048-.074-.127-.18-.307-9.012-15.569-2.7-4.739-.716-1.3a2.648,2.648,0,0,1-.233-.466,2.937,2.937,0,0,1,.292.429l.779,1.267,2.767,4.67c2.354,4,5.566,9.473,9.112,15.516l.18.307-.212-.08,16.846-5.672,5.1-1.67,1.394-.44A2.321,2.321,0,0,1,407.506,61.207Z" transform="translate(1019.631 2961.354)" fill="#263238"/>
    <path id="Path_255" data-name="Path 255" d="M352.67,84.79c-.048-.085,4.029-2.412,9.107-5.195s9.229-4.972,9.277-4.887-4.029,2.412-9.107,5.2S352.717,84.875,352.67,84.79Z" transform="translate(1028.132 2948.331)" fill="#263238"/>
    <path id="Path_256" data-name="Path 256" d="M410.626,83c.1-.027,1.521,4.4,3.18,9.886s2.942,9.966,2.847,9.992-1.521-4.394-3.181-9.886S410.53,83.048,410.626,83Z" transform="translate(1000.9 2944.433)" fill="#263238"/>
    <path id="Path_257" data-name="Path 257" d="M349.171,217.29c.074,0,.111.307.085.673s-.117.657-.191.652-.117-.307-.085-.673S349.1,217.285,349.171,217.29Z" transform="translate(1029.87 2881.329)" fill="#263238"/>
    <path id="Path_258" data-name="Path 258" d="M349.462,207.12a3.355,3.355,0,0,1,.138,1.352,3.472,3.472,0,0,1-.143,1.346,3.4,3.4,0,0,1-.133-1.346,3.514,3.514,0,0,1,.138-1.352Z" transform="translate(1029.712 2886.108)" fill="#263238"/>
    <path id="Path_259" data-name="Path 259" d="M348.846,197a6.772,6.772,0,0,1,.249,2.688,3.274,3.274,0,0,1-.26-1.331A3.5,3.5,0,0,1,348.846,197Z" transform="translate(1029.962 2890.864)" fill="#263238"/>
    <path id="Path_260" data-name="Path 260" d="M347.2,186.94a3.451,3.451,0,0,1,.392,1.3,3.415,3.415,0,0,1,.122,1.352,3.493,3.493,0,0,1-.392-1.3A3.3,3.3,0,0,1,347.2,186.94Z" transform="translate(1030.713 2895.591)" fill="#263238"/>
    <path id="Path_261" data-name="Path 261" d="M344.45,177.15a6.615,6.615,0,0,1,.822,2.571,3.4,3.4,0,0,1-.53-1.246,3.367,3.367,0,0,1-.292-1.325Z" transform="translate(1031.994 2900.191)" fill="#263238"/>
    <path id="Path_262" data-name="Path 262" d="M340.56,167.76a3.35,3.35,0,0,1,.679,1.171,3.468,3.468,0,0,1,.429,1.288,3.483,3.483,0,0,1-.679-1.171A3.41,3.41,0,0,1,340.56,167.76Z" transform="translate(1033.822 2904.604)" fill="#263238"/>
    <path id="Path_263" data-name="Path 263" d="M335.51,158.928c.064-.042.445.435.848,1.06a3.523,3.523,0,0,1,.572,1.235c-.069.037-.429-.451-.811-1.092A3.42,3.42,0,0,1,335.51,158.928Z" transform="translate(1036.195 2908.755)" fill="#263238"/>
    <path id="Path_264" data-name="Path 264" d="M329.28,150.9c.058-.053.493.371.97.944a3.488,3.488,0,0,1,.758,1.129c-.064.042-.493-.382-.97-.949A3.442,3.442,0,0,1,329.28,150.9Z" transform="translate(1039.123 2912.53)" fill="#263238"/>
    <path id="Path_265" data-name="Path 265" d="M321.994,143.815c.048-.058.53.3,1.092.8s.96.954.906,1.007a3.451,3.451,0,0,1-1.092-.8C322.339,144.323,321.931,143.873,321.994,143.815Z" transform="translate(1042.549 2915.859)" fill="#263238"/>
    <path id="Path_266" data-name="Path 266" d="M313.728,137.88a3.361,3.361,0,0,1,1.2.631,3.763,3.763,0,0,1,1.06.864,3.51,3.51,0,0,1-1.2-.636C314.157,138.331,313.685,137.944,313.728,137.88Z" transform="translate(1046.432 2918.645)" fill="#263238"/>
    <path id="Path_267" data-name="Path 267" d="M304.67,133.26a3.366,3.366,0,0,1,1.283.44,3.41,3.41,0,0,1,1.166.689,3.365,3.365,0,0,1-1.283-.44A3.479,3.479,0,0,1,304.67,133.26Z" transform="translate(1050.687 2920.815)" fill="#263238"/>
    <path id="Path_268" data-name="Path 268" d="M295,130.188a3.492,3.492,0,0,1,1.341.217,3.392,3.392,0,0,1,1.267.488,3.578,3.578,0,0,1-1.341-.217A3.5,3.5,0,0,1,295,130.188Z" transform="translate(1055.231 2922.26)" fill="#263238"/>
    <path id="Path_269" data-name="Path 269" d="M284.89,128.832a5.508,5.508,0,0,1,2.688.217,8.4,8.4,0,0,1-2.688-.217Z" transform="translate(1059.982 2922.932)" fill="#263238"/>
    <path id="Path_270" data-name="Path 270" d="M274.75,129.3a6.642,6.642,0,0,1,2.682-.318,3.361,3.361,0,0,1-1.325.3,3.53,3.53,0,0,1-1.357.021Z" transform="translate(1064.747 2922.839)" fill="#263238"/>
    <path id="Path_271" data-name="Path 271" d="M264.93,131.506a3.35,3.35,0,0,1,1.246-.53,3.313,3.313,0,0,1,1.325-.276,3.461,3.461,0,0,1-1.246.53,3.521,3.521,0,0,1-1.325.276Z" transform="translate(1069.361 2922.019)" fill="#263238"/>
    <path id="Path_272" data-name="Path 272" d="M255.768,135.483c-.037-.069.461-.408,1.124-.763a3.35,3.35,0,0,1,1.251-.53,6.818,6.818,0,0,1-2.375,1.288Z" transform="translate(1073.667 2920.378)" fill="#263238"/>
    <path id="Path_273" data-name="Path 273" d="M247.646,141.2c-.053-.053.371-.488.944-.97a3.488,3.488,0,0,1,1.129-.758c.042.064-.382.5-.949.97a3.328,3.328,0,0,1-1.124.758Z" transform="translate(1077.485 2917.897)" fill="#263238"/>
    <path id="Path_274" data-name="Path 274" d="M241,148.513a3.037,3.037,0,0,1,.684-1.177c.461-.594.912-1.007.965-.959a4.267,4.267,0,0,1-.747,1.129C241.445,148.1,241.064,148.555,241,148.513Z" transform="translate(1080.606 2914.654)" fill="#263238"/>
    <path id="Path_275" data-name="Path 275" d="M237.266,155.943c-.069-.032,0-.323.164-.657s.345-.572.413-.53,0,.329-.164.657S237.335,155.98,237.266,155.943Z" transform="translate(1082.373 2910.717)" fill="#263238"/>
    <path id="Path_276" data-name="Path 276" d="M173.75,215.79c0-.074.281-.17.641-.217s.663,0,.673.058-.27.175-.641.217S173.755,215.88,173.75,215.79Z" transform="translate(1112.208 2882.145)" fill="#263238"/>
    <path id="Path_277" data-name="Path 277" d="M163.85,214.9a4.194,4.194,0,0,1,1.315.2,4.1,4.1,0,0,1,1.283.35,4.542,4.542,0,0,1-2.6-.53Z" transform="translate(1116.86 2882.452)" fill="#263238"/>
    <path id="Path_278" data-name="Path 278" d="M154.888,210.47a4,4,0,0,1,1.187.6c.626.371,1.129.684,1.1.758a2.958,2.958,0,0,1-1.235-.53C155.3,210.931,154.845,210.534,154.888,210.47Z" transform="translate(1121.073 2884.534)" fill="#263238"/>
    <path id="Path_279" data-name="Path 279" d="M147.444,203.787c.058-.048.493.355,1.007.875s.912.959.864,1.018-.53-.3-1.06-.822S147.386,203.84,147.444,203.787Z" transform="translate(1124.572 2887.676)" fill="#263238"/>
    <path id="Path_280" data-name="Path 280" d="M141.57,195.688c.069-.037.445.424.843,1.06a3.4,3.4,0,0,1,.615,1.182c-.064.048-.44-.419-.843-1.034A3.276,3.276,0,0,1,141.57,195.688Z" transform="translate(1127.329 2891.481)" fill="#263238"/>
    <path id="Path_281" data-name="Path 281" d="M137.25,186.66a3.329,3.329,0,0,1,.647,1.166,3.525,3.525,0,0,1,.4,1.278,3.292,3.292,0,0,1-.652-1.166A3.388,3.388,0,0,1,137.25,186.66Z" transform="translate(1129.359 2895.722)" fill="#263238"/>
    <path id="Path_282" data-name="Path 282" d="M134.376,177.06a3.371,3.371,0,0,1,.472,1.251,3.287,3.287,0,0,1,.2,1.32,3.223,3.223,0,0,1-.472-1.251A3.3,3.3,0,0,1,134.376,177.06Z" transform="translate(1130.712 2900.233)" fill="#263238"/>
    <path id="Path_283" data-name="Path 283" d="M132.6,167.19a3.468,3.468,0,0,1,.334,1.293,3.335,3.335,0,0,1,.064,1.336,3.281,3.281,0,0,1-.334-1.293,3.223,3.223,0,0,1-.064-1.336Z" transform="translate(1131.563 2904.871)" fill="#263238"/>
    <path id="Path_284" data-name="Path 284" d="M131.6,157.22a6.425,6.425,0,0,1,.212,2.65,3.286,3.286,0,0,1-.244-1.309A3.234,3.234,0,0,1,131.6,157.22Z" transform="translate(1132.054 2909.556)" fill="#263238"/>
    <path id="Path_285" data-name="Path 285" d="M131.163,149.71c.08,0,.154.292.17.657s-.032.663-.106.668-.154-.292-.17-.657S131.089,149.715,131.163,149.71Z" transform="translate(1132.271 2913.085)" fill="#263238"/>
    <rect id="Rectangle_1415" data-name="Rectangle 1415" width="44.125" height="29.743" transform="matrix(0.999, -0.047, 0.047, 0.999, 1239.321, 3032.733)" fill="#ffcd00"/>
    <path id="Path_286" data-name="Path 286" d="M87.139,120.88h0l-1.4-29.722h0l44.093-2.078h0l1.4,29.722h0ZM85.766,91.158l1.4,29.685,44.051-2.078-1.4-29.685Z" transform="translate(1153.564 2941.576)" fill="#263238"/>
    <path id="Path_287" data-name="Path 287" d="M130.137,89.74a2.907,2.907,0,0,1-.392.413l-1.177,1.134-4.373,4.119-14.6,13.5-.122.111-.133-.1-.318-.233L92.734,96.827c-2.046-1.516-3.711-2.751-4.909-3.631l-1.32-1.007a2.908,2.908,0,0,1-.445-.371,3.635,3.635,0,0,1,.493.307l1.368.933,4.983,3.53,16.353,11.768.323.233h-.254L124,95.179l4.463-4.023,1.23-1.06a2.724,2.724,0,0,1,.445-.355Z" transform="translate(1153.414 2941.266)" fill="#263238"/>
    <path id="Path_288" data-name="Path 288" d="M88.7,133.178c-.085-.069,3.037-4.3,6.976-9.446s7.2-9.266,7.289-9.2-3.032,4.3-6.971,9.446S88.789,133.242,88.7,133.178Z" transform="translate(1152.175 2929.618)" fill="#263238"/>
    <path id="Path_289" data-name="Path 289" d="M143.219,112.529c.085-.074,3.552,3.817,7.739,8.683s7.522,8.874,7.421,8.948-3.546-3.817-7.739-8.688S143.134,112.6,143.219,112.529Z" transform="translate(1126.555 2930.557)" fill="#263238"/>
    <path id="Path_290" data-name="Path 290" d="M214.867,285.7a1.2,1.2,0,0,0-.912-1.341l-1.182.08-4.241-1.468a1.267,1.267,0,0,0-1.59,1.15c0,1.214-.53,4.522-1.49,3.483l-.074-.069c-1.394-1.553-3.006-2.306-3.626-2.216a.71.71,0,0,0-.307,1.251.747.747,0,0,0,.254.175c.042,0,.1.053.138.074a10.709,10.709,0,0,1,1.617,1.447,5.619,5.619,0,0,1,1.06,1.59c.281.657.5,1.23.679,1.723l.064,3.886-1.686,18.166s-11.185-11.747-10.925-11.858l.652,18.3,6.775,5.6a8.519,8.519,0,0,0,13.963-6.706l-.387-23.488.276-3.08Z" transform="translate(1103.33 2850.484)" fill="#ffbe9d"/>
    <path id="Path_291" data-name="Path 291" d="M85.256,336.88l-12.25,28.01L63.337,385.1l-7.193,2.417s-5.693,1.654-5.693,2.831,1.5.912,1.5.912c.276,1.76,2.714.763,4.421,0a21.678,21.678,0,0,1,5.5-.975,1.543,1.543,0,0,0-.106,2.47c.6.424,1.654-.09,2.364-.848s2.544-1.108,4.585-1.839,2.375-3.467,2.375-3.467l24.5-41.278Z" transform="translate(1170.147 2825.132)" fill="#ffbe9d"/>
    <path id="Path_292" data-name="Path 292" d="M150.416,332.072l3.08,4.066,6.674-14.805s-6.478-7.9-8.847-11.217-4.108-3.859-4.108-3.859A33.145,33.145,0,0,0,140.763,305l-10.634.636-10.8,4.713a14.959,14.959,0,0,0-6.5,5.476L102.66,332.157l14.4,6.154,4.829,27.649c.922,4.14,1.733,8.047,5.555,9.955l26.7-25.662-3.128-4.93Z" transform="translate(1145.614 2840.113)" fill="#ffcd00"/>
    <path id="Path_293" data-name="Path 293" d="M137.874,346.52c.064.042-1.59,2.6-3.674,5.714s-3.843,5.6-3.9,5.555,1.59-2.6,3.674-5.714S137.81,346.477,137.874,346.52Z" transform="translate(1132.626 2820.603)" fill="#263238"/>
    <path id="Path_294" data-name="Path 294" d="M170,396a4.974,4.974,0,0,1-.71.424c-.461.254-1.14.615-1.983,1.06-1.691.875-4.034,2.046-6.658,3.281s-5.02,2.3-6.769,3.043c-.875.371-1.59.668-2.078.864a5.194,5.194,0,0,1-.779.276,4.675,4.675,0,0,1,.737-.376l2.041-.938c1.728-.79,4.114-1.882,6.732-3.117s4.978-2.38,6.684-3.181l2.025-.975A4.858,4.858,0,0,1,170,396Z" transform="translate(1122.889 2797.352)" fill="#263238"/>
    <path id="Path_295" data-name="Path 295" d="M136.064,329.886a9.451,9.451,0,0,1-.938-1.182,18.882,18.882,0,0,0-2.369-2.7,8.371,8.371,0,0,0-3.059-1.8c-.875-.276-1.458-.265-1.458-.318a1.06,1.06,0,0,1,.408-.032,5.242,5.242,0,0,1,1.1.159,7.8,7.8,0,0,1,3.181,1.781,15.241,15.241,0,0,1,2.343,2.8A7.587,7.587,0,0,1,136.064,329.886Z" transform="translate(1133.593 2831.258)" fill="#263238"/>
    <path id="Path_296" data-name="Path 296" d="M169.562,360.61a1.1,1.1,0,0,1,0,.3v.837a19.56,19.56,0,0,1-.429,3.059A21.914,21.914,0,0,1,156.8,380.176a20.132,20.132,0,0,1-2.894,1.06c-.35.106-.631.164-.816.207a1.162,1.162,0,0,1-.286.053s.382-.133,1.06-.36a23.734,23.734,0,0,0,2.841-1.156,22.433,22.433,0,0,0,12.235-15.251,24.57,24.57,0,0,0,.53-3.027A9.28,9.28,0,0,1,169.562,360.61Z" transform="translate(1122.052 2813.982)" fill="#263238"/>
    <g id="Group_6" data-name="Group 6" transform="translate(1262.724 3170.897)" opacity="0.3">
      <path id="Path_297" data-name="Path 297" d="M131.733,371.854c-.048-.265,3.424-18.214,3.424-18.214L129.92,361.5" transform="translate(-129.92 -353.64)"/>
    </g>
    <path id="Path_298" data-name="Path 298" d="M191.451,323.57a1.3,1.3,0,0,1,.037.307c0,.233.032.53.058.891.037.806.1,1.908.164,3.26.133,2.788.318,6.578.53,10.761s.36,8.015.44,10.771c.042,1.378.069,2.5.08,3.265v.891a1.151,1.151,0,0,1,0,.307,1.3,1.3,0,0,1-.037-.307c0-.233-.032-.53-.058-.885-.037-.806-.1-1.914-.164-3.26-.132-2.788-.318-6.578-.53-10.766s-.355-8.01-.44-10.771c-.042-1.378-.069-2.492-.08-3.265v-.885a1.18,1.18,0,0,1,0-.313Z" transform="translate(1103.895 2831.387)" fill="#263238"/>
    <g id="Group_7" data-name="Group 7" transform="translate(1273.472 3187.604)" opacity="0.2">
      <path id="Path_299" data-name="Path 299" d="M150.761,399.806a2.137,2.137,0,0,1,.1-2.979,6.826,6.826,0,0,1,2.947-1.511c5.073-1.643,10.172-3.965,13.517-8.121a8.191,8.191,0,0,1,1.5-1.59,2.073,2.073,0,0,1,2.083-.286c1.023.53,1.06,2.014.631,3.09a5.927,5.927,0,0,1-2.794,3.053" transform="translate(-150.197 -385.158)"/>
    </g>
    <g id="Group_8" data-name="Group 8" transform="translate(1295.457 3158.143)" opacity="0.2">
      <path id="Path_300" data-name="Path 300" d="M191.67,329.58l2.963,17.2-2.311-3.048Z" transform="translate(-191.67 -329.58)"/>
    </g>
    <path id="Path_301" data-name="Path 301" d="M240.409,414.79,235.4,431.976l21.347,6.361c.482-2.078-9.346-9.452-9.346-9.452l3.689-10.9Z" transform="translate(1083.238 2788.522)" fill="#ffcd00"/>
    <g id="Group_9" data-name="Group 9" transform="translate(1323.414 3214.502)" opacity="0.6">
      <path id="Path_302" data-name="Path 302" d="M245.311,435.9a.906.906,0,0,0-.9.811.88.88,0,0,0,.8.9.965.965,0,0,0,.949-.869.906.906,0,0,0-.938-.843" transform="translate(-244.409 -435.899)" fill="#fff"/>
    </g>
    <g id="Group_10" data-name="Group 10" transform="translate(1318.638 3218.785)" opacity="0.6">
      <path id="Path_303" data-name="Path 303" d="M235.4,445.692l.573-1.712,20.255,6.722s.827.694.53,1.33Z" transform="translate(-235.4 -443.98)" fill="#fff"/>
    </g>
    <path id="Path_304" data-name="Path 304" d="M256.718,441.1c-.032.1-.567,0-1.182.18s-1.012.53-1.1.467.249-.626,1-.832S256.771,441.013,256.718,441.1Z" transform="translate(1074.297 2776.278)" fill="#263238"/>
    <path id="Path_305" data-name="Path 305" d="M260.813,444.232c0,.111-.53.154-1,.488s-.726.774-.827.737,0-.647.615-1.06S260.84,444.131,260.813,444.232Z" transform="translate(1072.169 2774.739)" fill="#263238"/>
    <path id="Path_306" data-name="Path 306" d="M263.311,448.707c-.106,0-.1-.573.344-1.06s.991-.572,1.007-.477-.371.318-.726.726S263.417,448.728,263.311,448.707Z" transform="translate(1070.149 2773.323)" fill="#263238"/>
    <path id="Path_307" data-name="Path 307" d="M257.812,435.8c-.074.079-.53-.207-1.108-.339s-1.119-.085-1.145-.191.53-.345,1.23-.18S257.913,435.732,257.812,435.8Z" transform="translate(1073.765 2779.009)" fill="#263238"/>
    <path id="Path_308" data-name="Path 308" d="M257.7,429.139a2.121,2.121,0,0,1-1.06-.323,4.84,4.84,0,0,1-1.018-.678,5.19,5.19,0,0,1-.53-.53,1.308,1.308,0,0,1-.244-.345.477.477,0,0,1,.117-.573.6.6,0,0,1,.53-.1,1.54,1.54,0,0,1,.387.175,4.235,4.235,0,0,1,.594.424,3.892,3.892,0,0,1,.8.944,1.839,1.839,0,0,1,.371,1.06c-.058,0-.2-.382-.594-.907a4.24,4.24,0,0,0-.8-.822,3.907,3.907,0,0,0-.557-.371c-.207-.127-.4-.185-.488-.1s-.037.042,0,.122a.985.985,0,0,0,.18.255,6.028,6.028,0,0,0,.472.493,6.663,6.663,0,0,0,.912.7C257.322,428.917,257.719,429.081,257.7,429.139Z" transform="translate(1074.123 2782.989)" fill="#263238"/>
    <path id="Path_309" data-name="Path 309" d="M259.861,428.821a1.754,1.754,0,0,1,.027-1.113,3.474,3.474,0,0,1,.493-1.129,3.268,3.268,0,0,1,.466-.567.917.917,0,0,1,.843-.339.53.53,0,0,1,.355.429,1.591,1.591,0,0,1,0,.424,2.494,2.494,0,0,1-.212.721,2.651,2.651,0,0,1-.785.97,1.457,1.457,0,0,1-1.06.387,4.533,4.533,0,0,0,.88-.594,2.514,2.514,0,0,0,.636-.9,2.171,2.171,0,0,0,.164-.626c.037-.238,0-.445-.085-.445a.86.86,0,0,0-.482.239,4.194,4.194,0,0,0-.435.5,4.007,4.007,0,0,0-.53,1.007C259.93,428.4,259.925,428.821,259.861,428.821Z" transform="translate(1071.78 2783.412)" fill="#263238"/>
    <path id="Path_310" data-name="Path 310" d="M222.448,361.591c.53,3.965-.816,8.434-2.253,12.192l-9.361,21.988-10.363-1.59a13.31,13.31,0,0,1-4.919,3.329,10.214,10.214,0,0,1-8.646-1.2h0s-4.734,6.594-12.192,8.587-18.723,3.1-24.183-5.619L176.5,374.239c.53.127,22.386-14.609,34.191-17.965C210.717,356.274,221.451,354.3,222.448,361.591Z" transform="translate(1123.119 2816.133)" fill="#263238"/>
    <path id="Path_311" data-name="Path 311" d="M217.121,408.164a1.327,1.327,0,0,1,.138-.085l.424-.223c.376-.2.928-.482,1.627-.869a26.443,26.443,0,0,0,2.481-1.527,13.068,13.068,0,0,0,2.8-2.6,9.011,9.011,0,0,0,1.818-4.209,13.983,13.983,0,0,0-.223-5.3,8.562,8.562,0,0,0-2.857-4.978,10.82,10.82,0,0,0-5.831-2.078,17.982,17.982,0,0,0-3.207.027,24.112,24.112,0,0,0-3.08.53,36.674,36.674,0,0,0-5.592,1.935c-3.461,1.516-6.467,3.149-9.107,4.278a32.413,32.413,0,0,1-6.441,2.147c-.392.09-.747.148-1.06.191s-.562.09-.774.106l-.477.048H187.6l.164-.037.472-.069c.207-.032.466-.069.769-.133s.652-.117,1.06-.212a34.038,34.038,0,0,0,6.361-2.226c2.619-1.145,5.614-2.794,9.086-4.331a36.583,36.583,0,0,1,5.63-1.961,24.6,24.6,0,0,1,3.112-.53,18.577,18.577,0,0,1,3.26-.027,11.037,11.037,0,0,1,6,2.147,7.549,7.549,0,0,1,1.945,2.364,10.762,10.762,0,0,1,.991,2.767,14.344,14.344,0,0,1,.2,5.391,9.272,9.272,0,0,1-1.892,4.288,12.914,12.914,0,0,1-2.873,2.608,26.094,26.094,0,0,1-2.513,1.495c-.71.371-1.272.641-1.654.822l-.44.2a.674.674,0,0,1-.159.053Z" transform="translate(1105.699 2802.065)" fill="#455a64"/>
    <path id="Path_312" data-name="Path 312" d="M251.495,373.35a30.568,30.568,0,0,1-2.173,3.546,32.093,32.093,0,0,1-2.4,3.393,31.481,31.481,0,0,1,2.173-3.546A32.086,32.086,0,0,1,251.495,373.35Z" transform="translate(1077.824 2807.995)" fill="#455a64"/>
    <path id="Path_313" data-name="Path 313" d="M230.388,424.539a18.316,18.316,0,0,1-1.882.488c-1.161.286-2.756.726-4.485,1.331s-3.249,1.256-4.336,1.755a18.728,18.728,0,0,1-1.776.8,2.121,2.121,0,0,1,.435-.292c.292-.175.721-.408,1.256-.678a36.18,36.18,0,0,1,8.863-3.1c.588-.122,1.06-.207,1.4-.249A2.124,2.124,0,0,1,230.388,424.539Z" transform="translate(1091.457 2783.942)" fill="#455a64"/>
    <path id="Path_314" data-name="Path 314" d="M257.643,425.26c-.048,0-.17-.466-.61-1.113a4.49,4.49,0,0,0-5.333-1.733c-.737.265-1.124.588-1.156.53s.074-.106.254-.249a3.748,3.748,0,0,1,.827-.477,4.416,4.416,0,0,1,5.571,1.834,3.651,3.651,0,0,1,.387.875C257.675,425.112,257.675,425.26,257.643,425.26Z" transform="translate(1076.124 2785.203)" fill="#455a64"/>
    <path id="Path_315" data-name="Path 315" d="M173.665,412.79a1.425,1.425,0,0,1,.138.493,8.038,8.038,0,0,1,.117,1.394,8.63,8.63,0,0,1-1.219,4.432,6.786,6.786,0,0,1-3.552,2.884,5.1,5.1,0,0,1-1.378.265,1.42,1.42,0,0,1-.53,0,9.9,9.9,0,0,0,1.829-.424,6.892,6.892,0,0,0,3.382-2.847,9.065,9.065,0,0,0,1.262-4.283C173.776,413.511,173.617,412.8,173.665,412.79Z" transform="translate(1115.267 2789.462)" fill="#455a64"/>
    <path id="Path_316" data-name="Path 316" d="M156.477,434.089c-.058.048-.334-.191-.594-.53s-.4-.705-.329-.742.3.228.557.578S156.535,434.041,156.477,434.089Z" transform="translate(1120.766 2780.053)" fill="#455a64"/>
    <path id="Path_317" data-name="Path 317" d="M160.4,438.586c-.048.058-.345-.149-.663-.456s-.53-.6-.477-.647.355.148.668.451S160.456,438.528,160.4,438.586Z" transform="translate(1119.019 2777.861)" fill="#455a64"/>
    <path id="Path_318" data-name="Path 318" d="M165.092,442.321c-.037.064-.371-.074-.742-.318s-.636-.488-.594-.53a1.494,1.494,0,0,1,.742.318C164.859,442.024,165.129,442.279,165.092,442.321Z" transform="translate(1116.906 2775.987)" fill="#455a64"/>
    <path id="Path_319" data-name="Path 319" d="M170.453,444.935c0,.074-.376,0-.8-.138s-.732-.329-.7-.4.387,0,.79.143S170.474,444.861,170.453,444.935Z" transform="translate(1114.461 2774.625)" fill="#455a64"/>
    <path id="Path_320" data-name="Path 320" d="M176.285,446.17c0,.074-.36.106-.806.064s-.79-.133-.779-.207.376-.106.806-.064S176.285,446.1,176.285,446.17Z" transform="translate(1111.762 2773.882)" fill="#455a64"/>
    <path id="Path_321" data-name="Path 321" d="M182.255,445.968c0,.074-.345.159-.785.191a3.552,3.552,0,0,1-.594,0h0c-.133,0-.212-.032-.217-.069s.069-.074.2-.111h0a3.382,3.382,0,0,1,.583-.085C181.9,445.852,182.245,445.889,182.255,445.968Z" transform="translate(1108.961 2773.914)" fill="#455a64"/>
    <path id="Path_322" data-name="Path 322" d="M188.188,444.954c0,.074-.313.207-.747.3s-.79.106-.8.032.318-.212.747-.3S188.172,444.87,188.188,444.954Z" transform="translate(1106.151 2774.372)" fill="#455a64"/>
    <path id="Path_323" data-name="Path 323" d="M193.96,443.2c0,.074-.292.244-.71.387s-.779.191-.8.122.3-.244.71-.387S193.933,443.134,193.96,443.2Z" transform="translate(1103.421 2775.186)" fill="#455a64"/>
    <path id="Path_324" data-name="Path 324" d="M199.525,440.87c.037.069-.265.276-.663.456s-.753.276-.785.207.27-.276.668-.456S199.493,440.8,199.525,440.87Z" transform="translate(1100.777 2776.278)" fill="#455a64"/>
    <path id="Path_325" data-name="Path 325" d="M204.851,437.986c.037.064-.239.3-.62.53s-.721.345-.753.281.239-.3.615-.53S204.814,437.928,204.851,437.986Z" transform="translate(1098.239 2777.629)" fill="#455a64"/>
    <path id="Path_326" data-name="Path 326" d="M209.849,434.619c.048.064-.207.318-.567.578s-.684.413-.726.35.212-.323.567-.578S209.812,434.561,209.849,434.619Z" transform="translate(1095.854 2779.21)" fill="#455a64"/>
    <path id="Path_327" data-name="Path 327" d="M214.549,430.8c.053.058-.18.339-.53.625s-.647.477-.694.419.18-.339.53-.626S214.5,430.749,214.549,430.8Z" transform="translate(1093.614 2781.002)" fill="#455a64"/>
    <path id="Path_328" data-name="Path 328" d="M218.97,426.682c.053.058-.164.35-.482.647s-.625.5-.673.445.159-.339.482-.647S218.922,426.629,218.97,426.682Z" transform="translate(1091.505 2782.938)" fill="#455a64"/>
    <path id="Path_329" data-name="Path 329" d="M223.593,422.989c.042.064-.207.323-.562.578s-.679.413-.726.355.207-.318.562-.578S223.551,422.931,223.593,422.989Z" transform="translate(1089.394 2784.675)" fill="#455a64"/>
    <path id="Path_330" data-name="Path 330" d="M228.733,420.094c.032.069-.265.281-.652.477s-.737.3-.774.228.254-.281.652-.477S228.7,420.036,228.733,420.094Z" transform="translate(1087.042 2786.038)" fill="#455a64"/>
    <path id="Path_331" data-name="Path 331" d="M234.352,418.293c0,.074-.318.223-.737.323s-.785.132-.806.064.307-.223.737-.329S234.341,418.218,234.352,418.293Z" transform="translate(1084.456 2786.896)" fill="#455a64"/>
    <path id="Path_332" data-name="Path 332" d="M240.29,417.84c0,.079-.366.106-.8.1s-.785-.048-.79-.122.35-.159.8-.154S240.3,417.776,240.29,417.84Z" transform="translate(1081.687 2787.174)" fill="#455a64"/>
    <path id="Path_333" data-name="Path 333" d="M246.15,419.029c-.037.069-.376-.032-.779-.175s-.737-.286-.721-.36.387-.053.811.1S246.181,418.96,246.15,419.029Z" transform="translate(1078.892 2786.801)" fill="#455a64"/>
    <path id="Path_334" data-name="Path 334" d="M246.2,422.845c-.048-.063.191-.323.472-.641s.53-.583.578-.53-.064.387-.371.726S246.252,422.9,246.2,422.845Z" transform="translate(1078.164 2785.291)" fill="#455a64"/>
    <path id="Path_335" data-name="Path 335" d="M240.92,426.082c0-.074.281-.265.679-.429s.753-.244.79-.175-.27.26-.684.429S240.962,426.157,240.92,426.082Z" transform="translate(1080.644 2783.511)" fill="#455a64"/>
    <path id="Path_336" data-name="Path 336" d="M235.2,428c0-.074.292-.244.71-.387s.774-.2.8-.122-.3.244-.71.382S235.227,428.068,235.2,428Z" transform="translate(1083.332 2782.57)" fill="#455a64"/>
    <path id="Path_337" data-name="Path 337" d="M229.6,430.07c-.032-.069.276-.254.689-.419s.763-.233.79-.164-.281.26-.689.424S229.624,430.144,229.6,430.07Z" transform="translate(1085.965 2781.629)" fill="#455a64"/>
    <path id="Path_338" data-name="Path 338" d="M224.068,432.42c-.032-.069.27-.27.673-.44s.758-.26.785-.191-.27.27-.673.44A1.609,1.609,0,0,1,224.068,432.42Z" transform="translate(1088.564 2780.545)" fill="#455a64"/>
    <path id="Path_339" data-name="Path 339" d="M212.89,245.6s3.467-1.06,8.073-6.176,6.462-11.662,7.071-11.662,3.181-1.442,9.012,9.149,4.061,13.289,3.059,13.342-7.951-1.336-12.192-.53a45.916,45.916,0,0,0-9.542,3.424Z" transform="translate(1093.815 2876.439)" fill="#455a64"/>
    <path id="Path_340" data-name="Path 340" d="M199.19,266.1l1.373,2.2.615.981a3,3,0,0,0,3.992,1.034l7.358-3.181-5.147-9.717-7.252,4.548a2.995,2.995,0,0,0-.938,4.135Z" transform="translate(1100.471 2862.472)" fill="#263238"/>
    <path id="Path_341" data-name="Path 341" d="M208.33,278.173l2.762,4.538,1.177-.424,8.338,5.831,1.861-4.485s-4.771-1.659-5.778-3.249,0-2.041,0-2.041L214.32,276Z" transform="translate(1095.958 2853.741)" fill="#263238"/>
    <path id="Path_342" data-name="Path 342" d="M250.3,237.339c3.122,5.741,4.633,10.952,3.371,11.662s-4.813-3.408-7.951-9.149-4.633-10.952-3.371-11.662S247.177,231.592,250.3,237.339Z" transform="translate(1080.181 2876.245)" fill="#263238"/>
    <path id="Path_343" data-name="Path 343" d="M198.036,277.366l2-.8-1.447-2.311-1.463,1.065Z" transform="translate(1101.221 2854.558)" fill="#455a64"/>
    <path id="Path_344" data-name="Path 344" d="M215.817,277.54l-5.243,3.917-.785-1.293Z" transform="translate(1095.272 2853.017)" fill="#455a64"/>
    <path id="Path_345" data-name="Path 345" d="M199.735,274.26l1.447,2.311-.413.164-1.209-2.348Z" transform="translate(1100.079 2854.558)" fill="#455a64"/>
    <path id="Path_346" data-name="Path 346" d="M202.63,273.028a23.092,23.092,0,0,0,4.3-2.348,11.576,11.576,0,0,0-2.216,1.06A11.413,11.413,0,0,0,202.63,273.028Z" transform="translate(1098.637 2856.241)" fill="#455a64"/>
    <path id="Path_347" data-name="Path 347" d="M201.24,270.474a9.689,9.689,0,0,0,2-1.023,10.073,10.073,0,0,0,1.871-1.251,18.972,18.972,0,0,0-3.87,2.274Z" transform="translate(1099.29 2857.406)" fill="#455a64"/>
    <path id="Path_348" data-name="Path 348" d="M204.339,275.97a1.766,1.766,0,0,0,.631-.191l.663-.276c.244-.111.5-.26.769-.408a8.745,8.745,0,0,0,1.866-1.235,10.829,10.829,0,0,0-1.993,1c-.27.148-.53.307-.753.424s-.451.228-.631.323C204.541,275.8,204.323,275.933,204.339,275.97Z" transform="translate(1097.834 2854.746)" fill="#455a64"/>
    <path id="Path_349" data-name="Path 349" d="M247.24,243.293s2.926-2.12,4.909,1.887-1.187,4.935-1.187,4.935A27.622,27.622,0,0,1,247.24,243.293Z" transform="translate(1077.674 2869.373)" fill="#455a64"/>
    <path id="Path_350" data-name="Path 350" d="M240.41,234.94a3.9,3.9,0,0,0,.175.785c.138.5.329,1.219.594,2.12.159.435.339.906.53,1.415l.3.79c.053.133.1.27.154.413s.127.27.191.408l.827,1.733c.069.154.143.3.217.456s.164.3.249.445l.53.906.53.906c.09.143.17.3.265.435s.2.281.286.419l1.1,1.59c.09.122.17.249.26.366l.286.345.53.647.97,1.166c.641.668,1.172,1.187,1.537,1.553a4.242,4.242,0,0,0,.594.53,5.554,5.554,0,0,0-.53-.61l-1.474-1.59-.917-1.214-.53-.652-.276-.345c-.09-.117-.17-.244-.254-.366l-1.06-1.59-.281-.413c-.1-.138-.175-.292-.265-.435l-.53-.9c-.175-.3-.35-.6-.53-.9-.079-.148-.175-.292-.249-.445s-.143-.3-.217-.451l-.832-1.712c-.064-.138-.138-.27-.191-.408s-.111-.276-.164-.408c-.106-.27-.207-.53-.307-.779l-.557-1.4c-.281-.864-.5-1.59-.668-2.073A5.409,5.409,0,0,0,240.41,234.94Z" transform="translate(1080.884 2873.035)" fill="#263238"/>
    <path id="Path_351" data-name="Path 351" d="M223.732,280.407a.9.9,0,0,1,.62,1.087c-.228.9-.6,2.316-.9,3.181a2.379,2.379,0,0,1-.4.785.742.742,0,0,1-1.352-.382,2.363,2.363,0,0,1,.079-.922c.186-.843.53-2.12.827-3.133a.9.9,0,0,1,1.118-.615Z" transform="translate(1089.679 2851.688)" fill="#ffbe9d"/>
    <path id="Path_352" data-name="Path 352" d="M226.442,283.163a.9.9,0,0,1,.62,1.087c-.228.9-.6,2.317-.9,3.181a2.285,2.285,0,0,1-.4.785.811.811,0,0,1-.785.3.832.832,0,0,1-.562-.684,2.476,2.476,0,0,1,.074-.922c.191-.837.53-2.12.827-3.133a.906.906,0,0,1,1.124-.615Z" transform="translate(1088.405 2850.395)" fill="#ffbe9d"/>
    <path id="Path_353" data-name="Path 353" d="M229.287,284.832a.785.785,0,0,1,.53.944c-.2.779-.53,2-.779,2.751a2.03,2.03,0,0,1-.345.684.641.641,0,0,1-1.166-.334,2.052,2.052,0,0,1,.064-.8c.164-.726.461-1.818.716-2.714a.784.784,0,0,1,.97-.53Z" transform="translate(1086.944 2849.605)" fill="#ffbe9d"/>
    <path id="Path_354" data-name="Path 354" d="M232.248,285.166a.785.785,0,0,1,.53.949c-.2.785-.53,2.014-.785,2.767a1.983,1.983,0,0,1-.344.684.641.641,0,0,1-1.172-.334,2.08,2.08,0,0,1,.064-.806c.164-.726.461-1.829.721-2.725a.785.785,0,0,1,.975-.53Z" transform="translate(1085.558 2849.446)" fill="#ffbe9d"/>
    <path id="Path_355" data-name="Path 355" d="M224.6,287.063a5.492,5.492,0,0,1,.387-1.7,5.6,5.6,0,0,1,.657-1.617,5.411,5.411,0,0,1-.392,1.7A5.69,5.69,0,0,1,224.6,287.063Z" transform="translate(1088.313 2850.099)" fill="#eb996e"/>
    <path id="Path_356" data-name="Path 356" d="M230.23,289.324a21.737,21.737,0,0,1,.991-3.324,7.384,7.384,0,0,1-.991,3.329Z" transform="translate(1085.667 2849.042)" fill="#eb996e"/>
    <path id="Path_357" data-name="Path 357" d="M227.44,288.954a22.023,22.023,0,0,1,.991-3.334A7.379,7.379,0,0,1,227.44,288.954Z" transform="translate(1086.978 2849.22)" fill="#eb996e"/>
    <path id="Path_358" data-name="Path 358" d="M269.448,207.35c.058.042-2.12,2.995-4.856,6.589s-5.015,6.472-5.073,6.425,2.12-3,4.85-6.589S269.384,207.3,269.448,207.35Z" transform="translate(1071.905 2886)" fill="#263238"/>
    <path id="Path_359" data-name="Path 359" d="M286.88,223.219c.032.069-4.538,2.258-10.21,4.887s-10.289,4.707-10.321,4.638,4.538-2.258,10.2-4.887S286.838,223.15,286.88,223.219Z" transform="translate(1068.694 2878.544)" fill="#263238"/>
    <path id="Path_360" data-name="Path 360" d="M288.2,254.988c0,.074-3.265-.175-7.273-.562s-7.257-.763-7.252-.838,3.265.175,7.278.562S288.215,254.914,288.2,254.988Z" transform="translate(1065.25 2864.278)" fill="#263238"/>
    <path id="Path_361" data-name="Path 361" d="M143.258,264.772l3.6,20.462a6.732,6.732,0,0,0,7.58,5.449h0a6.658,6.658,0,0,0,5.725-7.655l-.583-3.52s5.036-1.368,4.511-6.425c-.254-2.438-1.187-7.421-2.089-11.906a9.653,9.653,0,0,0-11.015-7.543h0a9.414,9.414,0,0,0-7.729,11.137Z" transform="translate(1126.622 2864.311)" fill="#ffbe9d"/>
    <path id="Path_362" data-name="Path 362" d="M168.121,301.588a12.155,12.155,0,0,1-6.891-1.118s2,3.461,7.055,2.4Z" transform="translate(1118.091 2842.242)" fill="#eb996e"/>
    <path id="Path_363" data-name="Path 363" d="M175.422,273.905a.726.726,0,0,1-.62.806.7.7,0,0,1-.827-.562.726.726,0,0,1,.62-.811.7.7,0,0,1,.827.567Z" transform="translate(1112.105 2854.998)" fill="#263238"/>
    <path id="Path_364" data-name="Path 364" d="M174.412,271.567c-.08.106-.684-.239-1.468-.143s-1.32.53-1.415.456,0-.217.254-.424a2.089,2.089,0,0,1,1.118-.488,1.951,1.951,0,0,1,1.187.239C174.364,271.36,174.47,271.509,174.412,271.567Z" transform="translate(1113.269 2856.112)" fill="#263238"/>
    <path id="Path_365" data-name="Path 365" d="M161.448,275.59a.731.731,0,0,1-.62.811.7.7,0,0,1-.832-.567.726.726,0,0,1,.62-.806.7.7,0,0,1,.832.562Z" transform="translate(1118.674 2854.204)" fill="#263238"/>
    <path id="Path_366" data-name="Path 366" d="M160.085,273.458c-.079.1-.679-.239-1.468-.148s-1.32.53-1.415.461.027-.217.26-.429a2.014,2.014,0,0,1,1.118-.482,1.983,1.983,0,0,1,1.182.233C160.026,273.267,160.127,273.458,160.085,273.458Z" transform="translate(1119.999 2855.223)" fill="#263238"/>
    <path id="Path_367" data-name="Path 367" d="M168.338,279.464a5.578,5.578,0,0,1,1.256-.371c.2-.042.382-.106.4-.244a1.023,1.023,0,0,0-.207-.572l-.769-1.442a27.914,27.914,0,0,1-1.8-3.8,26.751,26.751,0,0,1,2.12,3.647c.26.5.53.986.742,1.452a1.113,1.113,0,0,1,.2.763.5.5,0,0,1-.3.329,1.34,1.34,0,0,1-.334.085A5.337,5.337,0,0,1,168.338,279.464Z" transform="translate(1115.277 2855.132)" fill="#263238"/>
    <path id="Path_368" data-name="Path 368" d="M165,286.67c.127,0,.228.816,1.028,1.336s1.7.318,1.718.435-.18.186-.567.239a2.168,2.168,0,0,1-1.431-.313,1.845,1.845,0,0,1-.806-1.129C164.871,286.887,164.961,286.67,165,286.67Z" transform="translate(1116.359 2848.727)" fill="#263238"/>
    <path id="Path_369" data-name="Path 369" d="M159.238,268.77c-.053.217-.853.207-1.765.419s-1.627.53-1.771.376c-.069-.085.037-.3.318-.53a3.228,3.228,0,0,1,2.693-.6C159.068,268.515,159.259,268.664,159.238,268.77Z" transform="translate(1120.698 2857.335)" fill="#263238"/>
    <path id="Path_370" data-name="Path 370" d="M173.816,268.23c-.117.191-.684.069-1.336.133s-1.193.254-1.341.085c-.064-.079,0-.27.223-.461a1.84,1.84,0,0,1,1.06-.414,1.9,1.9,0,0,1,1.108.233C173.768,267.965,173.864,268.134,173.816,268.23Z" transform="translate(1113.446 2857.705)" fill="#263238"/>
    <path id="Path_371" data-name="Path 371" d="M160.708,249.524a1.786,1.786,0,0,0-2.327.143,1.59,1.59,0,0,0-.451-2.12,2.735,2.735,0,0,0-2.316-.334,7.861,7.861,0,0,0-2.168,1.06.816.816,0,0,0-.355-.827,1.961,1.961,0,0,0-.912-.286,6.949,6.949,0,0,0-3.822.859,23.852,23.852,0,0,0-3.536,2.4h0a16.892,16.892,0,0,0-3.234,3.456l-.042.037a5.655,5.655,0,0,0-1.267,3.668c.419,3.642,1.627,5.746,2.306,9.192a1.209,1.209,0,0,0,.26.641c.419.435,1.172.064,1.59-.392a6.51,6.51,0,0,0,1.346-4.1c.048-1.463-.164-2.921-.127-4.384v-.106a8.216,8.216,0,0,1,.106-1.113,3.634,3.634,0,0,1,2.693-2.651c2.12-.36,6.335,1.707,8.418,1.378s2.195-1.8,2.195-1.8l1.225,2.491a7.543,7.543,0,0,0,.2-3.112,3.536,3.536,0,0,0,1.06-1.818A2.338,2.338,0,0,0,160.708,249.524Z" transform="translate(1127.942 2867.325)" fill="#263238"/>
    <path id="Path_372" data-name="Path 372" d="M144.372,278.81c-.09-.027-3.642-.625-3.128,2.815s3.917,2.221,3.907,2.12S144.372,278.81,144.372,278.81Z" transform="translate(1127.506 2852.447)" fill="#ffbe9d"/>
    <path id="Path_373" data-name="Path 373" d="M144.719,283.664a.87.87,0,0,1-.148.111.631.631,0,0,1-.456.079,1.511,1.511,0,0,1-.9-1.23,2.046,2.046,0,0,1,.042-.885.7.7,0,0,1,.392-.53.318.318,0,0,1,.382.111c.058.09.048.164.069.164s.064-.069,0-.207a.44.44,0,0,0-.17-.2.487.487,0,0,0-.35-.037.869.869,0,0,0-.53.625,2.051,2.051,0,0,0-.064.991,1.59,1.59,0,0,0,1.108,1.357.663.663,0,0,0,.53-.175C144.724,283.749,144.729,283.664,144.719,283.664Z" transform="translate(1126.677 2851.378)" fill="#eb996e"/>
    <path id="Path_374" data-name="Path 374" d="M124.567,325.806a.635.635,0,0,1,.3-.048,1.187,1.187,0,0,1,.785.392,1.707,1.707,0,0,1,.456,1.3,7.584,7.584,0,0,1-.4,1.781,2.428,2.428,0,0,0,.122,2.041c.376.657,1.145,1.161,1.458,2.078a2.444,2.444,0,0,1-.769,2.65,2.481,2.481,0,0,1-1.431.557,5.237,5.237,0,0,1-1.532-.249,2.777,2.777,0,0,0-1.431-.09,2.078,2.078,0,0,0-1.06.859,7.326,7.326,0,0,1-.9,1.129,1.8,1.8,0,0,1-1.341.493,2.651,2.651,0,0,1-2.12-1.4,5.185,5.185,0,0,1-.53-2.163c-.037-.679,0-1.288,0-1.818a9.111,9.111,0,0,0-.117-1.352,6.933,6.933,0,0,0-.323-1.113,1.1,1.1,0,0,1,.148.265,3.524,3.524,0,0,1,.276.827,7.562,7.562,0,0,1,.17,1.368,17.2,17.2,0,0,0,.069,1.813,4.946,4.946,0,0,0,.53,2.062,2.444,2.444,0,0,0,1.924,1.262,1.532,1.532,0,0,0,1.15-.435,7.06,7.06,0,0,0,.864-1.092,2.348,2.348,0,0,1,1.2-.965,2.969,2.969,0,0,1,1.59.09,5.33,5.33,0,0,0,1.452.239,2.216,2.216,0,0,0,1.278-.493,2.189,2.189,0,0,0,.7-2.37c-.26-.811-1.007-1.325-1.421-2.041a2.152,2.152,0,0,1-.3-1.15,4.379,4.379,0,0,1,.191-1.06,7.669,7.669,0,0,0,.44-1.739,1.59,1.59,0,0,0-.382-1.225,1.187,1.187,0,0,0-.71-.4C124.673,325.79,124.567,325.822,124.567,325.806Z" transform="translate(1139.472 2830.36)" fill="#fafafa"/>
    <path id="Path_375" data-name="Path 375" d="M135.149,382.978a1.555,1.555,0,0,0,.159.329,1.384,1.384,0,0,0,.822.573,1.67,1.67,0,0,0,1.516-.318,3.18,3.18,0,0,0,1.012-1.855c.17-.79.138-1.691.292-2.65a4.239,4.239,0,0,1,.488-1.447,2.417,2.417,0,0,1,1.219-1.092,3.435,3.435,0,0,1,1.7-.154c.578.058,1.145.191,1.717.265a4.161,4.161,0,0,0,1.733-.085,3.959,3.959,0,0,0,1.548-.859,3.366,3.366,0,0,0,.954-1.479,2.83,2.83,0,0,0-.032-1.691,2.91,2.91,0,0,0-2.306-2.051c-1.06-.117-2.014.4-3.016.419a2.863,2.863,0,0,1-1.4-.318,6.607,6.607,0,0,1-1.1-.7,6.706,6.706,0,0,0-1.855-1.134,1.908,1.908,0,0,0-1.59.106,1.441,1.441,0,0,0-.679.737,3.386,3.386,0,0,0-.085.355.833.833,0,0,1,.032-.371,1.452,1.452,0,0,1,.678-.816,2.045,2.045,0,0,1,.742-.255,2.259,2.259,0,0,1,.922.1,6.648,6.648,0,0,1,1.929,1.124,3.775,3.775,0,0,0,2.37.949,7.35,7.35,0,0,0,1.447-.27,4.464,4.464,0,0,1,1.59-.17,3.149,3.149,0,0,1,2.529,2.216,3.032,3.032,0,0,1,.037,1.855,3.642,3.642,0,0,1-1.028,1.59,4.183,4.183,0,0,1-1.659.922,4.331,4.331,0,0,1-1.839.085c-.594-.079-1.161-.207-1.712-.27a3.208,3.208,0,0,0-1.59.133,2.12,2.12,0,0,0-1.1.975,4.181,4.181,0,0,0-.477,1.362c-.154.938-.138,1.85-.323,2.65a3.334,3.334,0,0,1-1.108,1.935,1.77,1.77,0,0,1-1.638.3,1.383,1.383,0,0,1-.843-.647A.774.774,0,0,1,135.149,382.978Z" transform="translate(1130.347 2810.289)" fill="#fafafa"/>
    <path id="Path_376" data-name="Path 376" d="M160.023,334.082a1.957,1.957,0,0,1,.366-.493,2.831,2.831,0,0,1,1.59-.8,2.719,2.719,0,0,1,2.534,1.007,2.91,2.91,0,0,1,.641,1.638,4.347,4.347,0,0,0,.4,1.845,1.431,1.431,0,0,0,.774.578,4.17,4.17,0,0,0,1.06.164,8.542,8.542,0,0,1,1.15.053,2.163,2.163,0,0,1,1.161.413,1.427,1.427,0,0,1,.4.53,1.41,1.41,0,0,1,.106.663,2.211,2.211,0,0,1-.53,1.2,3.387,3.387,0,0,1-1.06.832c-.4.2-.816.366-1.224.557a4.315,4.315,0,0,0-1.129.695,2.189,2.189,0,0,0-.663,1.129,17.507,17.507,0,0,0-.064,2.862,3.711,3.711,0,0,1-.4,1.484,1.766,1.766,0,0,1-1.262.949,1.956,1.956,0,0,1-1.521-.53,4.638,4.638,0,0,1-1.012-1.235,13.165,13.165,0,0,0-.816-1.3,2.4,2.4,0,0,0-1.129-.88,2.031,2.031,0,0,0-1.389.09,8.212,8.212,0,0,0-1.293.689,7.357,7.357,0,0,1-1.315.684,4.069,4.069,0,0,1-1.458.244,4.591,4.591,0,0,1-2.65-.933,3.764,3.764,0,0,1-1.452-2.242,2.6,2.6,0,0,1,.631-2.422,2.532,2.532,0,0,1,1.092-.562,9,9,0,0,1,1.14-.2,3.71,3.71,0,0,0,1.951-.663,3.881,3.881,0,0,0,1.06-1.59c.228-.567.376-1.129.573-1.643a4.811,4.811,0,0,1,.716-1.352,6.245,6.245,0,0,1,.922-.891,3.265,3.265,0,0,1,1.59-.769.737.737,0,0,1,.588.164.944.944,0,0,0-.583-.106,3.254,3.254,0,0,0-1.521.8,5.881,5.881,0,0,0-.891.891,4.9,4.9,0,0,0-.673,1.32c-.186.53-.329,1.06-.53,1.654a4.008,4.008,0,0,1-1.06,1.659,3.834,3.834,0,0,1-2.051.721,3.861,3.861,0,0,0-2.12.721,2.359,2.359,0,0,0-.53,2.205A3.562,3.562,0,0,0,151.509,346a4.367,4.367,0,0,0,2.507.869,3.707,3.707,0,0,0,1.357-.228,7.306,7.306,0,0,0,1.272-.668,8.374,8.374,0,0,1,1.193-.684,2.29,2.29,0,0,1,1.59-.1,2.651,2.651,0,0,1,1.262.97,12.448,12.448,0,0,1,.838,1.33,4.594,4.594,0,0,0,.949,1.161,1.659,1.659,0,0,0,1.3.44,1.458,1.458,0,0,0,1.06-.806,3.483,3.483,0,0,0,.371-1.368,15.316,15.316,0,0,1,.079-2.91,2.46,2.46,0,0,1,.742-1.256,4.43,4.43,0,0,1,1.2-.737c.419-.191.832-.35,1.219-.53a3.111,3.111,0,0,0,.981-.769,1.977,1.977,0,0,0,.53-1.06,1.188,1.188,0,0,0-.085-.53,1.241,1.241,0,0,0-.339-.435,1.952,1.952,0,0,0-1.06-.366c-.376-.042-.758-.042-1.134-.064a4.33,4.33,0,0,1-1.108-.186,1.654,1.654,0,0,1-.869-.663,4.421,4.421,0,0,1-.413-1.93,2.777,2.777,0,0,0-.583-1.59,2.65,2.65,0,0,0-2.4-1.012,2.846,2.846,0,0,0-1.543.726,5.172,5.172,0,0,0-.408.466Z" transform="translate(1123.481 2827.066)" fill="#fafafa"/>
    <path id="Path_377" data-name="Path 377" d="M148.35,314.564a1.845,1.845,0,0,1-1.1.53,3.453,3.453,0,0,1-1.346,0,2.354,2.354,0,0,1-1.447-.832,3.1,3.1,0,0,1-.53-1.59,4.243,4.243,0,0,1,.09-1.341,1.8,1.8,0,0,1,.567-1.06,4.768,4.768,0,0,0-.371,1.124,4.541,4.541,0,0,0-.037,1.278,3.069,3.069,0,0,0,.493,1.437,2.121,2.121,0,0,0,1.277.747,3.71,3.71,0,0,0,1.262.048A5.416,5.416,0,0,0,148.35,314.564Z" transform="translate(1126.232 2837.637)" fill="#fafafa"/>
    <path id="Path_378" data-name="Path 378" d="M185.237,315.634a.42.42,0,0,1-.037.143,1.462,1.462,0,0,1-.207.382,2.38,2.38,0,0,1-1.32.88,2.458,2.458,0,0,1-1.118,0,2.969,2.969,0,0,1-1.129-.6,3.631,3.631,0,0,0-1.113-.684,1.013,1.013,0,0,0-1.129.445,9.548,9.548,0,0,0-.652,1.293,2.651,2.651,0,0,1-.938,1.06,2.5,2.5,0,0,1-3.536-.763,1.061,1.061,0,0,1-.217-.53,3.548,3.548,0,0,0,.3.477,2.65,2.65,0,0,0,1.2.9,2.407,2.407,0,0,0,2.947-1.262,10.065,10.065,0,0,1,.668-1.331,1.426,1.426,0,0,1,.631-.53,1.24,1.24,0,0,1,.8-.032,3.8,3.8,0,0,1,1.2.742,2.763,2.763,0,0,0,1.023.583,2.3,2.3,0,0,0,1.023,0,2.359,2.359,0,0,0,1.277-.753A4.23,4.23,0,0,0,185.237,315.634Z" transform="translate(1112.165 2835.215)" fill="#fafafa"/>
    <path id="Path_379" data-name="Path 379" d="M199.421,343.191a2.809,2.809,0,0,1-.588-.382,12.079,12.079,0,0,1-1.447-1.262,6.9,6.9,0,0,1-.843-1.06,3.525,3.525,0,0,1-.53-1.463,2.857,2.857,0,0,1,.27-1.7,2.12,2.12,0,0,1,.6-.71,6.441,6.441,0,0,1,.779-.5,3.381,3.381,0,0,0,.705-.53,1.669,1.669,0,0,0,.408-.7,4.1,4.1,0,0,0,.053-1.59,7.955,7.955,0,0,1-.111-1.527,1.866,1.866,0,0,1,.493-1.267,2.814,2.814,0,0,1,1.786-.716.763.763,0,0,1,.657.244,1.251,1.251,0,0,0-.652-.138,2.82,2.82,0,0,0-1.654.747,1.675,1.675,0,0,0-.4,1.145,8.844,8.844,0,0,0,.133,1.479,4.167,4.167,0,0,1-.042,1.712,1.9,1.9,0,0,1-.472.816,3.393,3.393,0,0,1-.763.557,2.851,2.851,0,0,0-1.278,1.129,2.682,2.682,0,0,0-.26,1.548,4.241,4.241,0,0,0,1.262,2.391C198.641,342.581,199.452,343.149,199.421,343.191Z" transform="translate(1101.761 2828.469)" fill="#fafafa"/>
    <path id="Path_380" data-name="Path 380" d="M176.858,374.911a.73.73,0,0,1,.244,0,5.786,5.786,0,0,1,.71.042,6.848,6.848,0,0,1,2.513.731,4.575,4.575,0,0,1,2.375,3.006,3.181,3.181,0,0,1-.329,2.3,3.106,3.106,0,0,1-1.993,1.49,2.837,2.837,0,0,1-1.288-.069,1.75,1.75,0,0,0-1.1,0,2.121,2.121,0,0,0-.859.663,6.14,6.14,0,0,0-.567.9,3.557,3.557,0,0,1-1.384,1.59,2.614,2.614,0,0,1-1.818.217,2.29,2.29,0,0,1-1.267-.827,2.535,2.535,0,0,1-.488-1.028,2.179,2.179,0,0,1-.037-.716.815.815,0,0,1,.053-.244,3.815,3.815,0,0,0,.09.933,2.476,2.476,0,0,0,.5.959,2.12,2.12,0,0,0,1.166.705,2.439,2.439,0,0,0,1.67-.228,3.381,3.381,0,0,0,1.267-1.5,3.419,3.419,0,0,1,1.59-1.707,2.014,2.014,0,0,1,1.262,0,2.513,2.513,0,0,0,1.171.069,2.853,2.853,0,0,0,1.813-1.357,2.953,2.953,0,0,0,.313-2.12,4.421,4.421,0,0,0-2.221-2.889,7.233,7.233,0,0,0-2.428-.8A5.439,5.439,0,0,1,176.858,374.911Z" transform="translate(1113.24 2807.266)" fill="#fafafa"/>
    <path id="Path_381" data-name="Path 381" d="M158.5,405.84a3.612,3.612,0,0,0-.493-1.092,2.689,2.689,0,0,0-.991-.8,2.12,2.12,0,0,0-2.735.732,2.652,2.652,0,0,0-.461,1.161,3.578,3.578,0,0,0,.117,1.193.971.971,0,0,1-.175-.292,2.146,2.146,0,0,1-.138-.922,2.744,2.744,0,0,1,.44-1.315,2.285,2.285,0,0,1,3.059-.816,2.7,2.7,0,0,1,1.06.917,2.12,2.12,0,0,1,.339.864A.955.955,0,0,1,158.5,405.84Z" transform="translate(1121.667 2793.873)" fill="#fafafa"/>
    <path id="Path_382" data-name="Path 382" d="M154.017,420.352a3.046,3.046,0,0,0-.239-.652,2.783,2.783,0,0,0-1.272-1.3,2.651,2.651,0,0,0-2.582.2,4.055,4.055,0,0,0-1.06,1.209,3.831,3.831,0,0,1-.6.689,1.453,1.453,0,0,1-.928.345,2.311,2.311,0,0,1-1.59-.959,5.3,5.3,0,0,0-1.124-1.172,1.982,1.982,0,0,0-1.373-.249,2.793,2.793,0,0,0-1.161.482,4.728,4.728,0,0,0-1.219,1.4,4.82,4.82,0,0,1-.366.6,2.425,2.425,0,0,1,.27-.647,4.448,4.448,0,0,1,1.2-1.511,2.83,2.83,0,0,1,1.24-.53,2.2,2.2,0,0,1,1.548.254,5.4,5.4,0,0,1,1.193,1.214,2.067,2.067,0,0,0,1.389.859,1.746,1.746,0,0,0,1.3-.917,4.372,4.372,0,0,1,1.15-1.262,2.746,2.746,0,0,1,4.1,1.277,2.177,2.177,0,0,1,.133.53C154.049,420.289,154.049,420.352,154.017,420.352Z" transform="translate(1127.832 2787.047)" fill="#fafafa"/>
    <path id="Path_383" data-name="Path 383" d="M167.477,385.307a6.071,6.071,0,0,0-1.527-.673,4.812,4.812,0,0,0-1.781-.1,4.3,4.3,0,0,0-2.014.785,3.71,3.71,0,0,0-1.272,1.723,3.817,3.817,0,0,0-.191,1.76,5,5,0,0,0,.562,1.558,1.643,1.643,0,0,1-.3-.355,3.218,3.218,0,0,1-.461-1.177,3.864,3.864,0,0,1,1.495-3.711,4.374,4.374,0,0,1,2.12-.811,4.611,4.611,0,0,1,1.866.159,3.633,3.633,0,0,1,1.134.53C167.376,385.191,167.487,385.3,167.477,385.307Z" transform="translate(1118.46 2802.86)" fill="#fafafa"/>
  </g>
</svg>
