<svg xmlns="http://www.w3.org/2000/svg" width="609.313" height="378.244" viewBox="0 0 609.313 378.244">
  <g id="Group_165" data-name="Group 165" transform="translate(-954.725 -251)">
    <g id="freepik--background-complete--inject-9" transform="translate(954.725 340.892)">
      <path id="Path_1143" data-name="Path 1143" d="M150.494,434.621c25.584-17.078,31.831-49.386,31.234-78.517-.092-4.869.533-9.986-1.745-14.285s-7.7-7.294-12.135-5.31c-3.675,1.644-5.347,5.815-7.45,9.26a28.717,28.717,0,0,1-11.713,10.721c-3.16,1.552-7.055,2.48-10.105.744-4.207-2.37-4.593-8.176-4.511-13.008l.588-27.027c.1-4.832.2-9.774-1.259-14.386s-4.749-8.92-9.389-10.28-10.445,1.213-11.5,5.925c-.441,1.966-.064,4.014-.23,6.017s-1.148,4.217-3.1,4.749-3.9-.919-5.337-2.306c-4.979-4.951-8.268-11.29-11.428-17.592S86.3,276.577,81.8,271.185,71.022,261.456,64.022,261s-14.551,3.675-16.435,10.436,2.039,13.78,6.339,19.347A108.308,108.308,0,0,0,76.405,312.5c1.525,1.112,3.178,2.306,3.748,4.1,1.011,3.243-2.131,6.431-5.374,7.413-3.675,1.139-7.625.707-11.455,1.093s-7.992,1.994-9.49,5.512c-2.085,4.915,2.021,10.151,6.091,13.605a93.757,93.757,0,0,0,27.477,16.2c3.583,1.36,7.349,2.554,10.224,5.1s4.593,6.917,2.756,10.289-6.339,4.409-10.105,3.675-7.11-2.82-10.693-4.217c-6.688-2.609-15.387-2.278-19.788,3.4-2.894,3.73-3.224,8.984-1.837,13.5s4.207,8.433,7.239,12.053c10.6,12.659,24.252,22.92,39.786,28.478s29.975,7.239,45.583,1.837" transform="translate(-47.103 -149.481)" fill="#ebebeb"/>
      <path id="Path_1144" data-name="Path 1144" d="M143.767,416.594c-4.116-14.763-9.986-30.563-16.7-46.851q-2.535-6.118-5.016-12.071c-1.654-3.959-3.3-7.882-5.144-11.621a216.8,216.8,0,0,0-11.841-20.9c-4.1-6.43-8.222-12.457-12.117-18.033s-7.661-10.711-11.272-15.24A173.619,173.619,0,0,0,63.036,271.8c-2.379-2.2-4.281-3.84-5.576-4.933l-1.507-1.24c-.34-.276-.524-.4-.524-.4s.147.165.469.459l1.442,1.3c1.268,1.13,3.142,2.811,5.512,5.034a180.587,180.587,0,0,1,18.428,20.21c3.583,4.538,7.294,9.664,11.18,15.24s7.965,11.584,12.043,18.042a217.09,217.09,0,0,1,11.768,20.853c1.837,3.72,3.463,7.616,5.117,11.584L126.4,370.01c6.715,16.315,12.585,32.079,16.729,46.8" transform="translate(-47.78 -149.827)" fill="#e0e0e0"/>
      <path id="Path_1145" data-name="Path 1145" d="M122.15,348.389a10.786,10.786,0,0,0,.478-2.058c.276-1.332.6-3.27.974-5.677.753-4.8,1.571-11.474,2.462-18.832s1.837-14,2.673-18.768c.423-2.4.79-4.327,1.056-5.659a11.742,11.742,0,0,0,.34-2.085,11.944,11.944,0,0,0-.615,2.03c-.358,1.3-.8,3.234-1.286,5.613-.983,4.768-2,11.419-2.894,18.786s-1.654,13.89-2.242,18.841c-.3,2.306-.551,4.226-.744,5.7A12.569,12.569,0,0,0,122.15,348.389Z" transform="translate(-53.208 -152.275)" fill="#e0e0e0"/>
      <path id="Path_1146" data-name="Path 1146" d="M53.8,339.426a2.351,2.351,0,0,0,.643.11l1.837.193c1.617.147,3.95.367,6.826.735,5.769.689,13.688,1.92,22.369,3.675s16.462,3.675,22.047,5.273c2.756.762,5.053,1.451,6.605,1.911l1.837.533a1.983,1.983,0,0,0,.643.129,2.755,2.755,0,0,0-.588-.276l-1.755-.652c-1.534-.551-3.766-1.314-6.55-2.14-5.512-1.7-13.348-3.721-22.047-5.512a219.613,219.613,0,0,0-22.5-3.454c-2.894-.294-5.245-.441-6.871-.505l-1.837-.055a2.1,2.1,0,0,0-.661.037Z" transform="translate(-47.648 -155.861)" fill="#e0e0e0"/>
      <path id="Path_1147" data-name="Path 1147" d="M150.85,421.742a4.79,4.79,0,0,0,.423-.763l1.1-2.241c.919-1.947,2.251-4.8,3.812-8.332,3.133-7.083,7.165-16.995,11.474-27.991s8.268-20.927,11.263-28.046c1.5-3.491,2.756-6.348,3.6-8.424.4-.919.717-1.7.974-2.3a4.593,4.593,0,0,0,.294-.818,3.417,3.417,0,0,0-.432.753l-1.093,2.241c-.919,1.948-2.251,4.8-3.812,8.341-3.142,7.074-7.165,16.986-11.474,27.982s-8.268,20.927-11.272,28.046l-3.592,8.433c-.4.919-.726,1.69-.974,2.287A3.214,3.214,0,0,0,150.85,421.742Z" transform="translate(-55.543 -156.141)" fill="#e0e0e0"/>
      <path id="Path_1148" data-name="Path 1148" d="M60.2,398.39a4.363,4.363,0,0,0,.827.331l2.425.827,8.929,2.976c7.533,2.517,17.9,6.127,29.332,10.105s21.836,7.551,29.4,9.949c3.785,1.2,6.862,2.14,8.994,2.756l2.471.7a4.824,4.824,0,0,0,.873.193,4.215,4.215,0,0,0-.836-.34l-2.416-.827-8.929-2.967c-7.533-2.526-17.9-6.137-29.341-10.151s-21.836-7.551-29.4-9.949c-3.785-1.194-6.862-2.14-9-2.756l-2.462-.7A4.1,4.1,0,0,0,60.2,398.39Z" transform="translate(-48.168 -160.662)" fill="#e0e0e0"/>
      <rect id="Rectangle_1636" data-name="Rectangle 1636" width="81.355" height="120.692" transform="translate(467.22 173.636) rotate(-68.53)" fill="#ebebeb"/>
      <path id="Path_1149" data-name="Path 1149" d="M700.4,291.491a8.633,8.633,0,0,1-1.442.6l-4.207,1.507-15.543,5.365-51.536,17.372-.423.138-.221-.386-.542-.919c-10.665-18.639-20.311-35.506-27.357-47.843-3.417-6.063-6.192-11.024-8.185-14.561-.919-1.654-1.626-2.976-2.177-3.987a9.757,9.757,0,0,1-.7-1.424,8.056,8.056,0,0,1,.919,1.314c.588.983,1.378,2.269,2.352,3.886l8.488,14.386,27.633,47.687.542.919-.643-.248,51.591-17.059,15.617-5.043,4.272-1.314a8.477,8.477,0,0,1,1.562-.386Z" transform="translate(-91.113 -148.374)" fill="#e0e0e0"/>
      <path id="Path_1150" data-name="Path 1150" d="M555.67,327.023c-.147-.266,12.383-7.349,27.973-15.755S612,296.2,612.121,296.469s-12.383,7.349-27.982,15.764S555.808,327.271,555.67,327.023Z" transform="translate(-88.477 -152.369)" fill="#e0e0e0"/>
      <path id="Path_1151" data-name="Path 1151" d="M658.2,311.42c.285-.083,4.593,13.5,9.591,30.315s8.828,30.563,8.543,30.646-4.593-13.495-9.591-30.315S657.9,311.512,658.2,311.42Z" transform="translate(-96.818 -153.586)" fill="#e0e0e0"/>
      <rect id="Rectangle_1637" data-name="Rectangle 1637" width="72.196" height="48.661" transform="translate(514.312 28.823) rotate(-23.53)" fill="#ebebeb"/>
      <path id="Path_1152" data-name="Path 1152" d="M673.626,140a5.1,5.1,0,0,1-.358.864l-1.139,2.416-4.3,8.837-14.46,29.222-.119.239-.257-.074-.625-.165-31.813-8.663-9.618-2.7-2.609-.762a5.444,5.444,0,0,1-.919-.312,4.207,4.207,0,0,1,.919.184l2.636.643,9.71,2.425,31.858,8.479.634.165-.377.175c5.7-11.345,10.858-21.579,14.625-29.057,1.837-3.675,3.4-6.623,4.483-8.755l1.249-2.361a5.312,5.312,0,0,1,.478-.8Z" transform="translate(-92.687 -139.64)" fill="#e0e0e0"/>
      <path id="Path_1153" data-name="Path 1153" d="M628.589,216.74c-.175,0,2.14-8.332,5.163-18.492s5.631-18.373,5.8-18.318-2.131,8.332-5.163,18.5S628.764,216.74,628.589,216.74Z" transform="translate(-94.409 -142.889)" fill="#e0e0e0"/>
      <path id="Path_1154" data-name="Path 1154" d="M664.21,168.87c.083-.156,7.652,3.776,16.894,8.773s16.664,9.186,16.536,9.352-7.643-3.766-16.885-8.773S664.127,168.989,664.21,168.87Z" transform="translate(-97.308 -141.988)" fill="#e0e0e0"/>
    </g>
    <g id="freepik--Floor--inject-9" transform="translate(959.335 626.188)">
      <path id="Path_1155" data-name="Path 1155" d="M645.344,450.409c0,.129-132.808.239-296.594.239s-296.63-.11-296.63-.239,132.781-.239,296.63-.239S645.344,450.271,645.344,450.409Z" transform="translate(-52.12 -450.17)" fill="#263238"/>
    </g>
    <g id="freepik--Device--inject-9" transform="translate(1035.656 353.92)">
      <rect id="Rectangle_1638" data-name="Rectangle 1638" width="406.583" height="268.869" rx="14.57" transform="translate(17.041)" fill="#263238"/>
      <path id="Path_1156" data-name="Path 1156" d="M135.246,424.82h440.49v7.175a16.352,16.352,0,0,1-16.352,16.352H151.552A16.352,16.352,0,0,1,135.2,431.995V424.82Z" transform="translate(-135.2 -175.84)" fill="#263238"/>
      <rect id="Rectangle_1639" data-name="Rectangle 1639" width="383.617" height="227.052" transform="translate(27.954 10.675)" fill="#455a64"/>
      <path id="Path_1157" data-name="Path 1157" d="M331.42,424.82l5.466,8.69H413.8l5.071-8.69Z" transform="translate(-151.164 -175.84)" fill="#455a64"/>
      <rect id="Rectangle_1640" data-name="Rectangle 1640" width="368.606" height="218.637" rx="3.27" transform="translate(35.855 18.364)" fill="#ebebeb"/>
      <rect id="Rectangle_1641" data-name="Rectangle 1641" width="368.606" height="202.625" transform="translate(35.855 34.385)" fill="#ebebeb"/>
      <path id="Path_1158" data-name="Path 1158" d="M206.618,182.74a2.949,2.949,0,1,1-2.94-2.94A2.949,2.949,0,0,1,206.618,182.74Z" transform="translate(-140.53 -155.906)" fill="#455a64"/>
      <path id="Path_1159" data-name="Path 1159" d="M187.2,182.74a2.949,2.949,0,1,1-2.94-2.94A2.949,2.949,0,0,1,187.2,182.74Z" transform="translate(-138.951 -155.906)" fill="#455a64"/>
      <path id="Path_1160" data-name="Path 1160" d="M196.478,182.74a2.949,2.949,0,1,1-2.94-2.94A2.949,2.949,0,0,1,196.478,182.74Z" transform="translate(-139.705 -155.906)" fill="#455a64"/>
      <path id="Path_1161" data-name="Path 1161" d="M556.842,424.8c0,.147-90.248.257-201.532.257s-201.56-.11-201.56-.257,90.229-.266,201.56-.266S556.842,424.649,556.842,424.8Z" transform="translate(-136.709 -175.816)" fill="#455a64"/>
    </g>
    <g id="freepik--paper-plane--inject-9" transform="translate(1020.043 278.747)">
      <path id="Path_1162" data-name="Path 1162" d="M150.776,401.93a2,2,0,0,1-.312-.184l-.919-.6-1.47-1c-.579-.4-1.268-.845-1.984-1.442l-2.453-1.929c-.919-.726-1.837-1.608-2.811-2.508a67.131,67.131,0,0,1-6.431-6.89,71.507,71.507,0,0,1-12.1-22.654,89.21,89.21,0,0,1-3.812-33.779,97.378,97.378,0,0,1,3.427-19.558A79.279,79.279,0,0,1,130.4,291.6c.965-1.6,2.049-3.142,3.179-4.676l3.6-4.465c1.277-1.433,2.609-2.848,3.932-4.29s2.811-2.756,4.226-4.134a141.475,141.475,0,0,1,19.411-14.854c14.074-9.1,29.975-16.637,46.346-24.482,16.324-7.992,33.531-15.663,51.168-23.416C332.9,180.343,397.542,154,444.632,135.7c23.536-9.186,42.745-16.2,56.037-21,6.651-2.37,11.851-4.134,15.36-5.347l4.005-1.369,1.029-.331a2.122,2.122,0,0,1,.349-.1l-.331.147-1.01.386-3.978,1.451-15.3,5.512c-13.247,4.915-32.41,12.007-55.909,21.276-46.979,18.492-111.579,44.949-182.2,75.871-17.638,7.763-34.807,15.406-51.132,23.389-16.389,7.836-32.263,15.341-46.281,24.381a140.545,140.545,0,0,0-19.292,14.7c-1.406,1.378-2.857,2.692-4.2,4.088s-2.637,2.829-3.913,4.253l-3.574,4.419c-1.121,1.507-2.2,3.022-3.142,4.593A78.379,78.379,0,0,0,122.7,311.59,96.457,96.457,0,0,0,119.229,331a89.264,89.264,0,0,0,3.675,33.567,72,72,0,0,0,11.823,22.663,69.524,69.524,0,0,0,6.311,6.908c1,.919,1.892,1.837,2.756,2.535l2.407,1.966c.707.606,1.387,1.056,1.966,1.47l1.433,1.038.873.634a1.714,1.714,0,0,1,.3.147Z" transform="translate(-118.205 -74.855)" fill="#263238"/>
      <path id="Path_1163" data-name="Path 1163" d="M540.35,74.44l17.013,14.1-1.571,16.15,13.936-7.744,14.845,10.546L639.894,71.96Z" transform="translate(-152.549 -71.96)" fill="#ffcd00"/>
      <g id="Group_160" data-name="Group 160" transform="translate(403.244 0.037)" opacity="0.5">
        <path id="Path_1164" data-name="Path 1164" d="M558.731,88.545,639.765,72,566.98,94.029l-9.82,10.665h0Z" transform="translate(-557.16 -72)"/>
      </g>
      <g id="Group_161" data-name="Group 161" transform="translate(403.244 22.066)" opacity="0.8">
        <path id="Path_1165" data-name="Path 1165" d="M566.98,95.98,571.1,98.9l-13.936,7.744Z" transform="translate(-557.16 -95.98)"/>
      </g>
    </g>
    <g id="freepik--Letters--inject-9" transform="translate(1089.58 407.229)">
      <rect id="Rectangle_1642" data-name="Rectangle 1642" width="88.769" height="59.831" transform="translate(0.306 94.727) rotate(-5.42)" fill="#fff"/>
      <path id="Path_1166" data-name="Path 1166" d="M288.226,365.359s-.064-.386-.138-1.1-.193-1.837-.34-3.16c-.285-2.756-.7-6.835-1.222-12-1.029-10.362-2.49-25.208-4.281-43.277l.358.294-88.355,8.47c-.092.092.689-.854.367-.441h0v.468l.046.5.092.992.184,1.984c.129,1.323.257,2.637.377,3.941q.367,3.941.735,7.808.726,7.744,1.442,15.231c.919,9.967,1.837,19.549,2.692,28.625l-.413-.34,63.662-5.843,18.226-1.626,4.86-.423,1.268-.092a3.146,3.146,0,0,1,.441,0,3.581,3.581,0,0,1-.4.055l-1.222.138-4.777.505L263.717,367.9l-63.827,6.238h-.377v-.377c-.873-9.076-1.782-18.658-2.756-28.625q-.717-7.487-1.451-15.231-.377-3.868-.744-7.8c-.129-1.314-.248-2.627-.377-3.941L194,316.184l-.1-.992v-.965l.377-.459L282.65,305.5h.331v.331c1.644,18.171,3,33.071,3.95,43.516.45,5.135.808,9.186,1.047,11.942.11,1.332.2,2.361.257,3.105A3.344,3.344,0,0,1,288.226,365.359Z" transform="translate(-193.9 -219.441)" fill="#455a64"/>
      <path id="Path_1167" data-name="Path 1167" d="M282.606,305.81a6.428,6.428,0,0,1-.689.919l-2.076,2.425-7.8,8.856L245.9,347.241l-.23.266-.294-.193-2.352-1.5-34.6-22.185L198,316.825c-1.176-.781-2.1-1.415-2.82-1.883a5.973,5.973,0,0,1-.919-.707,7.088,7.088,0,0,1,1.038.56l2.894,1.755,10.528,6.55,34.725,21.983,2.352,1.507-.524.073L271.6,317.587l7.983-8.672,2.2-2.324A6.171,6.171,0,0,1,282.606,305.81Z" transform="translate(-193.929 -219.467)" fill="#455a64"/>
      <rect id="Rectangle_1643" data-name="Rectangle 1643" width="43.902" height="65.141" transform="matrix(0.272, -0.962, 0.962, 0.272, 263.546, 42.542)" fill="#fff"/>
      <path id="Path_1168" data-name="Path 1168" d="M543.421,272.092s.064-.285.2-.79.34-1.286.606-2.251c.542-1.993,1.332-4.869,2.343-8.534l8.562-30.738.165.294-62.7-17.656.367-.2h0v.156l-.046.175-.1.349-.2.707-.4,1.406-.79,2.756-1.562,5.512c-1.038,3.675-2.058,7.266-3.059,10.8-2.012,7.064-3.932,13.862-5.76,20.3l-.193-.349,45.078,12.861,12.861,3.72,3.445,1,.919.276.3.1-.285-.064-.919-.23-3.4-.919L526,267.214l-45.317-12.668-.266-.073.073-.266c1.837-6.431,3.73-13.238,5.723-20.311q1.488-5.3,3.05-10.8l1.562-5.512c.257-.919.524-1.837.79-2.756l.4-1.406.2-.7.092-.358.055-.175v-.156h0l.377-.211L555.4,229.587l.239.073-.073.23c-3.675,12.861-6.724,23.435-8.837,30.821l-2.388,8.461c-.276.919-.5,1.672-.643,2.2A3.03,3.03,0,0,1,543.421,272.092Z" transform="translate(-217.21 -211.82)" fill="#455a64"/>
      <path id="Path_1169" data-name="Path 1169" d="M556.452,229.875a4.779,4.779,0,0,1-.7.423l-2.058,1.1-7.68,3.987L520.367,248.45l-.23.119-.147-.211-1.2-1.644-17.776-24.362-5.337-7.423-1.415-1.993a3.868,3.868,0,0,1-.459-.735,4.993,4.993,0,0,1,.56.661l1.516,1.975,5.512,7.3L519.311,246.4l1.213,1.644-.386-.092,25.722-12.861,7.763-3.812,2.122-1.011a4.485,4.485,0,0,1,.707-.4Z" transform="translate(-218.299 -211.851)" fill="#455a64"/>
    </g>
    <g id="freepik--Plant--inject-9" transform="translate(1095.347 396.894)">
      <path id="Path_1170" data-name="Path 1170" d="M202,201.13s4.327-3.5,11.024,7a143.841,143.841,0,0,1,9.444,16.664s1.718,2.168,3.16.505,3.206-6.173,5.98-5.659,4.106,3.564,4.014,8.213.092,14.836.11,15.755.661,2.177,1.837,1.2,7.57-9.673,11.511-6.385,1.562,16.2,1.332,17.61.092,1.975.781,2.26,2.572-2.848,4.492-5.245,4.593-4.841,6.688-2.756,3.675,11.456-3.849,27.624l-3.959,7.266-8.268.349c-17.822-.358-25.575-5.824-26.521-8.635s2.407-4.134,5.4-4.814,6.623-.992,6.679-1.736-.312-1.286-1.69-1.69-14.019-3.932-15.24-8.911,9.389-6.936,10.776-7.56.524-1.755-.276-2.168-9.9-5.043-14.12-6.991-6.431-4.391-5.631-7.211,5.576-2.333,7.707-2.9.919-3.059.919-3.059a143.313,143.313,0,0,1-10.84-15.782c-6.5-10.629-1.332-13.008-1.332-13.008" transform="translate(-200.178 -200.57)" fill="#ffcd00"/>
      <path id="Path_1171" data-name="Path 1171" d="M208.71,211.4a2.1,2.1,0,0,0,.129.23l.386.661,1.516,2.526c1.323,2.186,3.252,5.347,5.659,9.186,4.8,7.79,11.538,18.483,19.016,30.26s14.23,22.47,19.08,30.223c2.416,3.877,4.373,7.009,5.742,9.186l1.562,2.5c.175.276.312.5.413.643l.147.22a2.089,2.089,0,0,0-.129-.23l-.386-.661-1.516-2.434c-1.323-2.186-3.261-5.347-5.659-9.232-4.814-7.781-11.538-18.483-19.016-30.269s-14.239-22.461-19.089-30.214l-5.732-9.186c-.671-1.075-1.194-1.92-1.562-2.5l-.413-.643A1.754,1.754,0,0,0,208.71,211.4Z" transform="translate(-200.872 -201.451)" fill="#263238"/>
      <path id="Path_1172" data-name="Path 1172" d="M231.8,228.29a2.583,2.583,0,0,0-.156.579c-.083.377-.193.919-.312,1.6-.248,1.35-.542,3.224-.827,5.31s-.514,3.886-.707,5.319c-.083.634-.165,1.167-.22,1.608a2.427,2.427,0,0,0-.055.6,2.618,2.618,0,0,0,.165-.579c.083-.377.184-.919.3-1.6.239-1.35.505-3.234.79-5.31s.542-3.886.744-5.319c.092-.625.165-1.167.23-1.608A2.639,2.639,0,0,0,231.8,228.29Z" transform="translate(-202.565 -202.826)" fill="#263238"/>
      <path id="Path_1173" data-name="Path 1173" d="M227.165,244.586c0-.073-3.831-.854-8.58-1.736s-8.626-1.534-8.635-1.461,3.831.854,8.58,1.736S227.156,244.706,227.165,244.586Z" transform="translate(-200.973 -203.891)" fill="#263238"/>
      <path id="Path_1174" data-name="Path 1174" d="M240.71,264a2.605,2.605,0,0,0-.615,0l-1.654.165c-1.4.129-3.326.312-5.457.432s-4.07.184-5.466.211h-1.663a3.462,3.462,0,0,0-.615.046,2.416,2.416,0,0,0,.615.064c.386,0,.919.046,1.663.055,1.4,0,3.344,0,5.512-.119s4.07-.34,5.466-.524c.689-.092,1.259-.184,1.644-.248a2.94,2.94,0,0,0,.57-.083Z" transform="translate(-202.217 -205.729)" fill="#263238"/>
      <path id="Path_1175" data-name="Path 1175" d="M247.827,249.67a2.951,2.951,0,0,0-.276.487l-.68,1.387c-.551,1.167-1.3,2.756-2.122,4.593s-1.543,3.436-2.058,4.593c-.257.6-.459,1.075-.588,1.415a2.176,2.176,0,0,0-.184.533,1.9,1.9,0,0,0,.276-.487c.165-.322.4-.79.68-1.378.56-1.176,1.314-2.756,2.131-4.593s1.534-3.436,2.049-4.593c.257-.588.459-1.075.6-1.415A2.076,2.076,0,0,0,247.827,249.67Z" transform="translate(-203.574 -204.565)" fill="#263238"/>
      <path id="Path_1176" data-name="Path 1176" d="M261.636,265.07a3.1,3.1,0,0,0-.358.625c-.23.469-.524,1.066-.864,1.773-.726,1.488-1.709,3.564-2.756,5.861s-2.021,4.391-2.7,5.907c-.312.726-.579,1.332-.79,1.837a4.41,4.41,0,0,0-.257.68,3.049,3.049,0,0,0,.358-.634l.873-1.764c.717-1.5,1.7-3.564,2.756-5.87s2.021-4.382,2.7-5.9c.322-.726.579-1.332.79-1.837A3.269,3.269,0,0,0,261.636,265.07Z" transform="translate(-204.549 -205.818)" fill="#263238"/>
      <path id="Path_1177" data-name="Path 1177" d="M252.261,282.7a4.481,4.481,0,0,0-.772,0l-2.1.129c-1.773.11-4.226.257-6.936.34s-5.172.1-6.954.1h-2.1a4.674,4.674,0,0,0-.772,0,4.087,4.087,0,0,0,.772.073c.5,0,1.213.064,2.1.092,1.782.046,4.244.064,6.963,0s5.172-.257,6.945-.413c.919-.083,1.6-.156,2.095-.22A3.908,3.908,0,0,0,252.261,282.7Z" transform="translate(-202.817 -207.251)" fill="#263238"/>
      <path id="Path_1178" data-name="Path 1178" d="M549.566,291.294a12.631,12.631,0,0,0-9.912.073,22.341,22.341,0,0,0-8.075,6.063c-4.373,4.915-6.807,12.08-8.029,18.547,7.248.919,14.331-3.757,17.776-6.339,5.448-4.088,12.806-14.772,8.268-18.373" transform="translate(-226.486 -207.872)" fill="#ffcd00"/>
      <path id="Path_1179" data-name="Path 1179" d="M508.679,319.066a10.794,10.794,0,0,0,5.98-9.049,14.34,14.34,0,0,0-3.858-10.39c-1.176-1.3-2.756-2.48-4.492-2.4a4.593,4.593,0,0,0-3.739,2.811,9.38,9.38,0,0,0-.588,4.832c.551,5.6,2.113,10.923,6.7,14.193" transform="translate(-224.724 -208.434)" fill="#ffcd00"/>
      <path id="Path_1180" data-name="Path 1180" d="M498.91,338.07a9.88,9.88,0,0,0,.919-1.038c.551-.7,1.323-1.718,2.241-3.013a46.507,46.507,0,0,0,5.953-10.9,23.278,23.278,0,0,0,1.075-12.347,15.38,15.38,0,0,0-1.2-3.592,4.263,4.263,0,0,0-.634-1.185,32.032,32.032,0,0,1,1.405,4.878,24.363,24.363,0,0,1-1.286,12,54.334,54.334,0,0,1-5.7,10.849,43.3,43.3,0,0,0-2.774,4.345Z" transform="translate(-224.481 -209.148)" fill="#263238"/>
      <path id="Path_1181" data-name="Path 1181" d="M540.958,299.55a12.86,12.86,0,0,0-1.837,1.35c-1.148.919-2.756,2.251-4.814,3.923-4.024,3.353-9.517,8.075-15.442,13.431s-11.189,10.353-14.928,14.019c-1.837,1.837-3.362,3.335-4.382,4.391a13.118,13.118,0,0,0-1.525,1.69,13.909,13.909,0,0,0,1.727-1.488l4.547-4.217c3.822-3.574,9.122-8.488,15.057-13.844s11.354-10.105,15.286-13.587l4.658-4.1A14.44,14.44,0,0,0,540.958,299.55Z" transform="translate(-224.41 -208.623)" fill="#263238"/>
      <path id="Path_1182" data-name="Path 1182" d="M513.795,331.417a25.281,25.281,0,0,1,22.966-2.563c1.892.744,3.959,2.1,3.987,4.143s-1.993,3.472-3.886,4.226a21.579,21.579,0,0,1-23.352-5.337" transform="translate(-225.669 -210.873)" fill="#ffcd00"/>
      <path id="Path_1183" data-name="Path 1183" d="M530.695,332.792a4.023,4.023,0,0,0-1.185-.588,10.458,10.458,0,0,0-1.451-.542,20.273,20.273,0,0,0-1.993-.542,25.933,25.933,0,0,0-5.319-.671,28.542,28.542,0,0,0-12.778,2.692,26.9,26.9,0,0,0-4.593,2.756,17.061,17.061,0,0,0-1.589,1.3,10.78,10.78,0,0,0-1.121,1.075c-.579.625-.919.983-.845,1.02s1.387-1.268,3.858-2.976a29.444,29.444,0,0,1,4.593-2.563,33.073,33.073,0,0,1,6.109-1.994,32.555,32.555,0,0,1,6.43-.643,29.29,29.29,0,0,1,5.227.5C528.913,332.222,530.649,332.957,530.695,332.792Z" transform="translate(-224.555 -211.136)" fill="#263238"/>
    </g>
    <g id="freepik--Newletter--inject-9" transform="translate(1145.048 317.147)">
      <rect id="Rectangle_1644" data-name="Rectangle 1644" width="232.178" height="254.584" transform="translate(0.138 0.266)" fill="#fafafa"/>
      <path id="Path_1184" data-name="Path 1184" d="M486.6,368.61c0-1.837-.083-102.447-.211-254.584l.211.211H254.445l.239-.239V368.583l-.2-.2,232.178.2-232.178.2h-.2V113.76H486.908v.2C486.679,266.172,486.6,366.8,486.6,368.61Z" transform="translate(-254.28 -113.76)" fill="#263238"/>
      <rect id="Rectangle_1645" data-name="Rectangle 1645" width="115.382" height="29.36" rx="14.51" transform="translate(67.474 202.194)" fill="#ffcd00"/>
      <g id="Group_162" data-name="Group 162" transform="translate(67.474 202.194)" opacity="0.5">
        <rect id="Rectangle_1646" data-name="Rectangle 1646" width="115.382" height="29.36" rx="14.51"/>
      </g>
      <rect id="Rectangle_1647" data-name="Rectangle 1647" width="115.382" height="29.36" rx="14.51" transform="translate(57.783 202.194)" fill="#ffcd00"/>
      <path id="Path_1185" data-name="Path 1185" d="M351.84,351.415l.4-.919a3.4,3.4,0,0,0,2,.661c.919,0,1.35-.331,1.35-.79,0-1.314-3.619-.45-3.619-2.71,0-.983.79-1.837,2.453-1.837a3.849,3.849,0,0,1,2.03.542l-.358.919a3.4,3.4,0,0,0-1.681-.478c-.919,0-1.323.358-1.323.818,0,1.3,3.61.459,3.61,2.692,0,.974-.79,1.837-2.462,1.837A3.886,3.886,0,0,1,351.84,351.415Z" transform="translate(-262.217 -132.639)" fill="#0f0f0f"/>
      <path id="Path_1186" data-name="Path 1186" d="M354.237,352.167a3.868,3.868,0,0,1-2.407-.735h0l.4-.919h0a3.371,3.371,0,0,0,1.993.661c.845,0,1.323-.285,1.323-.772s-.661-.707-1.424-.919c-1.029-.248-2.186-.524-2.186-1.837,0-.919.652-1.837,2.471-1.837a3.849,3.849,0,0,1,2.039.542h0l-.367.919h0a3.426,3.426,0,0,0-1.672-.478c-.827,0-1.3.294-1.3.8s.661.707,1.424.919c1.02.248,2.186.524,2.186,1.837a1.635,1.635,0,0,1-.616,1.286,2.939,2.939,0,0,1-1.874.533Zm-2.37-.762a3.932,3.932,0,0,0,2.37.716c1.479,0,2.444-.7,2.444-1.782,0-1.249-1.148-1.525-2.15-1.764-.79-.184-1.461-.349-1.461-.919s.487-.845,1.341-.845a3.407,3.407,0,0,1,1.672.468l.34-.836a3.84,3.84,0,0,0-2-.524c-1.791,0-2.425.919-2.425,1.791,0,1.268,1.139,1.543,2.15,1.782.79.184,1.461.349,1.461.919s-.5.818-1.369.818a3.427,3.427,0,0,1-1.993-.652Z" transform="translate(-262.216 -132.639)" fill="none"/>
      <path id="Path_1187" data-name="Path 1187" d="M358.3,349.427V346h1.13v3.39c0,1.249.56,1.791,1.543,1.791s1.543-.542,1.543-1.791V346h1.112v3.436a2.664,2.664,0,0,1-5.328,0Z" transform="translate(-262.743 -132.654)" fill="#0f0f0f"/>
      <path id="Path_1188" data-name="Path 1188" d="M360.96,352.183a2.48,2.48,0,0,1-2.692-2.756V346h1.176v3.417c0,1.185.5,1.764,1.525,1.764s1.516-.579,1.516-1.764V346h1.158v3.463a2.471,2.471,0,0,1-2.682,2.719ZM358.314,346v3.417a2.646,2.646,0,1,0,5.282,0V346h-1.066v3.371c0,1.2-.524,1.837-1.562,1.837s-1.571-.606-1.571-1.837V346Z" transform="translate(-262.739 -132.654)" fill="none"/>
      <path id="Path_1189" data-name="Path 1189" d="M371.231,350.419c0,1.047-.818,1.654-2.379,1.654H365.82V346h2.857c1.461,0,2.241.616,2.241,1.58a1.47,1.47,0,0,1-.781,1.341A1.488,1.488,0,0,1,371.231,350.419Zm-4.281-3.5V348.6h1.6c.79,0,1.231-.276,1.231-.836s-.441-.845-1.231-.845Zm3.142,3.436c0-.606-.459-.873-1.314-.873h-1.837v1.755h1.837c.882-.046,1.314-.322,1.314-.928Z" transform="translate(-263.354 -132.654)" fill="#0f0f0f"/>
      <path id="Path_1190" data-name="Path 1190" d="M368.85,352.1H365.8V346h2.875c1.415,0,2.26.606,2.26,1.608a1.47,1.47,0,0,1-.744,1.332,1.525,1.525,0,0,1,1.056,1.516C371.248,351.512,370.393,352.1,368.85,352.1Zm-3-.046h3c1.516,0,2.352-.579,2.352-1.635a1.479,1.479,0,0,0-1.075-1.488h-.009a1.433,1.433,0,0,0,.772-1.323c0-.992-.808-1.562-2.214-1.562h-2.829Zm2.93-.845h-1.837v-1.837h1.837c.919,0,1.332.294,1.332.919s-.45.919-1.369.919Zm-1.837-.046h1.837c.864,0,1.286-.276,1.286-.854s-.423-.854-1.286-.854h-1.837Zm1.571-2.581H366.9v-1.727h1.617c.818,0,1.249.3,1.249.864s-.4.864-1.222.864Zm-1.571-.046h1.571c.551,0,1.2-.147,1.2-.818s-.652-.818-1.2-.818h-1.571Z" transform="translate(-263.353 -132.654)" fill="none"/>
      <path id="Path_1191" data-name="Path 1191" d="M372.47,351.415l.386-.919a3.427,3.427,0,0,0,2.012.661c.919,0,1.35-.331,1.35-.79,0-1.314-3.619-.45-3.619-2.71,0-.983.781-1.837,2.453-1.837a3.812,3.812,0,0,1,2.021.542l-.358.919a3.334,3.334,0,0,0-1.672-.478c-.919,0-1.323.358-1.323.818,0,1.3,3.61.459,3.61,2.692,0,.974-.79,1.837-2.462,1.837a3.886,3.886,0,0,1-2.4-.735Z" transform="translate(-263.895 -132.639)" fill="#0f0f0f"/>
      <path id="Path_1192" data-name="Path 1192" d="M374.866,352.167a3.923,3.923,0,0,1-2.416-.735h0l.4-.919h0a3.371,3.371,0,0,0,1.993.661c.845,0,1.323-.285,1.323-.772s-.661-.707-1.424-.919c-1.029-.248-2.186-.524-2.186-1.837,0-.919.643-1.837,2.471-1.837a3.9,3.9,0,0,1,2.039.542h0l-.367.919h0a3.362,3.362,0,0,0-1.663-.478c-.827,0-1.3.294-1.3.8s.652.707,1.415.919c1.029.248,2.186.524,2.186,1.837C377.346,351.5,376.373,352.167,374.866,352.167Zm-2.37-.762a3.914,3.914,0,0,0,2.37.717c1.479,0,2.434-.7,2.434-1.782,0-1.249-1.139-1.525-2.15-1.764-.781-.184-1.451-.349-1.451-.919s.487-.845,1.341-.845a3.381,3.381,0,0,1,1.663.468l.34-.836a3.785,3.785,0,0,0-1.993-.524c-1.791,0-2.425.919-2.425,1.791,0,1.268,1.139,1.543,2.15,1.782.781.184,1.461.349,1.461.919s-.5.818-1.369.818a3.473,3.473,0,0,1-2-.652Z" transform="translate(-263.894 -132.639)" fill="none"/>
      <path id="Path_1193" data-name="Path 1193" d="M378.51,349.022a3.289,3.289,0,0,1,5.668-2.113l-.735.689a2.145,2.145,0,1,0,0,2.839l.735.7a3.289,3.289,0,0,1-5.668-2.113Z" transform="translate(-264.387 -132.645)" fill="#0f0f0f"/>
      <path id="Path_1194" data-name="Path 1194" d="M381.78,352.172a3.151,3.151,0,1,1,2.425-5.282h0l-.744.7h0a2.113,2.113,0,1,0,0,2.811h0l.762.726h0a3.1,3.1,0,0,1-2.444,1.047Zm0-6.256a3.105,3.105,0,1,0,2.37,5.218l-.7-.661a2.131,2.131,0,0,1-1.626.707,2.159,2.159,0,1,1,1.626-3.619l.7-.652a3.05,3.05,0,0,0-2.361-.992Z" transform="translate(-264.405 -132.644)" fill="none"/>
      <path id="Path_1195" data-name="Path 1195" d="M389.847,352.072,388.6,350.29H386.99v1.773h-1.13V346h2.508c1.6,0,2.591.818,2.591,2.168a1.948,1.948,0,0,1-1.3,1.92l1.4,1.993Zm-1.534-5.154H386.99v2.425h1.323c.992,0,1.507-.45,1.507-1.213S389.3,346.919,388.313,346.919Z" transform="translate(-264.985 -132.654)" fill="#0f0f0f"/>
      <path id="Path_1196" data-name="Path 1196" d="M391.1,352.1h-1.277l-1.24-1.773h-1.571V352.1H385.84V346h2.526c1.608,0,2.609.845,2.609,2.2a1.966,1.966,0,0,1-1.277,1.929Zm-1.249-.046h1.158l-1.35-1.993h0a1.911,1.911,0,0,0,1.277-1.892c0-1.323-.983-2.15-2.563-2.15H385.9v6.045h1.084V350.29h1.644Zm-1.543-2.664H386.97v-2.471h1.341c.983,0,1.525.441,1.525,1.24s-.542,1.231-1.525,1.231Zm-1.3-.046h1.3c.919,0,1.479-.423,1.479-1.185s-.524-1.185-1.479-1.185h-1.3Z" transform="translate(-264.983 -132.654)" fill="none"/>
      <path id="Path_1197" data-name="Path 1197" d="M392.779,346H393.9v6.081h-1.13Z" transform="translate(-265.547 -132.654)" fill="#0f0f0f"/>
      <path id="Path_1198" data-name="Path 1198" d="M393.9,352.1H392.72V346H393.9Zm-1.13-.046h1.13V346h-1.084Z" transform="translate(-265.543 -132.654)" fill="none"/>
      <path id="Path_1199" data-name="Path 1199" d="M401.211,350.419c0,1.047-.818,1.654-2.388,1.654H395.8V346h2.848c1.461,0,2.251.616,2.251,1.58a1.461,1.461,0,0,1-.79,1.341A1.488,1.488,0,0,1,401.211,350.419Zm-4.308-3.5V348.6h1.6c.781,0,1.231-.276,1.231-.836s-.45-.845-1.231-.845Zm3.142,3.436c0-.606-.459-.873-1.314-.873h-1.837v1.755h1.837c.928-.046,1.341-.322,1.341-.928Z" transform="translate(-265.793 -132.654)" fill="#0f0f0f"/>
      <path id="Path_1200" data-name="Path 1200" d="M398.821,352.1H395.78V346h2.866c1.424,0,2.269.606,2.269,1.608a1.47,1.47,0,0,1-.744,1.332,1.525,1.525,0,0,1,1.056,1.516C401.228,351.512,400.373,352.1,398.821,352.1Zm-2.995-.046h2.995c1.525,0,2.361-.579,2.361-1.635a1.488,1.488,0,0,0-1.075-1.488H400.1a1.433,1.433,0,0,0,.772-1.323c0-.992-.808-1.562-2.223-1.562h-2.82Zm2.93-.845h-1.837v-1.837h1.837c.919,0,1.332.294,1.332.919s-.432.919-1.35.919Zm-1.837-.046h1.837c.864,0,1.286-.276,1.286-.854s-.423-.854-1.286-.854h-1.837Zm1.571-2.581H396.9v-1.727h1.617c.818,0,1.249.3,1.249.864s-.423.864-1.24.864Zm-1.571-.046h1.571c.551,0,1.2-.147,1.2-.818s-.652-.818-1.2-.818h-1.571Z" transform="translate(-265.792 -132.654)" fill="none"/>
      <path id="Path_1201" data-name="Path 1201" d="M407.593,351.126v.919H403V346h4.437v.919H404.13v1.58h2.93v.919h-2.93V351.1Z" transform="translate(-266.379 -132.654)" fill="#0f0f0f"/>
      <path id="Path_1202" data-name="Path 1202" d="M407.593,352.1H403V346h4.492v1h-3.316v1.534h2.94v.974h-2.94v1.635h3.417ZM403,352.054h4.593v-.919h-3.436v-1.727h2.94v-.919h-2.94v-1.571h3.316V346H403Z" transform="translate(-266.379 -132.654)" fill="none"/>
      <path id="Path_1203" data-name="Path 1203" d="M442.67,312.529c0,.129-29.525.239-65.94.239s-65.949-.11-65.949-.239,29.516-.239,65.949-.239S442.67,312.391,442.67,312.529Z" transform="translate(-258.877 -129.912)" fill="#263238"/>
      <path id="Path_1204" data-name="Path 1204" d="M461.475,321.209c0,.129-38.767.239-86.573.239s-86.582-.11-86.582-.239,38.758-.239,86.582-.239S461.475,321.08,461.475,321.209Z" transform="translate(-257.049 -130.618)" fill="#263238"/>
      <path id="Path_1205" data-name="Path 1205" d="M265.962,124.656a1.957,1.957,0,1,1-.573-1.393,1.966,1.966,0,0,1,.573,1.393Z" transform="translate(-254.91 -114.487)" fill="#e0e0e0"/>
      <circle id="Ellipse_29" data-name="Ellipse 29" cx="1.966" cy="1.966" r="1.966" transform="translate(13.679 8.204)" fill="#e0e0e0"/>
      <path id="Path_1206" data-name="Path 1206" d="M280.232,124.656a1.966,1.966,0,1,1-1.966-1.966,1.966,1.966,0,0,1,1.966,1.966Z" transform="translate(-256.071 -114.487)" fill="#e0e0e0"/>
    </g>
    <path id="Path_1207" data-name="Path 1207" d="M486.971,167l3.822-13.78s1.369-5.595,1.7-6.9c.432-1.727-.781-2.269-1.488-1.093-.276.441-3.3,6.137-3.3,6.137s2.407-9.324,2.5-9.664c.781-3.041-1.112-2.756-1.663-1.635s-3.978,10.3-3.978,10.3c3.206-11.988,2.2-13.045,1.3-13.238s-3.675,10.776-3.675,10.776a10.105,10.105,0,0,0-2.894-3.16c-2.894-1.993-7.726,0-7.956,1.36s1.488,1.745,1.488,1.745a4.362,4.362,0,0,1,6.973,3.95c-.377,3.454-4.768,2.986-5.31.524-1.2-5.411-3.059-3.675-3.059-3.675l1.837,11.942-1.975,5.99" transform="translate(873.113 201.485)" fill="#ffbe9d"/>
    <path id="Path_1208" data-name="Path 1208" d="M338.6,230.691l82.54-.551,2.269,56.12-85.461-.845Z" transform="translate(883.961 193.918)" fill="#455a64"/>
    <path id="Path_1209" data-name="Path 1209" d="M338.66,227.74l41.927-33.88L421.2,227.188" transform="translate(883.903 196.87)" fill="#263238"/>
    <path id="Path_1210" data-name="Path 1210" d="M338,287.489c-.11-.092,6.5-7.3,14.763-16.1S367.8,255.538,367.9,255.63s-6.5,7.3-14.763,16.1S338.055,287.59,338,287.489Z" transform="translate(883.957 191.845)" fill="#263238"/>
    <path id="Path_1211" data-name="Path 1211" d="M428.488,288.4c-.1.092-6.531-6.982-14.358-15.8s-14.12-16.04-14-16.131,6.532,6.982,14.358,15.8S428.58,288.31,428.488,288.4Z" transform="translate(878.902 191.776)" fill="#263238"/>
    <path id="Path_1212" data-name="Path 1212" d="M421.2,230.14l-41.468,33.09L338.66,230.691" transform="translate(883.903 193.918)" fill="#263238"/>
    <path id="Path_1213" data-name="Path 1213" d="M278.227,159.669h.276l-1.1-3.675-3.537-14.11a2.591,2.591,0,0,1,1.663-3.077l2.545-.092,8.709-4.07a2.756,2.756,0,0,1,3.675,2.1c.322,2.6,2.085,9.563,3.959,7.119l.138-.156c2.637-3.629,5.925-5.595,7.276-5.512a1.516,1.516,0,0,1,.919,2.609,1.635,1.635,0,0,1-.5.432,2.6,2.6,0,0,0-.285.193,21.874,21.874,0,0,0-3.142,3.436,12.118,12.118,0,0,0-1.92,3.675c-.468,1.47-.808,2.756-1.075,3.84l.68,7.2" transform="translate(889.181 201.701)" fill="#ffbe9d"/>
    <path id="Path_1214" data-name="Path 1214" d="M296.852,88.2s-10.188-1.948-24.8-15.24-21.855-31.3-23.6-31.16-9.416-3.179-23.04,28.726-7.671,39.061-4.8,38.923,22.286-6.146,34.55-5.108,28.147,6.963,28.147,6.963Z" transform="translate(893.816 209.245)" fill="#455a64"/>
    <path id="Path_1215" data-name="Path 1215" d="M324.544,108.36l-3.27,6.66-1.461,2.986a8.58,8.58,0,0,1-11.024,4.116l-21.919-6.945L298.656,86l22,10.932A8.58,8.58,0,0,1,324.544,108.36Z" transform="translate(888.116 205.645)" fill="#263238"/>
    <path id="Path_1216" data-name="Path 1216" d="M311.151,121.782l-6.522,13.78-3.491-.864L279.09,153.7l-6.66-12.172s13.183-6.127,15.516-10.95-.551-5.833-.551-5.833l6.081-7.349Z" transform="translate(889.291 203.09)" fill="#263238"/>
    <path id="Path_1217" data-name="Path 1217" d="M226.76,71.132c-7.221,17.28-9.995,32.575-6.2,34.164s12.732-11.134,19.953-28.414,9.995-32.575,6.2-34.164S233.981,53.852,226.76,71.132Z" transform="translate(893.649 209.177)" fill="#263238"/>
    <path id="Path_1218" data-name="Path 1218" d="M329.674,119.839l-5.934-1.681,3.445-7.028,4.483,2.618Z" transform="translate(885.117 203.6)" fill="#455a64"/>
    <path id="Path_1219" data-name="Path 1219" d="M293.06,120.13l16.085,9.627,1.865-3.913Z" transform="translate(887.613 202.868)" fill="#455a64"/>
    <path id="Path_1220" data-name="Path 1220" d="M327.185,111.13l-3.445,7.028,1.213.34,2.765-7.055Z" transform="translate(885.117 203.6)" fill="#455a64"/>
    <path id="Path_1221" data-name="Path 1221" d="M321.972,112.517c-.073.193-3.041-.919-6.623-2.37s-6.431-2.866-6.339-3.059,3.05.919,6.633,2.37S322.055,112.324,321.972,112.517Z" transform="translate(886.315 203.931)" fill="#455a64"/>
    <path id="Path_1222" data-name="Path 1222" d="M323.964,107.974c-.092.193-2.756-.854-6.008-2.324s-5.778-2.829-5.686-3.022,2.756.854,6,2.333S324.019,107.791,323.964,107.974Z" transform="translate(886.05 204.294)" fill="#455a64"/>
    <path id="Path_1223" data-name="Path 1223" d="M319.724,117.341c0,.1-.726,0-1.837-.349-.57-.156-1.231-.358-1.966-.588s-1.5-.606-2.315-.919c-3.261-1.406-5.76-2.756-5.686-2.967s2.756.919,5.98,2.269c.808.34,1.562.717,2.269.992l1.883.726C319.109,116.918,319.752,117.24,319.724,117.341Z" transform="translate(886.404 203.49)" fill="#455a64"/>
    <path id="Path_1224" data-name="Path 1224" d="M243.153,68.951s-8.957-5.209-13.431,6.816,4.832,13.715,4.832,13.715a79.352,79.352,0,0,0,8.6-20.532Z" transform="translate(892.865 207.123)" fill="#455a64"/>
    <path id="Path_1225" data-name="Path 1225" d="M252.089,53.34a12.468,12.468,0,0,1-.276,2.278c-.239,1.461-.57,3.583-1.066,6.182-.331,1.286-.7,2.692-1.093,4.2-.2.753-.4,1.534-.616,2.333l-.331,1.231c-.119.413-.276.808-.413,1.231l-1.837,5.181c-.156.45-.322.919-.487,1.36s-.386.919-.579,1.35l-1.231,2.756-1.24,2.756c-.211.441-.386.919-.625,1.323s-.459.845-.7,1.268c-.919,1.663-1.837,3.28-2.664,4.814-.22.377-.413.762-.643,1.121l-.7,1.056-1.35,2.012-2.416,3.6c-1.626,2.085-2.995,3.739-3.932,4.878A15.07,15.07,0,0,1,228.37,106a12.648,12.648,0,0,1,1.3-1.9l3.73-5.025,2.333-3.675c.413-.652.854-1.323,1.3-2.012l.689-1.056c.22-.358.4-.744.625-1.13l2.609-4.8.68-1.222c.23-.423.4-.919.615-1.323l1.222-2.756c.413-.919.827-1.837,1.222-2.756.193-.45.423-.919.588-1.332l.487-1.35c.643-1.782,1.277-3.5,1.837-5.135.138-.413.3-.808.432-1.213s.22-.818.34-1.213c.22-.79.432-1.562.643-2.306.423-1.488.818-2.885,1.185-4.152.533-2.554.974-4.593,1.286-6.109A14.865,14.865,0,0,1,252.089,53.34Z" transform="translate(892.876 208.302)" fill="#263238"/>
    <path id="Path_1226" data-name="Path 1226" d="M308.957,193.013l-9.113-34.605-22.764.606,7.083,48.293c.919,10.509,7.092,17.381,17.454,19.053,6.247,1,13.017-4.951,18.033-8.8,3.27-2.517,3.849-2.021,7.23-5.089h0l14.7-10.6.358,1.745h-.092l2.49,29.507,30.37,23.885,36.222-29.02-.827-12.558c.092,0,.175-.184,0-.184l-.919-14.221,18.557,21.285a21.193,21.193,0,0,0,37.242-4.336l9.554-48.688-20.982-4.511-9.82,35.055-23.416-26.944c-13.522-17.62-29.3-16.131-29.3-16.131l-29.1-.514h-.064c-.863,0-17.123.542-28.147,12.319Z" transform="translate(888.913 199.931)" fill="#ffcd00"/>
    <path id="Path_1227" data-name="Path 1227" d="M426.138,176.2a8.288,8.288,0,0,0-.919-.34,7.349,7.349,0,0,0-2.811-.294A13.155,13.155,0,0,0,418.1,176.8c-1.608.717-3.27,1.837-5.209,2.967a13.5,13.5,0,0,1-6.954,2.2,12.264,12.264,0,0,1-4.005-.919c-1.3-.514-2.6-1.148-3.959-1.69a15.617,15.617,0,0,0-8.938-.845c-3.123.6-5.99,2.352-8.92,4.051a34.121,34.121,0,0,1-4.529,2.26,18.173,18.173,0,0,1-4.777,1.157,18.841,18.841,0,0,1-9.186-1.268,35.231,35.231,0,0,1-7.211-4.3c-2.122-1.534-4.079-2.995-6-4.106a21.587,21.587,0,0,0-5.512-2.269,13.577,13.577,0,0,0-4.465-.367,11.666,11.666,0,0,0-3.675,1.038l.211-.129c.147-.083.367-.2.671-.349a10.206,10.206,0,0,1,2.756-.744,13.587,13.587,0,0,1,4.547.294,21.478,21.478,0,0,1,5.613,2.232c1.948,1.1,3.923,2.563,6.054,4.079a34.54,34.54,0,0,0,7.147,4.207,18.548,18.548,0,0,0,13.633.074,32.724,32.724,0,0,0,4.465-2.242c2.912-1.69,5.833-3.482,9.067-4.088a16.076,16.076,0,0,1,9.186.919c2.756,1.112,5.209,2.545,7.809,2.627a13.254,13.254,0,0,0,6.78-2.1c1.92-1.056,3.619-2.214,5.264-2.912a13.027,13.027,0,0,1,4.409-1.176,6.862,6.862,0,0,1,2.848.386A3.537,3.537,0,0,1,426.138,176.2Z" transform="translate(884.22 198.533)" fill="#424242"/>
    <path id="Path_1228" data-name="Path 1228" d="M441.692,194.7a5.1,5.1,0,0,1-.5,1.286,8.13,8.13,0,0,1-2.637,2.9,12.034,12.034,0,0,1-5.842,2.076,38.012,38.012,0,0,1-8.268-.367c-2.995-.3-6.431-.671-9.8.441a22.353,22.353,0,0,0-4.869,2.563,35.05,35.05,0,0,1-5.117,2.976,21.79,21.79,0,0,1-12.521,1.461,20.752,20.752,0,0,1-6.357-2.232c-2.021-1.084-3.9-2.425-5.852-3.675a23.885,23.885,0,0,0-6.081-3.05,15.24,15.24,0,0,0-6.522-.413c-4.318.634-8.268,2.37-12.145,3.427a23.279,23.279,0,0,1-5.852.974,13.78,13.78,0,0,1-5.512-.919c-3.39-1.4-5.889-3.785-8.1-5.843a39.5,39.5,0,0,0-6.32-5.209,13.164,13.164,0,0,0-5.787-1.966,9.278,9.278,0,0,0-3.84.459c-.836.312-1.231.579-1.249.551a5.73,5.73,0,0,1,1.213-.643,8.929,8.929,0,0,1,3.9-.551,13.192,13.192,0,0,1,5.907,1.92,39.072,39.072,0,0,1,6.431,5.19c2.232,2.049,4.713,4.382,8.02,5.723a13.485,13.485,0,0,0,5.365.919,22.764,22.764,0,0,0,5.742-.992c1.929-.542,3.886-1.222,5.9-1.837a37.424,37.424,0,0,1,6.293-1.69,15.617,15.617,0,0,1,6.724.413,24.877,24.877,0,0,1,6.21,3.105c1.957,1.268,3.831,2.609,5.806,3.675a20.441,20.441,0,0,0,6.219,2.186,21.386,21.386,0,0,0,12.264-1.406c3.675-1.6,6.522-4.373,10.032-5.512a16.259,16.259,0,0,1,5.181-.744,43.9,43.9,0,0,1,4.8.349,38.349,38.349,0,0,0,8.176.432,12.062,12.062,0,0,0,5.769-1.957,8.378,8.378,0,0,0,2.655-2.8A13.378,13.378,0,0,0,441.692,194.7Z" transform="translate(885.541 197.272)" fill="#424242"/>
    <path id="Path_1229" data-name="Path 1229" d="M478.042,220.478a7.349,7.349,0,0,0-1.277-1.038,6.357,6.357,0,0,0-4.308-.652,14.064,14.064,0,0,0-5.815,3.105c-1,.781-2.039,1.626-3.215,2.388a10.05,10.05,0,0,1-8.323,1.6,30.028,30.028,0,0,1-3.849-1.121c-1.2-.4-2.333-.818-3.417-1.1a17.16,17.16,0,0,0-3.059-.514,8.451,8.451,0,0,0-4.364.7c-.919.469-1.378.919-1.415.864a1.591,1.591,0,0,1,.3-.312,2.944,2.944,0,0,1,.413-.331,3.673,3.673,0,0,1,.606-.386,8.443,8.443,0,0,1,4.483-.919,17.04,17.04,0,0,1,3.133.469c1.112.276,2.26.68,3.454,1.075,2.379.772,5.117,1.718,7.965,1.185a10.759,10.759,0,0,0,3.822-1.635c1.148-.744,2.177-1.58,3.2-2.352a14.064,14.064,0,0,1,6.017-3.087,6.431,6.431,0,0,1,4.474.818,4.741,4.741,0,0,1,.919.836A1.891,1.891,0,0,1,478.042,220.478Z" transform="translate(875.74 194.881)" fill="#424242"/>
    <path id="Path_1230" data-name="Path 1230" d="M484.532,191.707a2.49,2.49,0,0,1-.79.5,7.294,7.294,0,0,1-2.471.625,12.1,12.1,0,0,1-3.757-.34,36.079,36.079,0,0,1-4.354-1.451,24.616,24.616,0,0,0-4.318-1.286,10.51,10.51,0,0,0-3.675,0,8.342,8.342,0,0,0-3.087,1.332,2.435,2.435,0,0,1,.68-.643,6.5,6.5,0,0,1,2.333-1.02,10.206,10.206,0,0,1,3.776-.092,23.305,23.305,0,0,1,4.428,1.286,45.011,45.011,0,0,0,4.29,1.47,12.779,12.779,0,0,0,3.629.423,9.793,9.793,0,0,0,3.316-.8Z" transform="translate(873.862 197.249)" fill="#424242"/>
    <path id="Path_1231" data-name="Path 1231" d="M414.523,229.528a22.25,22.25,0,0,0-2.4-1.1,16.316,16.316,0,0,0-7.1-.735,30.463,30.463,0,0,0-10.105,3.215c-3.675,1.718-7.505,4.014-12,5.512a22.636,22.636,0,0,1-6.761,1.167,20.882,20.882,0,0,1-6.3-1.084,54.66,54.66,0,0,1-5.356-2.131c-1.644-.726-3.169-1.433-4.593-1.984a23.959,23.959,0,0,0-6.945-1.837l-1.13-.064H351a3.675,3.675,0,0,1-.689,0,3.84,3.84,0,0,1,.689-.092l.827-.073h1.148A22.966,22.966,0,0,1,360.029,232c1.442.542,2.976,1.231,4.593,1.938a54.842,54.842,0,0,0,5.337,2.076,20.688,20.688,0,0,0,6.164,1.038,22.13,22.13,0,0,0,6.614-1.158c4.419-1.433,8.268-3.675,11.942-5.411a29.993,29.993,0,0,1,10.289-3.151,15.764,15.764,0,0,1,7.193.919A9.316,9.316,0,0,1,414.523,229.528Z" transform="translate(882.955 194.154)" fill="#424242"/>
    <path id="Path_1232" data-name="Path 1232" d="M283.64,204.145a1.278,1.278,0,0,1,.432-.2,2.379,2.379,0,0,1,1.4.055,3.968,3.968,0,0,1,1.837,1.249,13.356,13.356,0,0,1,1.451,2.508,8.672,8.672,0,0,0,2.03,2.7,9.821,9.821,0,0,0,3.4,1.837,19.181,19.181,0,0,0,8.948.432,63.386,63.386,0,0,1,9.113-1.093,12.971,12.971,0,0,1,7.2,1.993,8.194,8.194,0,0,1,3.28,3.822,4.969,4.969,0,0,1,.386,1.837,17.51,17.51,0,0,0-.56-1.736,8.194,8.194,0,0,0-3.289-3.61,12.8,12.8,0,0,0-7.018-1.837,65.6,65.6,0,0,0-9.039,1.13,19.365,19.365,0,0,1-9.186-.487,10.1,10.1,0,0,1-3.518-2,8.819,8.819,0,0,1-2.076-2.848,13.521,13.521,0,0,0-1.36-2.49,3.794,3.794,0,0,0-1.663-1.24,2.645,2.645,0,0,0-1.764-.018Z" transform="translate(888.379 196.056)" fill="#424242"/>
    <path id="Path_1233" data-name="Path 1233" d="M303.26,173.406a9.4,9.4,0,0,0-3.206-1.663,10.49,10.49,0,0,0-3.886-.257,17.152,17.152,0,0,0-4.593,1.332c-1.58.68-3.041,1.461-4.391,2.122a33.767,33.767,0,0,1-3.675,1.608,15.459,15.459,0,0,1-2.627.671,3.253,3.253,0,0,1-.992.064,32.516,32.516,0,0,0,3.5-1.056,39.436,39.436,0,0,0,3.61-1.681c1.332-.68,2.8-1.47,4.409-2.168a16.6,16.6,0,0,1,4.768-1.323,10.169,10.169,0,0,1,4.033.367,7.249,7.249,0,0,1,2.416,1.268,2.756,2.756,0,0,1,.634.717Z" transform="translate(888.684 198.73)" fill="#424242"/>
    <g id="Group_163" data-name="Group 163" transform="translate(1258.464 400.936)" opacity="0.3">
      <path id="Path_1234" data-name="Path 1234" d="M377.74,256.873c11.786-6.835,25.437-14.854,32.244-26.641,4.354-7.551,6.522-16.591,7.349-25.263l1.773,26.962-36.222,29.02Z" transform="translate(-377.74 -204.97)"/>
    </g>
    <g id="Group_164" data-name="Group 164" transform="translate(1197.695 363.648)" opacity="0.2">
      <path id="Path_1235" data-name="Path 1235" d="M341.786,164.38A52,52,0,0,1,325.6,190.672a20.109,20.109,0,0,1-6.522,4.116,9.021,9.021,0,0,1-7.487-.487l.175-.625,18.373-18.18Z" transform="translate(-311.59 -164.38)"/>
    </g>
    <path id="Path_1236" data-name="Path 1236" d="M314.109,210.725c-.073,0,.22-.836.469-2.177a15.966,15.966,0,0,0,.046-5.3,15.663,15.663,0,0,0-1.745-5.007c-.671-1.194-1.213-1.837-1.148-1.911a6.218,6.218,0,0,1,1.442,1.736,13.889,13.889,0,0,1,1.92,5.1,13.725,13.725,0,0,1-.184,5.457,6.238,6.238,0,0,1-.8,2.1Z" transform="translate(886.094 196.669)" fill="#263238"/>
    <path id="Path_1237" data-name="Path 1237" d="M308.59,206.173a13.063,13.063,0,0,0,2.591-9.343,3.307,3.307,0,0,1,.367,1.442,9.775,9.775,0,0,1-1.892,6.844A4.364,4.364,0,0,1,308.59,206.173Z" transform="translate(886.349 196.628)" fill="#263238"/>
    <path id="Path_1238" data-name="Path 1238" d="M345.8,186.3c.129,0,.919,7.349,1.681,16.352s1.341,16.389,1.2,16.4S347.764,211.7,347,202.7,345.66,186.309,345.8,186.3Z" transform="translate(883.324 197.485)" fill="#263238"/>
    <path id="Path_1239" data-name="Path 1239" d="M396.774,155.66a2.1,2.1,0,0,1,.2.5,10.108,10.108,0,0,1,.4,1.47,13.927,13.927,0,0,1-.083,5.613,14.533,14.533,0,0,1-4.005,7.266,14.285,14.285,0,0,1-18.887.413,14.57,14.57,0,0,1-4.318-7.083,14.12,14.12,0,0,1-.34-5.6,10.608,10.608,0,0,1,.34-1.488,2.213,2.213,0,0,1,.175-.505c.055,0-.175.717-.331,2.021a14.782,14.782,0,0,0,.478,5.512,14.4,14.4,0,0,0,4.281,6.844,13.963,13.963,0,0,0,18.3-.4,14.469,14.469,0,0,0,4.207-12.521C396.985,156.367,396.718,155.678,396.774,155.66Z" transform="translate(881.386 199.978)" fill="#263238"/>
    <path id="Path_1240" data-name="Path 1240" d="M457.256,214.884a23.075,23.075,0,0,1-.156-5.76,23.423,23.423,0,0,1,.808-5.714c.138,0-.156,2.581-.331,5.742S457.394,214.884,457.256,214.884Z" transform="translate(874.276 196.093)" fill="#263238"/>
    <path id="Path_1241" data-name="Path 1241" d="M461.039,216.529a7.744,7.744,0,0,1-.781-1.837,40.2,40.2,0,0,1-1.277-4.731,41.388,41.388,0,0,1-.707-4.85,7.506,7.506,0,0,1,0-2.03c.138,0,.413,3.068,1.194,6.789S461.177,216.483,461.039,216.529Z" transform="translate(874.177 196.12)" fill="#263238"/>
    <path id="Path_1242" data-name="Path 1242" d="M420.777,216.251c-.138,0-.441-5.172-.68-11.566s-.322-11.566-.193-11.575.432,5.172.671,11.557S420.906,216.241,420.777,216.251Z" transform="translate(877.298 196.931)" fill="#263238"/>
    <path id="Path_1243" data-name="Path 1243" d="M382.821,167.988h0A13.036,13.036,0,0,1,370.052,155.5c-.211-5.034-.386-9.655-.386-9.655s-10.537-1.121-11.171-11.566,0-34.55,0-34.55h0a36.378,36.378,0,0,1,36.746,2.82l1.608,1.121-.772,51.444a13.026,13.026,0,0,1-13.256,12.87Z" transform="translate(882.312 204.828)" fill="#ffbe9d"/>
    <path id="Path_1244" data-name="Path 1244" d="M370.67,149.7a24.381,24.381,0,0,0,13.44-4.538s-2.857,7.68-13.339,7.248Z" transform="translate(881.299 200.832)" fill="#eb996e"/>
    <path id="Path_1245" data-name="Path 1245" d="M399.45,116.16c.175-.083,7.083-2.471,7.2,4.694s-7.092,5.8-7.11,5.595S399.45,116.16,399.45,116.16Z" transform="translate(878.957 203.228)" fill="#ffbe9d"/>
    <path id="Path_1246" data-name="Path 1246" d="M401.88,123.911a2.626,2.626,0,0,0,.34.175,1.249,1.249,0,0,0,.919,0,3.038,3.038,0,0,0,1.378-2.756,4.051,4.051,0,0,0-.377-1.773,1.442,1.442,0,0,0-.919-.919.634.634,0,0,0-.726.358c-.092.2,0,.34-.083.358s-.156-.119-.1-.423a.78.78,0,0,1,.266-.45.919.919,0,0,1,.689-.193,1.764,1.764,0,0,1,1.323,1.093,4.189,4.189,0,0,1,.469,1.984,3.217,3.217,0,0,1-1.773,3.123,1.332,1.332,0,0,1-1.139-.175C401.9,124.077,401.861,123.921,401.88,123.911Z" transform="translate(878.76 203.019)" fill="#eb996e"/>
    <path id="Path_1247" data-name="Path 1247" d="M364,117.15a1.488,1.488,0,0,0,1.442,1.507,1.424,1.424,0,0,0,1.534-1.341,1.5,1.5,0,0,0-1.433-1.516A1.433,1.433,0,0,0,364,117.15Z" transform="translate(881.841 203.221)" fill="#263238"/>
    <path id="Path_1248" data-name="Path 1248" d="M362,115.5c.184.2,1.314-.643,2.921-.634s2.756.808,2.967.606-.1-.432-.616-.808a4.1,4.1,0,0,0-2.37-.735,3.969,3.969,0,0,0-2.333.753C362.081,115.06,361.916,115.418,362,115.5Z" transform="translate(882.006 203.373)" fill="#263238"/>
    <path id="Path_1249" data-name="Path 1249" d="M380.8,117.35a1.488,1.488,0,0,0,1.442,1.507,1.424,1.424,0,0,0,1.543-1.341A1.5,1.5,0,0,0,382.343,116a1.433,1.433,0,0,0-1.543,1.35Z" transform="translate(880.475 203.205)" fill="#263238"/>
    <path id="Path_1250" data-name="Path 1250" d="M379.218,115.861c.184.193,1.323-.643,2.931-.643s2.756.808,2.958.615-.1-.441-.615-.808a4.088,4.088,0,0,0-4.7.018C379.3,115.392,379.126,115.741,379.218,115.861Z" transform="translate(880.605 203.343)" fill="#263238"/>
    <path id="Path_1251" data-name="Path 1251" d="M372.511,127.813a10.767,10.767,0,0,0-2.618-.478c-.413,0-.8-.119-.864-.4a2.077,2.077,0,0,1,.266-1.213c.4-.992.8-2.039,1.222-3.133a62.541,62.541,0,0,0,2.756-8.176,57.257,57.257,0,0,0-3.381,7.937c-.4,1.1-.8,2.15-1.167,3.151a2.352,2.352,0,0,0-.211,1.608,1.038,1.038,0,0,0,.671.606,2.976,2.976,0,0,0,.7.092A10.454,10.454,0,0,0,372.511,127.813Z" transform="translate(881.479 203.334)" fill="#263238"/>
    <path id="Path_1252" data-name="Path 1252" d="M377.546,130.17c-.257,0-.266,1.727-1.764,2.967s-3.353,1.047-3.362,1.3c0,.11.413.34,1.2.358a4.345,4.345,0,0,0,2.811-.983,3.794,3.794,0,0,0,1.36-2.49C377.877,130.593,377.684,130.161,377.546,130.17Z" transform="translate(881.156 202.051)" fill="#263238"/>
    <path id="Path_1253" data-name="Path 1253" d="M378.769,109c.156.432,1.764.23,3.675.459s3.408.735,3.675.349c.119-.193-.147-.606-.762-1.029a6.43,6.43,0,0,0-5.576-.615C379.045,108.452,378.705,108.792,378.769,109Z" transform="translate(880.64 203.872)" fill="#263238"/>
    <path id="Path_1254" data-name="Path 1254" d="M362.647,110.423c.285.367,1.4,0,2.756,0s2.462.248,2.756-.138c.11-.184-.064-.551-.56-.919a3.8,3.8,0,0,0-2.214-.6,3.729,3.729,0,0,0-2.168.735C362.674,109.9,362.527,110.249,362.647,110.423Z" transform="translate(881.955 203.793)" fill="#263238"/>
    <path id="Path_1255" data-name="Path 1255" d="M352.728,91.753a3.877,3.877,0,0,1,1.433-3.454,2.756,2.756,0,0,1,3.546.266,3.206,3.206,0,0,1,2.756-3.877c1.709-.11,3.169,1.185,4.814,1.635a7.827,7.827,0,0,0,4.878-.579c1.552-.625,3-1.488,4.593-2.058a13.385,13.385,0,0,1,17.124,7.854,5.944,5.944,0,0,1,6.3,2.388,9.765,9.765,0,0,1,1.5,6.871,22.044,22.044,0,0,1-1.2,4.694v.4c-.11,5.751-.763,12.512-3.215,12.549-4.281.064-3.261-8-3.261-8-5.255-2.021-3.3-9.894-4.593-11.088s-4.06-3.969-15.057,1.654c-4.272,2.177-9.949,2.113-13.054,1.406a2.275,2.275,0,0,1-.266-.055h-.156a9.912,9.912,0,0,1-2.82-1.194,5.567,5.567,0,0,1-2.324-2.591,3.041,3.041,0,0,1,.6-3.27,6.724,6.724,0,0,1-1.589-3.555Z" transform="translate(882.76 205.9)" fill="#263238"/>
  </g>
</svg>
