<svg xmlns="http://www.w3.org/2000/svg" width="251.524" height="269.921" viewBox="0 0 251.524 269.921">
  <g id="Group_143" data-name="Group 143" transform="translate(-1396 -3778.702)">
    <g id="Group_138" data-name="Group 138" transform="translate(1396 3778.702)">
      <g id="freepik--Shadow--inject-34" transform="translate(167.261 252.365)" opacity="0.27">
        <ellipse id="freepik--path--inject-34" cx="29.477" cy="8.778" rx="29.477" ry="8.778" transform="translate(0 0)" fill="#f5f5f5"/>
      </g>
      <g id="freepik--Character--inject-34" transform="translate(166.03 40.131)">
        <g id="freepik--group--inject-34" transform="translate(0)">
          <path id="Path_5" data-name="Path 5" d="M294.435,180.909l.24-5.994s1.605-1.59,1.605-2.621-1.846-6.932-2.652-7.212-5.141,1.776-5.219,3.1,2.249,6.2,2.652,6.56l-.644,6.366Z" transform="translate(-288.408 -137.588)" fill="#e4897b"/>
          <path id="Path_6" data-name="Path 6" d="M379.088,170.653l-2.063-5.932a16.692,16.692,0,0,1-2.435-2.125c-.566-.775,2.59-6.366,3.055-6.366A16.044,16.044,0,0,1,381.9,158.6c.465.558-2,5.118-2,5.118l3.063,5.118Z" transform="translate(-307.745 -135.606)" fill="#e4897b"/>
          <path id="Path_7" data-name="Path 7" d="M364.7,172.646c2.846.279,16.517,14.9,16.517,14.9l-5.9-16.393,4.653-1.59s11.523,18.355,9,25.093-25.1-8.708-25.1-8.708Z" transform="translate(-305.351 -138.599)" fill="#ffcd00"/>
          <path id="Path_8" data-name="Path 8" d="M307.6,394.405l-3.187-4.164,5.4-5.211,4.909-4.73,4.614,4.311-6.2,5.188Z" transform="translate(-292.001 -185.922)" fill="#e4897b"/>
          <path id="Path_9" data-name="Path 9" d="M302.158,391.466c.473-.333,4.42,5.583,4.42,5.583s-.876,6.2.907,10.151-1.683,3.645-4.567-.124L295.8,397.77C293.752,395.064,297.311,394.979,302.158,391.466Z" transform="translate(-289.935 -188.427)" fill="#2e353a"/>
          <path id="Path_10" data-name="Path 10" d="M309.79,400.077s2.644-.853,2.954.574c.349,1.644-2.954-.574-2.954-.574s2.668,1.985,1.962,2.885C310.682,404.311,309.79,400.077,309.79,400.077Z" transform="translate(-293.209 -190.307)" fill="none" stroke="#ffcd00" stroke-linecap="round" stroke-linejoin="round" stroke-width="0.483"/>
          <path id="Path_11" data-name="Path 11" d="M314.689,389.8l-3.319-4.769,4.909-4.73,4.614,4.311Z" transform="translate(-293.564 -185.922)" opacity="0.2"/>
          <path id="Path_12" data-name="Path 12" d="M347.656,402.65h-5.25l-.861-7.3-.775-6.7L347,387.63l.349,7.956Z" transform="translate(-300.166 -187.568)" fill="#e4897b"/>
          <path id="Path_13" data-name="Path 13" d="M341.2,406.485c0-.582,7.119-.124,7.119-.124s4.373,4.443,8.615,5.428,1.877,3.559-2.885,3.559H342.329C338.956,415.348,341.065,412.479,341.2,406.485Z" transform="translate(-300.089 -191.736)" fill="#2e353a"/>
          <path id="Path_14" data-name="Path 14" d="M351.74,406.763s.931-2.621,2.249-2c1.551.721-2.249,2-2.249,2s3.2-.915,3.482.186C355.648,408.624,351.74,406.763,351.74,406.763Z" transform="translate(-302.629 -191.394)" fill="none" stroke="#ffcd00" stroke-linecap="round" stroke-linejoin="round" stroke-width="0.483"/>
          <path id="Path_15" data-name="Path 15" d="M347.346,395.76l-5.8-.256-.775-6.777L347,387.68Z" transform="translate(-300.166 -187.58)" opacity="0.2"/>
          <path id="Path_16" data-name="Path 16" d="M354.855,244.26s15.509,36.64,17.936,52.73-52.621,59.174-52.621,59.174l-5.63-5.986S355.5,308.071,355.5,300.828s-15.974-40.323-15.974-40.323S337.982,247.16,354.855,244.26Z" transform="translate(-294.276 -155.373)" fill="#424242"/>
          <path id="Path_18" data-name="Path 18" d="M348.285,338.23l-.993,18.975c-5.622,5.18-11.066,9.856-15.292,13.392a45.171,45.171,0,0,1-1.1-12.764C336.467,351.816,342.942,344.651,348.285,338.23Z" transform="translate(-297.933 -176.475)" opacity="0.2"/>
          <path id="Path_19" data-name="Path 19" d="M354.086,279.6c-3.769-8.53-7.336-15.951-7.336-15.951a13.671,13.671,0,0,1,.442-4.529,5.358,5.358,0,0,1,1.76-.775S353.535,265.585,354.086,279.6Z" transform="translate(-301.501 -158.537)" opacity="0.2"/>
          <path id="Path_20" data-name="Path 20" d="M328.492,134.444s4.707-5.87,12.407-4.56,6.366,15.555,6.366,15.555a10.29,10.29,0,0,1,3.319,10.2c-1.5,6.459-19.068,10.2-25.783,5.707s-1.551-18.735,1.714-20.751S328.492,134.444,328.492,134.444Z" transform="translate(-295.844 -129.647)" fill="#2e353a"/>
          <path id="Path_21" data-name="Path 21" d="M344.214,251.224l.938,51.582V355.6h-8.786c-20.983-100.032-6.6-125.11-6.6-125.11h.054a.122.122,0,0,1,.047-.116c3.373-7.491,25.473-1.97,25.473-1.97,1.59,6.2,2.567,18.82,2.567,18.82Z" transform="translate(-296.615 -151.372)" fill="#424242"/>
          <path id="Path_23" data-name="Path 23" d="M331,225.914v3.753l25.59-1.962V223.27Z" transform="translate(-297.972 -150.66)" fill="#2e353a"/>
          <rect id="Rectangle_1372" data-name="Rectangle 1372" width="1.272" height="6.475" transform="translate(40.335 73.77) rotate(-2.92)" fill="#407bff"/>
          <rect id="Rectangle_1373" data-name="Rectangle 1373" width="5.614" height="4.257" transform="translate(47.113 74.009) rotate(-5.12)" fill="#fff"/>
          <rect id="Rectangle_1374" data-name="Rectangle 1374" width="1.272" height="6.475" transform="translate(55.976 72.037) rotate(-2.92)" fill="#407bff"/>
          <rect id="Rectangle_1375" data-name="Rectangle 1375" width="1.272" height="6.475" transform="translate(40.335 73.77) rotate(-2.92)" fill="#fff" opacity="0.6"/>
          <rect id="Rectangle_1376" data-name="Rectangle 1376" width="1.272" height="6.475" transform="translate(55.976 72.037) rotate(-2.92)" fill="#fff" opacity="0.6"/>
          <path id="Path_24" data-name="Path 24" d="M354.284,212.6l-25.59,2.21c-.6-9.515-1.21-15.648-6.847-32.569-.488-1.481-1.016-3.055-1.6-4.715a76,76,0,0,1,10.624-2.567,81.587,81.587,0,0,1,11.492-1.21c4.978,0,10.7.52,10.7.52s.814.194,1.326,5.475C354.85,184.661,355.308,194.571,354.284,212.6Z" transform="translate(-295.558 -139.54)" fill="#ffcd00"/>
          <path id="Path_25" data-name="Path 25" d="M354.284,212.6l-25.59,2.21c-.6-9.515-1.21-15.648-6.847-32.569-.488-1.481-1.016-3.055-1.6-4.715a76,76,0,0,1,10.624-2.567,81.587,81.587,0,0,1,11.492-1.21c4.978,0,10.7.52,10.7.52s.814.194,1.326,5.475C354.85,184.661,355.308,194.571,354.284,212.6Z" transform="translate(-292.922 -138.464)" opacity="0.3"/>
          <path id="Path_26" data-name="Path 26" d="M343.624,177c-6.312-.775-8.2-3.505-8.2-3.505,4-3.776.675-10.321.675-10.321l7.592,1.419a21.467,21.467,0,0,0-.295,3.2c-.062,4.606,2.024,4.653,2.024,4.653C346.78,174.933,343.624,177,343.624,177Z" transform="translate(-298.965 -137.164)" fill="#e4897b"/>
          <path id="Path_27" data-name="Path 27" d="M343.922,164.58a21.451,21.451,0,0,0-.295,3.2c-3.66-.853-7.3-4.653-7.3-4.653Z" transform="translate(-299.169 -137.155)" opacity="0.2"/>
          <path id="Path_28" data-name="Path 28" d="M335.6,137.773c6.436-1.551,9.305,1.435,11.36,7.948,2.551,8.142,2.109,14.462-6.351,14.6C329.1,160.509,324.927,140.309,335.6,137.773Z" transform="translate(-297.621 -131.37)" fill="#e4897b"/>
          <path id="Path_29" data-name="Path 29" d="M346.57,149a14.049,14.049,0,0,0,2.5,2.225,1.807,1.807,0,0,1-1.551,1.124Z" transform="translate(-301.468 -133.982)" fill="#de5753"/>
          <path id="Path_30" data-name="Path 30" d="M340.952,149.241c.14.527,0,1.024-.38,1.117s-.775-.256-.884-.775,0-1.024.38-1.117S340.821,148.714,340.952,149.241Z" transform="translate(-299.914 -133.859)" fill="#2e353a"/>
          <path id="Path_31" data-name="Path 31" d="M340,148.315l1.031-.775S340.721,148.672,340,148.315Z" transform="translate(-299.993 -133.654)" fill="#2e353a"/>
          <path id="Path_32" data-name="Path 32" d="M349.342,146.9c.14.52-.039,1.024-.388,1.117s-.775-.264-.884-.775.039-1.024.388-1.117S349.2,146.374,349.342,146.9Z" transform="translate(-301.797 -133.333)" fill="#2e353a"/>
          <path id="Path_33" data-name="Path 33" d="M348.4,145.965l1.024-.775S349.106,146.33,348.4,145.965Z" transform="translate(-301.879 -133.126)" fill="#2e353a"/>
          <path id="Path_34" data-name="Path 34" d="M339.149,143.76a3.443,3.443,0,0,0-2.559,1.636" transform="translate(-299.227 -132.805)" fill="none" stroke="#2e353a" stroke-linecap="round" stroke-linejoin="round" stroke-width="0.725"/>
          <path id="Path_35" data-name="Path 35" d="M345.84,141.9a3.1,3.1,0,0,1,2.691-.078" transform="translate(-301.305 -132.31)" fill="none" stroke="#2e353a" stroke-linecap="round" stroke-linejoin="round" stroke-width="0.725"/>
          <path id="Path_36" data-name="Path 36" d="M346.093,156.762a17.329,17.329,0,0,0-.225,2.412l-.419.062c-1.915.256-2.892-.264-3.389-.907a2.566,2.566,0,0,1-.457-1.093,2.384,2.384,0,0,1,0-.675,9.1,9.1,0,0,0,3.877.279C345.837,156.808,346.093,156.762,346.093,156.762Z" transform="translate(-300.348 -135.68)" fill="#2e353a"/>
          <path id="Path_37" data-name="Path 37" d="M345.434,156.839l-.078.713c-1.807.233-3.1.155-3.753-.318a2.386,2.386,0,0,1,0-.675A9.1,9.1,0,0,0,345.434,156.839Z" transform="translate(-300.348 -135.68)" fill="#fff"/>
          <path id="Path_38" data-name="Path 38" d="M345.589,159.725c-1.915.256-2.892-.264-3.389-.907a6.2,6.2,0,0,1,2.171.132A2.327,2.327,0,0,1,345.589,159.725Z" transform="translate(-300.487 -136.177)" fill="#de5753"/>
          <path id="Path_39" data-name="Path 39" d="M330.468,149.616s1.753-5.994.333-9.964c0,0,11.508-8.227,15.206,4.56,0,0-1.473-11.787-12.593-9.422s-7.235,18.533-.388,22C333.027,156.8,329.39,153.377,330.468,149.616Z" transform="translate(-296.944 -130.72)" fill="#2e353a"/>
          <path id="Path_40" data-name="Path 40" d="M332.01,154.873a2.9,2.9,0,0,0-3.645-1.853c-1.946.682-1.923,5,3.265,4.815C332.374,157.8,332.615,157.013,332.01,154.873Z" transform="translate(-297.113 -134.853)" fill="#e4897b"/>
          <path id="Path_41" data-name="Path 41" d="M354.376,179.694c-9.615,4.753-24.349,3.645-32.569,2.5-.489-1.481-1.016-3.055-1.6-4.715a75.994,75.994,0,0,1,10.624-2.567,81.574,81.574,0,0,1,11.492-1.21c4.978,0,10.7.52,10.7.52S353.864,174.413,354.376,179.694Z" transform="translate(-295.549 -139.529)" fill="#e4897b"/>
          <path id="Path_42" data-name="Path 42" d="M325.221,175.23s6.894,8.809,7.1,18.355-6.157,53.583-6.157,53.583L318.49,245s5.8-33.887,0-66.618Z" transform="translate(-295.163 -139.872)" fill="#ffcd00"/>
          <path id="Path_43" data-name="Path 43" d="M354.72,174s2.807,9.127,2.435,15.687,6.723,38.857,6.723,38.857l2.063,4.963-2.039-20.03s1.233-29.4-1.256-39.478Z" transform="translate(-303.299 -139.596)" fill="#ffcd00"/>
          <path id="Path_44" data-name="Path 44" d="M333.072,137.049s2.381,8.1-4.87,11.771c-8.762,4.436-7.925,14.02.62,15.237,0,0-8.631-.868-10.306-6.506s3.1-14.315,3.1-14.315-2.621-4.769,4.459-8.53C330.048,132.614,333.072,137.049,333.072,137.049Z" transform="translate(-295.089 -130.646)" fill="#2e353a"/>
          <path id="Path_45" data-name="Path 45" d="M338.21,390.9l10.98-1.613-.915,4.389L339.21,394.9Z" transform="translate(-299.591 -187.941)" fill="#ffcd00"/>
          <path id="Path_46" data-name="Path 46" d="M313.961,378.22l7.367,8.01-3.683,2.109-5.684-6.033Z" transform="translate(-293.697 -185.455)" fill="#ffcd00"/>
          <path id="Path_47" data-name="Path 47" d="M368.653,150.545c-1.326-2.373-3.877-3.458-5.754-2.419s-2.272,3.792-.954,6.165,3.877,3.451,5.754,2.419S369.979,152.91,368.653,150.545Z" transform="translate(-304.747 -133.697)" fill="#407bff"/>
          <path id="Path_48" data-name="Path 48" d="M386.664,138.213l-4.56-8.383s-3.179,6.832-7.754,9.391l2.326,4.156.364.651,2.326,4.156c4.575-2.559,12.058-1.7,12.058-1.7Z" transform="translate(-307.707 -129.677)" fill="#407bff"/>
          <path id="Path_49" data-name="Path 49" d="M368.653,150.545c-1.326-2.373-3.877-3.458-5.754-2.419s-2.272,3.792-.954,6.165,3.877,3.451,5.754,2.419S369.979,152.91,368.653,150.545Z" transform="translate(-304.747 -133.697)" fill="#fff" opacity="0.8"/>
          <path id="Path_50" data-name="Path 50" d="M386.664,138.213l-4.56-8.383s-3.179,6.832-7.754,9.391l2.326,4.156.364.651,2.326,4.156c4.575-2.559,12.058-1.7,12.058-1.7Z" transform="translate(-307.707 -129.677)" fill="#fff" opacity="0.8"/>
          <path id="Path_51" data-name="Path 51" d="M370.42,156.929s3.3,4.769,6.374,6.514a.5.5,0,0,0,.644-.14l2.629-3.249a.519.519,0,0,0-.194-.775,18.161,18.161,0,0,1-6.064-4.11C371.544,152.47,370.42,156.929,370.42,156.929Z" transform="translate(-306.824 -135.172)" fill="#505050"/>
          <path id="Path_52" data-name="Path 52" d="M370.42,156.929s3.3,4.769,6.374,6.514a.5.5,0,0,0,.644-.14l2.629-3.249a.519.519,0,0,0-.194-.775,18.161,18.161,0,0,1-6.064-4.11C371.544,152.47,370.42,156.929,370.42,156.929Z" transform="translate(-306.824 -135.021)" opacity="0.3"/>
          <path id="Path_53" data-name="Path 53" d="M393.447,146.69c-1.047.582-4.025-2.745-6.646-7.437s-3.877-8.964-2.846-9.553,4.025,2.745,6.646,7.429S394.5,146.1,393.447,146.69Z" transform="translate(-309.783 -129.633)" fill="#fff"/>
          <path id="Path_54" data-name="Path 54" d="M393.262,145.518c-.775.442-3.1-2.179-5.3-5.94-.124-.209-.248-.434-.372-.659s-.295-.527-.434-.775c-2.008-3.8-3-7.072-2.225-7.506s3.389,2.489,5.684,6.6S394.1,145.053,393.262,145.518Z" transform="translate(-310.024 -129.849)" opacity="0.4"/>
          <path id="Path_55" data-name="Path 55" d="M367.462,156.022s-1.124-.775-3.164-4.451c-2.21-3.955-2.148-5.056-2.148-5.056l10.213-5.715s.124,1.435,2.194,5.141,3.1,4.366,3.1,4.366Z" transform="translate(-304.967 -132.141)" fill="#505050"/>
          <path id="Path_56" data-name="Path 56" d="M388.687,141.662c-.124-.209-.248-.434-.372-.659s-.295-.527-.434-.775l1.055-.333a.481.481,0,0,1,.582.264l.085.155a.473.473,0,0,1-.078.628Z" transform="translate(-310.745 -131.932)" fill="#fff"/>
          <path id="Path_57" data-name="Path 57" d="M388.687,141.662c-.124-.209-.248-.434-.372-.659s-.295-.527-.434-.775l1.055-.333a.481.481,0,0,1,.582.264l.085.155a.473.473,0,0,1-.078.628Z" transform="translate(-310.745 -131.932)" opacity="0.2"/>
          <path id="Path_58" data-name="Path 58" d="M311.8,179.28c-3.559,1.551-16.284,24.271-16.284,24.271l-.248-21.48-5.746-.775s-3.5,30.467,3.994,32.212,21.232-19.975,21.232-19.975Z" transform="translate(-288.475 -140.782)" fill="#ffcd00"/>
          <path id="Path_59" data-name="Path 59" d="M336.33,136.65s3.3,2.381.845,8.592" transform="translate(-299.169 -131.209)" fill="none" stroke="#2e353a" stroke-linecap="round" stroke-linejoin="round" stroke-width="0.5"/>
          <path id="Path_60" data-name="Path 60" d="M353.81,149.35s9.065,5.87,3.187,13.431" transform="translate(-303.094 -134.061)" fill="none" stroke="#2e353a" stroke-linecap="round" stroke-linejoin="round" stroke-width="0.5"/>
        </g>
      </g>
      <g id="freepik--group--inject-34-2" data-name="freepik--group--inject-34" transform="translate(24.25 0)">
        <rect id="Rectangle_1377" data-name="Rectangle 1377" width="146.357" height="263.239" rx="10.4" fill="#2e353a"/>
        <path id="Path_61" data-name="Path 61" d="M248.477,88.3V333.436a3.583,3.583,0,0,1-3.637,3.583H115.248A3.21,3.21,0,0,1,112,333.731V88.009A2.892,2.892,0,0,1,114.783,85h32.4a2.28,2.28,0,0,1,2.086,1.458l1.342,3.3a2.28,2.28,0,0,0,2.086,1.442h55.157a2.257,2.257,0,0,0,2.086-1.419l1.318-3.319A2.326,2.326,0,0,1,213.365,85H245.3A3.272,3.272,0,0,1,248.477,88.3Z" transform="translate(-107.013 -79.479)" fill="#0f0f0f"/>
        <rect id="Rectangle_1378" data-name="Rectangle 1378" width="136.478" height="30.63" transform="translate(4.986 21.418)" fill="#fff" opacity="0.2"/>
        <rect id="Rectangle_1379" data-name="Rectangle 1379" width="1.683" height="2.249" transform="translate(22.061 15.393) rotate(180)" fill="#fff" opacity="0.6"/>
        <rect id="Rectangle_1380" data-name="Rectangle 1380" width="1.683" height="3.001" transform="translate(19.316 15.4) rotate(180)" fill="#fff" opacity="0.6"/>
        <rect id="Rectangle_1381" data-name="Rectangle 1381" width="1.683" height="3.745" transform="translate(16.571 15.4) rotate(180)" fill="#fff" opacity="0.6"/>
        <rect id="Rectangle_1382" data-name="Rectangle 1382" width="1.683" height="4.498" transform="translate(13.818 15.393) rotate(180)" fill="#fff" opacity="0.6"/>
        <rect id="Rectangle_1383" data-name="Rectangle 1383" width="1" height="2.249" transform="translate(125.373 12.33)" fill="#fff" opacity="0.6"/>
        <rect id="Rectangle_1384" data-name="Rectangle 1384" width="7.964" height="3.885" transform="translate(135.012 15.4) rotate(180)" fill="#fff" opacity="0.6"/>
        <circle id="Ellipse_1" data-name="Ellipse 1" cx="1.877" cy="1.877" r="1.877" transform="translate(68.254 3.963)" fill="#fff" opacity="0.6"/>
        <path id="Path_62" data-name="Path 62" d="M202.624,85.062a1.2,1.2,0,1,1-1.2-1.2,1.2,1.2,0,0,1,1.2,1.2Z" transform="translate(-126.824 -79.223)" fill="#fff" opacity="0.6"/>
        <path id="Path_63" data-name="Path 63" d="M248.477,350v42.944a3.582,3.582,0,0,1-3.637,3.583H115.249A3.21,3.21,0,0,1,112,393.239V350Z" transform="translate(-107.014 -138.987)" fill="#fff" opacity="0.2"/>
        <path id="Path_64" data-name="Path 64" d="M131.33,231.264l53.2-44.7,53.2,44.7-41.711,55.948-37.462-.752Z" transform="translate(-111.355 -102.285)" fill="#ffcd00"/>
        <rect id="Rectangle_1385" data-name="Rectangle 1385" width="75.675" height="110.64" rx="2.25" transform="translate(35.337 69.542)" fill="#fff"/>
        <rect id="Rectangle_1386" data-name="Rectangle 1386" width="59.569" height="2.249" rx="0.72" transform="translate(43.394 79.529)" opacity="0.2"/>
        <rect id="Rectangle_1387" data-name="Rectangle 1387" width="59.569" height="2.249" rx="0.72" transform="translate(43.394 87.028)" opacity="0.2"/>
        <rect id="Rectangle_1388" data-name="Rectangle 1388" width="59.569" height="2.249" rx="0.72" transform="translate(43.394 94.526)" opacity="0.2"/>
        <rect id="Rectangle_1389" data-name="Rectangle 1389" width="59.569" height="2.249" rx="0.72" transform="translate(43.394 102.025)" opacity="0.2"/>
        <rect id="Rectangle_1390" data-name="Rectangle 1390" width="59.569" height="2.249" rx="0.72" transform="translate(43.394 109.523)" opacity="0.2"/>
        <rect id="Rectangle_1391" data-name="Rectangle 1391" width="59.569" height="2.249" rx="0.72" transform="translate(43.394 117.022)" opacity="0.2"/>
        <rect id="Rectangle_1392" data-name="Rectangle 1392" width="59.569" height="2.249" rx="0.72" transform="translate(43.394 124.52)" opacity="0.2"/>
        <rect id="Rectangle_1393" data-name="Rectangle 1393" width="59.569" height="2.249" rx="0.72" transform="translate(43.394 132.011)" opacity="0.2"/>
        <rect id="Rectangle_1394" data-name="Rectangle 1394" width="59.569" height="2.249" rx="0.72" transform="translate(43.394 139.51)" opacity="0.2"/>
        <path id="Path_66" data-name="Path 66" d="M187.3,283.2l-.295-.163a3.528,3.528,0,0,0-3.451,0l-1.435.814L131,244.21v65.432a3.435,3.435,0,0,0,3.5,3.42h99.908c1.923,0,2.823-1.481,2.823-3.42V244.21Z" transform="translate(-111.281 -115.231)" fill="#ffcd00"/>
        <path id="Path_68" data-name="Path 68" d="M184.157,293.04l2.311,1.791-36.128,20.51Z" transform="translate(-115.623 -126.196)" opacity="0.2"/>
        <path id="Path_69" data-name="Path 69" d="M243.057,316.041,203.54,294.127l1.822-1.427Z" transform="translate(-127.57 -126.12)" opacity="0.2"/>
        <rect id="Rectangle_1395" data-name="Rectangle 1395" width="44.456" height="4.133" rx="0.83" transform="translate(52.288 26.202)" fill="#ffcd00"/>
        <path id="Path_70" data-name="Path 70" d="M269.158,138.172H249.252a2.59,2.59,0,0,1-2.582-2.59h0A2.582,2.582,0,0,1,249.252,133h19.906a2.582,2.582,0,0,1,2.582,2.582h0a2.59,2.59,0,0,1-2.582,2.59Z" transform="translate(-137.255 -90.258)" fill="#ffcd00"/>
        <rect id="Rectangle_1396" data-name="Rectangle 1396" width="19.906" height="18.866" transform="translate(14.811 217.473)" fill="#ffcd00"/>
        <rect id="Rectangle_1397" data-name="Rectangle 1397" width="19.906" height="18.866" transform="translate(39.02 217.473)" fill="#ffcd00"/>
        <rect id="Rectangle_1398" data-name="Rectangle 1398" width="19.906" height="18.866" transform="translate(63.237 217.473)" fill="#ffcd00"/>
        <rect id="Rectangle_1399" data-name="Rectangle 1399" width="19.906" height="18.866" transform="translate(87.454 217.473)" fill="#ffcd00"/>
        <rect id="Rectangle_1400" data-name="Rectangle 1400" width="19.906" height="18.866" transform="translate(111.664 217.473)" fill="#ffcd00"/>
        <path id="Path_71" data-name="Path 71" d="M269.158,398.332H249.252a2.582,2.582,0,0,1-2.582-2.582h0a2.59,2.59,0,0,1,2.582-2.59h19.906a2.59,2.59,0,0,1,2.582,2.59h0a2.582,2.582,0,0,1-2.582,2.582Z" transform="translate(-137.255 -148.679)" fill="#ffcd00"/>
        <path id="Path_72" data-name="Path 72" d="M233.045,78,105.57,259.391V179.032L176.507,78Z" transform="translate(-103.1 -74.038)" fill="#fff" opacity="0.1"/>
        <path id="Path_73" data-name="Path 73" d="M159.4,78,106,154.257V86.018A7.708,7.708,0,0,1,113.753,78Z" transform="translate(-105.665 -77.907)" fill="#fff" opacity="0.1"/>
      </g>
      <g id="freepik--paper-plane--inject-34" transform="translate(0 3.97)">
        <g id="freepik--group--inject-34-3" data-name="freepik--group--inject-34" transform="translate(0 9.23)">
          <g id="freepik--group--inject-34-4" data-name="freepik--group--inject-34">
            <path id="Path_74" data-name="Path 74" d="M276.9,94.908c-34.189,4.815-79.731,18.386-118.844,35.407-25.45,11.073-69.844,33.119-81.189,56.336-3.4,6.979-3.427,13.446-.078,19.254s11.128,9.848,22.092,12.6v-1.272c-10.468-2.644-17.928-6.467-21.053-11.9s-3.1-11.577.116-18.169c8.165-16.719,37.547-37.051,80.646-55.785,38.958-17.013,84.384-30.514,118.472-35.314a.583.583,0,1,0-.163-1.155Z" transform="translate(-74.297 -94.903)" fill="#fff"/>
            <path id="Path_75" data-name="Path 75" d="M276.9,94.908c-34.189,4.815-79.731,18.386-118.844,35.407-25.45,11.073-69.844,33.119-81.189,56.336-3.4,6.979-3.427,13.446-.078,19.254s11.128,9.848,22.092,12.6v-1.272c-10.468-2.644-17.928-6.467-21.053-11.9s-3.1-11.577.116-18.169c8.165-16.719,37.547-37.051,80.646-55.785,38.958-17.013,84.384-30.514,118.472-35.314a.583.583,0,1,0-.163-1.155Z" transform="translate(-74.297 -94.903)" fill="#ffcd00"/>
            <path id="Path_76" data-name="Path 76" d="M77.293,206.2a.574.574,0,0,1-.5-.295c-3.35-5.808-3.319-12.291.078-19.254,11.345-23.217,55.739-45.263,81.189-56.336C197.168,113.294,242.71,99.724,276.9,94.908a.583.583,0,1,1,.163,1.155c-34.119,4.8-79.514,18.331-118.542,35.314-43.06,18.735-72.442,39.067-80.576,55.785-3.218,6.591-3.257,12.709-.116,18.169a.582.582,0,0,1-.217.775.574.574,0,0,1-.318.093Z" transform="translate(-74.297 -94.903)" fill="#407bff"/>
          </g>
          <g id="Group_1" data-name="Group 1" opacity="0.8">
            <path id="Path_77" data-name="Path 77" d="M77.293,206.2a.574.574,0,0,1-.5-.295c-3.35-5.808-3.319-12.291.078-19.254,11.345-23.217,55.739-45.263,81.189-56.336C197.168,113.294,242.71,99.724,276.9,94.908a.583.583,0,1,1,.163,1.155c-34.119,4.8-79.514,18.331-118.542,35.314-43.06,18.735-72.442,39.067-80.576,55.785-3.218,6.591-3.257,12.709-.116,18.169a.582.582,0,0,1-.217.775.574.574,0,0,1-.318.093Z" transform="translate(-74.297 -94.903)" fill="#fff"/>
          </g>
        </g>
        <g id="freepik--group--inject-34-5" data-name="freepik--group--inject-34" transform="translate(210.798 0)">
          <path id="Path_78" data-name="Path 78" d="M356.18,100.447,389.121,83l-28.815,9.484Z" transform="translate(-348.395 -83)" fill="#407bff"/>
          <path id="Path_79" data-name="Path 79" d="M356.18,100.447,389.121,83l-28.815,9.484Z" transform="translate(-348.395 -83)" fill="#ffcd00" opacity="0.3"/>
          <path id="Path_80" data-name="Path 80" d="M346.14,85l6.095,4.2,1.69,11.244,4.125-7.964,10.437,5.25L386.866,83Z" transform="translate(-346.14 -83)" fill="#407bff"/>
          <path id="Path_81" data-name="Path 81" d="M346.14,85l6.095,4.2,1.69,11.244,4.125-7.964,10.437,5.25L386.866,83Z" transform="translate(-346.14 -83)" fill="#ffcd00" opacity="0.6"/>
          <path id="Path_82" data-name="Path 82" d="M354,89.2,388.631,83l-28.815,9.484-4.125,7.964Z" transform="translate(-347.905 -83)" opacity="0.2"/>
        </g>
      </g>
    </g>
  </g>
</svg>
