<svg xmlns="http://www.w3.org/2000/svg" width="290.124" height="256.369" viewBox="0 0 290.124 256.369">
  <g id="Group_142" data-name="Group 142" transform="translate(-358.393 -3366.399)">
    <g id="Mail_sent-rafiki" data-name="Mail sent-rafiki" transform="translate(358.393 3366.399)">
      <g id="freepik--Shadow--inject-130" transform="translate(188.775 238.972)" opacity="0.32">
        <ellipse id="Ellipse_7" data-name="Ellipse 7" cx="50.675" cy="8.699" rx="50.675" ry="8.699" fill="#f5f5f5"/>
      </g>
      <g id="freepik--Mail--inject-130" transform="translate(0 0)">
        <path id="Path_691" data-name="Path 691" d="M48.86,150.56l175.18,25.22L247.546,199.5Z" transform="translate(-48.86 -107.046)" fill="#407bff"/>
        <path id="Path_692" data-name="Path 692" d="M48.86,150.56l175.18,25.22L247.546,199.5Z" transform="translate(-48.86 -107.046)" fill="#ffcd00" opacity="0.6"/>
        <path id="Path_693" data-name="Path 693" d="M48.86,150.56l175.18,25.22-8.13,34.3Z" transform="translate(-48.86 -107.046)" fill="#ffcd00"/>
        <path id="Path_694" data-name="Path 694" d="M48.86,150.56l175.18,25.22-8.13,34.3Z" transform="translate(-48.86 -107.046)" opacity="0.2"/>
        <path id="Path_695" data-name="Path 695" d="M231.365,97.737l10.166,47.643a4.8,4.8,0,0,1-3.688,5.694l-90.736,19.364a4.81,4.81,0,0,1-5.694-3.688l-10.174-47.643a4.81,4.81,0,0,1,3.7-5.694l90.736-19.364a4.81,4.81,0,0,1,5.694,3.7Z" transform="translate(-67.912 -93.936)" fill="#ffcd00"/>
        <path id="Path_696" data-name="Path 696" d="M231.365,97.737l10.166,47.643a4.8,4.8,0,0,1-3.688,5.694l-90.736,19.364a4.81,4.81,0,0,1-5.694-3.688l-10.174-47.643a4.81,4.81,0,0,1,3.7-5.694l90.736-19.364a4.81,4.81,0,0,1,5.694,3.7Z" transform="translate(-67.912 -93.929)" opacity="0.4"/>
        <path id="Path_697" data-name="Path 697" d="M229.392,94.615,199.078,131.83a19.541,19.541,0,0,1-23.937,5.11L132.27,115.347A4.78,4.78,0,0,1,135.2,113.4l90.736-19.364a4.787,4.787,0,0,1,3.458.576Z" transform="translate(-68.175 -93.934)" fill="#ffcd00"/>
        <path id="Path_698" data-name="Path 698" d="M48.86,150.56,193.348,184.9l22.561,25.182Z" transform="translate(-48.86 -107.046)" fill="#407bff"/>
        <path id="Path_699" data-name="Path 699" d="M48.86,150.56,193.348,184.9l22.561,25.182Z" transform="translate(-48.86 -107.046)" fill="#ffcd00" opacity="0.6"/>
        <rect id="Rectangle_1558" data-name="Rectangle 1558" width="0.768" height="6.701" transform="matrix(0.505, -0.863, 0.863, 0.505, 75.496, 90.847)" fill="#ffcd00"/>
        <path id="Path_700" data-name="Path 700" d="M48.86,150.56,193.348,184.9l-28.086,33.849Z" transform="translate(-48.86 -107.046)" fill="#ffcd00"/>
        <path id="Path_701" data-name="Path 701" d="M292.8,251.527a1.537,1.537,0,0,1-.569-.108l-23.529-9.313a1.537,1.537,0,1,1,1.13-2.859l23.537,9.313a1.537,1.537,0,0,1-.569,2.966Z" transform="translate(-99.544 -127.559)" fill="#ffcd00"/>
        <path id="Path_702" data-name="Path 702" d="M292.8,251.527a1.537,1.537,0,0,1-.569-.108l-23.529-9.313a1.537,1.537,0,1,1,1.13-2.859l23.537,9.313a1.537,1.537,0,0,1-.569,2.966Z" transform="translate(-99.544 -127.559)" opacity="0.3"/>
        <path id="Path_703" data-name="Path 703" d="M294.279,235.255a1.469,1.469,0,0,1-.561-.115l-12.641-5.033a1.537,1.537,0,1,1,1.13-2.859l12.641,5.01a1.556,1.556,0,0,1-.569,3Z" transform="translate(-102.409 -124.78)" fill="#ffcd00"/>
        <path id="Path_704" data-name="Path 704" d="M294.279,235.255a1.469,1.469,0,0,1-.561-.115l-12.641-5.033a1.537,1.537,0,1,1,1.13-2.859l12.641,5.01a1.556,1.556,0,0,1-.569,3Z" transform="translate(-102.409 -124.78)" fill="#fff" opacity="0.5"/>
        <path id="Path_705" data-name="Path 705" d="M256.781,251.327a1.613,1.613,0,0,1-.561-.108l-22.953-9.114a1.537,1.537,0,0,1,1.13-2.859l22.953,9.083a1.537,1.537,0,0,1-.569,2.966Z" transform="translate(-91.338 -127.558)" fill="#ffcd00"/>
        <path id="Path_706" data-name="Path 706" d="M256.781,251.327a1.613,1.613,0,0,1-.561-.108l-22.953-9.114a1.537,1.537,0,0,1,1.13-2.859l7.821,3.1,15.132,5.988a1.537,1.537,0,0,1-.569,2.966Z" transform="translate(-91.272 -127.459)" fill="#ffcd00" opacity="0.3"/>
      </g>
      <g id="freepik--Character--inject-130" transform="translate(162.762 11.939)">
        <path id="Path_707" data-name="Path 707" d="M369.994,164.82c2.036,3.973,3.9,7.953,5.679,12.026s3.427,8.2,4.872,12.525l.523,1.637c.092.292.223.768.3,1.107s.146.722.184,1.045a27.133,27.133,0,0,1,.269,3.742,67.078,67.078,0,0,1-.323,6.916,110.78,110.78,0,0,1-2.09,13.232l-4.219-.469c-.054-4.326-.092-8.7-.246-12.963-.069-2.121-.192-4.249-.407-6.247a23.454,23.454,0,0,0-.461-2.789c-.038-.215-.1-.377-.146-.553s-.092-.238-.169-.469l-.584-1.452c-1.606-3.888-3.412-7.807-5.256-11.711l-5.579-11.711Z" transform="translate(-284.214 -122.287)" fill="#e4897b"/>
        <path id="Path_708" data-name="Path 708" d="M378.547,230.42,376.58,234.1l6.286,1.752s1.2-2.958-.23-5.294Z" transform="translate(-287.511 -137.478)" fill="#e4897b"/>
        <path id="Path_709" data-name="Path 709" d="M373.45,240.512l5.779.461,2.912-4.011-6.286-1.752Z" transform="translate(-286.786 -138.587)" fill="#e4897b"/>
        <path id="Path_710" data-name="Path 710" d="M337.545,129.982c-.085.453-.4.768-.692.707s-.453-.469-.361-.914.4-.768.692-.707S337.645,129.536,337.545,129.982Z" transform="translate(-278.222 -114.006)" fill="#263238"/>
        <path id="Path_711" data-name="Path 711" d="M336.532,131.26a16.4,16.4,0,0,1-2.912,3.389,2.643,2.643,0,0,0,2.052.83Z" transform="translate(-277.563 -114.516)" fill="#de5753"/>
        <path id="Path_712" data-name="Path 712" d="M339.971,127.063a.277.277,0,0,1-.192-.085,2.136,2.136,0,0,0-1.79-.722.269.269,0,0,1-.092-.523,2.613,2.613,0,0,1,2.305.884.269.269,0,0,1,0,.377A.277.277,0,0,1,339.971,127.063Z" transform="translate(-278.512 -113.231)" fill="#263238"/>
        <path id="Path_713" data-name="Path 713" d="M350.578,138.43c-.807,4.134-1.614,11.7,1.276,14.454,0,0-1.13,4.188-8.806,4.188-8.453,0-4.027-4.188-4.027-4.188,4.611-1.1,4.48-4.518,3.681-7.723Z" transform="translate(-278.545 -116.176)" fill="#e4897b"/>
        <path id="Path_714" data-name="Path 714" d="M353.046,158.82c.607-2.021,1.276-4.334-.108-5.064-1.537-.768-9.89-1.614-12.771-.115s-2.059,5.61-2.059,5.61Z" transform="translate(-278.577 -119.507)" fill="#263238"/>
        <path id="Path_715" data-name="Path 715" d="M380.2,409.6a1.806,1.806,0,0,1-1.352-.369.545.545,0,0,1,0-.638.638.638,0,0,1,.423-.315c.83-.184,2.382.876,2.451.922a.154.154,0,0,1,.054.138.123.123,0,0,1-.1.1,7.184,7.184,0,0,1-1.475.161Zm-.707-1.076h-.161a.361.361,0,0,0-.246.184c-.123.215-.046.307,0,.338.238.323,1.391.323,2.236.184a4.442,4.442,0,0,0-1.829-.692Z" transform="translate(-288.013 -178.658)" fill="#ffcd00"/>
        <path id="Path_716" data-name="Path 716" d="M382.017,409.055h-.061c-.584-.323-1.714-1.537-1.6-2.182a.438.438,0,0,1,.43-.353.768.768,0,0,1,.569.169c.653.538.768,2.167.768,2.236a.123.123,0,0,1-.061.123A.107.107,0,0,1,382.017,409.055Zm-1.137-2.305h-.031c-.177,0-.192.108-.2.138-.069.376.653,1.306,1.23,1.744a3.22,3.22,0,0,0-.661-1.767.492.492,0,0,0-.369-.1Z" transform="translate(-288.384 -178.256)" fill="#ffcd00"/>
        <path id="Path_717" data-name="Path 717" d="M336,409.59c-.722,0-1.422-.1-1.66-.423a.507.507,0,0,1,0-.584.676.676,0,0,1,.43-.315c.93-.254,2.912.868,3,.914a.138.138,0,0,1,.061.138.131.131,0,0,1-.108.108,9.349,9.349,0,0,1-1.721.161Zm-.9-1.091a.882.882,0,0,0-.254,0,.392.392,0,0,0-.261.184c-.1.169-.061.246,0,.292.254.353,1.683.377,2.743.231a6.048,6.048,0,0,0-2.228-.692Z" transform="translate(-277.709 -178.654)" fill="#ffcd00"/>
        <path id="Path_718" data-name="Path 718" d="M338.151,409.053H338.1c-.684-.3-2.029-1.537-1.929-2.159,0-.154.131-.338.5-.377a.938.938,0,0,1,.768.231,3.772,3.772,0,0,1,.876,2.175.117.117,0,0,1-.161.131Zm-1.375-2.305h-.085c-.238,0-.254.123-.261.154-.061.384.861,1.345,1.537,1.76a3.074,3.074,0,0,0-.768-1.737.668.668,0,0,0-.392-.161Z" transform="translate(-278.152 -178.254)" fill="#ffcd00"/>
        <path id="Path_719" data-name="Path 719" d="M344.959,405.7h-5.648l-.561-13.071H344.4Z" transform="translate(-278.751 -175.041)" fill="#e4897b"/>
        <path id="Path_720" data-name="Path 720" d="M388.383,405.7h-5.648L379.9,392.63h5.64Z" transform="translate(-288.28 -175.041)" fill="#e4897b"/>
        <path id="Path_721" data-name="Path 721" d="M380.414,408.79h6.34a.5.5,0,0,1,.484.392l1.114,5.018a.83.83,0,0,1-.83,1c-2.213-.038-3.289-.169-6.078-.169-1.714,0-5.248.184-7.623.184s-2.674-2.305-1.706-2.559c4.349-.953,5.986-2.267,7.377-3.512A1.368,1.368,0,0,1,380.414,408.79Z" transform="translate(-286.357 -178.783)" fill="#263238"/>
        <path id="Path_722" data-name="Path 722" d="M335.417,408.79h6.147a.5.5,0,0,1,.484.392l1.114,5.018a.822.822,0,0,1-.815,1c-2.221-.038-5.433-.169-8.23-.169-3.266,0-6.094.184-9.928.184-2.305,0-2.958-2.305-1.99-2.559,4.418-.968,8.022-1.068,11.842-3.419A2.582,2.582,0,0,1,335.417,408.79Z" transform="translate(-274.818 -178.783)" fill="#263238"/>
        <path id="Path_723" data-name="Path 723" d="M320.925,161.817a130.011,130.011,0,0,1-14.07-1.867c-2.305-.446-4.657-.945-6.993-1.575a56.2,56.2,0,0,1-7.039-2.305c-.592-.246-1.191-.515-1.783-.768a15.729,15.729,0,0,1-1.921-1.122c-1.107-.73-2.059-1.491-3-2.244-1.883-1.537-3.627-3.074-5.379-4.649-3.435-3.181-6.693-6.47-9.836-9.928l2.828-3.158,11.15,8.015c1.837,1.322,3.7,2.62,5.525,3.842.907.607,1.837,1.176,2.69,1.66a9.341,9.341,0,0,0,1.107.538c.453.177.914.353,1.4.523a82.987,82.987,0,0,0,12.7,2.843c4.388.692,8.921,1.26,13.3,1.721Z" transform="translate(-263.039 -115.197)" fill="#e4897b"/>
        <path id="Path_724" data-name="Path 724" d="M367,158.848c5.295,1.214,10.643,16.683,10.643,16.683l-10.889,7.815s-3.074-7.208-6.04-13.509C357.607,163.236,361.588,157.611,367,158.848Z" transform="translate(-283.584 -120.865)" fill="#ffcd00"/>
        <path id="Path_725" data-name="Path 725" d="M367,158.848c5.295,1.214,10.643,16.683,10.643,16.683l-10.889,7.815s-3.074-7.208-6.04-13.509C357.607,163.236,361.588,157.611,367,158.848Z" transform="translate(-283.584 -120.865)" opacity="0.4"/>
        <path id="Path_726" data-name="Path 726" d="M364.6,169.9l-2.159,4.833c2.236,4.826,4.28,9.605,4.826,10.881C367.189,179.9,366.105,172.82,364.6,169.9Z" transform="translate(-284.237 -123.464)" fill="#407bff"/>
        <path id="Path_727" data-name="Path 727" d="M364.6,169.9l-2.159,4.833c2.236,4.826,4.28,9.605,4.826,10.881C367.189,179.9,366.105,172.82,364.6,169.9Z" transform="translate(-284.237 -123.464)" opacity="0.6"/>
        <path id="Path_728" data-name="Path 728" d="M327.234,158.752s-6.009,6.785-.338,48.8h30.192c.215-4.611-2.7-27.249,1.767-49.087a78.811,78.811,0,0,0-10.1-1.276,111.636,111.636,0,0,0-12.833,0A56.479,56.479,0,0,0,327.234,158.752Z" transform="translate(-275.442 -120.476)" fill="#ffcd00"/>
        <path id="Path_729" data-name="Path 729" d="M327.234,158.752s-6.009,6.785-.338,48.8h30.192c.215-4.611-2.7-27.249,1.767-49.087a78.811,78.811,0,0,0-10.1-1.276,111.636,111.636,0,0,0-12.833,0A56.479,56.479,0,0,0,327.234,158.752Z" transform="translate(-275.345 -120.475)" opacity="0.4"/>
        <path id="Path_730" data-name="Path 730" d="M325.023,169.9c-.2,1.591-.353,3.473-.453,5.694a31.567,31.567,0,0,0,8.407-3.95Z" transform="translate(-275.467 -123.464)" fill="#407bff"/>
        <path id="Path_731" data-name="Path 731" d="M325.023,169.9c-.2,1.591-.353,3.473-.453,5.694a31.567,31.567,0,0,0,8.407-3.95Z" transform="translate(-275.467 -123.464)" opacity="0.6"/>
        <path id="Path_732" data-name="Path 732" d="M335.979,167.469c-4.042,3.581-19.472,3.22-19.472,3.22L316,155.75a113.855,113.855,0,0,0,15.73,1.137C340.329,156.711,340.39,163.519,335.979,167.469Z" transform="translate(-273.483 -120.187)" fill="#ffcd00"/>
        <path id="Path_733" data-name="Path 733" d="M335.979,167.469c-4.042,3.581-19.472,3.22-19.472,3.22L316,155.75a113.855,113.855,0,0,0,15.73,1.137C340.329,156.711,340.39,163.519,335.979,167.469Z" transform="translate(-273.483 -120.187)" opacity="0.4"/>
        <path id="Path_734" data-name="Path 734" d="M272.364,132.876l-3.842-4.526-4.142,4.611s2.551,4.288,6.6,3.612Z" transform="translate(-261.529 -113.842)" fill="#e4897b"/>
        <path id="Path_735" data-name="Path 735" d="M262.161,121.48l-1.491,5.909,2.82,3.95,4.142-4.58Z" transform="translate(-260.67 -112.251)" fill="#e4897b"/>
        <path id="Path_736" data-name="Path 736" d="M338.75,392.64l.292,6.731h5.648l-.292-6.731Z" transform="translate(-278.751 -175.043)" fill="#ce6f64"/>
        <path id="Path_737" data-name="Path 737" d="M385.548,392.64H379.9l1.46,6.731h5.648Z" transform="translate(-288.28 -175.043)" fill="#ce6f64"/>
        <path id="Path_738" data-name="Path 738" d="M342.083,119.867c-5.064-2.305-6.662-12.549,7.907-9.99,0,0-2.2,2.428,2.259,3.965S352.98,124.869,342.083,119.867Z" transform="translate(-278.688 -109.47)" fill="#263238"/>
        <path id="Path_739" data-name="Path 739" d="M352.409,130.074c-1.452,5.379-2.021,8.653-5.379,10.9-5.026,3.381-11.273-.5-11.473-6.24-.177-5.156,2.228-13.14,8.03-14.231a7.638,7.638,0,0,1,8.822,9.567Z" transform="translate(-278.009 -111.993)" fill="#e4897b"/>
        <path id="Path_740" data-name="Path 740" d="M351.2,113.244c3.45,1.921,8.122,3.074,7.684,5.809-.576,3.343,2.82,1.253,2.029,6.224-.515,3.25-6.509,13.1-10.758,12.625-6.347-.768-5.54-10.42-5.563-15.507C344.578,119.392,344.44,109.456,351.2,113.244Z" transform="translate(-280.099 -110.147)" fill="#263238"/>
        <path id="Path_741" data-name="Path 741" d="M343.122,119.11c-1.537.361-3.573,9.221,2.382,10.036C352.351,130.076,343.122,119.11,343.122,119.11Z" transform="translate(-279.388 -111.702)" fill="#263238"/>
        <path id="Path_742" data-name="Path 742" d="M342.1,121.54c-1.883.169-6.147-2.1-5.625-5.51C336.477,116.007,339.174,120.018,342.1,121.54Z" transform="translate(-278.214 -110.989)" fill="#263238"/>
        <path id="Path_743" data-name="Path 743" d="M345.932,132.213a6.309,6.309,0,0,1-2.789,2.958c-1.621.845-2.536-.384-2.167-2.013.33-1.46,1.575-3.665,3.243-3.842S346.6,130.676,345.932,132.213Z" transform="translate(-279.247 -114.062)" fill="#e4897b"/>
        <path id="Path_744" data-name="Path 744" d="M358.45,123.3a7.569,7.569,0,0,0,4.442-5.633S365.427,124.717,358.45,123.3Z" transform="translate(-283.313 -111.369)" fill="#263238"/>
        <path id="Path_745" data-name="Path 745" d="M365.683,124.361A3.9,3.9,0,0,0,362.01,124S364.377,120.934,365.683,124.361Z" transform="translate(-284.137 -112.542)" fill="#263238"/>
        <path id="Path_746" data-name="Path 746" d="M341.57,222.771s6.409,43.14,9.92,59.3c3.842,17.674,18.366,76.659,18.366,76.659h10.335s-9.567-57.533-11.765-75.084c-2.382-19.019-7.377-60.906-7.377-60.906Z" transform="translate(-279.404 -135.7)" fill="#424242"/>
        <path id="Path_748" data-name="Path 748" d="M376.23,394.75c-.046,0,1.068,3.973,1.068,3.973h11.634l-.215-3.542Z" transform="translate(-287.43 -175.532)" fill="#ffcd00"/>
        <path id="Path_749" data-name="Path 749" d="M376.23,394.75c-.046,0,1.068,3.973,1.068,3.973h11.634l-.215-3.542Z" transform="translate(-287.43 -175.531)" opacity="0.1"/>
        <path id="Path_750" data-name="Path 750" d="M346.337,242.762c7.408,1.452,6.624,29.077,5.733,43.286-2.136-10.043-5.264-29.369-7.4-43.086A2.528,2.528,0,0,1,346.337,242.762Z" transform="translate(-280.122 -140.322)" fill="#353638"/>
        <path id="Path_751" data-name="Path 751" d="M346.337,242.762c7.408,1.452,6.624,29.077,5.733,43.286-2.136-10.043-5.264-29.369-7.4-43.086A2.528,2.528,0,0,1,346.337,242.762Z" transform="translate(-280.122 -140.322)" fill="#353535" opacity="0.4"/>
        <path id="Path_752" data-name="Path 752" d="M327.511,222.78s-.768,42.2-.161,59.423c.638,17.9,6.916,76.536,6.916,76.536h9.559s.353-57.586.768-75.168c.469-19.172,2.782-60.791,2.782-60.791Z" transform="translate(-276.057 -135.709)" fill="#424242"/>
        <path id="Path_754" data-name="Path 754" d="M337.049,352.818a.092.092,0,0,1-.092-.085c-1.691-16.229-5.663-55.5-6.147-69.582-.515-14.377-.046-46.636.108-56.18a.092.092,0,0,1,.092-.092h0a.1.1,0,0,1,.1.092c-.154,9.544-.622,41.8-.108,56.172.5,14.085,4.472,53.337,6.147,69.566a.108.108,0,0,1-.092.108Z" transform="translate(-276.858 -136.658)" fill="#407bff"/>
        <path id="Path_755" data-name="Path 755" d="M337.049,352.818a.092.092,0,0,1-.092-.085c-1.691-16.229-5.663-55.5-6.147-69.582-.515-14.377-.046-46.636.108-56.18a.092.092,0,0,1,.092-.092h0a.1.1,0,0,1,.1.092c-.154,9.544-.622,41.8-.108,56.172.5,14.085,4.472,53.337,6.147,69.566a.108.108,0,0,1-.092.108Z" transform="translate(-276.858 -136.658)" fill="#fff" opacity="0.4"/>
        <path id="Path_756" data-name="Path 756" d="M334,394.75c-.038,0,.546,3.973.546,3.973h11.626l.315-3.542Z" transform="translate(-277.65 -175.532)" fill="#ffcd00"/>
        <path id="Path_757" data-name="Path 757" d="M334,394.75c-.038,0,.546,3.973.546,3.973h11.626l.315-3.542Z" transform="translate(-277.65 -175.531)" opacity="0.1"/>
      </g>
    </g>
  </g>
</svg>
