<svg xmlns="http://www.w3.org/2000/svg" width="37.328" height="37.328" viewBox="0 0 37.328 37.328">
  <path id="Icon_awesome-link" data-name="Icon awesome-link" d="M23.812,13.516a11.076,11.076,0,0,1,.026,15.645l-.026.027-4.9,4.9A11.082,11.082,0,0,1,3.241,18.415L5.946,15.71a1.165,1.165,0,0,1,1.99.773,13.434,13.434,0,0,0,.706,3.844,1.173,1.173,0,0,1-.276,1.211l-.954.954a5.249,5.249,0,1,0,7.376,7.471l4.9-4.9a5.248,5.248,0,0,0,0-7.424,5.461,5.461,0,0,0-.754-.625,1.169,1.169,0,0,1-.506-.919,2.9,2.9,0,0,1,.853-2.173l1.535-1.535a1.171,1.171,0,0,1,1.5-.126,11.117,11.117,0,0,1,1.5,1.254ZM34.087,3.241a11.094,11.094,0,0,0-15.672,0l-4.9,4.9-.026.027a11.084,11.084,0,0,0,1.522,16.9,1.171,1.171,0,0,0,1.5-.126L18.048,23.4a2.9,2.9,0,0,0,.853-2.173,1.169,1.169,0,0,0-.506-.919,5.461,5.461,0,0,1-.754-.625,5.248,5.248,0,0,1,0-7.424l4.9-4.9a5.249,5.249,0,1,1,7.376,7.471l-.954.954A1.173,1.173,0,0,0,28.685,17a13.434,13.434,0,0,1,.706,3.844,1.166,1.166,0,0,0,1.99.773l2.705-2.705a11.093,11.093,0,0,0,0-15.672Z" transform="translate(0)" fill="#ffcd00"/>
</svg>
