<svg xmlns="http://www.w3.org/2000/svg" width="89.312" height="89.313" viewBox="0 0 89.312 89.313">
  <g id="institution" transform="translate(-2 -1.999)">
    <path id="Path_1126" data-name="Path 1126" d="M28,38h2.977v2.977H28Z" transform="translate(12.702 17.587)"/>
    <path id="Path_1127" data-name="Path 1127" d="M34,38h2.977v2.977H34Z" transform="translate(15.633 17.587)"/>
    <path id="Path_1128" data-name="Path 1128" d="M28,44h2.977v2.977H28Z" transform="translate(12.702 20.518)"/>
    <path id="Path_1129" data-name="Path 1129" d="M34,44h2.977v2.977H34Z" transform="translate(15.633 20.518)"/>
    <path id="Path_1130" data-name="Path 1130" d="M42,42h2.977v2.977H42Z" transform="translate(19.541 19.541)"/>
    <path id="Path_1131" data-name="Path 1131" d="M46,42h2.977v2.977H46Z" transform="translate(21.495 19.541)"/>
    <path id="Path_1132" data-name="Path 1132" d="M42,48h2.977v2.977H42Z" transform="translate(19.541 22.473)"/>
    <path id="Path_1133" data-name="Path 1133" d="M46,48h2.977v2.977H46Z" transform="translate(21.495 22.473)"/>
    <path id="Path_1134" data-name="Path 1134" d="M16,42h2.977v2.977H16Z" transform="translate(6.839 19.541)"/>
    <path id="Path_1135" data-name="Path 1135" d="M20,42h2.977v2.977H20Z" transform="translate(8.793 19.541)"/>
    <path id="Path_1136" data-name="Path 1136" d="M16,48h2.977v2.977H16Z" transform="translate(6.839 22.473)"/>
    <path id="Path_1137" data-name="Path 1137" d="M20,48h2.977v2.977H20Z" transform="translate(8.793 22.473)"/>
    <path id="Path_1138" data-name="Path 1138" d="M86.846,73.627a19.659,19.659,0,0,0-.386-25.344,1.532,1.532,0,0,0-2.206,0,19.659,19.659,0,0,0-.386,25.344v5.426H76.426V47.794a1.489,1.489,0,0,0-1.489-1.489H71.961v-15.8l2.977.993v2.9a1.489,1.489,0,0,0,1.128,1.444l11.908,2.977a1.489,1.489,0,0,0,1.6-2.27l-2.042-3.062L89,32.752a1.489,1.489,0,0,0-.305-2.776l-7.8-1.951V25.466a1.489,1.489,0,0,0-1.018-1.411l-8.931-2.977a1.474,1.474,0,0,0-1.34.2,1.489,1.489,0,0,0-.619,1.209V46.305H58.564V41.84a1.489,1.489,0,0,0-.269-.853L47.875,26.1a1.542,1.542,0,0,0-2.438,0L35.017,40.987a1.489,1.489,0,0,0-.269.853v4.466H24.328V22.489a1.485,1.485,0,0,0-1.957-1.411l-8.931,2.977a1.489,1.489,0,0,0-1.02,1.411v2.559l-7.8,1.951a1.489,1.489,0,0,0-.305,2.784l1.469.734L3.739,36.548a1.489,1.489,0,0,0,1.6,2.27l11.908-2.977A1.489,1.489,0,0,0,18.374,34.4V31.5l2.977-.993v15.8H18.374a1.489,1.489,0,0,0-1.489,1.489V79.053H9.443V73.627a19.659,19.659,0,0,0-.386-25.344,1.532,1.532,0,0,0-2.206,0,19.659,19.659,0,0,0-.386,25.344v5.426H2V82.03H91.312V79.053H86.846ZM71.961,24.555l5.954,1.984v2.648a1.489,1.489,0,0,0,1.128,1.444l5.193,1.3a1.472,1.472,0,0,0-.319.6,1.489,1.489,0,0,0,.2,1.209L84.96,35l-7.045-1.761V30.427A1.489,1.489,0,0,0,76.9,29.016L71.961,27.37ZM6.466,68.12A16.792,16.792,0,0,1,7.954,51.654,16.792,16.792,0,0,1,9.443,68.12V59.7H6.466Zm9.949-39.1A1.489,1.489,0,0,0,15.4,30.427v2.807L8.352,34.992l.841-1.261a1.489,1.489,0,0,0,.2-1.209,1.472,1.472,0,0,0-.319-.6l5.193-1.3A1.489,1.489,0,0,0,15.4,29.187V26.539l5.954-1.984V27.37ZM34.748,79.053H19.862V49.282H34.748Zm14.885,0H43.679V70.122h5.954Zm5.954-31.259V79.053H52.61V68.633a1.489,1.489,0,0,0-1.489-1.489H42.19A1.489,1.489,0,0,0,40.7,68.633v10.42H37.725V42.309L46.656,29.55l8.931,12.758ZM73.449,79.053H58.564V49.282H73.449ZM83.869,68.12a16.792,16.792,0,0,1,1.489-16.466A16.792,16.792,0,0,1,86.846,68.12V59.7H83.869Z" transform="translate(0 9.282)"/>
    <path id="Path_1139" data-name="Path 1139" d="M68.077,19.863V12.477l.4-.11a1.489,1.489,0,0,0,0-2.87L41.682,2.054a1.489,1.489,0,0,0-.8,0L14.091,9.5a1.489,1.489,0,0,0,0,2.87l9.33,2.592v3.416a10.433,10.433,0,0,0,10.42,10.42H48.726a10.433,10.433,0,0,0,10.42-10.42V14.958L65.1,13.3v6.558ZM56.168,18.374a7.452,7.452,0,0,1-7.443,7.443H33.84A7.452,7.452,0,0,1,26.4,18.374v-2.59L40.884,19.8a1.512,1.512,0,0,0,.8,0l14.486-4.019ZM41.283,16.829l-21.232-5.9,21.232-5.9,21.232,5.9Z" transform="translate(5.373)"/>
  </g>
</svg>
